<svg width="180" height="45" viewBox="0 0 180 45" fill="none" xmlns="http://www.w3.org/2000/svg">
<g clip-path="url(#clip0_2116_4196)">
<path d="M54.1709 31.2637H66.9008V27.4294H58.6954V12.9868H54.1709V31.2637Z" fill="#696968"/>
<path d="M74.4426 28.7076C72.6277 28.7076 71.6819 27.1227 71.6819 24.7455C71.6819 22.3682 72.6277 20.7578 74.4426 20.7578C76.2575 20.7578 77.2288 22.3682 77.2288 24.7455C77.2288 27.1227 76.2575 28.7076 74.4426 28.7076ZM74.4681 31.6728C78.6859 31.6728 81.4466 28.682 81.4466 24.7455C81.4466 20.8089 78.6859 17.8181 74.4681 17.8181C70.2759 17.8181 67.4641 20.8089 67.4641 24.7455C67.4641 28.682 70.2759 31.6728 74.4681 31.6728Z" fill="#696968"/>
<path d="M88.7472 35.7882C90.6899 35.7882 92.4025 35.3537 93.5528 34.3312C94.6009 33.3854 95.2911 31.9539 95.2911 29.9856V18.1759H91.3034V19.5818H91.2522C90.4854 18.4827 89.3095 17.7925 87.5713 17.7925C84.3249 17.7925 82.0754 20.5021 82.0754 24.3364C82.0754 28.3496 84.8106 30.548 87.7502 30.548C89.3351 30.548 90.332 29.9089 91.0989 29.0398H91.2011V30.3435C91.2011 31.9283 90.4598 32.8486 88.696 32.8486C87.3157 32.8486 86.6255 32.2606 86.3954 31.5705H82.3566C82.7656 34.3056 85.1429 35.7882 88.7472 35.7882ZM88.7216 27.455C87.1623 27.455 86.1398 26.1769 86.1398 24.2086C86.1398 22.2147 87.1623 20.9366 88.7216 20.9366C90.4598 20.9366 91.3801 22.4192 91.3801 24.183C91.3801 26.0235 90.5365 27.455 88.7216 27.455Z" fill="#696968"/>
<path d="M103.49 28.7076C101.676 28.7076 100.73 27.1227 100.73 24.7455C100.73 22.3682 101.676 20.7578 103.49 20.7578C105.305 20.7578 106.277 22.3682 106.277 24.7455C106.277 27.1227 105.305 28.7076 103.49 28.7076ZM103.516 31.6728C107.734 31.6728 110.494 28.682 110.494 24.7455C110.494 20.8089 107.734 17.8181 103.516 17.8181C99.3238 17.8181 96.512 20.8089 96.512 24.7455C96.512 28.682 99.3238 31.6728 103.516 31.6728Z" fill="#696968"/>
<path d="M111.711 31.2637H115.877V18.1759H111.711V31.2637ZM111.711 16.361H115.877V12.9868H111.711V16.361Z" fill="#696968"/>
<path d="M117.686 35.5837H121.852V29.9089H121.903C122.721 31.0081 123.923 31.6727 125.61 31.6727C129.035 31.6727 131.31 28.9631 131.31 24.7198C131.31 20.7832 129.189 17.7925 125.712 17.7925C123.923 17.7925 122.645 18.5849 121.75 19.7608H121.673V18.1759H117.686V35.5837ZM124.536 28.4519C122.747 28.4519 121.724 26.9948 121.724 24.8732C121.724 22.7515 122.645 21.1411 124.46 21.1411C126.249 21.1411 127.092 22.6237 127.092 24.8732C127.092 27.0971 126.121 28.4519 124.536 28.4519Z" fill="#696968"/>
<path d="M138.094 31.6727C141.52 31.6727 144.05 30.1901 144.05 27.3272C144.05 23.9785 141.341 23.3906 139.04 23.0072C137.379 22.7004 135.896 22.5726 135.896 21.6524C135.896 20.8344 136.689 20.4509 137.711 20.4509C138.861 20.4509 139.654 20.8088 139.807 21.9847H143.641C143.437 19.4029 141.443 17.7925 137.737 17.7925C134.644 17.7925 132.087 19.224 132.087 21.9847C132.087 25.0521 134.516 25.6656 136.791 26.049C138.529 26.3558 140.114 26.4836 140.114 27.6595C140.114 28.503 139.321 28.9631 138.069 28.9631C136.689 28.9631 135.819 28.3241 135.666 27.0204H131.729C131.857 29.9089 134.26 31.6727 138.094 31.6727Z" fill="#696968"/>
<path d="M149.71 31.6473C151.525 31.6473 152.675 30.9315 153.621 29.6534H153.697V31.2638H157.685V18.176H153.518V25.4868C153.518 27.0461 152.649 28.1197 151.218 28.1197C149.889 28.1197 149.249 27.3273 149.249 25.8958V18.176H145.108V26.7649C145.108 29.679 146.693 31.6473 149.71 31.6473Z" fill="#696968"/>
<path d="M159.497 31.2637H163.664V23.9274C163.664 22.3681 164.431 21.2689 165.734 21.2689C166.987 21.2689 167.575 22.0869 167.575 23.4928V31.2637H171.741V23.9274C171.741 22.3681 172.483 21.2689 173.812 21.2689C175.064 21.2689 175.652 22.0869 175.652 23.4928V31.2637H179.819V22.7515C179.819 19.8119 178.336 17.7925 175.371 17.7925C173.684 17.7925 172.278 18.5082 171.256 20.0931H171.205C170.54 18.6872 169.236 17.7925 167.524 17.7925C165.632 17.7925 164.379 18.6872 163.561 20.0419H163.485V18.1759H159.497V31.2637Z" fill="#696968"/>
<path fill-rule="evenodd" clip-rule="evenodd" d="M22.0301 1.02466C34.0249 1.02466 43.7487 10.7484 43.7487 22.7432C43.7487 34.7381 34.0249 44.4618 22.0301 44.4618C10.0352 44.4618 0.311523 34.7381 0.311523 22.7432C0.311523 10.7484 10.0352 1.02466 22.0301 1.02466ZM42.915 22.7432C42.915 11.2088 33.5645 1.85822 22.0301 1.85822C21.0997 1.85822 20.1836 1.91906 19.2853 2.03697C19.8657 1.98623 20.4529 1.96033 21.0464 1.96033C32.0682 1.96033 41.0031 10.8952 41.0031 21.917C41.0031 32.9386 32.0682 41.8736 21.0464 41.8736C10.6118 41.8736 2.04761 33.8653 1.16483 23.6595C1.64439 34.7688 10.8026 43.6282 22.0301 43.6282C33.5645 43.6282 42.915 34.2777 42.915 22.7432ZM40.1694 21.917C40.1694 11.3556 31.6078 2.7939 21.0464 2.7939C20.1889 2.7939 19.3445 2.85035 18.5168 2.95972C19.0265 2.91684 19.5421 2.89497 20.0628 2.89497C30.1115 2.89497 38.2575 11.041 38.2575 21.0896C38.2575 31.1383 30.1115 39.2843 20.0628 39.2843C10.5615 39.2843 2.76125 32.0016 1.93967 22.7138C2.35739 32.9056 10.752 41.04 21.0464 41.04C31.6078 41.04 40.1694 32.4783 40.1694 21.917ZM20.0628 3.72854C29.651 3.72854 37.424 11.5014 37.424 21.0896C37.424 30.6779 29.651 38.4507 20.0628 38.4507C10.6967 38.4507 3.06283 31.0338 2.71418 21.753C3.46693 30.1299 10.5064 36.695 19.0793 36.695C28.1542 36.695 35.511 29.3383 35.511 20.2633C35.511 11.1883 28.1542 3.83168 19.0793 3.83168C18.6098 3.83168 18.1449 3.85137 17.6854 3.88996C18.4627 3.78353 19.2563 3.72854 20.0628 3.72854ZM34.6773 20.2633C34.6773 11.6488 27.6938 4.66525 19.0793 4.66525C18.3514 4.66525 17.6351 4.7151 16.9339 4.81157C17.3168 4.7816 17.7038 4.76634 18.0945 4.76634C26.1964 4.76634 32.7643 11.3342 32.7643 19.4361C32.7643 27.5379 26.1964 34.1058 18.0945 34.1058C10.4689 34.1058 4.2022 28.2873 3.49188 20.8477C3.79919 29.1915 10.6603 35.8614 19.0793 35.8614C27.6938 35.8614 34.6773 28.878 34.6773 20.2633ZM18.0945 5.5999C25.736 5.5999 31.9307 11.7946 31.9307 19.4361C31.9307 27.0775 25.736 33.2722 18.0945 33.2722C10.6036 33.2722 4.50302 27.3192 4.26557 19.886C4.90689 26.4152 10.4132 31.5165 17.1109 31.5165C24.2398 31.5165 30.0187 25.7375 30.0187 18.6087C30.0187 11.48 24.2398 5.70096 17.1109 5.70096C16.784 5.70096 16.4599 5.71312 16.1391 5.737C16.778 5.64663 17.4308 5.5999 18.0945 5.5999ZM29.1852 18.6087C29.1852 11.9403 23.7793 6.53453 17.1109 6.53453C16.5022 6.53453 15.9041 6.57958 15.3195 6.66651C15.5863 6.6474 15.8557 6.63768 16.1274 6.63768C22.2824 6.63768 27.2722 11.6274 27.2722 17.7824C27.2722 23.9376 22.2824 28.9272 16.1274 28.9272C10.3597 28.9272 5.61537 24.5459 5.04094 18.9299C5.21123 25.4499 10.55 30.683 17.1109 30.683C23.7793 30.683 29.1852 25.2771 29.1852 18.6087ZM16.1274 7.47125C21.8221 7.47125 26.4385 12.0877 26.4385 17.7824C26.4385 23.4772 21.8221 28.0936 16.1274 28.0936C10.5051 28.0936 5.93382 23.594 5.81838 17.9994C6.33775 22.6899 10.3147 26.338 15.1438 26.338C20.3258 26.338 24.5266 22.1371 24.5266 16.9552C24.5266 11.7732 20.3258 7.57231 15.1438 7.57231C14.9456 7.57231 14.7489 7.57846 14.5537 7.59057C15.0668 7.512 15.5923 7.47125 16.1274 7.47125ZM23.693 16.9552C23.693 12.2335 19.8654 8.40588 15.1438 8.40588C14.6696 8.40588 14.2045 8.44448 13.7513 8.51871C13.8863 8.51159 14.0223 8.50799 14.1591 8.50799C18.3679 8.50799 21.7799 11.92 21.7799 16.1289C21.7799 20.3378 18.3679 23.7498 14.1591 23.7498C10.2673 23.7498 7.05689 20.8325 6.5952 17.0655C6.65431 21.7363 10.459 25.5044 15.1438 25.5044C19.8654 25.5044 23.693 21.6768 23.693 16.9552ZM14.1591 9.34155C17.9076 9.34155 20.9464 12.3803 20.9464 16.1289C20.9464 19.8774 17.9076 22.9161 14.1591 22.9161C10.4105 22.9161 7.37177 19.8774 7.37177 16.1289C7.37177 16.1199 7.37179 16.1109 7.37182 16.1019C7.76209 18.9585 10.2118 21.1595 13.1755 21.1595C16.4107 21.1595 19.0334 18.5368 19.0334 15.3016C19.0334 12.0663 16.4107 9.44369 13.1755 9.44369C13.1023 9.44369 13.0295 9.44502 12.957 9.44768C13.3471 9.37795 13.7488 9.34155 14.1591 9.34155ZM18.1997 15.3016C18.1997 12.5267 15.9504 10.2772 13.1755 10.2772C10.4006 10.2772 8.15117 12.5267 8.15117 15.3016C8.15117 18.0764 10.4006 20.3258 13.1755 20.3258C15.9504 20.3258 18.1997 18.0764 18.1997 15.3016Z" fill="#696968"/>
</g>
<defs>
<clipPath id="clip0_2116_4196">
<rect width="180" height="44.7337" fill="white"/>
</clipPath>
</defs>
</svg>
