<svg width="180" height="45" viewBox="0 0 180 45" fill="none" xmlns="http://www.w3.org/2000/svg">
<path d="M28.9512 22.3965C30.4201 21.1664 31.3542 19.3187 31.3542 17.2528C31.3542 15.1871 30.4201 13.3394 28.9512 12.1093C29.1195 12.0278 29.2815 11.9393 29.4359 11.8434C30.4102 11.2376 31.5602 10.8877 32.792 10.8877C36.3074 10.8877 39.1572 13.7375 39.1572 17.2528C39.1572 20.7682 36.3074 23.618 32.792 23.618C31.5602 23.618 30.4102 23.2681 29.4359 22.6624C29.2815 22.5665 29.1195 22.478 28.9512 22.3965Z" fill="#696968"/>
<path d="M27.1837 18.2548C27.8407 16.455 27.7259 14.3878 26.693 12.5988C25.66 10.8097 23.9272 9.67667 22.04 9.34584C22.1451 9.19109 22.2411 9.03346 22.3267 8.87325C22.8677 7.86142 23.6887 6.98339 24.7555 6.36751C27.7999 4.60981 31.6929 5.65291 33.4505 8.69732C35.2082 11.7417 34.1651 15.6347 31.1206 17.3923C30.0539 18.0082 28.883 18.2802 27.7363 18.2428C27.5547 18.2368 27.3702 18.2412 27.1837 18.2548Z" fill="#696968"/>
<path d="M23.5818 15.5521C23.251 13.6649 22.1179 11.9321 20.3289 10.8992C18.5398 9.86628 16.4726 9.75145 14.6729 10.4085C14.6865 10.222 14.6909 10.0375 14.6849 9.8559C14.6474 8.70916 14.9194 7.53824 15.5353 6.47149C17.2931 3.42708 21.1859 2.38398 24.2304 4.14168C27.2747 5.89937 28.3179 9.79225 26.5601 12.8367C25.9443 13.9034 25.0663 14.7245 24.0544 15.2654C23.8943 15.3511 23.7366 15.4471 23.5818 15.5521Z" fill="#696968"/>
<path d="M19.1114 15.0124C17.8812 13.5435 16.0336 12.6094 13.9677 12.6094C11.9018 12.6094 10.0542 13.5435 8.82413 15.0124C8.74265 14.8441 8.65415 14.6821 8.55823 14.5277C7.95242 13.5534 7.60254 12.4034 7.60254 11.1716C7.60254 7.65619 10.4523 4.8064 13.9677 4.8064C17.4831 4.8064 20.3329 7.65619 20.3329 11.1716C20.3329 12.4034 19.983 13.5534 19.3772 14.5277C19.2812 14.6821 19.1928 14.8441 19.1114 15.0124Z" fill="#696968"/>
<path d="M14.9687 16.7804C13.1689 16.1233 11.1017 16.2382 9.31266 17.271C7.52359 18.3039 6.39055 20.0368 6.05972 21.9239C5.90498 21.8189 5.74733 21.7229 5.58712 21.6372C4.5753 21.0963 3.69726 20.2752 3.08138 19.2085C1.32368 16.1641 2.36677 12.2712 5.41119 10.5135C8.45562 8.7558 12.3485 9.7989 14.1062 12.8433C14.7221 13.9101 14.9941 15.081 14.9566 16.2277C14.9507 16.4092 14.9551 16.5938 14.9687 16.7804Z" fill="#696968"/>
<path d="M12.2644 20.3828C10.3771 20.7136 8.64432 21.8466 7.6114 23.6357C6.57848 25.4248 6.46366 27.4919 7.12074 29.2917C6.9342 29.2781 6.74962 29.2737 6.56805 29.2796C5.42132 29.3171 4.2504 29.0451 3.18366 28.4292C0.139234 26.6715 -0.903861 22.7786 0.853835 19.7342C2.61153 16.6898 6.50441 15.6466 9.54884 17.4044C10.6156 18.0203 11.4366 18.8983 11.9775 19.91C12.0632 20.0703 12.1593 20.2279 12.2644 20.3828Z" fill="#696968"/>
<path d="M11.7236 24.8545C10.2546 26.0846 9.3205 27.9322 9.3205 29.998C9.3205 32.0639 10.2546 33.9115 11.7236 35.1416C11.5552 35.223 11.3932 35.3116 11.2389 35.4075C10.2646 36.0133 9.11453 36.3632 7.88275 36.3632C4.36737 36.3632 1.51758 33.5134 1.51758 29.998C1.51758 26.4826 4.36737 23.6328 7.88275 23.6328C9.11453 23.6328 10.2646 23.9827 11.2389 24.5886C11.3932 24.6845 11.5552 24.7729 11.7236 24.8545Z" fill="#696968"/>
<path d="M13.4909 28.9968C12.8337 30.7966 12.9485 32.8638 13.9815 34.6528C15.0144 36.442 16.7472 37.5749 18.6344 37.9058C18.5293 38.0606 18.4333 38.2182 18.3477 38.3785C17.8068 39.3902 16.9857 40.2682 15.919 40.8841C12.8745 42.6419 8.98165 41.5987 7.22396 38.5544C5.46625 35.5099 6.50936 31.6171 9.55377 29.8593C10.6205 29.2434 11.7915 28.9714 12.9382 29.0089C13.1197 29.0148 13.3043 29.0105 13.4909 28.9968Z" fill="#696968"/>
<path d="M17.0929 31.7009C17.4237 33.5881 18.5568 35.3209 20.3458 36.3538C22.1349 37.3867 24.2022 37.5015 26.0019 36.8445C25.9883 37.031 25.9839 37.2155 25.9898 37.3972C26.0273 38.5439 25.7553 39.7148 25.1395 40.7815C23.3817 43.826 19.4889 44.869 16.4444 43.1113C13.3999 41.3536 12.3569 37.4608 14.1146 34.4163C14.7305 33.3496 15.6085 32.5286 16.6203 31.9876C16.7805 31.902 16.9382 31.8059 17.0929 31.7009Z" fill="#696968"/>
<path d="M21.565 32.2415C22.7952 33.7104 24.6428 34.6445 26.7087 34.6445C28.7746 34.6445 30.6222 33.7104 31.8523 32.2415C31.9337 32.4098 32.0222 32.5718 32.1182 32.726C32.724 33.7004 33.0739 34.8505 33.0739 36.0823C33.0739 39.5977 30.2241 42.4475 26.7087 42.4475C23.1933 42.4475 20.3435 39.5977 20.3435 36.0823C20.3435 34.8505 20.6934 33.7004 21.2992 32.726C21.3952 32.5718 21.4836 32.4098 21.565 32.2415Z" fill="#696968"/>
<path d="M25.708 30.4741C27.5078 31.1312 29.5749 31.0163 31.364 29.9835C33.1531 28.9506 34.2861 27.2177 34.6169 25.3306C34.7717 25.4355 34.9293 25.5316 35.0895 25.6173C36.1014 26.1582 36.9794 26.9793 37.5953 28.046C39.3531 31.0904 38.3099 34.9833 35.2655 36.741C32.2211 38.4987 28.3282 37.4556 26.5705 34.4112C25.9546 33.3444 25.6826 32.1735 25.72 31.0268C25.726 30.8453 25.7217 30.6607 25.708 30.4741Z" fill="#696968"/>
<path d="M33.0688 23.6122C33.0675 23.6144 33.0662 23.6166 33.0649 23.6189C32.0321 25.4079 30.2993 26.541 28.4121 26.8718C28.5171 27.0266 28.6132 27.1843 28.6988 27.3444C29.2398 28.3563 30.0608 29.2343 31.1275 29.8502C34.172 31.6079 38.0648 30.5648 39.8226 27.5204C41.3294 24.9103 40.7778 21.6766 38.6713 19.6995C37.7459 21.9203 35.5985 23.5044 33.0688 23.6122Z" fill="#696968"/>
<path d="M55.6009 11.5915V30.6021H51.3877V11.5915H55.6009ZM52.0556 30.6021L52.1326 26.8771H63.0509V30.6021H52.0556ZM63.7103 24.1539C63.7103 22.8009 63.9929 21.6192 64.558 20.6087C65.1232 19.5811 65.9196 18.7847 66.9472 18.2195C67.9748 17.6544 69.1736 17.3718 70.5438 17.3718C71.9139 17.3718 73.1042 17.6544 74.1146 18.2195C75.1423 18.7847 75.9386 19.5811 76.5038 20.6087C77.069 21.6192 77.3516 22.8009 77.3516 24.1539C77.3516 25.5069 77.069 26.6887 76.5038 27.6992C75.9386 28.7096 75.1423 29.4974 74.1146 30.0626C73.1042 30.6278 71.9139 30.9104 70.5438 30.9104C69.1736 30.9104 67.9748 30.6278 66.9472 30.0626C65.9196 29.4974 65.1232 28.7096 64.558 27.6992C63.9929 26.6887 63.7103 25.5069 63.7103 24.1539ZM67.6922 24.1282C67.6922 24.7791 67.812 25.3528 68.0518 25.8495C68.2916 26.3291 68.6256 26.7058 69.0537 26.9799C69.4819 27.2367 69.9786 27.3652 70.5438 27.3652C71.109 27.3652 71.6056 27.2367 72.0338 26.9799C72.4619 26.7058 72.7873 26.3291 73.01 25.8495C73.2498 25.3528 73.3697 24.7791 73.3697 24.1282C73.3697 23.4774 73.2498 22.9122 73.01 22.4327C72.7873 21.9532 72.4619 21.5849 72.0338 21.328C71.6056 21.054 71.109 20.9169 70.5438 20.9169C69.9786 20.9169 69.4819 21.054 69.0537 21.328C68.6256 21.5849 68.2916 21.9532 68.0518 22.4327C67.812 22.9122 67.6922 23.4774 67.6922 24.1282ZM78.245 23.9485C78.245 22.6297 78.5104 21.4737 79.0413 20.4802C79.5723 19.4869 80.3002 18.7162 81.225 18.1681C82.1498 17.6029 83.2117 17.3204 84.4105 17.3204C85.421 17.3204 86.3116 17.5259 87.0823 17.9369C87.8702 18.348 88.401 18.8875 88.6751 19.5554L88.2897 19.8124L88.598 17.7572H92.1689V29.78C92.1689 31.2872 91.8777 32.5888 91.2955 33.6849C90.7131 34.7981 89.8825 35.6545 88.8035 36.2539C87.7417 36.8533 86.4743 37.1531 85.0013 37.1531C83.7683 37.1531 82.6551 36.9047 81.6617 36.408C80.6855 35.9285 79.8891 35.2434 79.2725 34.3528C78.6731 33.4622 78.3135 32.4347 78.1936 31.27H82.2012C82.2355 32.0065 82.5266 32.5716 83.0746 32.9656C83.6398 33.3595 84.3591 33.5565 85.2326 33.5565C86.2089 33.5565 86.9624 33.2825 87.4933 32.7344C88.0243 32.2034 88.2897 31.4927 88.2897 30.6021V27.8789L88.6493 28.2129C88.3753 28.8809 87.8444 29.4204 87.0566 29.8314C86.2688 30.2425 85.3611 30.448 84.3335 30.448C83.1517 30.448 82.0984 30.174 81.1736 29.6259C80.2659 29.0779 79.5465 28.3158 79.0156 27.3395C78.5018 26.3633 78.245 25.2329 78.245 23.9485ZM82.2525 23.8456C82.2525 24.4622 82.381 25.0102 82.6379 25.4898C82.8949 25.9694 83.2373 26.3461 83.6656 26.6201C84.0937 26.8771 84.5646 27.0055 85.0785 27.0055C85.695 27.0055 86.2345 26.8771 86.697 26.6201C87.1765 26.3461 87.5448 25.9694 87.8016 25.4898C88.0756 25.0102 88.2126 24.4622 88.2126 23.8456C88.2126 23.212 88.0756 22.6725 87.8016 22.2272C87.5276 21.7648 87.1508 21.4051 86.6712 21.1482C86.2089 20.8913 85.6693 20.7628 85.0528 20.7628C84.539 20.7628 84.068 20.8913 83.6398 21.1482C83.2117 21.4051 82.8691 21.7648 82.6123 22.2272C82.3724 22.6897 82.2525 23.2291 82.2525 23.8456ZM93.5789 24.1539C93.5789 22.8009 93.8615 21.6192 94.4266 20.6087C94.9918 19.5811 95.7882 18.7847 96.8158 18.2195C97.8433 17.6544 99.0423 17.3718 100.412 17.3718C101.783 17.3718 102.973 17.6544 103.983 18.2195C105.011 18.7847 105.807 19.5811 106.372 20.6087C106.938 21.6192 107.22 22.8009 107.22 24.1539C107.22 25.5069 106.938 26.6887 106.372 27.6992C105.807 28.7096 105.011 29.4974 103.983 30.0626C102.973 30.6278 101.783 30.9104 100.412 30.9104C99.0423 30.9104 97.8433 30.6278 96.8158 30.0626C95.7882 29.4974 94.9918 28.7096 94.4266 27.6992C93.8615 26.6887 93.5789 25.5069 93.5789 24.1539ZM97.5608 24.1282C97.5608 24.7791 97.6806 25.3528 97.9204 25.8495C98.1602 26.3291 98.4942 26.7058 98.9224 26.9799C99.3505 27.2367 99.8472 27.3652 100.412 27.3652C100.978 27.3652 101.474 27.2367 101.902 26.9799C102.331 26.7058 102.656 26.3291 102.879 25.8495C103.118 25.3528 103.238 24.7791 103.238 24.1282C103.238 23.4774 103.118 22.9122 102.879 22.4327C102.656 21.9532 102.331 21.5849 101.902 21.328C101.474 21.054 100.978 20.9169 100.412 20.9169C99.8472 20.9169 99.3505 21.054 98.9224 21.328C98.4942 21.5849 98.1602 21.9532 97.9204 22.4327C97.6806 22.9122 97.5608 23.4774 97.5608 24.1282ZM108.884 30.6021V17.7572H112.866V30.6021H108.884ZM110.888 15.7533C110.254 15.7533 109.715 15.5392 109.27 15.1111C108.841 14.6658 108.627 14.1262 108.627 13.4926C108.627 12.8589 108.841 12.328 109.27 11.8998C109.715 11.4717 110.254 11.2576 110.888 11.2576C111.505 11.2576 112.027 11.4717 112.455 11.8998C112.9 12.328 113.123 12.8589 113.123 13.4926C113.123 14.1262 112.9 14.6658 112.455 15.1111C112.027 15.5392 111.505 15.7533 110.888 15.7533ZM115.441 36.7678V17.7572H119.064L119.269 19.3242C119.629 18.7248 120.203 18.2453 120.99 17.8855C121.778 17.5259 122.626 17.3461 123.533 17.3461C124.732 17.3461 125.777 17.6115 126.667 18.1425C127.558 18.6734 128.26 19.4355 128.774 20.4289C129.287 21.4051 129.561 22.5868 129.597 23.9741C129.631 25.3271 129.407 26.5346 128.929 27.5964C128.449 28.6411 127.756 29.4632 126.847 30.0626C125.939 30.6621 124.844 30.9618 123.559 30.9618C122.669 30.9618 121.838 30.8077 121.067 30.4994C120.297 30.1911 119.723 29.7972 119.346 29.3176V36.7678H115.441ZM119.423 24.1796C119.423 24.8133 119.551 25.3785 119.809 25.8752C120.083 26.3547 120.451 26.7315 120.913 27.0055C121.392 27.2625 121.94 27.3908 122.557 27.3908C123.191 27.3908 123.731 27.2539 124.176 26.9799C124.638 26.7058 124.99 26.3291 125.229 25.8495C125.486 25.3699 125.614 24.8133 125.614 24.1796C125.614 23.5459 125.486 22.9893 125.229 22.5098C124.99 22.0302 124.638 21.6534 124.176 21.3794C123.731 21.1054 123.191 20.9684 122.557 20.9684C121.94 20.9684 121.392 21.1054 120.913 21.3794C120.451 21.6364 120.083 22.0046 119.809 22.4841C119.551 22.9637 119.423 23.5288 119.423 24.1796ZM130.274 26.5431H133.846C133.846 26.9884 133.991 27.3395 134.283 27.5964C134.591 27.8533 135.036 27.9818 135.618 27.9818C135.96 27.9818 136.244 27.9389 136.466 27.8533C136.706 27.7677 136.886 27.6478 137.005 27.4936C137.143 27.3224 137.211 27.134 137.211 26.9285C137.211 26.7058 137.134 26.5174 136.98 26.3633C136.843 26.2092 136.603 26.0893 136.26 26.0036L134 25.4127C132.732 25.0702 131.833 24.5649 131.303 23.8971C130.771 23.2291 130.506 22.4669 130.506 21.6106C130.506 20.7542 130.72 20.0093 131.149 19.3757C131.593 18.7248 132.193 18.2281 132.946 17.8855C133.7 17.5259 134.547 17.3461 135.49 17.3461C136.911 17.3461 138.076 17.74 138.984 18.5279C139.909 19.2985 140.397 20.3518 140.449 21.6877H136.877C136.894 21.2424 136.766 20.8913 136.492 20.6344C136.218 20.3604 135.858 20.2234 135.413 20.2234C135.019 20.2234 134.693 20.3261 134.437 20.5316C134.197 20.72 134.077 20.9855 134.077 21.328C134.077 21.6534 134.197 21.8932 134.437 22.0474C134.677 22.1844 135.001 22.3042 135.413 22.4071L137.699 22.9722C138.761 23.2291 139.566 23.6659 140.114 24.2824C140.663 24.8989 140.936 25.6868 140.936 26.6459C140.936 27.9646 140.449 29.0093 139.472 29.78C138.496 30.5507 137.229 30.9361 135.67 30.9361C134.06 30.9361 132.766 30.5337 131.791 29.7287C130.831 28.9066 130.326 27.8447 130.274 26.5431ZM147.249 30.9361C145.741 30.9361 144.577 30.4651 143.754 29.5232C142.933 28.5812 142.521 27.348 142.521 25.8238V17.7572H146.478V24.3852C146.478 25.584 146.692 26.3889 147.12 26.8C147.549 27.2111 148.113 27.4166 148.816 27.4166C149.724 27.4166 150.349 27.1596 150.691 26.6459C151.033 26.1321 151.205 25.3956 151.205 24.4365V17.7572H155.161V30.6021H151.437L151.179 29.1635C150.785 29.6944 150.229 30.1226 149.51 30.448C148.79 30.7734 148.037 30.9361 147.249 30.9361ZM161.692 30.6021H157.71V17.7572H161.41L161.692 19.9665L161.256 19.504C161.598 18.8532 162.112 18.3308 162.797 17.9369C163.499 17.5259 164.252 17.3204 165.058 17.3204C166.325 17.3204 167.318 17.6029 168.038 18.1681C168.774 18.7333 169.305 19.4784 169.63 20.4032H169.013C169.219 19.4784 169.716 18.7333 170.504 18.1681C171.292 17.6029 172.233 17.3204 173.33 17.3204C174.991 17.3204 176.216 17.7657 177.004 18.6562C177.791 19.5468 178.185 20.7286 178.185 22.2015V30.6021H174.332V23.1778C174.332 22.3727 174.134 21.7733 173.74 21.3794C173.364 20.9855 172.859 20.7886 172.225 20.7886C171.849 20.7886 171.489 20.8742 171.146 21.0454C170.804 21.1995 170.52 21.4821 170.298 21.8932C170.076 22.2872 169.964 22.8524 169.964 23.5887V30.6021H166.059V23.1778C166.059 22.3727 165.871 21.7819 165.494 21.4051C165.117 21.0112 164.612 20.8142 163.978 20.8142C163.601 20.8142 163.233 20.8999 162.873 21.0712C162.531 21.2253 162.249 21.5079 162.026 21.9189C161.804 22.3128 161.692 22.8694 161.692 23.5887V30.6021Z" fill="#696968"/>
</svg>
