<svg width="132" height="20" viewBox="0 0 132 20" fill="none" xmlns="http://www.w3.org/2000/svg">
<path d="M11.4397 2.87014L12.9062 5.82739C13.1062 6.23905 13.6395 6.6339 14.0895 6.70951L16.7475 7.15478C18.4473 7.44043 18.8473 8.68382 17.6224 9.91041L15.556 11.9939C15.206 12.3467 15.0144 13.0272 15.1227 13.5146L15.7143 16.0937C16.1809 18.1352 15.106 18.925 13.3146 17.858L10.8232 16.371C10.3732 16.1022 9.63166 16.1022 9.17333 16.371L6.68197 17.858C4.89883 18.925 3.81562 18.1268 4.28224 16.0937L4.87384 13.5146C4.98216 13.0272 4.79051 12.3467 4.44055 11.9939L2.37411 9.91041C1.15758 8.68382 1.54921 7.44043 3.24901 7.15478L5.90706 6.70951C6.34867 6.6339 6.88195 6.23905 7.08192 5.82739L8.54841 2.87014C9.34833 1.2655 10.6482 1.2655 11.4397 2.87014Z" fill="#42C0BB" stroke="#42C0BB" stroke-width="1.5" stroke-linecap="round" stroke-linejoin="round"/>
<path d="M39.4397 2.87014L40.9062 5.82739C41.1062 6.23905 41.6395 6.6339 42.0895 6.70951L44.7475 7.15478C46.4473 7.44043 46.8473 8.68382 45.6224 9.91041L43.556 11.9939C43.206 12.3467 43.0144 13.0272 43.1227 13.5146L43.7143 16.0937C44.1809 18.1352 43.106 18.925 41.3146 17.858L38.8232 16.371C38.3732 16.1022 37.6317 16.1022 37.1733 16.371L34.682 17.858C32.8988 18.925 31.8156 18.1268 32.2822 16.0937L32.8738 13.5146C32.9822 13.0272 32.7905 12.3467 32.4405 11.9939L30.3741 9.91041C29.1576 8.68382 29.5492 7.44043 31.249 7.15478L33.9071 6.70951C34.3487 6.6339 34.8819 6.23905 35.0819 5.82739L36.5484 2.87014C37.3483 1.2655 38.6482 1.2655 39.4397 2.87014Z" fill="#42C0BB" stroke="#42C0BB" stroke-width="1.5" stroke-linecap="round" stroke-linejoin="round"/>
<path d="M67.4397 2.87014L68.9062 5.82739C69.1062 6.23905 69.6395 6.6339 70.0895 6.70951L72.7475 7.15478C74.4473 7.44043 74.8473 8.68382 73.6224 9.91041L71.556 11.9939C71.206 12.3467 71.0144 13.0272 71.1227 13.5146L71.7143 16.0937C72.1809 18.1352 71.106 18.925 69.3146 17.858L66.8232 16.371C66.3732 16.1022 65.6317 16.1022 65.1733 16.371L62.682 17.858C60.8988 18.925 59.8156 18.1268 60.2822 16.0937L60.8738 13.5146C60.9822 13.0272 60.7905 12.3467 60.4405 11.9939L58.3741 9.91041C57.1576 8.68382 57.5492 7.44043 59.249 7.15478L61.9071 6.70951C62.3487 6.6339 62.8819 6.23905 63.0819 5.82739L64.5484 2.87014C65.3483 1.2655 66.6482 1.2655 67.4397 2.87014Z" fill="#42C0BB" stroke="#42C0BB" stroke-width="1.5" stroke-linecap="round" stroke-linejoin="round"/>
<path d="M95.4397 2.87014L96.9062 5.82739C97.1062 6.23905 97.6395 6.6339 98.0895 6.70951L100.747 7.15478C102.447 7.44043 102.847 8.68382 101.622 9.91041L99.556 11.9939C99.206 12.3467 99.0144 13.0272 99.1227 13.5146L99.7143 16.0937C100.181 18.1352 99.106 18.925 97.3146 17.858L94.8232 16.371C94.3732 16.1022 93.6317 16.1022 93.1733 16.371L90.682 17.858C88.8988 18.925 87.8156 18.1268 88.2822 16.0937L88.8738 13.5146C88.9822 13.0272 88.7905 12.3467 88.4405 11.9939L86.3741 9.91041C85.1576 8.68382 85.5492 7.44043 87.249 7.15478L89.9071 6.70951C90.3487 6.6339 90.8819 6.23905 91.0819 5.82739L92.5484 2.87014C93.3483 1.2655 94.6482 1.2655 95.4397 2.87014Z" fill="#42C0BB" stroke="#42C0BB" stroke-width="1.5" stroke-linecap="round" stroke-linejoin="round"/>
<path d="M123.44 2.87014L124.906 5.82739C125.106 6.23905 125.639 6.6339 126.089 6.70951L128.747 7.15478C130.447 7.44043 130.847 8.68382 129.622 9.91041L127.556 11.9939C127.206 12.3467 127.014 13.0272 127.123 13.5146L127.714 16.0937C128.181 18.1352 127.106 18.925 125.315 17.858L122.823 16.371C122.373 16.1022 121.632 16.1022 121.173 16.371L118.682 17.858C116.899 18.925 115.816 18.1268 116.282 16.0937L116.874 13.5146C116.982 13.0272 116.791 12.3467 116.441 11.9939L114.374 9.91041C113.158 8.68382 113.549 7.44043 115.249 7.15478L117.907 6.70951C118.349 6.6339 118.882 6.23905 119.082 5.82739L120.548 2.87014C121.348 1.2655 122.648 1.2655 123.44 2.87014Z" fill="#42C0BB" stroke="#42C0BB" stroke-width="1.5" stroke-linecap="round" stroke-linejoin="round"/>
</svg>
