<svg width="167" height="32" viewBox="0 0 167 32" fill="none" xmlns="http://www.w3.org/2000/svg">
<g clip-path="url(#clip0_2167_2600)">
<path fill-rule="evenodd" clip-rule="evenodd" d="M1.04165 10.6424C0.00591838 13.2006 -0.265077 16.0155 0.262973 18.7313C0.790959 21.447 2.09428 23.9416 4.00802 25.8995C5.92176 27.8574 8.36009 29.1908 11.0145 29.731C13.6691 30.2712 16.4205 29.9939 18.921 28.9343C21.4214 27.8747 23.5586 26.0802 25.0622 23.778C25.1023 23.7166 25.1419 23.6549 25.181 23.5929C25.2086 23.5492 25.236 23.5052 25.2632 23.4611V30H26.3158C29.0223 30 31.668 29.1789 33.9183 27.6405C36.1687 26.1023 37.9226 23.9157 38.9583 21.3575C39.9941 18.7994 40.2651 15.9845 39.737 13.2687C39.209 10.553 37.9058 8.05842 35.992 6.10052C34.0782 4.14255 31.6399 2.80921 28.9855 2.26904C26.3309 1.72881 23.5795 2.00606 21.079 3.06569C18.5786 4.12533 16.4414 5.91976 14.9378 8.22202C14.8694 8.3268 14.8024 8.43249 14.7368 8.53891V2.00001H13.6842C10.9777 2.00001 8.33201 2.82111 6.08168 4.35946C3.83134 5.89774 2.07739 8.08425 1.04165 10.6424ZM12.6316 16V4.20289C10.713 4.38207 8.86244 5.04897 7.2513 6.15027C5.34714 7.45193 3.86308 9.3021 2.98668 11.4667C2.11028 13.6313 1.88098 16.0131 2.32776 18.3111C2.77454 20.609 3.87735 22.7198 5.49664 24.3765C7.116 26.0332 9.17918 27.1614 11.4253 27.6185C13.6714 28.0756 15.9995 27.841 18.1153 26.9444C20.1461 26.0838 21.8937 24.6504 23.1559 22.814C22.1993 23.2786 21.1293 23.5385 20 23.5385C15.9306 23.5385 12.6316 20.1633 12.6316 16ZM27.3684 27.7971V16C27.3684 11.8366 24.0694 8.46154 20 8.46154C18.8707 8.46154 17.8007 8.72144 16.8441 9.18602C18.1063 7.34959 19.8539 5.91614 21.8847 5.0556C24.0005 4.15898 26.3286 3.92439 28.5747 4.38148C30.8208 4.83856 32.884 5.96682 34.5034 7.62348C36.1227 9.28021 37.2255 11.391 37.6722 13.6889C38.119 15.9869 37.8897 18.3687 37.0133 20.5333C36.137 22.6979 34.6529 24.5481 32.7487 25.8497C31.1376 26.951 29.287 27.6179 27.3684 27.7971ZM19.8947 21.3836C17.0715 21.3269 14.7933 18.996 14.7379 16.1077H16.7291C18.2999 16.474 19.5365 17.739 19.8947 19.3461V21.3836ZM20.1052 21.3836C22.9284 21.3269 25.2067 18.996 25.2621 16.1077H23.2709C21.6999 16.474 20.4633 17.7392 20.1052 19.3465V21.3836ZM25.2621 15.8923C25.2067 13.004 22.9284 10.6731 20.1052 10.6164V12.6535C20.4633 14.2607 21.6998 15.5259 23.2706 15.8923H25.2621ZM19.8947 10.6164C17.0716 10.6731 14.7933 13.004 14.7379 15.8923H16.7294C18.3001 15.5259 19.5366 14.2609 19.8947 12.6539V10.6164Z" fill="white"/>
</g>
<path d="M56.2588 24.192C55.1228 24.192 54.0508 24.024 53.0428 23.688C52.0508 23.336 51.2188 22.784 50.5468 22.032C49.8748 21.264 49.4348 20.264 49.2268 19.032H52.2748C52.4668 19.656 52.7708 20.144 53.1868 20.496C53.6188 20.848 54.1228 21.096 54.6988 21.24C55.2748 21.368 55.8588 21.432 56.4508 21.432C56.9788 21.432 57.4748 21.368 57.9388 21.24C58.4188 21.096 58.8108 20.864 59.1148 20.544C59.4348 20.224 59.5948 19.8 59.5948 19.272C59.5948 18.872 59.5068 18.552 59.3308 18.312C59.1708 18.056 58.9388 17.848 58.6348 17.688C58.3468 17.512 57.9948 17.376 57.5788 17.28C57.1788 17.152 56.7468 17.04 56.2828 16.944C55.8188 16.848 55.3628 16.744 54.9148 16.632C54.4668 16.52 54.0428 16.376 53.6428 16.2C53.1308 16.024 52.6348 15.824 52.1548 15.6C51.6908 15.36 51.2828 15.072 50.9308 14.736C50.5948 14.4 50.3228 13.984 50.1148 13.488C49.9068 12.992 49.8028 12.4 49.8028 11.712C49.8028 10.928 49.9308 10.256 50.1868 9.696C50.4588 9.12 50.8108 8.648 51.2428 8.28C51.6908 7.912 52.1868 7.624 52.7308 7.416C53.2908 7.208 53.8668 7.056 54.4588 6.96C55.0668 6.864 55.6428 6.816 56.1868 6.816C57.2428 6.816 58.2028 6.992 59.0668 7.344C59.9468 7.696 60.6668 8.24 61.2268 8.976C61.7868 9.712 62.1068 10.656 62.1868 11.808H59.2828C59.2188 11.264 59.0268 10.832 58.7068 10.512C58.3868 10.176 57.9868 9.936 57.5068 9.792C57.0268 9.632 56.5068 9.552 55.9468 9.552C55.5628 9.552 55.1788 9.584 54.7948 9.648C54.4268 9.712 54.0908 9.824 53.7868 9.984C53.4988 10.144 53.2588 10.36 53.0668 10.632C52.8908 10.888 52.8028 11.216 52.8028 11.616C52.8028 11.968 52.8908 12.28 53.0668 12.552C53.2428 12.808 53.4828 13.024 53.7868 13.2C54.1068 13.376 54.4828 13.536 54.9148 13.68C55.4748 13.904 56.0828 14.072 56.7388 14.184C57.4108 14.296 58.0428 14.448 58.6348 14.64C59.2108 14.8 59.7388 15 60.2188 15.24C60.7148 15.464 61.1388 15.744 61.4908 16.08C61.8428 16.4 62.1148 16.8 62.3068 17.28C62.5148 17.744 62.6188 18.304 62.6188 18.96C62.6188 19.92 62.4428 20.736 62.0908 21.408C61.7548 22.064 61.2828 22.6 60.6748 23.016C60.0828 23.432 59.4028 23.736 58.6348 23.928C57.8828 24.104 57.0908 24.192 56.2588 24.192ZM65.2402 28.656V11.352H67.9762L68.1202 13.056C68.6162 12.4 69.2082 11.92 69.8962 11.616C70.5842 11.312 71.3442 11.16 72.1762 11.16C73.4242 11.16 74.4562 11.448 75.2722 12.024C76.0882 12.6 76.6962 13.376 77.0962 14.352C77.4962 15.328 77.6962 16.432 77.6962 17.664C77.6962 18.896 77.4882 20.008 77.0722 21C76.6562 21.976 76.0242 22.752 75.1762 23.328C74.3442 23.888 73.2962 24.168 72.0322 24.168C71.4402 24.168 70.8962 24.104 70.4002 23.976C69.9202 23.848 69.4882 23.664 69.1042 23.424C68.7362 23.184 68.4242 22.912 68.1682 22.608V28.656H65.2402ZM71.5762 21.528C72.3922 21.528 73.0322 21.352 73.4962 21C73.9602 20.632 74.2962 20.16 74.5042 19.584C74.7122 18.992 74.8162 18.368 74.8162 17.712C74.8162 17.024 74.7042 16.384 74.4802 15.792C74.2722 15.2 73.9282 14.72 73.4482 14.352C72.9682 13.984 72.3282 13.8 71.5282 13.8C70.7922 13.8 70.1682 13.984 69.6562 14.352C69.1602 14.704 68.7842 15.176 68.5282 15.768C68.2722 16.36 68.1442 17 68.1442 17.688C68.1442 18.392 68.2642 19.04 68.5042 19.632C68.7442 20.208 69.1202 20.672 69.6322 21.024C70.1442 21.36 70.7922 21.528 71.5762 21.528ZM84.0847 24.168C83.4927 24.168 82.9327 24.088 82.4047 23.928C81.8767 23.768 81.4047 23.536 80.9887 23.232C80.5727 22.912 80.2367 22.52 79.9807 22.056C79.7407 21.576 79.6207 21.016 79.6207 20.376C79.6207 19.56 79.7807 18.896 80.1007 18.384C80.4207 17.856 80.8527 17.456 81.3967 17.184C81.9567 16.912 82.5887 16.728 83.2927 16.632C83.9967 16.52 84.7327 16.464 85.5007 16.464H87.9727C87.9727 15.904 87.8847 15.424 87.7087 15.024C87.5327 14.608 87.2527 14.28 86.8687 14.04C86.5007 13.8 86.0207 13.68 85.4287 13.68C85.0447 13.68 84.6847 13.728 84.3487 13.824C84.0287 13.904 83.7487 14.04 83.5087 14.232C83.2847 14.408 83.1247 14.64 83.0287 14.928H80.0287C80.1407 14.272 80.3647 13.712 80.7007 13.248C81.0527 12.768 81.4767 12.376 81.9727 12.072C82.4847 11.768 83.0447 11.544 83.6527 11.4C84.2607 11.24 84.8767 11.16 85.5007 11.16C87.3407 11.16 88.6767 11.688 89.5087 12.744C90.3567 13.8 90.7807 15.28 90.7807 17.184V24H88.1887L88.1167 22.368C87.7487 22.912 87.3087 23.312 86.7967 23.568C86.2847 23.824 85.7887 23.984 85.3087 24.048C84.8287 24.128 84.4207 24.168 84.0847 24.168ZM84.6607 21.792C85.3007 21.792 85.8687 21.672 86.3647 21.432C86.8607 21.192 87.2527 20.856 87.5407 20.424C87.8447 19.992 87.9967 19.496 87.9967 18.936V18.528H85.6927C85.3087 18.528 84.9247 18.544 84.5407 18.576C84.1727 18.592 83.8367 18.656 83.5327 18.768C83.2287 18.864 82.9807 19.016 82.7887 19.224C82.6127 19.432 82.5247 19.728 82.5247 20.112C82.5247 20.496 82.6207 20.808 82.8127 21.048C83.0207 21.288 83.2847 21.472 83.6047 21.6C83.9407 21.728 84.2927 21.792 84.6607 21.792ZM93.5762 24V11.352H96.2402L96.4082 13.008C96.7282 12.528 97.0882 12.16 97.4882 11.904C97.9042 11.632 98.3442 11.44 98.8082 11.328C99.2882 11.216 99.7682 11.16 100.248 11.16C100.424 11.16 100.584 11.16 100.728 11.16C100.888 11.16 101.016 11.168 101.112 11.184V13.968H100.344C99.5122 13.968 98.8082 14.128 98.2322 14.448C97.6562 14.768 97.2242 15.224 96.9362 15.816C96.6482 16.408 96.5042 17.136 96.5042 18V24H93.5762ZM102.834 24V7.032H105.762V16.416H107.586L110.922 11.352H114.21L110.106 17.376L114.546 24H111.138L107.754 18.984H105.762V24H102.834ZM118.6 24L114.64 11.352H117.88L120.424 20.784L123.136 11.352H126.592L129.304 20.784L131.824 11.352H135.016L131.056 24H127.552L124.816 14.88L122.104 24H118.6ZM136.561 24V11.352H139.489V24H136.561ZM138.025 9.888C137.465 9.888 137.017 9.72 136.681 9.384C136.345 9.048 136.177 8.608 136.177 8.064C136.177 7.536 136.353 7.104 136.705 6.768C137.057 6.416 137.497 6.24 138.025 6.24C138.537 6.24 138.977 6.408 139.345 6.744C139.713 7.08 139.897 7.52 139.897 8.064C139.897 8.608 139.721 9.048 139.369 9.384C139.017 9.72 138.569 9.888 138.025 9.888ZM147.174 24.168C146.566 24.168 145.958 24.104 145.35 23.976C144.758 23.848 144.198 23.64 143.67 23.352C143.142 23.048 142.702 22.64 142.35 22.128C141.998 21.616 141.766 20.976 141.654 20.208H144.606C144.734 20.56 144.934 20.848 145.206 21.072C145.494 21.28 145.822 21.44 146.19 21.552C146.574 21.648 146.95 21.696 147.318 21.696C147.542 21.696 147.782 21.68 148.038 21.648C148.31 21.616 148.558 21.552 148.782 21.456C149.022 21.36 149.214 21.224 149.358 21.048C149.502 20.856 149.574 20.608 149.574 20.304C149.574 20.016 149.494 19.792 149.334 19.632C149.174 19.456 148.958 19.32 148.686 19.224C148.414 19.112 148.086 19.024 147.702 18.96C147.014 18.816 146.278 18.664 145.494 18.504C144.71 18.328 144.03 18.056 143.454 17.688C143.214 17.544 143.006 17.376 142.83 17.184C142.654 16.992 142.502 16.784 142.374 16.56C142.262 16.32 142.174 16.064 142.11 15.792C142.062 15.52 142.038 15.224 142.038 14.904C142.038 14.232 142.174 13.664 142.446 13.2C142.734 12.72 143.11 12.336 143.574 12.048C144.054 11.744 144.598 11.52 145.206 11.376C145.814 11.232 146.438 11.16 147.078 11.16C147.942 11.16 148.726 11.296 149.43 11.568C150.134 11.84 150.718 12.256 151.182 12.816C151.662 13.376 151.95 14.088 152.046 14.952H149.262C149.182 14.552 148.934 14.232 148.518 13.992C148.118 13.752 147.606 13.632 146.982 13.632C146.758 13.632 146.526 13.656 146.286 13.704C146.046 13.736 145.814 13.8 145.59 13.896C145.382 13.976 145.206 14.104 145.062 14.28C144.934 14.456 144.87 14.672 144.87 14.928C144.87 15.168 144.926 15.376 145.038 15.552C145.166 15.728 145.35 15.88 145.59 16.008C145.846 16.12 146.142 16.216 146.478 16.296C147.022 16.408 147.59 16.52 148.182 16.632C148.774 16.744 149.286 16.856 149.718 16.968C150.23 17.112 150.694 17.32 151.11 17.592C151.526 17.848 151.846 18.192 152.07 18.624C152.31 19.04 152.43 19.576 152.43 20.232C152.43 21 152.27 21.64 151.95 22.152C151.646 22.664 151.238 23.064 150.726 23.352C150.214 23.64 149.646 23.848 149.022 23.976C148.398 24.104 147.782 24.168 147.174 24.168ZM160.248 24.168C158.936 24.168 157.816 23.896 156.888 23.352C155.976 22.808 155.28 22.056 154.8 21.096C154.336 20.12 154.104 18.992 154.104 17.712C154.104 16.432 154.344 15.304 154.824 14.328C155.32 13.336 156.024 12.56 156.936 12C157.864 11.44 158.976 11.16 160.272 11.16C161.232 11.16 162.072 11.336 162.792 11.688C163.512 12.024 164.112 12.488 164.592 13.08C165.088 13.672 165.456 14.344 165.696 15.096C165.936 15.848 166.048 16.64 166.032 17.472C166.016 17.664 166 17.856 165.984 18.048C165.968 18.224 165.944 18.416 165.912 18.624H157.032C157.08 19.184 157.224 19.696 157.464 20.16C157.72 20.624 158.072 20.992 158.52 21.264C158.984 21.536 159.56 21.672 160.248 21.672C160.648 21.672 161.032 21.624 161.4 21.528C161.768 21.416 162.088 21.256 162.36 21.048C162.648 20.84 162.84 20.576 162.936 20.256H165.864C165.656 21.168 165.272 21.912 164.712 22.488C164.152 23.064 163.48 23.488 162.696 23.76C161.928 24.032 161.112 24.168 160.248 24.168ZM157.08 16.44H163.176C163.176 15.912 163.056 15.432 162.816 15C162.576 14.568 162.232 14.232 161.784 13.992C161.352 13.736 160.824 13.608 160.2 13.608C159.528 13.608 158.968 13.744 158.52 14.016C158.072 14.288 157.728 14.64 157.488 15.072C157.248 15.504 157.112 15.96 157.08 16.44Z" fill="white"/>
<defs>
<clipPath id="clip0_2167_2600">
<rect width="40" height="28" fill="white" transform="translate(0 2)"/>
</clipPath>
</defs>
</svg>
