<svg width="33" height="33" viewBox="0 0 33 33" fill="none" xmlns="http://www.w3.org/2000/svg">
<path d="M29.4053 15.4064C29.8107 15.9748 30.0133 16.2591 30.0133 16.6798C30.0133 17.1004 29.8107 17.3847 29.4053 17.9531C27.5839 20.5072 22.9323 26.0131 16.68 26.0131C10.4277 26.0131 5.77615 20.5072 3.95473 17.9531C3.54936 17.3847 3.34668 17.1004 3.34668 16.6798C3.34668 16.2591 3.54936 15.9748 3.95473 15.4064C5.77615 12.8524 10.4277 7.34644 16.68 7.34644C22.9323 7.34644 27.5839 12.8524 29.4053 15.4064Z" stroke="#141B34" stroke-width="2"/>
<path d="M20.6799 16.6797C20.6799 14.4705 18.8891 12.6797 16.6799 12.6797C14.4707 12.6797 12.6799 14.4705 12.6799 16.6797C12.6799 18.8889 14.4707 20.6797 16.6799 20.6797C18.8891 20.6797 20.6799 18.8889 20.6799 16.6797Z" stroke="#141B34" stroke-width="2"/>
</svg>
