<svg width="98" height="105" viewBox="0 0 98 105" fill="none" xmlns="http://www.w3.org/2000/svg">
<path fill-rule="evenodd" clip-rule="evenodd" d="M63.5911 28.8346C90.4238 -2.18076 116.61 43.6963 76.5223 51.127C116.61 58.8809 90.1005 104.435 63.5911 73.419C77.1689 112.188 24.4735 111.865 38.0516 73.419C11.2188 104.435 -14.9673 58.8809 25.1201 51.127C-15.2906 43.6963 11.2188 -1.8577 38.0516 28.8346C24.1502 -9.61153 77.1689 -9.61153 63.5911 28.8346ZM50.6595 45.3116C53.8926 45.3116 56.802 47.8963 56.802 51.127C56.802 54.3577 53.8926 57.2655 50.6595 57.2655C47.4268 57.2655 44.8403 54.3577 44.8403 51.127C44.8403 47.8963 47.4268 45.3116 50.6595 45.3116Z" fill="#050505"/>
<path fill-rule="evenodd" clip-rule="evenodd" d="M59.2161 31.4596C86.0488 0.444235 112.235 46.3213 72.1473 53.752C112.235 61.5059 85.7255 107.06 59.2161 76.044C72.7939 114.813 20.0985 114.49 33.6766 76.044C6.84381 107.06 -19.3423 61.5059 20.7451 53.752C-19.6656 46.3213 6.84381 0.767305 33.6766 31.4596C19.7752 -6.98653 72.7939 -6.98653 59.2161 31.4596ZM46.2845 47.9366C49.5176 47.9366 52.427 50.5213 52.427 53.752C52.427 56.9827 49.5176 59.8905 46.2845 59.8905C43.0518 59.8905 40.4653 56.9827 40.4653 53.752C40.4653 50.5213 43.0518 47.9366 46.2845 47.9366Z" fill="#CFB8FF"/>
</svg>
