<svg width="180" height="45" viewBox="0 0 180 45" fill="none" xmlns="http://www.w3.org/2000/svg">
<g clip-path="url(#clip0_2116_4180)">
<path d="M52.7969 31.4231H65.6026V27.5659H57.3483V13.0374H52.7969V31.4231Z" fill="#696968"/>
<path d="M73.1899 28.8515C71.3642 28.8515 70.4128 27.2572 70.4128 24.8658C70.4128 22.4744 71.3642 20.8544 73.1899 20.8544C75.0156 20.8544 75.9928 22.4744 75.9928 24.8658C75.9928 27.2572 75.0156 28.8515 73.1899 28.8515ZM73.2156 31.8344C77.4585 31.8344 80.2356 28.8258 80.2356 24.8658C80.2356 20.9058 77.4585 17.8972 73.2156 17.8972C68.9985 17.8972 66.1699 20.9058 66.1699 24.8658C66.1699 28.8258 68.9985 31.8344 73.2156 31.8344Z" fill="#696968"/>
<path d="M87.5798 35.9744C89.5341 35.9744 91.257 35.5373 92.4141 34.5087C93.4684 33.5573 94.1627 32.1173 94.1627 30.1373V18.2573H90.1513V19.6716H90.0998C89.3284 18.5659 88.1456 17.8716 86.397 17.8716C83.1313 17.8716 80.8684 20.5973 80.8684 24.4544C80.8684 28.4916 83.6198 30.703 86.577 30.703C88.1713 30.703 89.1741 30.0602 89.9456 29.1859H90.0484V30.4973C90.0484 32.0916 89.3027 33.0173 87.5284 33.0173C86.1398 33.0173 85.4456 32.4259 85.2141 31.7316H81.1513C81.5627 34.483 83.9541 35.9744 87.5798 35.9744ZM87.5541 27.5916C85.9856 27.5916 84.957 26.3059 84.957 24.3259C84.957 22.3202 85.9856 21.0344 87.5541 21.0344C89.3027 21.0344 90.2284 22.5259 90.2284 24.3002C90.2284 26.1516 89.3798 27.5916 87.5541 27.5916Z" fill="#696968"/>
<path d="M102.411 28.8515C100.585 28.8515 99.6335 27.2572 99.6335 24.8658C99.6335 22.4744 100.585 20.8544 102.411 20.8544C104.236 20.8544 105.213 22.4744 105.213 24.8658C105.213 27.2572 104.236 28.8515 102.411 28.8515ZM102.436 31.8344C106.679 31.8344 109.456 28.8258 109.456 24.8658C109.456 20.9058 106.679 17.8972 102.436 17.8972C98.2192 17.8972 95.3906 20.9058 95.3906 24.8658C95.3906 28.8258 98.2192 31.8344 102.436 31.8344Z" fill="#696968"/>
<path d="M110.681 31.4231H114.872V18.2574H110.681V31.4231ZM110.681 16.4316H114.872V13.0374H110.681V16.4316Z" fill="#696968"/>
<path d="M116.69 35.7687H120.882V30.0602H120.933C121.756 31.1659 122.965 31.8344 124.662 31.8344C128.108 31.8344 130.396 29.1087 130.396 24.8402C130.396 20.8802 128.262 17.8716 124.765 17.8716C122.965 17.8716 121.679 18.6687 120.779 19.8516H120.702V18.2573H116.69V35.7687ZM123.582 28.5944C121.782 28.5944 120.753 27.1287 120.753 24.9944C120.753 22.8602 121.679 21.2402 123.505 21.2402C125.305 21.2402 126.153 22.7316 126.153 24.9944C126.153 27.2316 125.176 28.5944 123.582 28.5944Z" fill="#696968"/>
<path d="M137.22 31.8342C140.666 31.8342 143.212 30.3428 143.212 27.4628C143.212 24.0942 140.486 23.5028 138.172 23.1171C136.5 22.8085 135.009 22.6799 135.009 21.7542C135.009 20.9313 135.806 20.5456 136.835 20.5456C137.992 20.5456 138.789 20.9056 138.943 22.0885H142.8C142.595 19.4913 140.589 17.8713 136.86 17.8713C133.749 17.8713 131.177 19.3113 131.177 22.0885C131.177 25.1742 133.62 25.7913 135.909 26.1771C137.657 26.4856 139.252 26.6142 139.252 27.7971C139.252 28.6456 138.455 29.1085 137.195 29.1085C135.806 29.1085 134.932 28.4656 134.777 27.1542H130.817C130.946 30.0599 133.363 31.8342 137.22 31.8342Z" fill="#696968"/>
<path d="M148.905 31.8088C150.731 31.8088 151.888 31.0888 152.839 29.803H152.916V31.423H156.928V18.2573H152.736V25.6116C152.736 27.1802 151.862 28.2602 150.422 28.2602C149.085 28.2602 148.442 27.463 148.442 26.023V18.2573H144.276V26.8973C144.276 29.8288 145.871 31.8088 148.905 31.8088Z" fill="#696968"/>
<path d="M158.751 31.423H162.942V24.043C162.942 22.4744 163.714 21.3687 165.025 21.3687C166.285 21.3687 166.877 22.1916 166.877 23.6059V31.423H171.068V24.043C171.068 22.4744 171.814 21.3687 173.151 21.3687C174.411 21.3687 175.002 22.1916 175.002 23.6059V31.423H179.194V22.8602C179.194 19.903 177.702 17.8716 174.72 17.8716C173.022 17.8716 171.608 18.5916 170.58 20.1859H170.528C169.86 18.7716 168.548 17.8716 166.825 17.8716C164.922 17.8716 163.662 18.7716 162.84 20.1344H162.762V18.2573H158.751V31.423Z" fill="#696968"/>
<path d="M27.2249 2.52074L23.011 1.3916L19.4599 14.6447L16.2538 2.67971L12.0398 3.80885L15.5037 16.7361L6.87589 8.10836L3.79104 11.1932L13.2547 20.6569L1.46922 17.499L0.340088 21.7129L13.2172 25.1634C13.0698 24.5275 12.9917 23.8649 12.9917 23.1841C12.9917 18.3652 16.8982 14.4588 21.717 14.4588C26.5359 14.4588 30.4423 18.3652 30.4423 23.1841C30.4423 23.8605 30.3653 24.519 30.2197 25.1511L41.9226 28.2869L43.0516 24.073L30.1234 20.6088L41.9096 17.4507L40.7804 13.2367L27.8527 16.7007L36.4805 8.07294L33.3956 4.9881L24.0633 14.3205L27.2249 2.52074Z" fill="#696968"/>
<path d="M30.2077 25.2002C29.8464 26.7276 29.0837 28.0998 28.0371 29.1992L36.5153 37.6775L39.6002 34.5927L30.2077 25.2002Z" fill="#696968"/>
<path d="M27.9516 29.2878C26.8923 30.3697 25.5538 31.177 24.0527 31.593L27.1378 43.1066L31.3517 41.9774L27.9516 29.2878Z" fill="#696968"/>
<path d="M23.8958 31.6351C23.1993 31.8141 22.4694 31.9093 21.7171 31.9093C20.9112 31.9093 20.1308 31.8 19.3899 31.5955L16.302 43.1195L20.5159 44.2486L23.8958 31.6351Z" fill="#696968"/>
<path d="M19.2409 31.5529C17.7628 31.1162 16.448 30.2986 15.4105 29.2136L6.91138 37.7127L9.99622 40.7976L19.2409 31.5529Z" fill="#696968"/>
<path d="M15.3397 29.1387C14.3199 28.0469 13.5771 26.6931 13.2235 25.1892L1.48242 28.3352L2.61155 32.5492L15.3397 29.1387Z" fill="#696968"/>
</g>
<defs>
<clipPath id="clip0_2116_4180">
<rect width="180" height="43.9286" fill="white" transform="translate(0 0.402588)"/>
</clipPath>
</defs>
</svg>
