<svg width="32" height="32" viewBox="0 0 32 32" fill="none" xmlns="http://www.w3.org/2000/svg">
<path d="M25.3334 21.3334V18.6667C25.3334 14.8955 25.3334 13.0099 24.1618 11.8383C22.9902 10.6667 21.1046 10.6667 17.3334 10.6667H14.6667C10.8955 10.6667 9.0099 10.6667 7.83832 11.8383C6.66675 13.0099 6.66675 14.8955 6.66675 18.6667V21.3334C6.66675 25.1046 6.66675 26.9902 7.83832 28.1618C9.0099 29.3334 10.8955 29.3334 14.6667 29.3334H17.3334C21.1046 29.3334 22.9902 29.3334 24.1618 28.1618C25.3334 26.9902 25.3334 25.1046 25.3334 21.3334Z" stroke="#141B34" stroke-width="2" stroke-linejoin="round"/>
<path d="M25.3333 24C27.2189 24 28.1617 24 28.7475 23.4143C29.3333 22.8284 29.3333 21.8856 29.3333 20C29.3333 18.1144 29.3333 17.1716 28.7475 16.5857C28.1617 16 27.2189 16 25.3333 16" stroke="#141B34" stroke-width="2" stroke-linejoin="round"/>
<path d="M6.66675 24C4.78113 24 3.83832 24 3.25253 23.4143C2.66675 22.8284 2.66675 21.8856 2.66675 20C2.66675 18.1144 2.66675 17.1716 3.25253 16.5857C3.83832 16 4.78113 16 6.66675 16" stroke="#141B34" stroke-width="2" stroke-linejoin="round"/>
<path d="M18 4.66675C18 5.77132 17.1045 6.66675 16 6.66675C14.8955 6.66675 14 5.77132 14 4.66675C14 3.56217 14.8955 2.66675 16 2.66675C17.1045 2.66675 18 3.56217 18 4.66675Z" stroke="#141B34" stroke-width="2"/>
<path d="M16 6.66675V10.6667" stroke="#141B34" stroke-width="2" stroke-linecap="round" stroke-linejoin="round"/>
<path d="M12 17.3333V18.6666" stroke="#141B34" stroke-width="2" stroke-linecap="round" stroke-linejoin="round"/>
<path d="M20 17.3333V18.6666" stroke="#141B34" stroke-width="2" stroke-linecap="round" stroke-linejoin="round"/>
<path d="M13.3333 23.3333C13.3333 23.3333 14.2222 23.9999 15.9999 23.9999C17.7777 23.9999 18.6666 23.3333 18.6666 23.3333" stroke="#141B34" stroke-width="2" stroke-linecap="round"/>
</svg>
