<svg width="180" height="45" viewBox="0 0 180 45" fill="none" xmlns="http://www.w3.org/2000/svg">
<path d="M54.2939 31.709H66.949V27.8972H58.7918V13.5396H54.2939V31.709Z" fill="#696968"/>
<path d="M74.4462 29.1677C72.642 29.1677 71.7017 27.5922 71.7017 25.2289C71.7017 22.8656 72.642 21.2646 74.4462 21.2646C76.2504 21.2646 77.2161 22.8656 77.2161 25.2289C77.2161 27.5922 76.2504 29.1677 74.4462 29.1677ZM74.4716 32.1155C78.6646 32.1155 81.409 29.1423 81.409 25.2289C81.409 21.3155 78.6646 18.3423 74.4716 18.3423C70.3041 18.3423 67.5088 21.3155 67.5088 25.2289C67.5088 29.1423 70.3041 32.1155 74.4716 32.1155Z" fill="#696968"/>
<path d="M88.6666 36.2068C90.5979 36.2068 92.3005 35.7748 93.4441 34.7583C94.4859 33.8181 95.1721 32.395 95.1721 30.4383V18.6981H91.2078V20.0957H91.157C90.3947 19.003 89.2257 18.3169 87.4977 18.3169C84.2704 18.3169 82.0342 21.0105 82.0342 24.8223C82.0342 28.812 84.7532 30.9974 87.6756 30.9974C89.2511 30.9974 90.2422 30.3621 91.0045 29.4981H91.1062V30.7941C91.1062 32.3696 90.3692 33.2844 88.6158 33.2844C87.2436 33.2844 86.5575 32.7 86.3288 32.0138H82.3137C82.7203 34.7329 85.0836 36.2068 88.6666 36.2068ZM88.6412 27.9225C87.0911 27.9225 86.0747 26.652 86.0747 24.6952C86.0747 22.7131 87.0911 21.4425 88.6412 21.4425C90.3692 21.4425 91.2841 22.9164 91.2841 24.6698C91.2841 26.4995 90.4455 27.9225 88.6412 27.9225Z" fill="#696968"/>
<path d="M103.323 29.1677C101.519 29.1677 100.579 27.5922 100.579 25.2289C100.579 22.8656 101.519 21.2646 103.323 21.2646C105.127 21.2646 106.093 22.8656 106.093 25.2289C106.093 27.5922 105.127 29.1677 103.323 29.1677ZM103.349 32.1155C107.541 32.1155 110.286 29.1423 110.286 25.2289C110.286 21.3155 107.541 18.3423 103.349 18.3423C99.181 18.3423 96.3857 21.3155 96.3857 25.2289C96.3857 29.1423 99.181 32.1155 103.349 32.1155Z" fill="#696968"/>
<path d="M111.496 31.709H115.638V18.6981H111.496V31.709ZM111.496 16.8939H115.638V13.5396H111.496V16.8939Z" fill="#696968"/>
<path d="M117.436 36.0035H121.578V30.3621H121.628C122.442 31.4548 123.636 32.1155 125.313 32.1155C128.718 32.1155 130.98 29.4218 130.98 25.2035C130.98 21.2901 128.871 18.3169 125.415 18.3169C123.636 18.3169 122.365 19.1047 121.476 20.2736H121.4V18.6981H117.436V36.0035ZM124.246 28.9136C122.467 28.9136 121.451 27.4651 121.451 25.356C121.451 23.2468 122.365 21.6458 124.17 21.6458C125.948 21.6458 126.787 23.1197 126.787 25.356C126.787 27.5668 125.821 28.9136 124.246 28.9136Z" fill="#696968"/>
<path d="M137.723 32.1155C141.128 32.1155 143.644 30.6416 143.644 27.7955C143.644 24.4665 140.95 23.8821 138.663 23.5009C137.012 23.196 135.538 23.0689 135.538 22.1541C135.538 21.3409 136.325 20.9597 137.342 20.9597C138.485 20.9597 139.273 21.3155 139.426 22.4844H143.237C143.034 19.9178 141.052 18.3169 137.367 18.3169C134.292 18.3169 131.751 19.74 131.751 22.4844C131.751 25.5338 134.165 26.1437 136.427 26.5249C138.155 26.8298 139.731 26.9569 139.731 28.1258C139.731 28.9644 138.943 29.4218 137.698 29.4218C136.325 29.4218 135.461 28.7865 135.309 27.4905H131.396C131.523 30.3621 133.911 32.1155 137.723 32.1155Z" fill="#696968"/>
<path d="M149.27 32.0902C151.075 32.0902 152.218 31.3787 153.158 30.1081H153.235V31.7091H157.199V18.6982H153.057V25.966C153.057 27.5161 152.193 28.5834 150.77 28.5834C149.448 28.5834 148.813 27.7957 148.813 26.3726V18.6982H144.696V27.2366C144.696 30.1335 146.272 32.0902 149.27 32.0902Z" fill="#696968"/>
<path d="M159.001 31.7089H163.143V24.4157C163.143 22.8656 163.905 21.7729 165.201 21.7729C166.447 21.7729 167.031 22.5861 167.031 23.9837V31.7089H171.173V24.4157C171.173 22.8656 171.91 21.7729 173.232 21.7729C174.477 21.7729 175.061 22.5861 175.061 23.9837V31.7089H179.203V23.2468C179.203 20.3244 177.729 18.3169 174.782 18.3169C173.105 18.3169 171.707 19.0284 170.69 20.604H170.64C169.979 19.2063 168.683 18.3169 166.98 18.3169C165.1 18.3169 163.855 19.2063 163.041 20.5531H162.965V18.6981H159.001V31.7089Z" fill="#696968"/>
<path fill-rule="evenodd" clip-rule="evenodd" d="M21.2839 43.3561C32.9794 43.3561 42.4603 33.875 42.4603 22.1796C42.4603 10.4842 32.9794 1.00317 21.2839 1.00317C9.58844 1.00317 0.107422 10.4842 0.107422 22.1796C0.107422 33.875 9.58844 43.3561 21.2839 43.3561ZM24.5524 17.3647C26.3575 15.5595 26.3575 12.6328 24.5524 10.8276C22.7473 9.02247 19.8206 9.02247 18.0154 10.8276C16.2103 12.6328 16.2103 15.5595 18.0154 17.3647L21.2839 20.6332L24.5524 17.3647ZM26.0989 25.4482C27.904 27.2534 30.8307 27.2534 32.6359 25.4482C34.441 23.643 34.441 20.7163 32.6359 18.9111C30.8307 17.106 27.904 17.106 26.0989 18.9111L22.8304 22.1797L26.0989 25.4482ZM24.5524 33.5317C26.3575 31.7265 26.3575 28.7998 24.5524 26.9946L21.2839 23.7261L18.0154 26.9946C16.2103 28.7998 16.2103 31.7265 18.0154 33.5317C19.8206 35.3369 22.7473 35.3369 24.5524 33.5317ZM9.93185 25.4482C8.12673 23.643 8.12673 20.7163 9.93185 18.9111C11.7371 17.106 14.6638 17.106 16.469 18.9111L19.7374 22.1797L16.469 25.4482C14.6638 27.2534 11.7371 27.2534 9.93185 25.4482Z" fill="#696968"/>
</svg>
