<svg width="180" height="45" viewBox="0 0 180 45" fill="none" xmlns="http://www.w3.org/2000/svg">
<g clip-path="url(#clip0_2116_4232)">
<path d="M54.9111 30.4541H67.5662V26.6423H59.409V12.2847H54.9111V30.4541Z" fill="#696968"/>
<path d="M75.0634 27.9128C73.2592 27.9128 72.3189 26.3373 72.3189 23.974C72.3189 21.6107 73.2592 20.0098 75.0634 20.0098C76.8676 20.0098 77.8333 21.6107 77.8333 23.974C77.8333 26.3373 76.8676 27.9128 75.0634 27.9128ZM75.0888 30.8606C79.2817 30.8606 82.0262 27.8874 82.0262 23.974C82.0262 20.0606 79.2817 17.0874 75.0888 17.0874C70.9213 17.0874 68.126 20.0606 68.126 23.974C68.126 27.8874 70.9213 30.8606 75.0888 30.8606Z" fill="#696968"/>
<path d="M89.2838 34.9519C91.2151 34.9519 92.9177 34.5199 94.0613 33.5034C95.1031 32.5632 95.7892 31.1401 95.7892 29.1834V17.4432H91.825V18.8408H91.7742C91.0118 17.7481 89.8429 17.062 88.1149 17.062C84.8876 17.062 82.6514 19.7557 82.6514 23.5674C82.6514 27.5571 85.3704 29.7425 88.2928 29.7425C89.8683 29.7425 90.8594 29.1072 91.6217 28.2432H91.7234V29.5392C91.7234 31.1147 90.9864 32.0295 89.233 32.0295C87.8608 32.0295 87.1747 31.4451 86.946 30.759H82.9309C83.3375 33.478 85.7008 34.9519 89.2838 34.9519ZM89.2584 26.6677C87.7083 26.6677 86.6918 25.3971 86.6918 23.4404C86.6918 21.4582 87.7083 20.1877 89.2584 20.1877C90.9864 20.1877 91.9012 21.6615 91.9012 23.415C91.9012 25.2446 91.0627 26.6677 89.2584 26.6677Z" fill="#696968"/>
<path d="M103.94 27.9128C102.136 27.9128 101.196 26.3373 101.196 23.974C101.196 21.6107 102.136 20.0098 103.94 20.0098C105.745 20.0098 106.71 21.6107 106.71 23.974C106.71 26.3373 105.745 27.9128 103.94 27.9128ZM103.966 30.8606C108.159 30.8606 110.903 27.8874 110.903 23.974C110.903 20.0606 108.159 17.0874 103.966 17.0874C99.7982 17.0874 97.0029 20.0606 97.0029 23.974C97.0029 27.8874 99.7982 30.8606 103.966 30.8606Z" fill="#696968"/>
<path d="M112.112 30.4541H116.254V17.4433H112.112V30.4541ZM112.112 15.639H116.254V12.2847H112.112V15.639Z" fill="#696968"/>
<path d="M118.053 34.7486H122.195V29.1072H122.246C123.059 30.1999 124.253 30.8606 125.93 30.8606C129.336 30.8606 131.597 28.167 131.597 23.9486C131.597 20.0352 129.488 17.062 126.032 17.062C124.253 17.062 122.983 17.8498 122.093 19.0187H122.017V17.4432H118.053V34.7486ZM124.863 27.6587C123.084 27.6587 122.068 26.2102 122.068 24.1011C122.068 21.9919 122.983 20.391 124.787 20.391C126.566 20.391 127.404 21.8648 127.404 24.1011C127.404 26.3119 126.439 27.6587 124.863 27.6587Z" fill="#696968"/>
<path d="M138.34 30.8606C141.745 30.8606 144.261 29.3867 144.261 26.5406C144.261 23.2117 141.568 22.6272 139.28 22.246C137.629 21.9411 136.155 21.814 136.155 20.8992C136.155 20.086 136.943 19.7048 137.959 19.7048C139.103 19.7048 139.89 20.0606 140.043 21.2295H143.855C143.651 18.663 141.669 17.062 137.984 17.062C134.91 17.062 132.368 18.4851 132.368 21.2295C132.368 24.279 134.783 24.8888 137.044 25.27C138.772 25.575 140.348 25.702 140.348 26.871C140.348 27.7095 139.56 28.167 138.315 28.167C136.943 28.167 136.079 27.5317 135.926 26.2357H132.013C132.14 29.1072 134.528 30.8606 138.34 30.8606Z" fill="#696968"/>
<path d="M149.889 30.8354C151.693 30.8354 152.836 30.1238 153.777 28.8532H153.853V30.4542H157.817V17.4434H153.675V24.7111C153.675 26.2612 152.811 27.3285 151.388 27.3285C150.066 27.3285 149.431 26.5408 149.431 25.1177V17.4434H145.314V25.9817C145.314 28.8787 146.89 30.8354 149.889 30.8354Z" fill="#696968"/>
<path d="M159.617 30.454H163.759V23.1608C163.759 21.6107 164.522 20.518 165.818 20.518C167.063 20.518 167.647 21.3312 167.647 22.7288V30.454H171.789V23.1608C171.789 21.6107 172.526 20.518 173.848 20.518C175.093 20.518 175.677 21.3312 175.677 22.7288V30.454H179.82V21.9919C179.82 19.0695 178.346 17.062 175.398 17.062C173.721 17.062 172.323 17.7735 171.307 19.3491H171.256C170.595 17.9514 169.299 17.062 167.596 17.062C165.716 17.062 164.471 17.9514 163.658 19.2982H163.581V17.4432H159.617V30.454Z" fill="#696968"/>
<path fill-rule="evenodd" clip-rule="evenodd" d="M21.9011 43.16C33.5965 43.16 43.0776 33.679 43.0776 21.9836C43.0776 10.2882 33.5965 0.807129 21.9011 0.807129C10.2056 0.807129 0.724609 10.2882 0.724609 21.9836C0.724609 33.679 10.2056 43.16 21.9011 43.16ZM28.5074 10.672C28.829 9.52977 27.7205 8.85432 26.7082 9.57556L12.5761 19.6431C11.4783 20.4253 11.6509 21.9836 12.8356 21.9836H16.5569V21.9548H23.8096L17.9 24.0399L15.2948 33.2952C14.9732 34.4375 16.0816 35.1129 17.094 34.3916L31.2261 24.3241C32.3239 23.5419 32.1511 21.9836 30.9666 21.9836H25.3233L28.5074 10.672Z" fill="#696968"/>
</g>
<defs>
<clipPath id="clip0_2116_4232">
<rect width="180" height="43.4118" fill="white" transform="translate(0 0.660889)"/>
</clipPath>
</defs>
</svg>
