<svg width="32" height="32" viewBox="0 0 32 32" fill="none" xmlns="http://www.w3.org/2000/svg">
<path d="M22.6666 16C22.6666 19.6819 19.6818 22.6667 15.9999 22.6667C12.318 22.6667 9.33325 19.6819 9.33325 16C9.33325 12.3181 12.318 9.33333 15.9999 9.33333" stroke="#141B34" stroke-width="2" stroke-linecap="round"/>
<path d="M18.6667 2.93339C17.8051 2.75848 16.9133 2.66667 16.0001 2.66667C8.63628 2.66667 2.66675 8.6362 2.66675 16C2.66675 23.3637 8.63628 29.3333 16.0001 29.3333C23.3638 29.3333 29.3334 23.3637 29.3334 16C29.3334 15.0868 29.2415 14.1949 29.0667 13.3333" stroke="#141B34" stroke-width="2" stroke-linecap="round"/>
<path d="M16.0403 15.9499L22.1108 9.87932M26.3204 5.79268L25.5828 3.14316C25.447 2.70667 24.9217 2.53272 24.5677 2.82202C22.6529 4.38676 20.5671 6.4944 22.2705 9.81878C25.7027 11.4192 27.662 9.26098 29.1643 7.44692C29.4632 7.08599 29.283 6.54342 28.8328 6.41326L26.3204 5.79268Z" stroke="#141B34" stroke-width="2" stroke-linecap="round" stroke-linejoin="round"/>
</svg>
