<svg width="32" height="32" viewBox="0 0 32 32" fill="none" xmlns="http://www.w3.org/2000/svg">
<path d="M9.33325 22.6666V17.3333" stroke="#141B34" stroke-width="2" stroke-linecap="round"/>
<path d="M15.9998 22.6666V9.33331" stroke="#141B34" stroke-width="2" stroke-linecap="round"/>
<path d="M22.6665 22.6666V14.6666" stroke="#141B34" stroke-width="2" stroke-linecap="round"/>
<path d="M3.33325 16C3.33325 10.0289 3.33325 7.0433 5.18824 5.1883C7.04324 3.33331 10.0288 3.33331 15.9999 3.33331C21.971 3.33331 24.9566 3.33331 26.8117 5.1883C28.6666 7.0433 28.6666 10.0289 28.6666 16C28.6666 21.971 28.6666 24.9566 26.8117 26.8117C24.9566 28.6666 21.971 28.6666 15.9999 28.6666C10.0288 28.6666 7.04324 28.6666 5.18824 26.8117C3.33325 24.9566 3.33325 21.971 3.33325 16Z" stroke="#141B34" stroke-width="2" stroke-linejoin="round"/>
</svg>
