<svg width="32" height="32" viewBox="0 0 32 32" fill="none" xmlns="http://www.w3.org/2000/svg">
<path d="M26.6666 19.3333V8.66667C26.6666 6.15251 26.6666 4.89543 25.8855 4.11439C25.1045 3.33333 23.8474 3.33333 21.3333 3.33333H10.6666C8.15243 3.33333 6.89535 3.33333 6.11431 4.11439C5.33325 4.89543 5.33325 6.15251 5.33325 8.66667V19.3333" stroke="#141B34" stroke-width="2" stroke-linecap="round" stroke-linejoin="round"/>
<path d="M4.66357 20.6872L5.35945 19.3333H26.6025L27.3365 20.6872C29.2603 24.236 29.7395 26.0103 29.0082 27.3385C28.277 28.6667 26.3382 28.6667 22.4606 28.6667H9.53957C5.66197 28.6667 3.72316 28.6667 2.99191 27.3385C2.26065 26.0103 2.73973 24.236 4.66357 20.6872Z" stroke="#141B34" stroke-width="2" stroke-linecap="round" stroke-linejoin="round"/>
<path d="M20.6667 9.33333L21.8933 10.3905C22.4089 10.835 22.6667 11.0572 22.6667 11.3333C22.6667 11.6095 22.4089 11.8317 21.8933 12.2761L20.6667 13.3333" stroke="#141B34" stroke-width="2" stroke-linecap="round" stroke-linejoin="round"/>
<path d="M11.3333 9.33333L10.1067 10.3905C9.59108 10.835 9.33325 11.0572 9.33325 11.3333C9.33325 11.6095 9.59107 11.8317 10.1067 12.2761L11.3333 13.3333" stroke="#141B34" stroke-width="2" stroke-linecap="round" stroke-linejoin="round"/>
<path d="M17.3334 8L14.6667 14.6667" stroke="#141B34" stroke-width="2" stroke-linecap="round" stroke-linejoin="round"/>
</svg>
