<svg width="32" height="32" viewBox="0 0 32 32" fill="none" xmlns="http://www.w3.org/2000/svg">
<path d="M5.05156 12.0495C4.10837 12.56 1.63541 13.6026 3.14161 14.9071C3.87737 15.5443 4.69684 16 5.72708 16H11.6059C12.6362 16 13.4556 15.5443 14.1914 14.9071C15.6976 13.6026 13.2246 12.56 12.2815 12.0495C10.0697 10.8522 7.26329 10.8522 5.05156 12.0495Z" stroke="#141B34" stroke-width="2"/>
<path d="M11.6665 5.69697C11.6665 7.37056 10.3234 8.72727 8.6665 8.72727C7.00965 8.72727 5.6665 7.37056 5.6665 5.69697C5.6665 4.02337 7.00965 2.66667 8.6665 2.66667C10.3234 2.66667 11.6665 4.02337 11.6665 5.69697Z" stroke="#141B34" stroke-width="2"/>
<path d="M5.33325 20C5.33325 24.4228 8.9104 28 13.3333 28L12.1904 25.7143" stroke="#141B34" stroke-width="2" stroke-linecap="round" stroke-linejoin="round"/>
<path d="M26.6665 12C26.6665 7.57715 23.0893 4 18.6665 4L19.8093 6.28572" stroke="#141B34" stroke-width="2" stroke-linecap="round" stroke-linejoin="round"/>
<path d="M19.7183 25.3828C18.7751 25.8933 16.3022 26.9358 17.8083 28.2404C18.5442 28.8776 19.3635 29.3333 20.3938 29.3333H26.2727C27.303 29.3333 28.1223 28.8776 28.8582 28.2404C30.3643 26.9358 27.8914 25.8933 26.9482 25.3828C24.7365 24.1856 21.9301 24.1856 19.7183 25.3828Z" stroke="#141B34" stroke-width="2"/>
<path d="M26.3333 19.0303C26.3333 20.7039 24.9901 22.0607 23.3333 22.0607C21.6765 22.0607 20.3333 20.7039 20.3333 19.0303C20.3333 17.3567 21.6765 16 23.3333 16C24.9901 16 26.3333 17.3567 26.3333 19.0303Z" stroke="#141B34" stroke-width="2"/>
</svg>
