<svg width="32" height="32" viewBox="0 0 32 32" fill="none" xmlns="http://www.w3.org/2000/svg">
<path d="M13.3334 26C8.30509 26 5.79095 26 4.22884 24.4379C2.66675 22.8759 2.66675 20.3616 2.66675 15.3333V14C2.66675 8.97167 2.66675 6.45753 4.22884 4.89542C5.79095 3.33333 8.30509 3.33333 13.3334 3.33333H18.0001C22.3834 3.33333 24.575 3.33333 26.0502 4.54394C26.3202 4.76557 26.5678 5.01318 26.7894 5.28323C28.0001 6.75837 28.0001 8.95002 28.0001 13.3333" stroke="#141B34" stroke-width="2" stroke-linecap="round" stroke-linejoin="round"/>
<path d="M2.66675 11.3333H28.0001" stroke="#141B34" stroke-width="2" stroke-linecap="round" stroke-linejoin="round"/>
<path d="M7.33325 7.33333H7.34656M12.6533 7.33333H12.6666" stroke="#141B34" stroke-width="2.66667" stroke-linecap="round" stroke-linejoin="round"/>
<path d="M19.5621 28.6666H17.3333V26.4378C17.3333 25.7306 17.6142 25.0524 18.1143 24.5522L25.4154 17.2524C26.1965 16.4714 27.4629 16.4714 28.2439 17.2524L28.7487 17.7573C29.5298 18.5384 29.5298 19.8048 28.7487 20.5857L21.4477 27.8856C20.9475 28.3857 20.2693 28.6666 19.5621 28.6666Z" stroke="#141B34" stroke-width="2" stroke-linejoin="round"/>
</svg>
