<svg width="199" height="40" viewBox="0 0 199 40" fill="none" xmlns="http://www.w3.org/2000/svg">
<g clip-path="url(#clip0_642_2381)">
<path d="M47.472 32V28.288H50.416V13.312H47.472V9.6H58.992C60.3573 9.6 61.5413 9.83467 62.544 10.304C63.568 10.752 64.3573 11.4027 64.912 12.256C65.488 13.088 65.776 14.0907 65.776 15.264V15.584C65.776 16.608 65.584 17.4507 65.2 18.112C64.816 18.752 64.3573 19.2533 63.824 19.616C63.312 19.9573 62.8213 20.2027 62.352 20.352V20.928C62.8213 21.056 63.3333 21.3013 63.888 21.664C64.4427 22.0053 64.912 22.5067 65.296 23.168C65.7013 23.8293 65.904 24.6933 65.904 25.76V26.08C65.904 27.3173 65.616 28.384 65.04 29.28C64.464 30.1547 63.664 30.8267 62.64 31.296C61.6373 31.7653 60.464 32 59.12 32H47.472ZM54.64 28.16H58.608C59.5253 28.16 60.2613 27.936 60.816 27.488C61.392 27.04 61.68 26.4 61.68 25.568V25.248C61.68 24.416 61.4027 23.776 60.848 23.328C60.2933 22.88 59.5467 22.656 58.608 22.656H54.64V28.16ZM54.64 18.816H58.544C59.4187 18.816 60.1333 18.592 60.688 18.144C61.264 17.696 61.552 17.0773 61.552 16.288V15.968C61.552 15.1573 61.2747 14.5387 60.72 14.112C60.1653 13.664 59.44 13.44 58.544 13.44H54.64V18.816ZM68.9357 32V16.128H72.9037V17.92H73.4797C73.7143 17.28 74.0983 16.8107 74.6317 16.512C75.1863 16.2133 75.8263 16.064 76.5517 16.064H78.4717V19.648H76.4877C75.4637 19.648 74.621 19.9253 73.9597 20.48C73.2983 21.0133 72.9677 21.8453 72.9677 22.976V32H68.9357ZM85.6218 32.448C84.4912 32.448 83.4778 32.256 82.5818 31.872C81.6858 31.4667 80.9712 30.8907 80.4378 30.144C79.9258 29.376 79.6698 28.448 79.6698 27.36C79.6698 26.272 79.9258 25.3653 80.4378 24.64C80.9712 23.8933 81.6965 23.3387 82.6138 22.976C83.5525 22.592 84.6192 22.4 85.8138 22.4H90.1658V21.504C90.1658 20.7573 89.9312 20.1493 89.4618 19.68C88.9925 19.1893 88.2458 18.944 87.2218 18.944C86.2192 18.944 85.4725 19.1787 84.9818 19.648C84.4912 20.096 84.1712 20.6827 84.0218 21.408L80.3098 20.16C80.5658 19.3493 80.9712 18.6133 81.5258 17.952C82.1018 17.2693 82.8592 16.7253 83.7978 16.32C84.7578 15.8933 85.9205 15.68 87.2858 15.68C89.3765 15.68 91.0298 16.2027 92.2458 17.248C93.4618 18.2933 94.0698 19.808 94.0698 21.792V27.712C94.0698 28.352 94.3685 28.672 94.9658 28.672H96.2458V32H93.5578C92.7685 32 92.1178 31.808 91.6058 31.424C91.0938 31.04 90.8378 30.528 90.8378 29.888V29.856H90.2298C90.1445 30.112 89.9525 30.4533 89.6538 30.88C89.3552 31.2853 88.8858 31.648 88.2458 31.968C87.6058 32.288 86.7312 32.448 85.6218 32.448ZM86.3258 29.184C87.4565 29.184 88.3738 28.8747 89.0778 28.256C89.8032 27.616 90.1658 26.7733 90.1658 25.728V25.408H86.1018C85.3552 25.408 84.7685 25.568 84.3418 25.888C83.9152 26.208 83.7018 26.656 83.7018 27.232C83.7018 27.808 83.9258 28.2773 84.3738 28.64C84.8218 29.0027 85.4725 29.184 86.3258 29.184ZM98.6395 32V16.128H102.607V18.208H103.183C103.439 17.6533 103.919 17.1307 104.623 16.64C105.327 16.128 106.394 15.872 107.823 15.872C109.061 15.872 110.138 16.16 111.055 16.736C111.994 17.2907 112.719 18.0693 113.231 19.072C113.743 20.0533 113.999 21.2053 113.999 22.528V32H109.967V22.848C109.967 21.6533 109.669 20.7573 109.071 20.16C108.495 19.5627 107.663 19.264 106.575 19.264C105.338 19.264 104.378 19.68 103.695 20.512C103.013 21.3227 102.671 22.464 102.671 23.936V32H98.6395ZM124.204 32.448C122.945 32.448 121.761 32.1387 120.652 31.52C119.564 30.88 118.689 29.952 118.028 28.736C117.367 27.52 117.036 26.048 117.036 24.32V23.808C117.036 22.08 117.367 20.608 118.028 19.392C118.689 18.176 119.564 17.2587 120.652 16.64C121.74 16 122.924 15.68 124.204 15.68C125.164 15.68 125.964 15.7973 126.604 16.032C127.265 16.2453 127.799 16.5227 128.204 16.864C128.609 17.2053 128.919 17.568 129.132 17.952H129.708V9.6H133.74V32H129.772V30.08H129.196C128.833 30.6773 128.268 31.2213 127.5 31.712C126.753 32.2027 125.655 32.448 124.204 32.448ZM125.42 28.928C126.657 28.928 127.692 28.5333 128.524 27.744C129.356 26.9333 129.772 25.76 129.772 24.224V23.904C129.772 22.368 129.356 21.2053 128.524 20.416C127.713 19.6053 126.679 19.2 125.42 19.2C124.183 19.2 123.148 19.6053 122.316 20.416C121.484 21.2053 121.068 22.368 121.068 23.904V24.224C121.068 25.76 121.484 26.9333 122.316 27.744C123.148 28.5333 124.183 28.928 125.42 28.928ZM145.098 32V9.6H149.322V28.16H159.562V32H145.098ZM166.944 32.448C165.813 32.448 164.8 32.256 163.904 31.872C163.008 31.4667 162.293 30.8907 161.76 30.144C161.248 29.376 160.992 28.448 160.992 27.36C160.992 26.272 161.248 25.3653 161.76 24.64C162.293 23.8933 163.019 23.3387 163.936 22.976C164.875 22.592 165.941 22.4 167.136 22.4H171.488V21.504C171.488 20.7573 171.253 20.1493 170.784 19.68C170.315 19.1893 169.568 18.944 168.544 18.944C167.541 18.944 166.795 19.1787 166.304 19.648C165.813 20.096 165.493 20.6827 165.344 21.408L161.632 20.16C161.888 19.3493 162.293 18.6133 162.848 17.952C163.424 17.2693 164.181 16.7253 165.12 16.32C166.08 15.8933 167.243 15.68 168.608 15.68C170.699 15.68 172.352 16.2027 173.568 17.248C174.784 18.2933 175.392 19.808 175.392 21.792V27.712C175.392 28.352 175.691 28.672 176.288 28.672H177.568V32H174.88C174.091 32 173.44 31.808 172.928 31.424C172.416 31.04 172.16 30.528 172.16 29.888V29.856H171.552C171.467 30.112 171.275 30.4533 170.976 30.88C170.677 31.2853 170.208 31.648 169.568 31.968C168.928 32.288 168.053 32.448 166.944 32.448ZM167.648 29.184C168.779 29.184 169.696 28.8747 170.4 28.256C171.125 27.616 171.488 26.7733 171.488 25.728V25.408H167.424C166.677 25.408 166.091 25.568 165.664 25.888C165.237 26.208 165.024 26.656 165.024 27.232C165.024 27.808 165.248 28.2773 165.696 28.64C166.144 29.0027 166.795 29.184 167.648 29.184ZM189.498 32.448C188.068 32.448 186.97 32.2027 186.202 31.712C185.434 31.2213 184.868 30.6773 184.506 30.08H183.93V32H179.962V9.6H183.994V17.952H184.57C184.804 17.568 185.114 17.2053 185.498 16.864C185.903 16.5227 186.426 16.2453 187.066 16.032C187.727 15.7973 188.538 15.68 189.498 15.68C190.778 15.68 191.962 16 193.05 16.64C194.138 17.2587 195.012 18.176 195.674 19.392C196.335 20.608 196.666 22.08 196.666 23.808V24.32C196.666 26.048 196.335 27.52 195.674 28.736C195.012 29.952 194.138 30.88 193.05 31.52C191.962 32.1387 190.778 32.448 189.498 32.448ZM188.282 28.928C189.519 28.928 190.554 28.5333 191.386 27.744C192.218 26.9333 192.634 25.76 192.634 24.224V23.904C192.634 22.368 192.218 21.2053 191.386 20.416C190.575 19.6053 189.54 19.2 188.282 19.2C187.044 19.2 186.01 19.6053 185.178 20.416C184.346 21.2053 183.93 22.368 183.93 23.904V24.224C183.93 25.76 184.346 26.9333 185.178 27.744C186.01 28.5333 187.044 28.928 188.282 28.928Z" fill="white"/>
<path d="M12.0552 23.8096L12.0552 23.8096C11.8539 25.3624 11.1324 26.8011 10.0084 27.8909L12.0552 23.8096ZM12.0552 23.8096L12.0555 23.807C12.1346 22.9612 12.5122 22.1713 13.1206 21.5787L13.1207 21.5787L13.1224 21.577C13.7076 20.9679 14.4952 20.5936 15.3369 20.5247L15.3369 20.5249L15.3416 20.5242C16.8868 20.3005 18.3183 19.5831 19.4223 18.479C20.5264 17.375 21.2438 15.9435 21.4675 14.3982L21.4678 14.3983L21.4682 14.392C21.5212 13.5074 21.9007 12.674 22.5333 12.0535L22.5337 12.0531C23.1336 11.4557 23.9288 11.095 24.7734 11.0373L24.7734 11.0375L24.7785 11.0368C26.1769 10.8444 27.4825 10.2294 28.521 9.27485C29.6576 10.2276 30.6237 11.3669 31.3778 12.6441C31.3412 12.6888 31.3007 12.7304 31.2569 12.7682L31.2566 12.7679L31.2514 12.7733C30.6673 13.3879 29.8805 13.7705 29.0363 13.8503L29.0362 13.8502L29.0328 13.8507C27.4858 14.0705 26.0521 14.7867 24.9473 15.8915L24.9985 15.9427L24.9473 15.8915C23.8425 16.9963 23.1263 18.43 22.9066 19.9769L22.9065 19.9769L22.9062 19.9798C22.8198 20.8231 22.4446 21.6107 21.8441 22.209C21.2435 22.8074 20.4546 23.1797 19.6109 23.2628L19.6109 23.2628L19.6077 23.2632C18.0579 23.4852 16.6213 24.2012 15.5108 25.3047L15.5578 25.352L15.5108 25.3047C14.4005 26.4083 13.6756 27.8406 13.4441 29.3889L13.4441 29.3889L13.4438 29.3918C13.3804 29.9671 13.1881 30.5204 12.8818 31.0108C11.6522 30.2718 10.5479 29.3421 9.61027 28.2565L12.0552 23.8096ZM35.437 12.745L35.3683 12.775L35.437 12.7449C34.7981 11.284 33.9525 9.92243 32.9261 8.70212C31.4088 6.84454 29.5153 5.32931 27.3702 4.25616C25.225 3.18295 22.8768 2.57621 20.4802 2.47588C18.0836 2.37555 15.6929 2.7839 13.4655 3.67408C11.2381 4.56425 9.22446 5.91605 7.55714 7.64052C5.8898 9.36497 4.60657 11.423 3.79191 13.6791C2.97726 15.9352 2.64962 18.3383 2.8306 20.7301C3.01158 23.1221 3.69705 25.4485 4.8419 27.5563C5.9867 29.6641 7.5649 31.5056 9.47261 32.9594C10.6968 33.911 12.0494 34.6845 13.4902 35.257C15.5104 36.0849 17.6725 36.5112 19.8558 36.5125H19.856C24.3626 36.5026 28.6814 34.7062 31.8658 31.5171C35.05 28.3281 36.84 24.0066 36.8433 19.5C36.8466 17.1754 36.3678 14.8752 35.437 12.745ZM8.55613 23.0556C8.4861 23.8176 8.17273 24.5358 7.66391 25.1046C6.72823 23.0844 6.30942 20.8625 6.44602 18.6392C6.58489 16.3788 7.29332 14.1903 8.50539 12.2773C9.71744 10.3643 11.3938 8.789 13.3783 7.69801C15.3273 6.62654 17.5115 6.05641 19.7342 6.03794L19.7219 6.06249L19.8433 6.06248C21.7271 6.06228 23.5888 6.46184 25.3055 7.234C24.9278 7.38322 24.5342 7.48953 24.1324 7.55079C22.5872 7.7745 21.1558 8.4919 20.0518 9.59592C18.9477 10.7 18.2303 12.1315 18.0066 13.6767L18.0065 13.6767L18.0063 13.679C17.9111 14.5195 17.5288 15.3014 16.924 15.8929C16.3192 16.4843 15.529 16.8489 14.6865 16.9253L14.6865 16.9252L14.6826 16.9258C13.1373 17.1495 11.7058 17.8669 10.6017 18.971C9.4977 20.075 8.78027 21.5065 8.55659 23.0517L8.55649 23.0517L8.55613 23.0556ZM29.678 17.3619C30.8068 17.2151 31.8844 16.8032 32.8228 16.1605C33.3219 18.1154 33.3748 20.1579 32.9773 22.1368C32.5727 24.1509 31.712 26.0455 30.4614 27.6753C29.2109 29.305 27.6037 30.6268 25.763 31.5389C23.9224 32.4511 21.8973 32.9295 19.843 32.9375L19.7683 32.9378V32.9999C18.563 32.9945 17.3638 32.8273 16.2029 32.5031C16.5997 31.7402 16.8587 30.9129 16.9677 30.0595L16.9677 30.0595L16.9679 30.0576C17.0538 29.2162 17.4273 28.4301 18.0253 27.832C18.6234 27.234 19.4095 26.8605 20.2509 26.7746L20.2509 26.7747L20.2539 26.7742C21.8015 26.5531 23.2358 25.8368 24.3424 24.7325C25.4489 23.6283 26.1682 22.1953 26.3925 20.6483L26.3926 20.6483L26.3929 20.6451C26.4788 19.8036 26.8523 19.0176 27.4503 18.4195C28.0484 17.8215 28.8345 17.448 29.6759 17.3621L29.678 17.3619Z" fill="white" stroke="white" stroke-width="0.15"/>
</g>
<defs>
<clipPath id="clip0_642_2381">
<rect width="199" height="40" fill="white"/>
</clipPath>
</defs>
</svg>
