<svg width="193" height="41" viewBox="0 0 193 41" fill="none" xmlns="http://www.w3.org/2000/svg">
<g clip-path="url(#clip0_642_2359)">
<path fill-rule="evenodd" clip-rule="evenodd" d="M22.5975 5.567L25.5965 1L34.0987 5.317L31.1009 9.883C30.5743 10.684 31.3624 11.658 32.3951 11.483L38.1405 10.508L40 18.985L34.2545 19.959C24.9608 21.535 17.8653 12.775 22.5975 5.567Z" fill="white"/>
<path fill-rule="evenodd" clip-rule="evenodd" d="M17.4025 36.433L14.4035 41L5.90014 36.684L8.89911 32.117C9.42567 31.316 8.63754 30.342 7.60377 30.517L1.85943 31.491L0 23.015L5.74547 22.041C15.0392 20.465 22.1335 29.225 17.4025 36.433Z" fill="white"/>
<path fill-rule="evenodd" clip-rule="evenodd" d="M17.6618 5.567L14.6639 1L6.1606 5.317L9.15957 9.883C9.68499 10.684 8.898 11.658 7.86423 11.483L2.11875 10.508L0.261597 18.985L6.00593 19.959C15.3008 21.535 22.3962 12.775 17.6629 5.567H17.6618Z" fill="white"/>
<path fill-rule="evenodd" clip-rule="evenodd" d="M22.3473 36.433L25.344 41L33.8473 36.684L30.8483 32.117C30.3229 31.316 31.1099 30.342 32.1437 30.517L37.888 31.491L39.7474 23.015L34.002 22.041C24.7082 20.465 17.614 29.225 22.345 36.433H22.3473Z" fill="white"/>
<path d="M60.888 32.948C59.16 32.948 57.6347 32.6387 56.312 32.02C54.9893 31.4013 53.9547 30.516 53.208 29.364C52.4613 28.212 52.088 26.8253 52.088 25.204V24.308H56.248V25.204C56.248 26.548 56.664 27.5613 57.496 28.244C58.328 28.9053 59.4587 29.236 60.888 29.236C62.3387 29.236 63.416 28.948 64.12 28.372C64.8453 27.796 65.208 27.06 65.208 26.164C65.208 25.5453 65.0267 25.044 64.664 24.66C64.3227 24.276 63.8107 23.9667 63.128 23.732C62.4667 23.476 61.656 23.2413 60.696 23.028L59.96 22.868C58.424 22.5267 57.1013 22.1 55.992 21.588C54.904 21.0547 54.0613 20.3613 53.464 19.508C52.888 18.6547 52.6 17.5453 52.6 16.18C52.6 14.8147 52.92 13.652 53.56 12.692C54.2213 11.7107 55.1387 10.964 56.312 10.452C57.5067 9.91867 58.904 9.652 60.504 9.652C62.104 9.652 63.5227 9.92933 64.76 10.484C66.0187 11.0173 67 11.828 67.704 12.916C68.4293 13.9827 68.792 15.3267 68.792 16.948V17.908H64.632V16.948C64.632 16.0947 64.4613 15.412 64.12 14.9C63.8 14.3667 63.3307 13.9827 62.712 13.748C62.0933 13.492 61.3573 13.364 60.504 13.364C59.224 13.364 58.2747 13.6093 57.656 14.1C57.0587 14.5693 56.76 15.22 56.76 16.052C56.76 16.6067 56.8987 17.076 57.176 17.46C57.4747 17.844 57.912 18.164 58.488 18.42C59.064 18.676 59.8 18.9 60.696 19.092L61.432 19.252C63.032 19.5933 64.4187 20.0307 65.592 20.564C66.7867 21.0973 67.7147 21.8013 68.376 22.676C69.0373 23.5507 69.368 24.6707 69.368 26.036C69.368 27.4013 69.016 28.6067 68.312 29.652C67.6293 30.676 66.648 31.4867 65.368 32.084C64.1093 32.66 62.616 32.948 60.888 32.948ZM77.0199 32.948C75.8892 32.948 74.8759 32.756 73.9799 32.372C73.0839 31.9667 72.3692 31.3907 71.8359 30.644C71.3239 29.876 71.0679 28.948 71.0679 27.86C71.0679 26.772 71.3239 25.8653 71.8359 25.14C72.3692 24.3933 73.0946 23.8387 74.0119 23.476C74.9506 23.092 76.0172 22.9 77.2119 22.9H81.5639V22.004C81.5639 21.2573 81.3292 20.6493 80.8599 20.18C80.3906 19.6893 79.6439 19.444 78.6199 19.444C77.6172 19.444 76.8706 19.6787 76.3799 20.148C75.8892 20.596 75.5692 21.1827 75.4199 21.908L71.7079 20.66C71.9639 19.8493 72.3692 19.1133 72.9239 18.452C73.4999 17.7693 74.2572 17.2253 75.1959 16.82C76.1559 16.3933 77.3186 16.18 78.6839 16.18C80.7746 16.18 82.4279 16.7027 83.6439 17.748C84.8599 18.7933 85.4679 20.308 85.4679 22.292V28.212C85.4679 28.852 85.7666 29.172 86.3639 29.172H87.6439V32.5H84.9559C84.1666 32.5 83.5159 32.308 83.0039 31.924C82.4919 31.54 82.2359 31.028 82.2359 30.388V30.356H81.6279C81.5426 30.612 81.3506 30.9533 81.0519 31.38C80.7532 31.7853 80.2839 32.148 79.6439 32.468C79.0039 32.788 78.1292 32.948 77.0199 32.948ZM77.7239 29.684C78.8546 29.684 79.7719 29.3747 80.4759 28.756C81.2012 28.116 81.5639 27.2733 81.5639 26.228V25.908H77.4999C76.7532 25.908 76.1666 26.068 75.7399 26.388C75.3132 26.708 75.0999 27.156 75.0999 27.732C75.0999 28.308 75.3239 28.7773 75.7719 29.14C76.2199 29.5027 76.8706 29.684 77.7239 29.684ZM96.5046 32.948C94.4352 32.948 92.7392 32.5 91.4166 31.604C90.0939 30.708 89.2939 29.428 89.0166 27.764L92.7286 26.804C92.8779 27.5507 93.1232 28.1373 93.4646 28.564C93.8272 28.9907 94.2646 29.3 94.7766 29.492C95.3099 29.6627 95.8859 29.748 96.5046 29.748C97.4432 29.748 98.1366 29.588 98.5846 29.268C99.0326 28.9267 99.2566 28.5107 99.2566 28.02C99.2566 27.5293 99.0432 27.156 98.6166 26.9C98.1899 26.6227 97.5072 26.3987 96.5686 26.228L95.6726 26.068C94.5632 25.8547 93.5499 25.5667 92.6326 25.204C91.7152 24.82 90.9792 24.2973 90.4246 23.636C89.8699 22.9747 89.5926 22.1213 89.5926 21.076C89.5926 19.4973 90.1686 18.292 91.3206 17.46C92.4726 16.6067 93.9872 16.18 95.8646 16.18C97.6352 16.18 99.1072 16.5747 100.281 17.364C101.454 18.1533 102.222 19.188 102.585 20.468L98.8406 21.62C98.6699 20.8093 98.3179 20.2333 97.7846 19.892C97.2726 19.5507 96.6326 19.38 95.8646 19.38C95.0966 19.38 94.5099 19.5187 94.1046 19.796C93.6992 20.052 93.4966 20.4147 93.4966 20.884C93.4966 21.396 93.7099 21.78 94.1366 22.036C94.5632 22.2707 95.1392 22.452 95.8646 22.58L96.7606 22.74C97.9552 22.9533 99.0326 23.2413 99.9926 23.604C100.974 23.9453 101.742 24.4467 102.297 25.108C102.873 25.748 103.161 26.6227 103.161 27.732C103.161 29.396 102.553 30.6867 101.337 31.604C100.142 32.5 98.5312 32.948 96.5046 32.948ZM112.731 32.948C110.662 32.948 108.966 32.5 107.643 31.604C106.321 30.708 105.521 29.428 105.243 27.764L108.955 26.804C109.105 27.5507 109.35 28.1373 109.691 28.564C110.054 28.9907 110.491 29.3 111.003 29.492C111.537 29.6627 112.113 29.748 112.731 29.748C113.67 29.748 114.363 29.588 114.811 29.268C115.259 28.9267 115.483 28.5107 115.483 28.02C115.483 27.5293 115.27 27.156 114.843 26.9C114.417 26.6227 113.734 26.3987 112.795 26.228L111.899 26.068C110.79 25.8547 109.777 25.5667 108.859 25.204C107.942 24.82 107.206 24.2973 106.651 23.636C106.097 22.9747 105.819 22.1213 105.819 21.076C105.819 19.4973 106.395 18.292 107.547 17.46C108.699 16.6067 110.214 16.18 112.091 16.18C113.862 16.18 115.334 16.5747 116.507 17.364C117.681 18.1533 118.449 19.188 118.811 20.468L115.067 21.62C114.897 20.8093 114.545 20.2333 114.011 19.892C113.499 19.5507 112.859 19.38 112.091 19.38C111.323 19.38 110.737 19.5187 110.331 19.796C109.926 20.052 109.723 20.4147 109.723 20.884C109.723 21.396 109.937 21.78 110.363 22.036C110.79 22.2707 111.366 22.452 112.091 22.58L112.987 22.74C114.182 22.9533 115.259 23.2413 116.219 23.604C117.201 23.9453 117.969 24.4467 118.523 25.108C119.099 25.748 119.387 26.6227 119.387 27.732C119.387 29.396 118.779 30.6867 117.563 31.604C116.369 32.5 114.758 32.948 112.731 32.948ZM122.366 32.5V16.628H126.334V18.356H126.91C127.188 17.8227 127.646 17.364 128.286 16.98C128.926 16.5747 129.769 16.372 130.814 16.372C131.945 16.372 132.852 16.596 133.534 17.044C134.217 17.4707 134.74 18.036 135.102 18.74H135.678C136.041 18.0573 136.553 17.492 137.214 17.044C137.876 16.596 138.814 16.372 140.03 16.372C141.012 16.372 141.897 16.5853 142.686 17.012C143.497 17.4173 144.137 18.0467 144.606 18.9C145.097 19.732 145.342 20.788 145.342 22.068V32.5H141.31V22.356C141.31 21.4813 141.086 20.8307 140.638 20.404C140.19 19.956 139.561 19.732 138.75 19.732C137.833 19.732 137.118 20.0307 136.606 20.628C136.116 21.204 135.87 22.036 135.87 23.124V32.5H131.838V22.356C131.838 21.4813 131.614 20.8307 131.166 20.404C130.718 19.956 130.089 19.732 129.278 19.732C128.361 19.732 127.646 20.0307 127.134 20.628C126.644 21.204 126.398 22.036 126.398 23.124V32.5H122.366ZM149.125 32.5V16.628H153.157V32.5H149.125ZM151.141 14.772C150.415 14.772 149.797 14.5373 149.285 14.068C148.794 13.5987 148.549 12.98 148.549 12.212C148.549 11.444 148.794 10.8253 149.285 10.356C149.797 9.88667 150.415 9.652 151.141 9.652C151.887 9.652 152.506 9.88667 152.997 10.356C153.487 10.8253 153.733 11.444 153.733 12.212C153.733 12.98 153.487 13.5987 152.997 14.068C152.506 14.5373 151.887 14.772 151.141 14.772ZM157.07 32.5V16.628H161.038V18.42H161.614C161.849 17.78 162.233 17.3107 162.766 17.012C163.321 16.7133 163.961 16.564 164.686 16.564H166.606V20.148H164.622C163.598 20.148 162.756 20.4253 162.094 20.98C161.433 21.5133 161.102 22.3453 161.102 23.476V32.5H157.07Z" fill="white"/>
</g>
<defs>
<clipPath id="clip0_642_2359">
<rect width="193" height="40" fill="white" transform="translate(0 0.5)"/>
</clipPath>
</defs>
</svg>
