<svg width="167" height="41" viewBox="0 0 167 41" fill="none" xmlns="http://www.w3.org/2000/svg">
<g clip-path="url(#clip0_642_2367)">
<path fill-rule="evenodd" clip-rule="evenodd" d="M8.65417 3.89144C7.22351 4.8918 5.92981 6.07455 4.80676 7.40597C9.39606 6.9799 15.2266 7.67562 21.9958 11.0603C29.2244 14.6745 35.0452 14.7967 39.0962 14.0153C38.7286 12.9024 38.2658 11.8328 37.7177 10.816C33.0804 11.3051 27.1354 10.6577 20.207 7.19355C15.8074 4.99375 11.9292 4.08758 8.65417 3.89144ZM35.0088 6.96022C31.3467 2.86857 26.0248 0.293579 20.1014 0.293579C18.3619 0.293579 16.6741 0.515686 15.0651 0.933059C17.2443 1.52766 19.5593 2.39756 21.9958 3.61584C27.0684 6.1521 31.4478 6.96873 35.0088 6.96022ZM39.9623 17.9217C35.0683 18.8881 28.3102 18.6896 20.207 14.638C12.6314 10.8502 6.60187 10.8979 2.53534 11.8016C2.32544 11.8482 2.12048 11.8972 1.92047 11.9482C1.38806 13.1061 0.963074 14.3237 0.658142 15.5881C0.983826 15.5011 1.32037 15.4184 1.6676 15.3412C6.60101 14.2449 13.5715 14.2925 21.9958 18.5047C29.5715 22.2925 35.601 22.2448 39.6676 21.3411C39.8069 21.3102 39.9442 21.2782 40.0792 21.2452C40.094 20.9299 40.1014 20.6126 40.1014 20.2936C40.1014 19.4911 40.0542 18.6996 39.9623 17.9217ZM39.4262 25.4659C34.5797 26.3132 28.0184 25.988 20.207 22.0824C12.6314 18.2946 6.60187 18.3423 2.53534 19.246C1.63269 19.4465 0.820679 19.6908 0.10437 19.9487C0.102417 20.0634 0.10144 20.1784 0.10144 20.2936C0.10144 31.3393 9.05573 40.2936 20.1014 40.2936C29.3585 40.2936 37.1467 34.0045 39.4262 25.4659Z" fill="white"/>
<path d="M51.576 31.5L57.464 9.1H64.824L70.712 31.5H66.36L65.144 26.572H57.144L55.928 31.5H51.576ZM58.136 22.668H64.152L61.432 11.756H60.856L58.136 22.668ZM72.1989 23.628V23.116C72.1989 21.452 72.5296 20.0333 73.1909 18.86C73.8522 17.6653 74.7269 16.7587 75.8149 16.14C76.9242 15.5 78.1296 15.18 79.4309 15.18C80.8816 15.18 81.9802 15.436 82.7269 15.948C83.4736 16.46 84.0176 16.9933 84.3589 17.548H84.9349V15.628H88.9029V34.316C88.9029 35.404 88.5829 36.268 87.9429 36.908C87.3029 37.5693 86.4496 37.9 85.3829 37.9H74.7589V34.38H83.9749C84.5722 34.38 84.8709 34.06 84.8709 33.42V29.292H84.2949C84.0816 29.6333 83.7829 29.9853 83.3989 30.348C83.0149 30.6893 82.5029 30.9773 81.8629 31.212C81.2229 31.4467 80.4122 31.564 79.4309 31.564C78.1296 31.564 76.9242 31.2547 75.8149 30.636C74.7269 29.996 73.8522 29.0893 73.1909 27.916C72.5296 26.7213 72.1989 25.292 72.1989 23.628ZM80.5829 28.044C81.8202 28.044 82.8549 27.6493 83.6869 26.86C84.5189 26.0707 84.9349 24.9613 84.9349 23.532V23.212C84.9349 21.7613 84.5189 20.652 83.6869 19.884C82.8762 19.0947 81.8416 18.7 80.5829 18.7C79.3456 18.7 78.3109 19.0947 77.4789 19.884C76.6469 20.652 76.2309 21.7613 76.2309 23.212V23.532C76.2309 24.9613 76.6469 26.0707 77.4789 26.86C78.3109 27.6493 79.3456 28.044 80.5829 28.044ZM100.051 31.948C98.4722 31.948 97.0748 31.6173 95.8588 30.956C94.6642 30.2733 93.7255 29.324 93.0428 28.108C92.3815 26.8707 92.0508 25.42 92.0508 23.756V23.372C92.0508 21.708 92.3815 20.268 93.0428 19.052C93.7042 17.8147 94.6322 16.8653 95.8268 16.204C97.0215 15.5213 98.4082 15.18 99.9868 15.18C101.544 15.18 102.899 15.532 104.051 16.236C105.203 16.9187 106.099 17.8787 106.739 19.116C107.379 20.332 107.699 21.7507 107.699 23.372V24.748H96.1468C96.1895 25.836 96.5948 26.7213 97.3628 27.404C98.1308 28.0867 99.0695 28.428 100.179 28.428C101.309 28.428 102.141 28.1827 102.675 27.692C103.208 27.2013 103.613 26.6573 103.891 26.06L107.187 27.788C106.888 28.3427 106.451 28.9507 105.875 29.612C105.32 30.252 104.573 30.8067 103.635 31.276C102.696 31.724 101.501 31.948 100.051 31.948ZM96.1788 21.74H103.603C103.517 20.8227 103.144 20.0867 102.483 19.532C101.843 18.9773 101 18.7 99.9548 18.7C98.8668 18.7 98.0028 18.9773 97.3628 19.532C96.7228 20.0867 96.3282 20.8227 96.1788 21.74ZM110.733 31.5V15.628H114.701V17.708H115.277C115.533 17.1533 116.013 16.6307 116.717 16.14C117.421 15.628 118.488 15.372 119.917 15.372C121.155 15.372 122.232 15.66 123.149 16.236C124.088 16.7907 124.813 17.5693 125.325 18.572C125.837 19.5533 126.093 20.7053 126.093 22.028V31.5H122.061V22.348C122.061 21.1533 121.763 20.2573 121.165 19.66C120.589 19.0627 119.757 18.764 118.669 18.764C117.432 18.764 116.472 19.18 115.789 20.012C115.107 20.8227 114.765 21.964 114.765 23.436V31.5H110.733ZM129.898 31.5V15.628H133.93V31.5H129.898ZM131.914 13.772C131.188 13.772 130.57 13.5373 130.058 13.068C129.567 12.5987 129.322 11.98 129.322 11.212C129.322 10.444 129.567 9.82533 130.058 9.356C130.57 8.88667 131.188 8.652 131.914 8.652C132.66 8.652 133.279 8.88667 133.77 9.356C134.26 9.82533 134.506 10.444 134.506 11.212C134.506 11.98 134.26 12.5987 133.77 13.068C133.279 13.5373 132.66 13.772 131.914 13.772ZM136.435 31.5L142.195 23.5L136.499 15.628H141.171L144.787 20.908H145.363L148.979 15.628H153.651L147.955 23.5L153.715 31.5H148.979L145.363 26.156H144.787L141.171 31.5H136.435Z" fill="white"/>
</g>
<defs>
<clipPath id="clip0_642_2367">
<rect width="167" height="41" fill="white"/>
</clipPath>
</defs>
</svg>
