<svg width="155" height="40" viewBox="0 0 155 40" fill="none" xmlns="http://www.w3.org/2000/svg">
<g clip-path="url(#clip0_642_2378)">
<path d="M36.7544 14.3399C36.7545 12.0653 36.0676 9.84367 34.7838 7.96603C33.4999 6.08838 31.6787 4.64227 29.5591 3.81713C27.4394 2.99197 25.1199 2.82626 22.9044 3.34167C20.6889 3.85709 18.6808 5.02962 17.143 6.70566H2.88013V36.8085H32.9944V22.7399C34.1763 21.6828 35.1222 20.3883 35.77 18.9409C36.4179 17.4934 36.7534 15.9258 36.7544 14.3399ZM30.9601 14.3399C30.9624 15.4299 30.6412 16.4961 30.0374 17.4035C29.4334 18.3108 28.5739 19.0187 27.5675 19.4373C26.5611 19.8561 25.4532 19.9668 24.3839 19.7555C23.3146 19.5443 22.332 19.0205 21.5604 18.2506C20.7889 17.4806 20.2632 16.4991 20.0497 15.4302C19.8362 14.3614 19.9447 13.2532 20.3612 12.246C20.7778 11.2388 21.4839 10.3778 22.3899 9.77197C23.2961 9.16618 24.3616 8.84282 25.4515 8.84281C26.9105 8.84281 28.3099 9.42161 29.3426 10.4522C30.3754 11.4828 30.9571 12.881 30.9601 14.3399ZM27.2001 31.0142H8.67441V12.4999H14.3201C14.2111 13.1074 14.1537 13.7229 14.1487 14.3399C14.1518 17.3367 15.3435 20.2099 17.4626 22.329C19.5816 24.4479 22.4547 25.6398 25.4515 25.6428C26.0375 25.6397 26.6222 25.59 27.2001 25.4942V31.0142Z" fill="white"/>
<path d="M55.888 32.448C54.16 32.448 52.6347 32.1387 51.312 31.52C49.9893 30.9013 48.9547 30.016 48.208 28.864C47.4613 27.712 47.088 26.3253 47.088 24.704V23.808H51.248V24.704C51.248 26.048 51.664 27.0613 52.496 27.744C53.328 28.4053 54.4587 28.736 55.888 28.736C57.3387 28.736 58.416 28.448 59.12 27.872C59.8453 27.296 60.208 26.56 60.208 25.664C60.208 25.0453 60.0267 24.544 59.664 24.16C59.3227 23.776 58.8107 23.4667 58.128 23.232C57.4667 22.976 56.656 22.7413 55.696 22.528L54.96 22.368C53.424 22.0267 52.1013 21.6 50.992 21.088C49.904 20.5547 49.0613 19.8613 48.464 19.008C47.888 18.1547 47.6 17.0453 47.6 15.68C47.6 14.3147 47.92 13.152 48.56 12.192C49.2213 11.2107 50.1387 10.464 51.312 9.952C52.5067 9.41867 53.904 9.152 55.504 9.152C57.104 9.152 58.5227 9.42933 59.76 9.984C61.0187 10.5173 62 11.328 62.704 12.416C63.4293 13.4827 63.792 14.8267 63.792 16.448V17.408H59.632V16.448C59.632 15.5947 59.4613 14.912 59.12 14.4C58.8 13.8667 58.3307 13.4827 57.712 13.248C57.0933 12.992 56.3573 12.864 55.504 12.864C54.224 12.864 53.2747 13.1093 52.656 13.6C52.0587 14.0693 51.76 14.72 51.76 15.552C51.76 16.1067 51.8987 16.576 52.176 16.96C52.4747 17.344 52.912 17.664 53.488 17.92C54.064 18.176 54.8 18.4 55.696 18.592L56.432 18.752C58.032 19.0933 59.4187 19.5307 60.592 20.064C61.7867 20.5973 62.7147 21.3013 63.376 22.176C64.0373 23.0507 64.368 24.1707 64.368 25.536C64.368 26.9013 64.016 28.1067 63.312 29.152C62.6293 30.176 61.648 30.9867 60.368 31.584C59.1093 32.16 57.616 32.448 55.888 32.448ZM73.1719 32C72.1266 32 71.2732 31.68 70.6119 31.04C69.9719 30.3787 69.6519 29.504 69.6519 28.416V19.456H65.6839V16.128H69.6519V11.2H73.6839V16.128H78.0359V19.456H73.6839V27.712C73.6839 28.352 73.9826 28.672 74.5799 28.672H77.6519V32H73.1719ZM81.1313 32V16.128H85.0993V17.92H85.6753C85.91 17.28 86.294 16.8107 86.8273 16.512C87.382 16.2133 88.022 16.064 88.7473 16.064H90.6673V19.648H88.6833C87.6593 19.648 86.8167 19.9253 86.1553 20.48C85.494 21.0133 85.1633 21.8453 85.1633 22.976V32H81.1313ZM93.2645 32V16.128H97.2965V32H93.2645ZM95.2805 14.272C94.5552 14.272 93.9365 14.0373 93.4245 13.568C92.9338 13.0987 92.6885 12.48 92.6885 11.712C92.6885 10.944 92.9338 10.3253 93.4245 9.856C93.9365 9.38667 94.5552 9.152 95.2805 9.152C96.0272 9.152 96.6458 9.38667 97.1365 9.856C97.6272 10.3253 97.8725 10.944 97.8725 11.712C97.8725 12.48 97.6272 13.0987 97.1365 13.568C96.6458 14.0373 96.0272 14.272 95.2805 14.272ZM103.834 32V19.456H99.8022V16.128H103.834V13.184C103.834 12.096 104.154 11.232 104.794 10.592C105.455 9.93067 106.309 9.6 107.354 9.6H111.514V12.928H108.762C108.165 12.928 107.866 13.248 107.866 13.888V16.128H112.026V19.456H107.866V32H103.834ZM121.294 32.448C119.715 32.448 118.318 32.1173 117.102 31.456C115.907 30.7733 114.969 29.824 114.286 28.608C113.625 27.3707 113.294 25.92 113.294 24.256V23.872C113.294 22.208 113.625 20.768 114.286 19.552C114.947 18.3147 115.875 17.3653 117.07 16.704C118.265 16.0213 119.651 15.68 121.23 15.68C122.787 15.68 124.142 16.032 125.294 16.736C126.446 17.4187 127.342 18.3787 127.982 19.616C128.622 20.832 128.942 22.2507 128.942 23.872V25.248H117.39C117.433 26.336 117.838 27.2213 118.606 27.904C119.374 28.5867 120.313 28.928 121.422 28.928C122.553 28.928 123.385 28.6827 123.918 28.192C124.451 27.7013 124.857 27.1573 125.134 26.56L128.43 28.288C128.131 28.8427 127.694 29.4507 127.118 30.112C126.563 30.752 125.817 31.3067 124.878 31.776C123.939 32.224 122.745 32.448 121.294 32.448ZM117.422 22.24H124.846C124.761 21.3227 124.387 20.5867 123.726 20.032C123.086 19.4773 122.243 19.2 121.198 19.2C120.11 19.2 119.246 19.4773 118.606 20.032C117.966 20.5867 117.571 21.3227 117.422 22.24ZM129.537 32L135.297 24L129.601 16.128H134.273L137.889 21.408H138.465L142.081 16.128H146.753L141.057 24L146.817 32H142.081L138.465 26.656H137.889L134.273 32H129.537Z" fill="white"/>
</g>
<defs>
<clipPath id="clip0_642_2378">
<rect width="155" height="40" fill="white"/>
</clipPath>
</defs>
</svg>
