<svg width="157" height="44" viewBox="0 0 157 44" fill="none" xmlns="http://www.w3.org/2000/svg">
<path d="M0.5431 20.1155C1.52037 16.1876 3.78372 12.6994 6.97274 10.2067C10.1618 7.71384 14.0932 6.35962 18.1409 6.35962C22.1885 6.35962 26.1199 7.71384 29.309 10.2067C32.498 12.6994 34.7613 16.1876 35.7386 20.1155H34.1491C31.4676 20.0761 28.8411 20.8775 26.6384 22.4072C26.5112 22.4992 26.3785 22.5833 26.241 22.6588H26.0555C25.918 22.5833 25.7853 22.4992 25.6582 22.4072C23.436 20.9128 20.8187 20.1147 18.1409 20.1147C15.463 20.1147 12.8458 20.9128 10.6236 22.4072C10.4964 22.4992 10.3637 22.5833 10.2262 22.6588H10.0407C9.90323 22.5833 9.7705 22.4992 9.64333 22.4072C7.4406 20.8775 4.81412 20.0761 2.13266 20.1155H0.5431ZM31.2878 28.421C32.1038 27.7856 33.1152 27.4531 34.1491 27.4805H36.2817V23.2284H34.1491C32.3279 23.2064 30.5486 23.7733 29.0757 24.8445C28.2469 25.4555 27.2443 25.7852 26.2145 25.7852C25.1847 25.7852 24.1821 25.4555 23.3533 24.8445C21.8431 23.7933 20.0471 23.2296 18.2071 23.2296C16.367 23.2296 14.5711 23.7933 13.0609 24.8445C12.2321 25.4555 11.2294 25.7852 10.1997 25.7852C9.16991 25.7852 8.16729 25.4555 7.33847 24.8445C5.84746 23.7595 4.04252 23.192 2.19889 23.2284H0V27.4805H2.13266C3.16655 27.4531 4.1779 27.7856 4.99387 28.421C6.5013 29.473 8.29525 30.037 10.1334 30.037C11.9716 30.037 13.7656 29.473 15.273 28.421C16.0901 27.7876 17.1006 27.4553 18.1342 27.4805C19.1685 27.4508 20.1805 27.7836 20.9954 28.421C22.5057 29.4724 24.3016 30.0359 26.1416 30.0359C27.9817 30.0359 29.7776 29.4724 31.2878 28.421ZM31.2878 36.0244C32.1038 35.389 33.1152 35.0565 34.1491 35.0839H36.2817V30.8318H34.1491C32.3279 30.8098 30.5486 31.3766 29.0757 32.4479C28.2469 33.0589 27.2443 33.3886 26.2145 33.3886C25.1847 33.3886 24.1821 33.0589 23.3533 32.4479C21.8431 31.3967 20.0471 30.8332 18.2071 30.8332C16.367 30.8332 14.5711 31.3967 13.0609 32.4479C12.2321 33.0589 11.2294 33.3886 10.1997 33.3886C9.16991 33.3886 8.16729 33.0589 7.33847 32.4479C5.84746 31.363 4.04252 30.7954 2.19889 30.8318H0V35.0839H2.13266C3.16655 35.0565 4.1779 35.389 4.99387 36.0244C6.5013 37.0764 8.29525 37.6404 10.1334 37.6404C11.9716 37.6404 13.7656 37.0764 15.273 36.0244C16.0901 35.391 17.1006 35.0587 18.1342 35.0839C19.1685 35.0542 20.1805 35.387 20.9954 36.0244C22.5057 37.0758 24.3016 37.6393 26.1416 37.6393C27.9817 37.6393 29.7776 37.0758 31.2878 36.0244Z" fill="white"/>
<path d="M58.7919 34.4797C56.9415 34.4797 55.3082 34.1485 53.8918 33.486C52.4754 32.8235 51.3675 31.8755 50.5679 30.6418C49.7683 29.4082 49.3686 27.9233 49.3686 26.1872V25.2277H53.8233V26.1872C53.8233 27.6264 54.2687 28.7115 55.1597 29.4425C56.0506 30.1507 57.2614 30.5048 58.7919 30.5048C60.3454 30.5048 61.499 30.1964 62.2529 29.5796C63.0296 28.9628 63.418 28.1746 63.418 27.2152C63.418 26.5527 63.2238 26.0158 62.8354 25.6046C62.4699 25.1934 61.9217 24.8622 61.1906 24.6109C60.4824 24.3367 59.6144 24.0855 58.5863 23.857L57.7982 23.6857C56.1534 23.3202 54.737 22.8633 53.5491 22.315C52.384 21.7439 51.4817 21.0014 50.842 20.0877C50.2252 19.1739 49.9168 17.986 49.9168 16.5239C49.9168 15.0619 50.2595 13.8168 50.9448 12.7888C51.653 11.738 52.6353 10.9384 53.8918 10.3901C55.1711 9.81902 56.6674 9.53347 58.3807 9.53347C60.0941 9.53347 61.6133 9.83044 62.9382 10.4244C64.2861 10.9955 65.3369 11.8636 66.0908 13.0287C66.8675 14.1709 67.2559 15.6101 67.2559 17.3463V18.3743H62.8012V17.3463C62.8012 16.4325 62.6184 15.7015 62.2529 15.1532C61.9102 14.5821 61.4077 14.1709 60.7452 13.9196C60.0827 13.6455 59.2945 13.5084 58.3807 13.5084C57.0101 13.5084 55.9935 13.7711 55.331 14.2966C54.6913 14.7991 54.3715 15.4959 54.3715 16.3868C54.3715 16.9808 54.52 17.4834 54.817 17.8946C55.1368 18.3058 55.6051 18.6484 56.2219 18.9226C56.8387 19.1967 57.6269 19.4366 58.5863 19.6422L59.3745 19.8135C61.0878 20.179 62.5727 20.6473 63.8292 21.2185C65.1085 21.7896 66.1022 22.5434 66.8104 23.4801C67.5186 24.4167 67.8727 25.616 67.8727 27.0781C67.8727 28.5401 67.4957 29.8309 66.7419 30.9503C66.0108 32.0468 64.96 32.9149 63.5893 33.5545C62.2415 34.1713 60.6424 34.4797 58.7919 34.4797ZM77.1596 34C76.0402 34 75.1264 33.6573 74.4182 32.972C73.7329 32.2638 73.3902 31.3272 73.3902 30.1621V20.5674H69.1411V17.0036H73.3902V11.7265H77.7078V17.0036H82.3681V20.5674H77.7078V29.4082C77.7078 30.0936 78.0277 30.4362 78.6673 30.4362H81.9569V34H77.1596ZM85.5421 34V17.0036H89.7912V18.9226H90.408C90.6593 18.2372 91.0705 17.7347 91.6416 17.4148C92.2356 17.095 92.9209 16.9351 93.6976 16.9351H95.7536V20.773H93.6291C92.5326 20.773 91.6302 21.07 90.922 21.6639C90.2138 22.235 89.8597 23.126 89.8597 24.3367V34H85.5421ZM98.3941 34V17.0036H102.712V34H98.3941ZM100.553 15.0162C99.7762 15.0162 99.1137 14.7649 98.5654 14.2623C98.04 13.7597 97.7773 13.0972 97.7773 12.2748C97.7773 11.4524 98.04 10.7899 98.5654 10.2873C99.1137 9.78476 99.7762 9.53347 100.553 9.53347C101.352 9.53347 102.015 9.78476 102.54 10.2873C103.066 10.7899 103.329 11.4524 103.329 12.2748C103.329 13.0972 103.066 13.7597 102.54 14.2623C102.015 14.7649 101.352 15.0162 100.553 15.0162ZM109.572 34V20.5674H105.254V17.0036H109.572V13.8511C109.572 12.686 109.915 11.7608 110.6 11.0755C111.308 10.3673 112.222 10.0132 113.341 10.0132H117.796V13.577H114.849C114.209 13.577 113.889 13.9196 113.889 14.605V17.0036H118.344V20.5674H113.889V34H109.572ZM128.128 34.4797C126.437 34.4797 124.941 34.1256 123.639 33.4175C122.36 32.6864 121.354 31.6699 120.623 30.3677C119.915 29.0427 119.561 27.4893 119.561 25.7074V25.2962C119.561 23.5143 119.915 21.9723 120.623 20.6702C121.332 19.3452 122.325 18.3286 123.605 17.6204C124.884 16.8894 126.369 16.5239 128.059 16.5239C129.727 16.5239 131.178 16.9008 132.411 17.6547C133.645 18.3857 134.604 19.4137 135.29 20.7387C135.975 22.0409 136.318 23.56 136.318 25.2962V26.7697H123.947C123.993 27.9348 124.427 28.8828 125.249 29.6138C126.072 30.3449 127.077 30.7104 128.265 30.7104C129.476 30.7104 130.367 30.4477 130.938 29.9222C131.509 29.3968 131.943 28.8143 132.24 28.1746L135.769 30.025C135.45 30.619 134.981 31.2701 134.364 31.9783C133.771 32.6636 132.971 33.2576 131.966 33.7601C130.961 34.2399 129.681 34.4797 128.128 34.4797ZM123.982 23.5486H131.932C131.84 22.5663 131.44 21.7782 130.732 21.1842C130.047 20.5902 129.144 20.2933 128.025 20.2933C126.86 20.2933 125.935 20.5902 125.249 21.1842C124.564 21.7782 124.142 22.5663 123.982 23.5486ZM136.814 34L142.982 25.4333L136.883 17.0036H141.886L145.758 22.6577H146.375L150.247 17.0036H155.25L149.15 25.4333L155.318 34H150.247L146.375 28.2774H145.758L141.886 34H136.814Z" fill="white"/>
</svg>
