<svg width="373" height="398" viewBox="0 0 373 398" fill="none" xmlns="http://www.w3.org/2000/svg">
<g clip-path="url(#clip0_4011_32687)">
<rect width="372.072" height="397.249" fill="white"/>
<path d="M-0.330078 0L372.401 2.53407e-06L372.401 64.6068L-0.330079 64.6068L-0.330078 0Z" fill="white"/>
<path d="M372.401 64.1068L-0.330079 64.1068L-0.330079 65.1068L372.401 65.1068L372.401 64.1068Z" fill="black"/>
<rect x="20.5429" y="15.9034" width="37.7701" height="37.7701" rx="18.8851" fill="black"/>
<rect x="20.5429" y="15.9034" width="37.7701" height="37.7701" rx="18.8851" stroke="black" stroke-width="1.9879"/>
<path d="M38.1134 45.7182C38.5272 47.0484 40.3287 47.0484 40.7425 45.7182L42.376 40.4666C42.561 39.8717 43.0917 39.4689 43.6905 39.4689L48.9766 39.4689C50.3155 39.4689 50.8722 37.6791 49.789 36.857L45.5125 33.6113C45.028 33.2437 44.8253 32.592 45.0104 31.9971L46.6439 26.7455C47.0576 25.4152 45.6001 24.3091 44.5169 25.1312L40.2404 28.3769C39.7559 28.7445 39.1 28.7445 38.6155 28.3769L34.339 25.1312C33.2558 24.3091 31.7983 25.4152 32.2121 26.7455L33.8455 31.9971C34.0306 32.592 33.8279 33.2437 33.3434 33.6113L29.0669 36.857C27.9837 37.6791 28.5404 39.4689 29.8793 39.4689L35.1654 39.4689C35.7642 39.4689 36.2949 39.8717 36.4799 40.4666L38.1134 45.7182Z" fill="black" stroke="white" stroke-width="1.9879" stroke-linejoin="round"/>
<path d="M70.9936 42.7883L70.9936 26.8851L73.3931 26.8851L73.3931 40.7228L80.5992 40.7228L80.5992 42.7883L70.9936 42.7883ZM88.1742 43.0291C87.056 43.0291 86.0802 42.7728 85.2467 42.2603C84.4133 41.7478 83.7662 41.0308 83.3054 40.1093C82.8447 39.1878 82.6143 38.1111 82.6143 36.879C82.6143 35.6417 82.8447 34.5598 83.3054 33.6331C83.7662 32.7065 84.4133 31.9869 85.2467 31.4744C86.0802 30.9619 87.056 30.7056 88.1742 30.7056C89.2924 30.7056 90.2682 30.9619 91.1017 31.4744C91.9352 31.9869 92.5823 32.7065 93.043 33.6331C93.5038 34.5598 93.7341 35.6417 93.7341 36.879C93.7341 38.1111 93.5038 39.1878 93.043 40.1093C92.5823 41.0308 91.9352 41.7478 91.1017 42.2603C90.2682 42.7728 89.2924 43.0291 88.1742 43.0291ZM88.182 41.08C88.9067 41.08 89.5073 40.8884 89.9835 40.5054C90.4598 40.1223 90.8118 39.6123 91.0396 38.9756C91.2726 38.3389 91.389 37.6374 91.389 36.8712C91.389 36.1102 91.2726 35.4114 91.0396 34.7746C90.8118 34.1327 90.4598 33.6176 89.9835 33.2293C89.5073 32.8411 88.9067 32.6469 88.182 32.6469C87.4521 32.6469 86.8464 32.8411 86.3649 33.2293C85.8887 33.6176 85.534 34.1327 85.3011 34.7746C85.0733 35.4114 84.9594 36.1102 84.9594 36.8712C84.9594 37.6374 85.0733 38.3389 85.3011 38.9756C85.534 39.6123 85.8887 40.1223 86.3649 40.5054C86.8464 40.8884 87.4521 41.08 88.182 41.08ZM96.3258 42.7883L96.3258 30.8609L98.5699 30.8609L98.5699 32.7556L98.6942 32.7556C98.9116 32.1137 99.2947 31.609 99.8434 31.2414C100.397 30.8687 101.024 30.6823 101.723 30.6823C101.868 30.6823 102.038 30.6875 102.235 30.6979C102.437 30.7082 102.595 30.7212 102.709 30.7367L102.709 32.9575C102.616 32.9317 102.45 32.9032 102.212 32.8721C101.974 32.8359 101.736 32.8178 101.497 32.8178C100.949 32.8178 100.459 32.9342 100.03 33.1672C99.6053 33.395 99.2688 33.7134 99.0203 34.1223C98.7718 34.5261 98.6476 34.9869 98.6476 35.5045L98.6476 42.7883L96.3258 42.7883ZM109.432 43.0291C108.256 43.0291 107.244 42.778 106.395 42.2758C105.552 41.7685 104.899 41.0567 104.439 40.1404C103.983 39.2189 103.755 38.1395 103.755 36.9023C103.755 35.6806 103.983 34.6038 104.439 33.6719C104.899 32.7401 105.541 32.0128 106.364 31.4899C107.193 30.9671 108.161 30.7056 109.268 30.7056C109.941 30.7056 110.594 30.8169 111.225 31.0395C111.857 31.2621 112.424 31.6116 112.926 32.0878C113.428 32.5641 113.824 33.1827 114.114 33.9437C114.404 34.6995 114.549 35.6184 114.549 36.7004L114.549 37.5235L105.067 37.5235L105.067 35.7841L112.274 35.7841C112.274 35.1732 112.149 34.6322 111.901 34.1612C111.652 33.6849 111.303 33.3096 110.853 33.0352C110.407 32.7608 109.885 32.6236 109.284 32.6236C108.632 32.6236 108.062 32.7841 107.576 33.1051C107.094 33.4209 106.721 33.835 106.457 34.3475C106.199 34.8548 106.069 35.4062 106.069 36.0015L106.069 37.3604C106.069 38.1577 106.209 38.8358 106.489 39.3949C106.773 39.954 107.169 40.3811 107.677 40.6762C108.184 40.9661 108.777 41.111 109.455 41.111C109.895 41.111 110.296 41.0489 110.658 40.9247C111.021 40.7953 111.334 40.6037 111.598 40.35C111.862 40.0964 112.064 39.7832 112.204 39.4105L114.401 39.8065C114.225 40.4536 113.91 41.0204 113.454 41.5071C113.004 41.9885 112.437 42.3638 111.753 42.633C111.075 42.897 110.301 43.0291 109.432 43.0291ZM117.125 42.7883L117.125 30.8609L119.354 30.8609L119.354 32.8022L119.501 32.8022C119.75 32.1448 120.156 31.6323 120.72 31.2647C121.285 30.892 121.96 30.7056 122.747 30.7056C123.544 30.7056 124.212 30.892 124.75 31.2647C125.294 31.6375 125.695 32.15 125.954 32.8022L126.078 32.8022C126.363 32.1655 126.816 31.6582 127.437 31.2803C128.058 30.8972 128.799 30.7056 129.658 30.7056C130.74 30.7056 131.623 31.0447 132.306 31.7229C132.995 32.401 133.339 33.4235 133.339 34.7901L133.339 42.7883L131.017 42.7883L131.017 35.0076C131.017 34.2 130.797 33.615 130.357 33.2526C129.917 32.8902 129.391 32.7091 128.781 32.7091C128.025 32.7091 127.437 32.942 127.018 33.4079C126.599 33.8687 126.389 34.4614 126.389 35.1862L126.389 42.7883L124.075 42.7883L124.075 34.86C124.075 34.2129 123.873 33.6927 123.469 33.2992C123.065 32.9058 122.54 32.7091 121.893 32.7091C121.453 32.7091 121.046 32.8255 120.674 33.0585C120.306 33.2863 120.008 33.6046 119.781 34.0136C119.558 34.4226 119.447 34.8963 119.447 35.4347L119.447 42.7883L117.125 42.7883ZM142.238 42.7883L142.238 30.8609L144.56 30.8609L144.56 42.7883L142.238 42.7883ZM143.41 29.0206C143.006 29.0206 142.66 28.886 142.37 28.6168C142.085 28.3424 141.943 28.0163 141.943 27.6384C141.943 27.2553 142.085 26.9291 142.37 26.6599C142.66 26.3856 143.006 26.2484 143.41 26.2484C143.814 26.2484 144.158 26.3856 144.443 26.6599C144.733 26.9291 144.878 27.2553 144.878 27.6384C144.878 28.0163 144.733 28.3424 144.443 28.6168C144.158 28.886 143.814 29.0206 143.41 29.0206ZM147.683 47.2611L147.683 30.8609L149.951 30.8609L149.951 32.7945L150.145 32.7945C150.279 32.546 150.473 32.2587 150.727 31.9325C150.981 31.6064 151.333 31.3217 151.783 31.0784C152.234 30.8299 152.829 30.7056 153.569 30.7056C154.532 30.7056 155.391 30.9489 156.147 31.4356C156.903 31.9222 157.496 32.6236 157.925 33.5399C158.36 34.4562 158.578 35.5589 158.578 36.8479C158.578 38.137 158.363 39.2422 157.933 40.1637C157.504 41.08 156.913 41.7866 156.163 42.2836C155.412 42.7754 154.555 43.0213 153.592 43.0213C152.868 43.0213 152.275 42.8996 151.814 42.6563C151.359 42.413 151.001 42.1283 150.743 41.8021C150.484 41.476 150.284 41.1861 150.145 40.9324L150.005 40.9324L150.005 47.2611L147.683 47.2611ZM149.958 36.8246C149.958 37.6633 150.08 38.3984 150.323 39.03C150.567 39.6615 150.919 40.1559 151.379 40.5131C151.84 40.8651 152.404 41.0412 153.072 41.0412C153.766 41.0412 154.346 40.8574 154.812 40.4898C155.278 40.1171 155.63 39.6123 155.868 38.9756C156.111 38.3389 156.233 37.6219 156.233 36.8246C156.233 36.0378 156.114 35.3311 155.875 34.7047C155.642 34.0783 155.29 33.5839 154.819 33.2216C154.353 32.8592 153.771 32.678 153.072 32.678C152.399 32.678 151.83 32.8514 151.364 33.1983C150.903 33.5451 150.554 34.0291 150.316 34.6504C150.077 35.2716 149.958 35.9963 149.958 36.8246ZM170.117 33.7729L168.012 34.1456C167.924 33.8764 167.785 33.6202 167.593 33.3769C167.407 33.1336 167.153 32.9342 166.832 32.7789C166.511 32.6236 166.11 32.546 165.629 32.546C164.971 32.546 164.422 32.6935 163.982 32.9886C163.542 33.2785 163.322 33.6538 163.322 34.1146C163.322 34.5132 163.47 34.8341 163.765 35.0775C164.06 35.3208 164.536 35.5201 165.194 35.6754L167.088 36.1102C168.186 36.3639 169.004 36.7547 169.542 37.2828C170.081 37.8108 170.35 38.4967 170.35 39.3406C170.35 40.055 170.143 40.6917 169.729 41.2508C169.32 41.8047 168.748 42.2396 168.012 42.5554C167.283 42.8712 166.436 43.0291 165.473 43.0291C164.138 43.0291 163.048 42.7443 162.204 42.1749C161.36 41.6002 160.843 40.7849 160.651 39.7288L162.895 39.3872C163.035 39.9721 163.322 40.4148 163.757 40.715C164.192 41.0101 164.759 41.1576 165.458 41.1576C166.219 41.1576 166.827 40.9997 167.283 40.684C167.738 40.363 167.966 39.9721 167.966 39.5114C167.966 39.1387 167.826 38.8255 167.547 38.5718C167.272 38.3181 166.85 38.1266 166.281 37.9972L164.262 37.5546C163.149 37.3009 162.326 36.8971 161.793 36.3432C161.265 35.7893 161 35.0878 161 34.2388C161 33.5348 161.197 32.9187 161.591 32.3907C161.984 31.8626 162.528 31.4511 163.221 31.156C163.915 30.8558 164.71 30.7056 165.605 30.7056C166.894 30.7056 167.909 30.9852 168.649 31.5443C169.39 32.0982 169.879 32.8411 170.117 33.7729ZM180.458 37.8419L180.458 30.8609L182.788 30.8609L182.788 42.7883L180.505 42.7883L180.505 40.7228L180.381 40.7228C180.106 41.3595 179.666 41.8902 179.06 42.3147C178.46 42.734 177.712 42.9436 176.816 42.9436C176.05 42.9436 175.372 42.7754 174.782 42.4389C174.197 42.0972 173.736 41.5925 173.4 40.9247C173.068 40.2569 172.903 39.4312 172.903 38.4476L172.903 30.8609L175.224 30.8609L175.224 38.168C175.224 38.9808 175.45 39.6279 175.9 40.1093C176.35 40.5908 176.935 40.8315 177.655 40.8315C178.09 40.8315 178.522 40.7228 178.952 40.5054C179.387 40.2879 179.746 39.9592 180.031 39.5192C180.321 39.0791 180.463 38.52 180.458 37.8419ZM185.907 42.7883L185.907 30.8609L188.136 30.8609L188.136 32.8022L188.284 32.8022C188.532 32.1448 188.939 31.6323 189.503 31.2647C190.067 30.892 190.743 30.7056 191.53 30.7056C192.327 30.7056 192.995 30.892 193.533 31.2647C194.077 31.6375 194.478 32.15 194.737 32.8022L194.861 32.8022C195.146 32.1655 195.598 31.6582 196.22 31.2803C196.841 30.8972 197.581 30.7056 198.441 30.7056C199.523 30.7056 200.405 31.0447 201.089 31.7229C201.777 32.401 202.121 33.4235 202.121 34.7901L202.121 42.7883L199.799 42.7883L199.799 35.0076C199.799 34.2 199.579 33.615 199.139 33.2526C198.699 32.8902 198.174 32.7091 197.563 32.7091C196.807 32.7091 196.22 32.942 195.8 33.4079C195.381 33.8687 195.171 34.4614 195.171 35.1862L195.171 42.7883L192.857 42.7883L192.857 34.86C192.857 34.2129 192.655 33.6927 192.252 33.2992C191.848 32.9058 191.322 32.7091 190.675 32.7091C190.235 32.7091 189.829 32.8255 189.456 33.0585C189.089 33.2863 188.791 33.6046 188.563 34.0136C188.341 34.4226 188.229 34.8963 188.229 35.4347L188.229 42.7883L185.907 42.7883Z" fill="black"/>
<path d="M313.676 30.1139L313.676 38.7883L312.278 38.7883L308.191 32.8797L308.119 32.8797L308.119 38.7883L306.547 38.7883L306.547 30.1139L307.953 30.1139L312.037 36.0267L312.113 36.0267L312.113 30.1139L313.676 30.1139ZM323.139 34.4511C323.139 35.3857 322.964 36.1863 322.614 36.8527C322.267 37.5162 321.792 38.0245 321.191 38.3775C320.592 38.7304 319.913 38.9069 319.153 38.9069C318.394 38.9069 317.713 38.7304 317.112 38.3775C316.513 38.0217 316.039 37.512 315.689 36.8484C315.341 36.182 315.168 35.3829 315.168 34.4511C315.168 33.5164 315.341 32.7173 315.689 32.0538C316.039 31.3874 316.513 30.8777 317.112 30.5247C317.713 30.1717 318.394 29.9953 319.153 29.9953C319.913 29.9953 320.592 30.1717 321.191 30.5247C321.792 30.8777 322.267 31.3874 322.614 32.0538C322.964 32.7173 323.139 33.5164 323.139 34.4511ZM321.559 34.4511C321.559 33.7932 321.456 33.2383 321.25 32.7865C321.047 32.3319 320.764 31.9888 320.403 31.7573C320.041 31.5229 319.625 31.4057 319.153 31.4057C318.682 31.4057 318.265 31.5229 317.904 31.7573C317.542 31.9888 317.259 32.3319 317.053 32.7865C316.849 33.2383 316.748 33.7932 316.748 34.4511C316.748 35.109 316.849 35.6653 317.053 36.1199C317.259 36.5717 317.542 36.9148 317.904 37.1492C318.265 37.3807 318.682 37.4965 319.153 37.4965C319.625 37.4965 320.041 37.3807 320.403 37.1492C320.764 36.9148 321.047 36.5717 321.25 36.1199C321.456 35.6653 321.559 35.109 321.559 34.4511Z" fill="black"/>
<path d="M347.29 29.9916L342.33 38.5831C341.559 39.9189 339.631 39.9189 338.859 38.5831L333.899 29.9916" stroke="black" stroke-width="1.9879" stroke-linecap="round" stroke-linejoin="round"/>
<rect x="18.6982" y="82.4979" width="101.619" height="33.7943" rx="4.96975" stroke="black" stroke-width="1.9879"/>
<path d="M53.2659 108.12C53.8149 108.12 54.2599 107.675 54.2599 107.126L54.2599 98.1806C54.2599 97.6317 53.8149 97.1867 53.2659 97.1867C52.717 97.1867 52.272 97.6317 52.272 98.1806L52.272 106.132L44.3204 106.132C43.7715 106.132 43.3264 106.577 43.3264 107.126C43.3264 107.675 43.7715 108.12 44.3204 108.12L53.2659 108.12ZM37.1009 92.3668L52.5631 107.829L53.9688 106.423L38.5065 90.9611L37.1009 92.3668Z" fill="black"/>
<path d="M62.2937 103.395L62.2937 94.7205L63.827 94.7205L63.827 97.965L63.8905 97.965C63.9696 97.8069 64.0811 97.6389 64.2251 97.461C64.3691 97.2802 64.564 97.1264 64.8096 96.9993C65.0553 96.8694 65.3687 96.8045 65.7499 96.8045C66.2526 96.8045 66.7058 96.9329 67.1096 97.1899C67.5162 97.444 67.8381 97.821 68.0753 98.3208C68.3153 98.8178 68.4353 99.4277 68.4353 100.151C68.4353 100.865 68.3181 101.472 68.0837 101.972C67.8494 102.472 67.5303 102.853 67.1265 103.115C66.7227 103.378 66.2653 103.509 65.7542 103.509C65.3814 103.509 65.0722 103.447 64.8266 103.323C64.5809 103.199 64.3833 103.049 64.2336 102.874C64.0868 102.696 63.9724 102.528 63.8905 102.37L63.8016 102.37L63.8016 103.395L62.2937 103.395ZM63.7973 100.142C63.7973 100.563 63.8566 100.931 63.9752 101.248C64.0966 101.564 64.2703 101.811 64.4962 101.989C64.7249 102.164 65.0016 102.251 65.3264 102.251C65.6652 102.251 65.949 102.161 66.1777 101.98C66.4064 101.797 66.5787 101.547 66.6945 101.231C66.8131 100.912 66.8724 100.549 66.8724 100.142C66.8724 99.7383 66.8145 99.3797 66.6987 99.0663C66.5829 98.7528 66.4107 98.5072 66.182 98.3293C65.9532 98.1514 65.668 98.0624 65.3264 98.0624C64.9988 98.0624 64.7207 98.1485 64.492 98.3208C64.2632 98.493 64.0896 98.7345 63.971 99.0451C63.8552 99.3557 63.7973 99.7214 63.7973 100.142ZM73.8854 100.659L73.8854 96.8892L75.4187 96.8892L75.4187 103.395L73.932 103.395L73.932 102.239L73.8643 102.239C73.7174 102.603 73.476 102.901 73.14 103.132C72.8068 103.364 72.3959 103.48 71.9074 103.48C71.481 103.48 71.1041 103.385 70.7765 103.196C70.4518 103.004 70.1976 102.726 70.0141 102.362C69.8306 101.994 69.7388 101.551 69.7388 101.032L69.7388 96.8892L71.2721 96.8892L71.2721 100.794C71.2721 101.207 71.385 101.534 71.6109 101.777C71.8368 102.02 72.1333 102.141 72.5004 102.141C72.7263 102.141 72.9451 102.086 73.1569 101.976C73.3687 101.866 73.5423 101.702 73.6779 101.485C73.8162 101.265 73.8854 100.989 73.8854 100.659ZM80.2441 96.8892L80.2441 98.0751L76.5041 98.0751L76.5041 96.8892L80.2441 96.8892ZM77.4274 95.3305L78.9607 95.3305L78.9607 101.438C78.9607 101.644 78.9918 101.802 79.0539 101.913C79.1188 102.02 79.2036 102.093 79.308 102.133C79.4125 102.172 79.5283 102.192 79.6554 102.192C79.7514 102.192 79.8389 102.185 79.918 102.171C79.9998 102.157 80.062 102.144 80.1043 102.133L80.3627 103.331C80.2808 103.36 80.1636 103.391 80.0111 103.425C79.8615 103.459 79.6779 103.478 79.4605 103.484C79.0765 103.495 78.7306 103.437 78.4228 103.31C78.115 103.18 77.8708 102.98 77.69 102.709C77.5121 102.438 77.4246 102.099 77.4274 101.692L77.4274 95.3305ZM84.7751 96.8892L84.7751 98.0751L81.0351 98.0751L81.0351 96.8892L84.7751 96.8892ZM81.9585 95.3305L83.4917 95.3305L83.4917 101.438C83.4917 101.644 83.5228 101.802 83.5849 101.913C83.6499 102.02 83.7346 102.093 83.8391 102.133C83.9435 102.172 84.0593 102.192 84.1864 102.192C84.2824 102.192 84.3699 102.185 84.449 102.171C84.5309 102.157 84.593 102.144 84.6353 102.133L84.8937 103.331C84.8118 103.36 84.6946 103.391 84.5422 103.425C84.3925 103.459 84.209 103.478 83.9915 103.484C83.6075 103.495 83.2616 103.437 82.9538 103.31C82.646 103.18 82.4018 102.98 82.2211 102.709C82.0432 102.438 81.9556 102.099 81.9585 101.692L81.9585 95.3305ZM88.8254 103.522C88.1901 103.522 87.6394 103.382 87.1735 103.103C86.7076 102.823 86.3462 102.432 86.0892 101.93C85.8351 101.427 85.708 100.84 85.708 100.168C85.708 99.4955 85.8351 98.9067 86.0892 98.4013C86.3462 97.8958 86.7076 97.5033 87.1735 97.2238C87.6394 96.9442 88.1901 96.8045 88.8254 96.8045C89.4607 96.8045 90.0114 96.9442 90.4773 97.2238C90.9432 97.5033 91.3032 97.8958 91.5573 98.4013C91.8143 98.9067 91.9428 99.4955 91.9428 100.168C91.9428 100.84 91.8143 101.427 91.5573 101.93C91.3032 102.432 90.9432 102.823 90.4773 103.103C90.0114 103.382 89.4607 103.522 88.8254 103.522ZM88.8339 102.294C89.1784 102.294 89.4664 102.199 89.6979 102.01C89.9295 101.818 90.1017 101.561 90.2147 101.239C90.3304 100.917 90.3883 100.559 90.3883 100.163C90.3883 99.7651 90.3304 99.4051 90.2147 99.0832C90.1017 98.7585 89.9295 98.5001 89.6979 98.3081C89.4664 98.1161 89.1784 98.0201 88.8339 98.0201C88.4809 98.0201 88.1872 98.1161 87.9529 98.3081C87.7213 98.5001 87.5477 98.7585 87.4319 99.0832C87.3189 99.4051 87.2625 99.7651 87.2625 100.163C87.2625 100.559 87.3189 100.917 87.4319 101.239C87.5477 101.561 87.7213 101.818 87.9529 102.01C88.1872 102.199 88.4809 102.294 88.8339 102.294ZM94.7774 99.583L94.7774 103.395L93.2442 103.395L93.2442 96.8892L94.7097 96.8892L94.7097 97.9947L94.7859 97.9947C94.9356 97.6304 95.1742 97.341 95.5017 97.1264C95.8321 96.9118 96.2401 96.8045 96.7258 96.8045C97.1748 96.8045 97.5659 96.9005 97.8991 97.0925C98.2351 97.2845 98.4949 97.5626 98.6784 97.9269C98.8648 98.2911 98.9566 98.7331 98.9537 99.2526L98.9537 103.395L97.4205 103.395L97.4205 99.4898C97.4205 99.055 97.3075 98.7147 97.0816 98.469C96.8585 98.2234 96.5493 98.1005 96.154 98.1005C95.8858 98.1005 95.6472 98.1598 95.4382 98.2784C95.2321 98.3942 95.0697 98.5622 94.9511 98.7825C94.8353 99.0027 94.7774 99.2696 94.7774 99.583Z" fill="black"/>
<rect x="135.226" y="82.4979" width="101.619" height="33.7943" rx="4.96975" fill="white"/>
<rect x="135.226" y="82.4979" width="101.619" height="33.7943" rx="4.96975" stroke="black" stroke-width="1.9879"/>
<path d="M153.338 91.664C153.338 91.115 153.783 90.67 154.332 90.67L163.277 90.67C163.826 90.67 164.271 91.115 164.271 91.664C164.271 92.2129 163.826 92.6579 163.277 92.6579L155.326 92.6579L155.326 100.61C155.326 101.158 154.881 101.603 154.332 101.603C153.783 101.603 153.338 101.158 153.338 100.61L153.338 91.664ZM169.091 107.829L153.629 92.3668L155.035 90.9612L170.497 106.423L169.091 107.829Z" fill="black"/>
<path d="M178.822 103.395L178.822 94.7205L180.355 94.7205L180.355 97.965L180.418 97.965C180.498 97.8069 180.609 97.6389 180.753 97.461C180.897 97.2802 181.092 97.1264 181.338 96.9993C181.583 96.8694 181.897 96.8045 182.278 96.8045C182.781 96.8045 183.234 96.9329 183.638 97.1899C184.044 97.444 184.366 97.821 184.603 98.3208C184.843 98.8178 184.963 99.4277 184.963 100.151C184.963 100.865 184.846 101.472 184.612 101.972C184.377 102.472 184.058 102.853 183.654 103.115C183.251 103.378 182.793 103.509 182.282 103.509C181.909 103.509 181.6 103.447 181.355 103.323C181.109 103.199 180.911 103.049 180.762 102.874C180.615 102.696 180.5 102.528 180.418 102.37L180.33 102.37L180.33 103.395L178.822 103.395ZM180.325 100.142C180.325 100.563 180.385 100.931 180.503 101.248C180.625 101.564 180.798 101.811 181.024 101.989C181.253 102.164 181.53 102.251 181.854 102.251C182.193 102.251 182.477 102.161 182.706 101.98C182.934 101.797 183.107 101.547 183.222 101.231C183.341 100.912 183.4 100.549 183.4 100.142C183.4 99.7383 183.342 99.3797 183.227 99.0663C183.111 98.7528 182.939 98.5072 182.71 98.3293C182.481 98.1514 182.196 98.0624 181.854 98.0624C181.527 98.0624 181.249 98.1485 181.02 98.3208C180.791 98.493 180.618 98.7345 180.499 99.0451C180.383 99.3557 180.325 99.7214 180.325 100.142ZM190.413 100.659L190.413 96.8892L191.947 96.8892L191.947 103.395L190.46 103.395L190.46 102.239L190.392 102.239C190.245 102.603 190.004 102.901 189.668 103.132C189.335 103.364 188.924 103.48 188.435 103.48C188.009 103.48 187.632 103.385 187.304 103.196C186.98 103.004 186.726 102.726 186.542 102.362C186.359 101.994 186.267 101.551 186.267 101.032L186.267 96.8892L187.8 96.8892L187.8 100.794C187.8 101.207 187.913 101.534 188.139 101.777C188.365 102.02 188.661 102.141 189.028 102.141C189.254 102.141 189.473 102.086 189.685 101.976C189.897 101.866 190.07 101.702 190.206 101.485C190.344 101.265 190.413 100.989 190.413 100.659ZM196.772 96.8892L196.772 98.0751L193.032 98.0751L193.032 96.8892L196.772 96.8892ZM193.955 95.3305L195.489 95.3305L195.489 101.438C195.489 101.644 195.52 101.802 195.582 101.913C195.647 102.02 195.732 102.093 195.836 102.133C195.94 102.172 196.056 102.192 196.183 102.192C196.279 102.192 196.367 102.185 196.446 102.171C196.528 102.157 196.59 102.144 196.632 102.133L196.891 103.331C196.809 103.36 196.692 103.391 196.539 103.425C196.389 103.459 196.206 103.478 195.988 103.484C195.604 103.495 195.259 103.437 194.951 103.31C194.643 103.18 194.399 102.98 194.218 102.709C194.04 102.438 193.953 102.099 193.955 101.692L193.955 95.3305ZM201.303 96.8892L201.303 98.0751L197.563 98.0751L197.563 96.8892L201.303 96.8892ZM198.486 95.3305L200.02 95.3305L200.02 101.438C200.02 101.644 200.051 101.802 200.113 101.913C200.178 102.02 200.263 102.093 200.367 102.133C200.471 102.172 200.587 102.192 200.714 102.192C200.81 102.192 200.898 102.185 200.977 102.171C201.059 102.157 201.121 102.144 201.163 102.133L201.422 103.331C201.34 103.36 201.223 103.391 201.07 103.425C200.92 103.459 200.737 103.478 200.519 103.484C200.135 103.495 199.79 103.437 199.482 103.31C199.174 103.18 198.93 102.98 198.749 102.709C198.571 102.438 198.484 102.099 198.486 101.692L198.486 95.3305ZM205.353 103.522C204.718 103.522 204.167 103.382 203.701 103.103C203.236 102.823 202.874 102.432 202.617 101.93C202.363 101.427 202.236 100.84 202.236 100.168C202.236 99.4955 202.363 98.9067 202.617 98.4013C202.874 97.8958 203.236 97.5033 203.701 97.2238C204.167 96.9442 204.718 96.8045 205.353 96.8045C205.989 96.8045 206.539 96.9442 207.005 97.2238C207.471 97.5033 207.831 97.8958 208.085 98.4013C208.342 98.9067 208.471 99.4955 208.471 100.168C208.471 100.84 208.342 101.427 208.085 101.93C207.831 102.432 207.471 102.823 207.005 103.103C206.539 103.382 205.989 103.522 205.353 103.522ZM205.362 102.294C205.706 102.294 205.994 102.199 206.226 102.01C206.457 101.818 206.63 101.561 206.743 101.239C206.858 100.917 206.916 100.559 206.916 100.163C206.916 99.7651 206.858 99.4051 206.743 99.0832C206.63 98.7585 206.457 98.5001 206.226 98.3081C205.994 98.1161 205.706 98.0201 205.362 98.0201C205.009 98.0201 204.715 98.1161 204.481 98.3081C204.249 98.5001 204.076 98.7585 203.96 99.0832C203.847 99.4051 203.79 99.7651 203.79 100.163C203.79 100.559 203.847 100.917 203.96 101.239C204.076 101.561 204.249 101.818 204.481 102.01C204.715 102.199 205.009 102.294 205.362 102.294ZM211.305 99.583L211.305 103.395L209.772 103.395L209.772 96.8892L211.238 96.8892L211.238 97.9947L211.314 97.9947C211.464 97.6304 211.702 97.341 212.03 97.1264C212.36 96.9118 212.768 96.8045 213.254 96.8045C213.703 96.8045 214.094 96.9005 214.427 97.0925C214.763 97.2845 215.023 97.5626 215.206 97.9269C215.393 98.2911 215.485 98.7331 215.482 99.2526L215.482 103.395L213.948 103.395L213.948 99.4898C213.948 99.055 213.835 98.7147 213.61 98.469C213.386 98.2234 213.077 98.1005 212.682 98.1005C212.414 98.1005 212.175 98.1598 211.966 98.2784C211.76 98.3942 211.598 98.5622 211.479 98.7825C211.363 99.0027 211.305 99.2696 211.305 99.583Z" fill="black"/>
<rect x="251.754" y="82.4979" width="101.619" height="33.7943" rx="4.96975" fill="black"/>
<path d="M286.322 108.12C286.871 108.12 287.316 107.675 287.316 107.126L287.316 98.1806C287.316 97.6317 286.871 97.1867 286.322 97.1867C285.773 97.1867 285.328 97.6317 285.328 98.1806L285.328 106.132L277.377 106.132C276.828 106.132 276.383 106.577 276.383 107.126C276.383 107.675 276.828 108.12 277.377 108.12L286.322 108.12ZM270.157 92.3668L285.62 107.829L287.025 106.423L271.563 90.9611L270.157 92.3668Z" fill="#CFB8FF"/>
<path d="M295.35 103.395L295.35 94.7205L296.883 94.7205L296.883 97.965L296.947 97.965C297.026 97.8069 297.137 97.6389 297.281 97.461C297.425 97.2802 297.62 97.1264 297.866 96.9993C298.111 96.8694 298.425 96.8045 298.806 96.8045C299.309 96.8045 299.762 96.9329 300.166 97.1899C300.572 97.444 300.894 97.821 301.131 98.3208C301.371 98.8178 301.491 99.4277 301.491 100.151C301.491 100.865 301.374 101.472 301.14 101.972C300.905 102.472 300.586 102.853 300.183 103.115C299.779 103.378 299.321 103.509 298.81 103.509C298.437 103.509 298.128 103.447 297.883 103.323C297.637 103.199 297.439 103.049 297.29 102.874C297.143 102.696 297.028 102.528 296.947 102.37L296.858 102.37L296.858 103.395L295.35 103.395ZM296.853 100.142C296.853 100.563 296.913 100.931 297.031 101.248C297.153 101.564 297.326 101.811 297.552 101.989C297.781 102.164 298.058 102.251 298.382 102.251C298.721 102.251 299.005 102.161 299.234 101.98C299.462 101.797 299.635 101.547 299.75 101.231C299.869 100.912 299.928 100.549 299.928 100.142C299.928 99.7383 299.871 99.3797 299.755 99.0663C299.639 98.7528 299.467 98.5072 299.238 98.3293C299.009 98.1514 298.724 98.0624 298.382 98.0624C298.055 98.0624 297.777 98.1485 297.548 98.3208C297.319 98.493 297.146 98.7345 297.027 99.0451C296.911 99.3557 296.853 99.7214 296.853 100.142ZM306.941 100.659L306.941 96.8892L308.475 96.8892L308.475 103.395L306.988 103.395L306.988 102.239L306.92 102.239C306.773 102.603 306.532 102.901 306.196 103.132C305.863 103.364 305.452 103.48 304.963 103.48C304.537 103.48 304.16 103.385 303.833 103.196C303.508 103.004 303.254 102.726 303.07 102.362C302.887 101.994 302.795 101.551 302.795 101.032L302.795 96.8892L304.328 96.8892L304.328 100.794C304.328 101.207 304.441 101.534 304.667 101.777C304.893 102.02 305.189 102.141 305.556 102.141C305.782 102.141 306.001 102.086 306.213 101.976C306.425 101.866 306.598 101.702 306.734 101.485C306.872 101.265 306.941 100.989 306.941 100.659ZM313.3 96.8892L313.3 98.0751L309.56 98.0751L309.56 96.8892L313.3 96.8892ZM310.483 95.3305L312.017 95.3305L312.017 101.438C312.017 101.644 312.048 101.802 312.11 101.913C312.175 102.02 312.26 102.093 312.364 102.133C312.469 102.172 312.584 102.192 312.711 102.192C312.807 102.192 312.895 102.185 312.974 102.171C313.056 102.157 313.118 102.144 313.16 102.133L313.419 103.331C313.337 103.36 313.22 103.391 313.067 103.425C312.918 103.459 312.734 103.478 312.517 103.484C312.133 103.495 311.787 103.437 311.479 103.31C311.171 103.18 310.927 102.98 310.746 102.709C310.568 102.438 310.481 102.099 310.483 101.692L310.483 95.3305ZM317.831 96.8892L317.831 98.0751L314.091 98.0751L314.091 96.8892L317.831 96.8892ZM315.014 95.3305L316.548 95.3305L316.548 101.438C316.548 101.644 316.579 101.802 316.641 101.913C316.706 102.02 316.791 102.093 316.895 102.133C317 102.172 317.115 102.192 317.242 102.192C317.338 102.192 317.426 102.185 317.505 102.171C317.587 102.157 317.649 102.144 317.691 102.133L317.95 103.331C317.868 103.36 317.751 103.391 317.598 103.425C317.449 103.459 317.265 103.478 317.048 103.484C316.664 103.495 316.318 103.437 316.01 103.31C315.702 103.18 315.458 102.98 315.277 102.709C315.099 102.438 315.012 102.099 315.014 101.692L315.014 95.3305ZM321.881 103.522C321.246 103.522 320.695 103.382 320.23 103.103C319.764 102.823 319.402 102.432 319.145 101.93C318.891 101.427 318.764 100.84 318.764 100.168C318.764 99.4955 318.891 98.9067 319.145 98.4013C319.402 97.8958 319.764 97.5033 320.23 97.2238C320.695 96.9442 321.246 96.8045 321.881 96.8045C322.517 96.8045 323.067 96.9442 323.533 97.2238C323.999 97.5033 324.359 97.8958 324.613 98.4013C324.87 98.9067 324.999 99.4955 324.999 100.168C324.999 100.84 324.87 101.427 324.613 101.93C324.359 102.432 323.999 102.823 323.533 103.103C323.067 103.382 322.517 103.522 321.881 103.522ZM321.89 102.294C322.234 102.294 322.522 102.199 322.754 102.01C322.985 101.818 323.158 101.561 323.271 101.239C323.386 100.917 323.444 100.559 323.444 100.163C323.444 99.7651 323.386 99.4051 323.271 99.0832C323.158 98.7585 322.985 98.5001 322.754 98.3081C322.522 98.1161 322.234 98.0201 321.89 98.0201C321.537 98.0201 321.243 98.1161 321.009 98.3081C320.777 98.5001 320.604 98.7585 320.488 99.0832C320.375 99.4051 320.318 99.7651 320.318 100.163C320.318 100.559 320.375 100.917 320.488 101.239C320.604 101.561 320.777 101.818 321.009 102.01C321.243 102.199 321.537 102.294 321.89 102.294ZM327.833 99.583L327.833 103.395L326.3 103.395L326.3 96.8892L327.766 96.8892L327.766 97.9947L327.842 97.9947C327.992 97.6304 328.23 97.341 328.558 97.1264C328.888 96.9118 329.296 96.8045 329.782 96.8045C330.231 96.8045 330.622 96.9005 330.955 97.0925C331.291 97.2845 331.551 97.5626 331.734 97.9269C331.921 98.2911 332.013 98.7331 332.01 99.2526L332.01 103.395L330.476 103.395L330.476 99.4898C330.476 99.055 330.364 98.7147 330.138 98.469C329.915 98.2234 329.605 98.1005 329.21 98.1005C328.942 98.1005 328.703 98.1598 328.494 98.2784C328.288 98.3942 328.126 98.5622 328.007 98.7825C327.891 99.0027 327.833 99.2696 327.833 99.583Z" fill="#CFB8FF"/>
<g clip-path="url(#clip1_4011_32687)">
<path d="M26.5457 159.158C26.4751 158.929 26.3777 158.724 26.2535 158.543C26.132 158.36 25.9852 158.203 25.813 158.073C25.6435 157.943 25.4487 157.846 25.2284 157.781C25.0082 157.713 24.7682 157.679 24.5084 157.679C24.0425 157.679 23.6274 157.797 23.2631 158.031C22.8989 158.265 22.6123 158.61 22.4033 159.064C22.1972 159.516 22.0941 160.067 22.0941 160.716C22.0941 161.371 22.1972 161.926 22.4033 162.381C22.6094 162.836 22.8961 163.181 23.2631 163.419C23.6302 163.653 24.0566 163.77 24.5423 163.77C24.9828 163.77 25.364 163.685 25.6859 163.516C26.0106 163.347 26.2605 163.107 26.4356 162.796C26.6107 162.483 26.6982 162.115 26.6982 161.695L27.054 161.75L24.699 161.75L24.699 160.521L28.2188 160.521L28.2188 161.563C28.2188 162.306 28.0606 162.948 27.7444 163.491C27.4281 164.033 26.9933 164.451 26.4398 164.744C25.8864 165.035 25.251 165.181 24.5338 165.181C23.7347 165.181 23.033 165.001 22.4287 164.643C21.8273 164.281 21.3571 163.769 21.0183 163.105C20.6823 162.439 20.5142 161.648 20.5142 160.733C20.5142 160.033 20.6131 159.408 20.8107 158.857C21.0112 158.306 21.2908 157.839 21.6494 157.455C22.008 157.068 22.4287 156.774 22.9116 156.574C23.3944 156.371 23.9197 156.269 24.4872 156.269C24.9673 156.269 25.4148 156.34 25.8299 156.481C26.245 156.619 26.6135 156.817 26.9354 157.074C27.2601 157.331 27.527 157.636 27.7359 157.989C27.9449 158.342 28.0818 158.731 28.1468 159.158L26.5457 159.158ZM29.7383 165.062L29.7383 156.388L32.9912 156.388C33.6576 156.388 34.2167 156.503 34.6685 156.735C35.1231 156.966 35.4662 157.291 35.6978 157.709C35.9321 158.124 36.0493 158.608 36.0493 159.162C36.0493 159.718 35.9307 160.201 35.6935 160.61C35.4591 161.017 35.1132 161.332 34.6558 161.555C34.1984 161.775 33.6364 161.885 32.97 161.885L30.6532 161.885L30.6532 160.581L32.7583 160.581C33.1479 160.581 33.467 160.527 33.7155 160.42C33.964 160.31 34.1475 160.15 34.2661 159.941C34.3875 159.729 34.4483 159.47 34.4483 159.162C34.4483 158.854 34.3875 158.591 34.2661 158.374C34.1447 158.154 33.9597 157.987 33.7113 157.874C33.4628 157.758 33.1423 157.701 32.7498 157.701L31.3097 157.701L31.3097 165.062L29.7383 165.062ZM34.2195 161.131L36.367 165.062L34.6134 165.062L32.5041 161.131L34.2195 161.131ZM45.2469 160.725C45.2469 161.659 45.0718 162.46 44.7217 163.126C44.3743 163.79 43.9 164.298 43.2985 164.651C42.6999 165.004 42.0208 165.181 41.2612 165.181C40.5016 165.181 39.8211 165.004 39.2196 164.651C38.621 164.295 38.1466 163.786 37.7965 163.122C37.4492 162.456 37.2755 161.657 37.2755 160.725C37.2755 159.79 37.4492 158.991 37.7965 158.327C38.1466 157.661 38.621 157.151 39.2196 156.798C39.8211 156.445 40.5016 156.269 41.2612 156.269C42.0208 156.269 42.6999 156.445 43.2985 156.798C43.9 157.151 44.3743 157.661 44.7217 158.327C45.0718 158.991 45.2469 159.79 45.2469 160.725ZM43.667 160.725C43.667 160.067 43.5639 159.512 43.3578 159.06C43.1545 158.606 42.8721 158.262 42.5107 158.031C42.1492 157.797 41.7328 157.679 41.2612 157.679C40.7896 157.679 40.3731 157.797 40.0117 158.031C39.6503 158.262 39.3665 158.606 39.1603 159.06C38.957 159.512 38.8554 160.067 38.8554 160.725C38.8554 161.383 38.957 161.939 39.1603 162.394C39.3665 162.845 39.6503 163.188 40.0117 163.423C40.3731 163.654 40.7896 163.77 41.2612 163.77C41.7328 163.77 42.1492 163.654 42.5107 163.423C42.8721 163.188 43.1545 162.845 43.3578 162.394C43.5639 161.939 43.667 161.383 43.667 160.725ZM51.4467 158.772C51.4072 158.402 51.2406 158.114 50.9469 157.908C50.6561 157.702 50.2777 157.599 49.8118 157.599C49.4842 157.599 49.2033 157.648 48.9689 157.747C48.7345 157.846 48.5552 157.98 48.431 158.15C48.3067 158.319 48.2432 158.512 48.2404 158.73C48.2404 158.911 48.2813 159.067 48.3632 159.2C48.4479 159.333 48.5623 159.446 48.7063 159.539C48.8503 159.629 49.0098 159.705 49.1849 159.768C49.36 159.83 49.5365 159.882 49.7144 159.924L50.5276 160.128C50.8551 160.204 51.17 160.307 51.4721 160.437C51.7771 160.567 52.0496 160.73 52.2896 160.928C52.5324 161.126 52.7244 161.364 52.8656 161.644C53.0068 161.923 53.0774 162.251 53.0774 162.627C53.0774 163.135 52.9475 163.582 52.6877 163.969C52.428 164.353 52.0524 164.654 51.5611 164.871C51.0726 165.086 50.481 165.193 49.7864 165.193C49.1115 165.193 48.5256 165.089 48.0286 164.88C47.5344 164.671 47.1476 164.366 46.868 163.965C46.5913 163.564 46.4417 163.076 46.4191 162.499L47.9651 162.499C47.9876 162.802 48.0808 163.053 48.2446 163.253C48.4084 163.454 48.6216 163.604 48.8842 163.702C49.1496 163.801 49.4461 163.851 49.7737 163.851C50.1153 163.851 50.4146 163.8 50.6716 163.698C50.9314 163.594 51.1347 163.45 51.2815 163.266C51.4284 163.08 51.5032 162.862 51.506 162.614C51.5032 162.388 51.4368 162.202 51.3069 162.055C51.177 161.905 50.9949 161.781 50.7605 161.682C50.529 161.58 50.2579 161.49 49.9473 161.411L48.9604 161.157C48.246 160.973 47.6813 160.695 47.2662 160.322C46.8539 159.947 46.6478 159.448 46.6478 158.827C46.6478 158.316 46.7862 157.869 47.0629 157.485C47.3424 157.101 47.7222 156.803 48.2023 156.591C48.6823 156.376 49.2259 156.269 49.833 156.269C50.4485 156.269 50.9879 156.376 51.4509 156.591C51.9169 156.803 52.2825 157.098 52.548 157.476C52.8134 157.852 52.9503 158.284 52.9588 158.772L51.4467 158.772ZM59.1925 158.772C59.153 158.402 58.9864 158.114 58.6927 157.908C58.4019 157.702 58.0235 157.599 57.5576 157.599C57.23 157.599 56.9491 157.648 56.7147 157.747C56.4803 157.846 56.301 157.98 56.1768 158.15C56.0526 158.319 55.989 158.512 55.9862 158.73C55.9862 158.911 56.0271 159.067 56.109 159.2C56.1937 159.333 56.3081 159.446 56.4521 159.539C56.5961 159.629 56.7557 159.705 56.9307 159.768C57.1058 159.83 57.2823 159.882 57.4602 159.924L58.2734 160.128C58.601 160.204 58.9158 160.307 59.2179 160.437C59.5229 160.567 59.7954 160.73 60.0354 160.928C60.2783 161.126 60.4703 161.364 60.6115 161.644C60.7526 161.923 60.8232 162.251 60.8232 162.627C60.8232 163.135 60.6933 163.582 60.4336 163.969C60.1738 164.353 59.7982 164.654 59.3069 164.871C58.8184 165.086 58.2268 165.193 57.5322 165.193C56.8573 165.193 56.2714 165.089 55.7744 164.88C55.2803 164.671 54.8934 164.366 54.6139 163.965C54.3371 163.564 54.1875 163.076 54.1649 162.499L55.7109 162.499C55.7335 162.802 55.8267 163.053 55.9904 163.253C56.1542 163.454 56.3674 163.604 56.63 163.702C56.8954 163.801 57.1919 163.851 57.5195 163.851C57.8611 163.851 58.1605 163.8 58.4174 163.698C58.6772 163.594 58.8805 163.45 59.0273 163.266C59.1742 163.08 59.249 162.862 59.2518 162.614C59.249 162.388 59.1826 162.202 59.0528 162.055C58.9229 161.905 58.7407 161.781 58.5064 161.682C58.2748 161.58 58.0037 161.49 57.6931 161.411L56.7062 161.157C55.9918 160.973 55.4271 160.695 55.012 160.322C54.5997 159.947 54.3936 159.448 54.3936 158.827C54.3936 158.316 54.532 157.869 54.8087 157.485C55.0882 157.101 55.468 156.803 55.9481 156.591C56.4281 156.376 56.9717 156.269 57.5788 156.269C58.1943 156.269 58.7337 156.376 59.1968 156.591C59.6627 156.803 60.0284 157.098 60.2938 157.476C60.5592 157.852 60.6962 158.284 60.7046 158.772L59.1925 158.772ZM69.8969 158.772C69.8574 158.402 69.6908 158.114 69.3971 157.908C69.1063 157.702 68.7279 157.599 68.262 157.599C67.9344 157.599 67.6535 157.648 67.4191 157.747C67.1847 157.846 67.0054 157.98 66.8812 158.15C66.7569 158.319 66.6934 158.512 66.6906 158.73C66.6906 158.911 66.7315 159.067 66.8134 159.2C66.8981 159.333 67.0125 159.446 67.1565 159.539C67.3005 159.629 67.46 159.705 67.6351 159.768C67.8102 159.83 67.9867 159.882 68.1646 159.924L68.9778 160.128C69.3053 160.204 69.6202 160.307 69.9223 160.437C70.2273 160.567 70.4998 160.73 70.7398 160.928C70.9826 161.126 71.1746 161.364 71.3158 161.644C71.457 161.923 71.5276 162.251 71.5276 162.627C71.5276 163.135 71.3977 163.582 71.1379 163.969C70.8782 164.353 70.5026 164.654 70.0113 164.871C69.5228 165.086 68.9312 165.193 68.2366 165.193C67.5617 165.193 66.9758 165.089 66.4788 164.88C65.9846 164.671 65.5978 164.366 65.3182 163.965C65.0415 163.564 64.8919 163.076 64.8693 162.499L66.4153 162.499C66.4379 162.802 66.531 163.053 66.6948 163.253C66.8586 163.454 67.0718 163.604 67.3344 163.702C67.5998 163.801 67.8963 163.851 68.2239 163.851C68.5655 163.851 68.8648 163.8 69.1218 163.698C69.3816 163.594 69.5849 163.45 69.7317 163.266C69.8786 163.08 69.9534 162.862 69.9562 162.614C69.9534 162.388 69.887 162.202 69.7571 162.055C69.6272 161.905 69.4451 161.781 69.2107 161.682C68.9792 161.58 68.7081 161.49 68.3975 161.411L67.4106 161.157C66.6962 160.973 66.1315 160.695 65.7164 160.322C65.3041 159.947 65.098 159.448 65.098 158.827C65.098 158.316 65.2364 157.869 65.5131 157.485C65.7926 157.101 66.1724 156.803 66.6525 156.591C67.1325 156.376 67.6761 156.269 68.2832 156.269C68.8987 156.269 69.4381 156.376 69.9011 156.591C70.3671 156.803 70.7327 157.098 70.9982 157.476C71.2636 157.852 71.4005 158.284 71.409 158.772L69.8969 158.772ZM73.9027 165.062L72.2254 165.062L75.2793 156.388L77.2192 156.388L80.2773 165.062L78.6 165.062L76.2831 158.166L76.2153 158.166L73.9027 165.062ZM73.9578 161.661L78.5322 161.661L78.5322 162.923L73.9578 162.923L73.9578 161.661ZM81.4198 165.062L81.4198 156.388L82.9912 156.388L82.9912 163.745L86.8117 163.745L86.8117 165.062L81.4198 165.062ZM88.1756 165.062L88.1756 156.388L93.8174 156.388L93.8174 157.705L89.747 157.705L89.747 160.06L93.5251 160.06L93.5251 161.377L89.747 161.377L89.747 163.745L93.8513 163.745L93.8513 165.062L88.1756 165.062ZM100.135 158.772C100.095 158.402 99.9286 158.114 99.6349 157.908C99.3441 157.702 98.9657 157.599 98.4998 157.599C98.1723 157.599 97.8913 157.648 97.6569 157.747C97.4226 157.846 97.2432 157.98 97.119 158.15C96.9948 158.319 96.9312 158.512 96.9284 158.73C96.9284 158.911 96.9693 159.067 97.0512 159.2C97.1359 159.333 97.2503 159.446 97.3943 159.539C97.5383 159.629 97.6979 159.705 97.8729 159.768C98.048 159.83 98.2245 159.882 98.4024 159.924L99.2156 160.128C99.5432 160.204 99.858 160.307 100.16 160.437C100.465 160.567 100.738 160.73 100.978 160.928C101.22 161.126 101.412 161.364 101.554 161.644C101.695 161.923 101.765 162.251 101.765 162.627C101.765 163.135 101.636 163.582 101.376 163.969C101.116 164.353 100.74 164.654 100.249 164.871C99.7606 165.086 99.169 165.193 98.4744 165.193C97.7995 165.193 97.2136 165.089 96.7166 164.88C96.2225 164.671 95.8356 164.366 95.5561 163.965C95.2794 163.564 95.1297 163.076 95.1071 162.499L96.6531 162.499C96.6757 162.802 96.7689 163.053 96.9326 163.253C97.0964 163.454 97.3096 163.604 97.5722 163.702C97.8376 163.801 98.1341 163.851 98.4617 163.851C98.8034 163.851 99.1027 163.8 99.3596 163.698C99.6194 163.594 99.8227 163.45 99.9696 163.266C100.116 163.08 100.191 162.862 100.194 162.614C100.191 162.388 100.125 162.202 99.995 162.055C99.8651 161.905 99.6829 161.781 99.4486 161.682C99.217 161.58 98.946 161.49 98.6353 161.411L97.6485 161.157C96.9341 160.973 96.3693 160.695 95.9542 160.322C95.542 159.947 95.3358 159.448 95.3358 158.827C95.3358 158.316 95.4742 157.869 95.7509 157.485C96.0305 157.101 96.4103 156.803 96.8903 156.591C97.3703 156.376 97.9139 156.269 98.521 156.269C99.1366 156.269 99.6759 156.376 100.139 156.591C100.605 156.803 100.971 157.098 101.236 157.476C101.501 157.852 101.638 158.284 101.647 158.772L100.135 158.772ZM105.744 157.705L105.744 156.388L112.665 156.388L112.665 157.705L109.984 157.705L109.984 165.062L108.425 165.062L108.425 157.705L105.744 157.705ZM115.57 156.388L115.57 165.062L113.999 165.062L113.999 156.388L115.57 156.388ZM117.272 156.388L119.195 156.388L121.77 162.673L121.872 162.673L124.447 156.388L126.37 156.388L126.37 165.062L124.862 165.062L124.862 159.103L124.782 159.103L122.384 165.037L121.258 165.037L118.86 159.09L118.78 159.09L118.78 165.062L117.272 165.062L117.272 156.388ZM128.081 165.062L128.081 156.388L133.723 156.388L133.723 157.705L129.653 157.705L129.653 160.06L133.431 160.06L133.431 161.377L129.653 161.377L129.653 163.745L133.757 163.745L133.757 165.062L128.081 165.062ZM135.326 165.062L135.326 156.388L136.897 156.388L136.897 163.745L140.718 163.745L140.718 165.062L135.326 165.062ZM143.653 156.388L143.653 165.062L142.082 165.062L142.082 156.388L143.653 156.388ZM152.483 156.388L152.483 165.062L151.086 165.062L146.998 159.153L146.926 159.153L146.926 165.062L145.355 165.062L145.355 156.388L146.761 156.388L150.844 162.3L150.92 162.3L150.92 156.388L152.483 156.388ZM154.196 165.062L154.196 156.388L159.837 156.388L159.837 157.705L155.767 157.705L155.767 160.06L159.545 160.06L159.545 161.377L155.767 161.377L155.767 163.745L159.871 163.745L159.871 165.062L154.196 165.062Z" fill="black"/>
<circle cx="25.0812" cy="194.941" r="5.20216" fill="black"/>
<path d="M35.1105 198.941L35.1105 192.435L36.3769 192.435L36.3769 198.941L35.1105 198.941ZM35.7501 191.432C35.5298 191.432 35.3406 191.358 35.1825 191.211C35.0272 191.062 34.9496 190.884 34.9496 190.678C34.9496 190.469 35.0272 190.291 35.1825 190.144C35.3406 189.994 35.5298 189.919 35.7501 189.919C35.9703 189.919 36.1581 189.994 36.3134 190.144C36.4715 190.291 36.5506 190.469 36.5506 190.678C36.5506 190.884 36.4715 191.062 36.3134 191.211C36.1581 191.358 35.9703 191.432 35.7501 191.432ZM39.3471 195.078L39.3471 198.941L38.0807 198.941L38.0807 192.435L39.2963 192.435L39.2963 193.494L39.3768 193.494C39.5265 193.15 39.7608 192.873 40.0799 192.664C40.4018 192.455 40.807 192.351 41.2955 192.351C41.7388 192.351 42.1271 192.444 42.4603 192.63C42.7935 192.814 43.0519 193.088 43.2354 193.452C43.419 193.816 43.5107 194.267 43.5107 194.803L43.5107 198.941L42.2443 198.941L42.2443 194.956C42.2443 194.484 42.1215 194.116 41.8758 193.85C41.6301 193.582 41.2927 193.448 40.8635 193.448C40.5698 193.448 40.3086 193.511 40.0799 193.638C39.854 193.765 39.6747 193.952 39.542 194.197C39.4121 194.44 39.3471 194.734 39.3471 195.078ZM48.2461 192.435L48.2461 193.452L44.6925 193.452L44.6925 192.435L48.2461 192.435ZM45.6455 190.877L46.9119 190.877L46.9119 197.031C46.9119 197.277 46.9486 197.462 47.022 197.586C47.0954 197.707 47.19 197.791 47.3058 197.836C47.4244 197.878 47.5529 197.899 47.6912 197.899C47.7929 197.899 47.8818 197.892 47.9581 197.878C48.0343 197.864 48.0936 197.853 48.136 197.844L48.3647 198.89C48.2913 198.919 48.1868 198.947 48.0513 198.975C47.9157 199.006 47.7463 199.023 47.543 199.026C47.2098 199.032 46.8992 198.972 46.6112 198.848C46.3232 198.724 46.0902 198.532 45.9123 198.272C45.7344 198.012 45.6455 197.686 45.6455 197.294L45.6455 190.877ZM52.3176 199.073C51.7076 199.073 51.1754 198.933 50.7207 198.653C50.2661 198.374 49.9132 197.983 49.6619 197.48C49.4105 196.977 49.2849 196.39 49.2849 195.718C49.2849 195.043 49.4105 194.453 49.6619 193.948C49.9132 193.442 50.2661 193.05 50.7207 192.77C51.1754 192.49 51.7076 192.351 52.3176 192.351C52.9275 192.351 53.4598 192.49 53.9144 192.77C54.369 193.05 54.722 193.442 54.9733 193.948C55.2246 194.453 55.3502 195.043 55.3502 195.718C55.3502 196.39 55.2246 196.977 54.9733 197.48C54.722 197.983 54.369 198.374 53.9144 198.653C53.4598 198.933 52.9275 199.073 52.3176 199.073ZM52.3218 198.009C52.7171 198.009 53.0447 197.905 53.3045 197.696C53.5642 197.487 53.7563 197.209 53.8805 196.862C54.0076 196.514 54.0711 196.132 54.0711 195.714C54.0711 195.299 54.0076 194.917 53.8805 194.57C53.7563 194.22 53.5642 193.939 53.3045 193.727C53.0447 193.516 52.7171 193.41 52.3218 193.41C51.9237 193.41 51.5933 193.516 51.3307 193.727C51.0709 193.939 50.8775 194.22 50.7504 194.57C50.6262 194.917 50.564 195.299 50.564 195.714C50.564 196.132 50.6262 196.514 50.7504 196.862C50.8775 197.209 51.0709 197.487 51.3307 197.696C51.5933 197.905 51.9237 198.009 52.3218 198.009ZM62.9573 192.435L62.9573 193.452L59.4037 193.452L59.4037 192.435L62.9573 192.435ZM60.3567 190.877L61.6231 190.877L61.6231 197.031C61.6231 197.277 61.6598 197.462 61.7333 197.586C61.8067 197.707 61.9013 197.791 62.017 197.836C62.1356 197.878 62.2641 197.899 62.4025 197.899C62.5041 197.899 62.5931 197.892 62.6693 197.878C62.7456 197.864 62.8049 197.853 62.8472 197.844L63.0759 198.89C63.0025 198.919 62.898 198.947 62.7625 198.975C62.627 199.006 62.4575 199.023 62.2542 199.026C61.921 199.032 61.6104 198.972 61.3224 198.848C61.0344 198.724 60.8014 198.532 60.6235 198.272C60.4456 198.012 60.3567 197.686 60.3567 197.294L60.3567 190.877ZM65.7645 195.078L65.7645 198.941L64.498 198.941L64.498 190.267L65.7475 190.267L65.7475 193.494L65.828 193.494C65.9805 193.144 66.2135 192.866 66.5269 192.66C66.8403 192.454 67.2498 192.351 67.7552 192.351C68.2014 192.351 68.591 192.442 68.9242 192.626C69.2602 192.81 69.52 193.083 69.7036 193.448C69.8899 193.809 69.9831 194.261 69.9831 194.803L69.9831 198.941L68.7167 198.941L68.7167 194.956C68.7167 194.478 68.5938 194.108 68.3482 193.846C68.1025 193.58 67.7609 193.448 67.3232 193.448C67.0239 193.448 66.7556 193.511 66.5184 193.638C66.284 193.765 66.0991 193.952 65.9636 194.197C65.8308 194.44 65.7645 194.734 65.7645 195.078ZM74.4771 199.073C73.8361 199.073 73.2841 198.936 72.821 198.662C72.3607 198.385 72.0049 197.997 71.7536 197.497C71.5051 196.994 71.3809 196.406 71.3809 195.731C71.3809 195.064 71.5051 194.477 71.7536 193.969C72.0049 193.46 72.355 193.064 72.804 192.779C73.2558 192.493 73.7839 192.351 74.3881 192.351C74.7552 192.351 75.111 192.411 75.4555 192.533C75.8 192.654 76.1092 192.845 76.3831 193.105C76.657 193.364 76.873 193.702 77.0311 194.117C77.1893 194.529 77.2683 195.03 77.2683 195.621L77.2683 196.07L72.0967 196.07L72.0967 195.121L76.0273 195.121C76.0273 194.788 75.9595 194.493 75.824 194.236C75.6885 193.976 75.4979 193.771 75.2522 193.621C75.0093 193.472 74.7242 193.397 74.3966 193.397C74.0408 193.397 73.7302 193.484 73.4648 193.66C73.2022 193.832 72.9989 194.058 72.8548 194.337C72.7137 194.614 72.6431 194.915 72.6431 195.239L72.6431 195.981C72.6431 196.415 72.7193 196.785 72.8718 197.09C73.0271 197.395 73.2431 197.628 73.5198 197.789C73.7966 197.947 74.1199 198.026 74.4898 198.026C74.7298 198.026 74.9486 197.993 75.1463 197.925C75.344 197.854 75.5148 197.75 75.6588 197.611C75.8028 197.473 75.9129 197.302 75.9892 197.099L77.1878 197.315C77.0918 197.668 76.9196 197.977 76.6711 198.242C76.4254 198.505 76.1162 198.71 75.7435 198.857C75.3736 199.001 74.9515 199.073 74.4771 199.073ZM86.7052 194.024L85.5574 194.227C85.5094 194.08 85.4331 193.94 85.3286 193.808C85.227 193.675 85.0886 193.566 84.9136 193.482C84.7385 193.397 84.5196 193.355 84.257 193.355C83.8984 193.355 83.5991 193.435 83.3591 193.596C83.1191 193.754 82.9991 193.959 82.9991 194.21C82.9991 194.428 83.0795 194.603 83.2405 194.735C83.4014 194.868 83.6612 194.977 84.0198 195.061L85.0533 195.299C85.652 195.437 86.0981 195.65 86.3918 195.938C86.6854 196.226 86.8323 196.6 86.8323 197.061C86.8323 197.45 86.7193 197.798 86.4934 198.103C86.2704 198.405 85.9583 198.642 85.5574 198.814C85.1592 198.986 84.6975 199.073 84.1723 199.073C83.4438 199.073 82.8494 198.917 82.3891 198.607C81.9289 198.293 81.6465 197.849 81.542 197.272L82.7661 197.086C82.8424 197.405 82.9991 197.647 83.2363 197.81C83.4735 197.971 83.7827 198.052 84.1639 198.052C84.5789 198.052 84.9107 197.966 85.1592 197.793C85.4077 197.618 85.5319 197.405 85.5319 197.154C85.5319 196.951 85.4557 196.78 85.3032 196.641C85.1536 196.503 84.9234 196.399 84.6128 196.328L83.5116 196.087C82.9045 195.948 82.4555 195.728 82.1647 195.426C81.8766 195.124 81.7326 194.741 81.7326 194.278C81.7326 193.894 81.8399 193.558 82.0545 193.27C82.2691 192.982 82.5656 192.757 82.944 192.596C83.3224 192.433 83.7558 192.351 84.2443 192.351C84.9474 192.351 85.5009 192.503 85.9047 192.808C86.3085 193.11 86.5753 193.516 86.7052 194.024ZM91.2616 192.435L91.2616 193.452L87.708 193.452L87.708 192.435L91.2616 192.435ZM88.661 190.877L89.9274 190.877L89.9274 197.031C89.9274 197.277 89.9641 197.462 90.0375 197.586C90.111 197.707 90.2056 197.791 90.3213 197.836C90.4399 197.878 90.5684 197.899 90.7068 197.899C90.8084 197.899 90.8974 197.892 90.9736 197.878C91.0499 197.864 91.1092 197.853 91.1515 197.844L91.3802 198.89C91.3068 198.919 91.2023 198.947 91.0668 198.975C90.9313 199.006 90.7618 199.023 90.5585 199.026C90.2253 199.032 89.9147 198.972 89.6267 198.848C89.3387 198.724 89.1057 198.532 88.9278 198.272C88.7499 198.012 88.661 197.686 88.661 197.294L88.661 190.877ZM95.3331 199.073C94.7232 199.073 94.1909 198.933 93.7363 198.653C93.2817 198.374 92.9287 197.983 92.6774 197.48C92.4261 196.977 92.3004 196.39 92.3004 195.718C92.3004 195.043 92.4261 194.453 92.6774 193.948C92.9287 193.442 93.2817 193.05 93.7363 192.77C94.1909 192.49 94.7232 192.351 95.3331 192.351C95.943 192.351 96.4753 192.49 96.9299 192.77C97.3845 193.05 97.7375 193.442 97.9888 193.948C98.2401 194.453 98.3658 195.043 98.3658 195.718C98.3658 196.39 98.2401 196.977 97.9888 197.48C97.7375 197.983 97.3845 198.374 96.9299 198.653C96.4753 198.933 95.943 199.073 95.3331 199.073ZM95.3373 198.009C95.7326 198.009 96.0602 197.905 96.32 197.696C96.5798 197.487 96.7718 197.209 96.896 196.862C97.0231 196.514 97.0866 196.132 97.0866 195.714C97.0866 195.299 97.0231 194.917 96.896 194.57C96.7718 194.22 96.5798 193.939 96.32 193.727C96.0602 193.516 95.7326 193.41 95.3373 193.41C94.9392 193.41 94.6088 193.516 94.3462 193.727C94.0864 193.939 93.893 194.22 93.7659 194.57C93.6417 194.917 93.5796 195.299 93.5796 195.714C93.5796 196.132 93.6417 196.514 93.7659 196.862C93.893 197.209 94.0864 197.487 94.3462 197.696C94.6088 197.905 94.9392 198.009 95.3373 198.009ZM99.7794 198.941L99.7794 192.435L101.003 192.435L101.003 193.469L101.071 193.469C101.19 193.119 101.399 192.843 101.698 192.643C102 192.44 102.342 192.338 102.723 192.338C102.802 192.338 102.895 192.341 103.003 192.346C103.113 192.352 103.199 192.359 103.261 192.368L103.261 193.579C103.21 193.565 103.12 193.549 102.99 193.532C102.86 193.513 102.73 193.503 102.6 193.503C102.301 193.503 102.034 193.566 101.8 193.693C101.568 193.818 101.385 193.991 101.249 194.214C101.114 194.435 101.046 194.686 101.046 194.968L101.046 198.941L99.7794 198.941ZM106.928 199.073C106.287 199.073 105.735 198.936 105.272 198.662C104.812 198.385 104.456 197.997 104.205 197.497C103.956 196.994 103.832 196.406 103.832 195.731C103.832 195.064 103.956 194.477 104.205 193.969C104.456 193.46 104.806 193.064 105.255 192.779C105.707 192.493 106.235 192.351 106.839 192.351C107.206 192.351 107.562 192.411 107.906 192.533C108.251 192.654 108.56 192.845 108.834 193.105C109.108 193.364 109.324 193.702 109.482 194.117C109.64 194.529 109.719 195.03 109.719 195.621L109.719 196.07L104.548 196.07L104.548 195.121L108.478 195.121C108.478 194.788 108.41 194.493 108.275 194.236C108.139 193.976 107.949 193.771 107.703 193.621C107.46 193.472 107.175 193.397 106.848 193.397C106.492 193.397 106.181 193.484 105.916 193.66C105.653 193.832 105.45 194.058 105.306 194.337C105.165 194.614 105.094 194.915 105.094 195.239L105.094 195.981C105.094 196.415 105.17 196.785 105.323 197.09C105.478 197.395 105.694 197.628 105.971 197.789C106.247 197.947 106.571 198.026 106.941 198.026C107.181 198.026 107.4 197.993 107.597 197.925C107.795 197.854 107.966 197.75 108.11 197.611C108.254 197.473 108.364 197.302 108.44 197.099L109.639 197.315C109.543 197.668 109.371 197.977 109.122 198.242C108.876 198.505 108.567 198.71 108.194 198.857C107.825 199.001 107.402 199.073 106.928 199.073Z" fill="black"/>
<circle cx="131.371" cy="194.941" r="5.20216" fill="#CFB8FF"/>
<path d="M144.14 199.073C143.53 199.073 142.998 198.933 142.544 198.653C142.089 198.374 141.736 197.983 141.485 197.48C141.233 196.977 141.108 196.39 141.108 195.718C141.108 195.043 141.233 194.453 141.485 193.948C141.736 193.442 142.089 193.05 142.544 192.77C142.998 192.49 143.53 192.351 144.14 192.351C144.75 192.351 145.283 192.49 145.737 192.77C146.192 193.05 146.545 193.442 146.796 193.948C147.047 194.453 147.173 195.043 147.173 195.718C147.173 196.39 147.047 196.977 146.796 197.48C146.545 197.983 146.192 198.374 145.737 198.653C145.283 198.933 144.75 199.073 144.14 199.073ZM144.145 198.009C144.54 198.009 144.867 197.905 145.127 197.696C145.387 197.487 145.579 197.209 145.703 196.862C145.83 196.514 145.894 196.132 145.894 195.714C145.894 195.299 145.83 194.917 145.703 194.57C145.579 194.22 145.387 193.939 145.127 193.727C144.867 193.516 144.54 193.41 144.145 193.41C143.746 193.41 143.416 193.516 143.153 193.727C142.894 193.939 142.7 194.22 142.573 194.57C142.449 194.917 142.387 195.299 142.387 195.714C142.387 196.132 142.449 196.514 142.573 196.862C142.7 197.209 142.894 197.487 143.153 197.696C143.416 197.905 143.746 198.009 144.145 198.009ZM152.708 196.243L152.708 192.435L153.979 192.435L153.979 198.941L152.733 198.941L152.733 197.815L152.666 197.815C152.516 198.162 152.276 198.451 151.945 198.683C151.618 198.912 151.21 199.026 150.721 199.026C150.303 199.026 149.934 198.934 149.612 198.751C149.293 198.564 149.041 198.289 148.858 197.925C148.677 197.56 148.587 197.11 148.587 196.574L148.587 192.435L149.853 192.435L149.853 196.421C149.853 196.864 149.976 197.217 150.222 197.48C150.467 197.743 150.786 197.874 151.179 197.874C151.416 197.874 151.652 197.815 151.886 197.696C152.123 197.577 152.32 197.398 152.475 197.158C152.633 196.918 152.711 196.613 152.708 196.243ZM158.717 192.435L158.717 193.452L155.163 193.452L155.163 192.435L158.717 192.435ZM156.116 190.877L157.383 190.877L157.383 197.031C157.383 197.277 157.42 197.462 157.493 197.586C157.566 197.707 157.661 197.791 157.777 197.836C157.895 197.878 158.024 197.899 158.162 197.899C158.264 197.899 158.353 197.892 158.429 197.878C158.505 197.864 158.565 197.853 158.607 197.844L158.836 198.89C158.762 198.919 158.658 198.947 158.522 198.975C158.387 199.006 158.217 199.023 158.014 199.026C157.681 199.032 157.37 198.972 157.082 198.848C156.794 198.724 156.561 198.532 156.383 198.272C156.205 198.012 156.116 197.686 156.116 197.294L156.116 190.877ZM166.015 199.073C165.405 199.073 164.873 198.933 164.418 198.653C163.964 198.374 163.611 197.983 163.359 197.48C163.108 196.977 162.982 196.39 162.982 195.718C162.982 195.043 163.108 194.453 163.359 193.948C163.611 193.442 163.964 193.05 164.418 192.77C164.873 192.49 165.405 192.351 166.015 192.351C166.625 192.351 167.157 192.49 167.612 192.77C168.066 193.05 168.419 193.442 168.671 193.948C168.922 194.453 169.048 195.043 169.048 195.718C169.048 196.39 168.922 196.977 168.671 197.48C168.419 197.983 168.066 198.374 167.612 198.653C167.157 198.933 166.625 199.073 166.015 199.073ZM166.019 198.009C166.415 198.009 166.742 197.905 167.002 197.696C167.262 197.487 167.454 197.209 167.578 196.862C167.705 196.514 167.769 196.132 167.769 195.714C167.769 195.299 167.705 194.917 167.578 194.57C167.454 194.22 167.262 193.939 167.002 193.727C166.742 193.516 166.415 193.41 166.019 193.41C165.621 193.41 165.291 193.516 165.028 193.727C164.768 193.939 164.575 194.22 164.448 194.57C164.324 194.917 164.261 195.299 164.261 195.714C164.261 196.132 164.324 196.514 164.448 196.862C164.575 197.209 164.768 197.487 165.028 197.696C165.291 197.905 165.621 198.009 166.019 198.009ZM173.558 192.435L173.558 193.452L169.881 193.452L169.881 192.435L173.558 192.435ZM170.889 198.941L170.889 191.681C170.889 191.275 170.978 190.937 171.156 190.669C171.334 190.398 171.57 190.196 171.863 190.064C172.157 189.928 172.476 189.86 172.821 189.86C173.075 189.86 173.292 189.881 173.473 189.924C173.654 189.963 173.788 190 173.875 190.034L173.579 191.059C173.519 191.042 173.443 191.022 173.35 191C173.257 190.974 173.144 190.961 173.011 190.961C172.703 190.961 172.483 191.038 172.35 191.19C172.221 191.343 172.156 191.563 172.156 191.851L172.156 198.941L170.889 198.941ZM181.058 192.435L181.058 193.452L177.504 193.452L177.504 192.435L181.058 192.435ZM178.457 190.877L179.723 190.877L179.723 197.031C179.723 197.277 179.76 197.462 179.834 197.586C179.907 197.707 180.002 197.791 180.117 197.836C180.236 197.878 180.364 197.899 180.503 197.899C180.604 197.899 180.693 197.892 180.77 197.878C180.846 197.864 180.905 197.853 180.948 197.844L181.176 198.89C181.103 198.919 180.998 198.947 180.863 198.975C180.727 199.006 180.558 199.023 180.355 199.026C180.021 199.032 179.711 198.972 179.423 198.848C179.135 198.724 178.902 198.532 178.724 198.272C178.546 198.012 178.457 197.686 178.457 197.294L178.457 190.877ZM183.865 195.078L183.865 198.941L182.598 198.941L182.598 190.267L183.848 190.267L183.848 193.494L183.928 193.494C184.081 193.144 184.314 192.866 184.627 192.66C184.941 192.454 185.35 192.351 185.856 192.351C186.302 192.351 186.691 192.442 187.025 192.626C187.361 192.81 187.62 193.083 187.804 193.448C187.99 193.809 188.083 194.261 188.083 194.803L188.083 198.941L186.817 198.941L186.817 194.956C186.817 194.478 186.694 194.108 186.449 193.846C186.203 193.58 185.861 193.448 185.424 193.448C185.124 193.448 184.856 193.511 184.619 193.638C184.384 193.765 184.199 193.952 184.064 194.197C183.931 194.44 183.865 194.734 183.865 195.078ZM192.577 199.073C191.936 199.073 191.384 198.936 190.921 198.662C190.461 198.385 190.105 197.997 189.854 197.497C189.605 196.994 189.481 196.406 189.481 195.731C189.481 195.064 189.605 194.477 189.854 193.969C190.105 193.46 190.455 193.064 190.904 192.779C191.356 192.493 191.884 192.351 192.488 192.351C192.856 192.351 193.211 192.411 193.556 192.533C193.9 192.654 194.21 192.845 194.483 193.105C194.757 193.364 194.973 193.702 195.131 194.117C195.29 194.529 195.369 195.03 195.369 195.621L195.369 196.07L190.197 196.07L190.197 195.121L194.128 195.121C194.128 194.788 194.06 194.493 193.924 194.236C193.789 193.976 193.598 193.771 193.353 193.621C193.11 193.472 192.825 193.397 192.497 193.397C192.141 193.397 191.831 193.484 191.565 193.66C191.303 193.832 191.099 194.058 190.955 194.337C190.814 194.614 190.743 194.915 190.743 195.239L190.743 195.981C190.743 196.415 190.82 196.785 190.972 197.09C191.127 197.395 191.343 197.628 191.62 197.789C191.897 197.947 192.22 198.026 192.59 198.026C192.83 198.026 193.049 197.993 193.247 197.925C193.444 197.854 193.615 197.75 193.759 197.611C193.903 197.473 194.013 197.302 194.09 197.099L195.288 197.315C195.192 197.668 195.02 197.977 194.771 198.242C194.526 198.505 194.217 198.71 193.844 198.857C193.474 199.001 193.052 199.073 192.577 199.073ZM204.806 194.024L203.658 194.227C203.61 194.08 203.533 193.94 203.429 193.808C203.327 193.675 203.189 193.566 203.014 193.482C202.839 193.397 202.62 193.355 202.357 193.355C201.999 193.355 201.699 193.435 201.459 193.596C201.219 193.754 201.099 193.959 201.099 194.21C201.099 194.428 201.18 194.603 201.341 194.735C201.502 194.868 201.762 194.977 202.12 195.061L203.154 195.299C203.752 195.437 204.198 195.65 204.492 195.938C204.786 196.226 204.933 196.6 204.933 197.061C204.933 197.45 204.82 197.798 204.594 198.103C204.371 198.405 204.059 198.642 203.658 198.814C203.26 198.986 202.798 199.073 202.273 199.073C201.544 199.073 200.95 198.917 200.489 198.607C200.029 198.293 199.747 197.849 199.642 197.272L200.866 197.086C200.943 197.405 201.099 197.647 201.337 197.81C201.574 197.971 201.883 198.052 202.264 198.052C202.679 198.052 203.011 197.966 203.26 197.793C203.508 197.618 203.632 197.405 203.632 197.154C203.632 196.951 203.556 196.78 203.404 196.641C203.254 196.503 203.024 196.399 202.713 196.328L201.612 196.087C201.005 195.948 200.556 195.728 200.265 195.426C199.977 195.124 199.833 194.741 199.833 194.278C199.833 193.894 199.94 193.558 200.155 193.27C200.369 192.982 200.666 192.757 201.044 192.596C201.423 192.433 201.856 192.351 202.345 192.351C203.048 192.351 203.601 192.503 204.005 192.808C204.409 193.11 204.676 193.516 204.806 194.024ZM209.362 192.435L209.362 193.452L205.808 193.452L205.808 192.435L209.362 192.435ZM206.761 190.877L208.028 190.877L208.028 197.031C208.028 197.277 208.064 197.462 208.138 197.586C208.211 197.707 208.306 197.791 208.422 197.836C208.54 197.878 208.669 197.899 208.807 197.899C208.909 197.899 208.998 197.892 209.074 197.878C209.15 197.864 209.21 197.853 209.252 197.844L209.481 198.89C209.407 198.919 209.303 198.947 209.167 198.975C209.032 199.006 208.862 199.023 208.659 199.026C208.326 199.032 208.015 198.972 207.727 198.848C207.439 198.724 207.206 198.532 207.028 198.272C206.85 198.012 206.761 197.686 206.761 197.294L206.761 190.877ZM213.433 199.073C212.824 199.073 212.291 198.933 211.837 198.653C211.382 198.374 211.029 197.983 210.778 197.48C210.526 196.977 210.401 196.39 210.401 195.718C210.401 195.043 210.526 194.453 210.778 193.948C211.029 193.442 211.382 193.05 211.837 192.77C212.291 192.49 212.824 192.351 213.433 192.351C214.043 192.351 214.576 192.49 215.03 192.77C215.485 193.05 215.838 193.442 216.089 193.948C216.34 194.453 216.466 195.043 216.466 195.718C216.466 196.39 216.34 196.977 216.089 197.48C215.838 197.983 215.485 198.374 215.03 198.653C214.576 198.933 214.043 199.073 213.433 199.073ZM213.438 198.009C213.833 198.009 214.161 197.905 214.42 197.696C214.68 197.487 214.872 197.209 214.996 196.862C215.123 196.514 215.187 196.132 215.187 195.714C215.187 195.299 215.123 194.917 214.996 194.57C214.872 194.22 214.68 193.939 214.42 193.727C214.161 193.516 213.833 193.41 213.438 193.41C213.04 193.41 212.709 193.516 212.447 193.727C212.187 193.939 211.993 194.22 211.866 194.57C211.742 194.917 211.68 195.299 211.68 195.714C211.68 196.132 211.742 196.514 211.866 196.862C211.993 197.209 212.187 197.487 212.447 197.696C212.709 197.905 213.04 198.009 213.438 198.009ZM217.88 198.941L217.88 192.435L219.104 192.435L219.104 193.469L219.172 193.469C219.29 193.119 219.499 192.843 219.798 192.643C220.101 192.44 220.442 192.338 220.823 192.338C220.903 192.338 220.996 192.341 221.103 192.346C221.213 192.352 221.299 192.359 221.361 192.368L221.361 193.579C221.311 193.565 221.22 193.549 221.09 193.532C220.96 193.513 220.831 193.503 220.701 193.503C220.401 193.503 220.134 193.566 219.9 193.693C219.669 193.818 219.485 193.991 219.349 194.214C219.214 194.435 219.146 194.686 219.146 194.968L219.146 198.941L217.88 198.941ZM225.028 199.073C224.387 199.073 223.835 198.936 223.372 198.662C222.912 198.385 222.556 197.997 222.305 197.497C222.056 196.994 221.932 196.406 221.932 195.731C221.932 195.064 222.056 194.477 222.305 193.969C222.556 193.46 222.906 193.064 223.355 192.779C223.807 192.493 224.335 192.351 224.939 192.351C225.306 192.351 225.662 192.411 226.007 192.533C226.351 192.654 226.66 192.845 226.934 193.105C227.208 193.364 227.424 193.702 227.582 194.117C227.741 194.529 227.82 195.03 227.82 195.621L227.82 196.07L222.648 196.07L222.648 195.121L226.579 195.121C226.579 194.788 226.511 194.493 226.375 194.236C226.24 193.976 226.049 193.771 225.803 193.621C225.561 193.472 225.275 193.397 224.948 193.397C224.592 193.397 224.281 193.484 224.016 193.66C223.753 193.832 223.55 194.058 223.406 194.337C223.265 194.614 223.194 194.915 223.194 195.239L223.194 195.981C223.194 196.415 223.271 196.785 223.423 197.09C223.578 197.395 223.794 197.628 224.071 197.789C224.348 197.947 224.671 198.026 225.041 198.026C225.281 198.026 225.5 197.993 225.698 197.925C225.895 197.854 226.066 197.75 226.21 197.611C226.354 197.473 226.464 197.302 226.54 197.099L227.739 197.315C227.643 197.668 227.471 197.977 227.222 198.242C226.977 198.505 226.668 198.71 226.295 198.857C225.925 199.001 225.503 199.073 225.028 199.073Z" fill="black"/>
<path d="M59.5584 223.693L70.7031 223.693C71.5067 223.693 72.2313 224.177 72.5393 224.919L81.9508 247.606C82.1015 247.969 82.3564 248.279 82.6835 248.497L108.759 265.899C109.791 266.587 111.195 266.173 111.687 265.034L128.006 227.304C128.653 225.807 130.727 225.683 131.548 227.092L164.064 282.903C164.869 284.284 166.891 284.199 167.577 282.756L196.695 221.521C197.157 220.549 198.308 220.121 199.292 220.555L245.521 240.935C245.773 241.047 246.046 241.104 246.322 241.104L265.046 241.104C265.867 241.104 266.603 241.609 266.9 242.375L276.577 267.38C277.287 269.213 279.943 269.014 280.371 267.095L285.269 245.162C285.633 243.531 287.724 243.05 288.765 244.357L306.684 266.865C306.871 267.1 307.002 267.373 307.068 267.665L317.205 312.54C317.648 314.5 320.388 314.64 321.028 312.735L345.124 241.104" stroke="black" stroke-width="1.9879" stroke-linecap="round" stroke-dasharray="3.98 6.96"/>
<path d="M59.5577 243.567L75.6499 279.229C76.0218 280.053 76.9031 280.523 77.7946 280.371L90.4409 278.224C90.981 278.132 91.535 278.267 91.972 278.598L112.311 293.964C112.992 294.478 113.925 294.501 114.63 294.02L137.752 278.236C137.903 278.133 138.04 278.009 138.157 277.869L165.798 244.796C166.397 244.079 167.416 243.876 168.244 244.31L226.184 274.611C226.349 274.698 226.502 274.807 226.637 274.937L270.938 317.339C271.988 318.344 273.727 317.919 274.194 316.543L293.298 260.329C293.872 258.64 296.208 258.504 296.975 260.115L311.504 290.632C311.624 290.885 311.797 291.11 312.01 291.291L345.123 319.496" stroke="#CFB8FF" stroke-width="1.9879" stroke-linecap="round"/>
<path d="M23.7631 228.963C23.1531 228.963 22.611 228.859 22.1366 228.65C21.665 228.441 21.2923 228.15 21.0184 227.777C20.7445 227.404 20.5991 226.974 20.5821 226.485L22.1747 226.485C22.1888 226.72 22.2665 226.924 22.4077 227.099C22.5489 227.272 22.7366 227.406 22.971 227.502C23.2054 227.598 23.468 227.646 23.7588 227.646C24.0694 227.646 24.3447 227.592 24.5848 227.485C24.8248 227.375 25.0126 227.222 25.1481 227.027C25.2836 226.833 25.35 226.608 25.3472 226.354C25.35 226.091 25.2822 225.86 25.1439 225.659C25.0055 225.459 24.805 225.302 24.5424 225.189C24.2826 225.076 23.9692 225.02 23.6021 225.02L22.8355 225.02L22.8355 223.808L23.6021 223.808C23.9042 223.808 24.1683 223.756 24.3942 223.652C24.6229 223.547 24.8022 223.4 24.9321 223.211C25.062 223.019 25.1255 222.797 25.1227 222.546C25.1255 222.301 25.0704 222.087 24.9575 221.907C24.8474 221.723 24.6907 221.58 24.4873 221.479C24.2869 221.377 24.0511 221.326 23.78 221.326C23.5146 221.326 23.2689 221.374 23.043 221.47C22.8171 221.566 22.635 221.703 22.4966 221.881C22.3583 222.056 22.2848 222.265 22.2764 222.508L20.7643 222.508C20.7756 222.022 20.9153 221.596 21.1836 221.229C21.4547 220.859 21.8161 220.571 22.2679 220.365C22.7197 220.156 23.2266 220.051 23.7885 220.051C24.3673 220.051 24.87 220.16 25.2963 220.378C25.7255 220.592 26.0573 220.882 26.2917 221.246C26.5261 221.61 26.6433 222.012 26.6433 222.453C26.6461 222.941 26.5021 223.351 26.2112 223.681C25.9232 224.012 25.5448 224.228 25.0761 224.329L25.0761 224.397C25.686 224.482 26.1533 224.708 26.4781 225.075C26.8056 225.439 26.968 225.892 26.9652 226.434C26.9652 226.92 26.8268 227.355 26.5501 227.739C26.2762 228.12 25.8978 228.42 25.4149 228.637C24.9349 228.854 24.3843 228.963 23.7631 228.963ZM29.1242 228.938C28.8673 228.938 28.647 228.847 28.4635 228.667C28.28 228.486 28.1896 228.266 28.1924 228.006C28.1896 227.752 28.28 227.534 28.4635 227.354C28.647 227.173 28.8673 227.082 29.1242 227.082C29.3727 227.082 29.5887 227.173 29.7723 227.354C29.9587 227.534 30.0533 227.752 30.0561 228.006C30.0533 228.178 30.0081 228.335 29.9205 228.476C29.8358 228.617 29.7229 228.73 29.5817 228.815C29.4433 228.897 29.2908 228.938 29.1242 228.938ZM34.5331 228.963C33.9683 228.963 33.4629 228.857 33.0167 228.645C32.5706 228.431 32.2162 228.137 31.9536 227.764C31.6938 227.392 31.5555 226.965 31.5385 226.485L33.0633 226.485C33.0916 226.841 33.2455 227.132 33.525 227.358C33.8046 227.581 34.1406 227.692 34.5331 227.692C34.8409 227.692 35.1148 227.622 35.3548 227.481C35.5948 227.339 35.784 227.143 35.9224 226.892C36.0607 226.641 36.1285 226.354 36.1257 226.032C36.1285 225.705 36.0593 225.414 35.9181 225.16C35.7769 224.905 35.5835 224.706 35.3378 224.562C35.0922 224.415 34.8098 224.342 34.4907 224.342C34.2309 224.339 33.9754 224.387 33.7241 224.486C33.4728 224.585 33.2737 224.715 33.1269 224.876L31.708 224.643L32.1612 220.17L37.193 220.17L37.193 221.483L33.4615 221.483L33.2116 223.783L33.2624 223.783C33.4234 223.594 33.6507 223.437 33.9443 223.313C34.238 223.186 34.5599 223.122 34.9101 223.122C35.4353 223.122 35.904 223.246 36.3163 223.495C36.7285 223.741 37.0533 224.079 37.2905 224.511C37.5276 224.944 37.6462 225.438 37.6462 225.994C37.6462 226.567 37.5135 227.078 37.2481 227.527C36.9855 227.973 36.6198 228.325 36.1511 228.582C35.6852 228.836 35.1458 228.963 34.5331 228.963ZM42.1084 220.17L44.0314 220.17L46.6066 226.456L46.7083 226.456L49.2835 220.17L51.2065 220.17L51.2065 228.844L49.6986 228.844L49.6986 222.885L49.6181 222.885L47.2208 228.819L46.0941 228.819L43.6968 222.872L43.6163 222.872L43.6163 228.844L42.1084 228.844L42.1084 220.17Z" fill="black"/>
<path d="M23.7631 259C23.1531 259 22.611 258.895 22.1366 258.687C21.665 258.478 21.2923 258.187 21.0184 257.814C20.7445 257.441 20.5991 257.011 20.5821 256.522L22.1747 256.522C22.1888 256.756 22.2665 256.961 22.4077 257.136C22.5489 257.309 22.7366 257.443 22.971 257.539C23.2054 257.635 23.468 257.683 23.7588 257.683C24.0694 257.683 24.3447 257.629 24.5848 257.522C24.8248 257.412 25.0126 257.259 25.1481 257.064C25.2836 256.869 25.35 256.645 25.3472 256.391C25.35 256.128 25.2822 255.897 25.1439 255.696C25.0055 255.496 24.805 255.339 24.5424 255.226C24.2826 255.113 23.9692 255.057 23.6021 255.057L22.8355 255.057L22.8355 253.845L23.6021 253.845C23.9042 253.845 24.1683 253.793 24.3942 253.689C24.6229 253.584 24.8022 253.437 24.9321 253.248C25.062 253.056 25.1255 252.834 25.1227 252.583C25.1255 252.337 25.0704 252.124 24.9575 251.943C24.8474 251.76 24.6907 251.617 24.4873 251.516C24.2869 251.414 24.0511 251.363 23.78 251.363C23.5146 251.363 23.2689 251.411 23.043 251.507C22.8171 251.603 22.635 251.74 22.4966 251.918C22.3583 252.093 22.2848 252.302 22.2764 252.545L20.7643 252.545C20.7756 252.059 20.9153 251.633 21.1836 251.266C21.4547 250.896 21.8161 250.608 22.2679 250.402C22.7197 250.193 23.2266 250.088 23.7885 250.088C24.3673 250.088 24.87 250.197 25.2963 250.414C25.7255 250.629 26.0573 250.918 26.2917 251.283C26.5261 251.647 26.6433 252.049 26.6433 252.49C26.6461 252.978 26.5021 253.388 26.2112 253.718C25.9232 254.049 25.5448 254.265 25.0761 254.366L25.0761 254.434C25.686 254.519 26.1533 254.745 26.4781 255.112C26.8056 255.476 26.968 255.929 26.9652 256.471C26.9652 256.957 26.8268 257.392 26.5501 257.776C26.2762 258.157 25.8978 258.456 25.4149 258.674C24.9349 258.891 24.3843 259 23.7631 259ZM29.1242 258.975C28.8673 258.975 28.647 258.884 28.4635 258.703C28.28 258.523 28.1896 258.302 28.1924 258.043C28.1896 257.789 28.28 257.571 28.4635 257.39C28.647 257.21 28.8673 257.119 29.1242 257.119C29.3727 257.119 29.5887 257.21 29.7723 257.39C29.9587 257.571 30.0533 257.789 30.0561 258.043C30.0533 258.215 30.0081 258.372 29.9205 258.513C29.8358 258.654 29.7229 258.767 29.5817 258.852C29.4433 258.934 29.2908 258.975 29.1242 258.975ZM34.4907 259.047C33.7933 259.047 33.1946 258.87 32.6948 258.517C32.1979 258.161 31.8153 257.649 31.547 256.98C31.2816 256.308 31.1489 255.499 31.1489 254.553C31.1517 253.607 31.2858 252.802 31.5512 252.138C31.8195 251.472 32.2021 250.964 32.6991 250.613C33.1989 250.263 33.7961 250.088 34.4907 250.088C35.1854 250.088 35.7826 250.263 36.2824 250.613C36.7822 250.964 37.1648 251.472 37.4302 252.138C37.6985 252.805 37.8326 253.609 37.8326 254.553C37.8326 255.501 37.6985 256.312 37.4302 256.984C37.1648 257.653 36.7822 258.164 36.2824 258.517C35.7854 258.87 35.1882 259.047 34.4907 259.047ZM34.4907 257.721C35.0329 257.721 35.4607 257.454 35.7741 256.92C36.0904 256.384 36.2485 255.595 36.2485 254.553C36.2485 253.864 36.1765 253.285 36.0325 252.816C35.8885 252.347 35.6852 251.994 35.4226 251.757C35.16 251.517 34.8493 251.397 34.4907 251.397C33.9514 251.397 33.525 251.665 33.2116 252.202C32.8982 252.736 32.74 253.519 32.7372 254.553C32.7344 255.244 32.8036 255.826 32.9447 256.298C33.0888 256.769 33.2921 257.125 33.5547 257.365C33.8173 257.602 34.1293 257.721 34.4907 257.721ZM42.2831 250.207L44.2061 250.207L46.7813 256.492L46.883 256.492L49.4582 250.207L51.3812 250.207L51.3812 258.881L49.8733 258.881L49.8733 252.922L49.7928 252.922L47.3955 258.856L46.2688 258.856L43.8715 252.909L43.791 252.909L43.791 258.881L42.2831 258.881L42.2831 250.207Z" fill="black"/>
<path d="M20.6499 288.918L20.6499 287.783L23.6614 284.831C23.9494 284.54 24.1894 284.282 24.3815 284.056C24.5735 283.83 24.7175 283.611 24.8135 283.399C24.9095 283.187 24.9575 282.962 24.9575 282.722C24.9575 282.448 24.8954 282.213 24.7711 282.018C24.6469 281.821 24.476 281.668 24.2586 281.561C24.0412 281.454 23.7941 281.4 23.5174 281.4C23.2322 281.4 22.9823 281.459 22.7677 281.578C22.5531 281.694 22.3865 281.859 22.2679 282.074C22.1521 282.288 22.0942 282.544 22.0942 282.84L20.5991 282.84C20.5991 282.29 20.7247 281.811 20.976 281.404C21.2274 280.998 21.5733 280.683 22.0138 280.46C22.4571 280.237 22.9654 280.125 23.5386 280.125C24.1203 280.125 24.6314 280.234 25.0719 280.451C25.5124 280.669 25.854 280.967 26.0969 281.345C26.3425 281.723 26.4654 282.155 26.4654 282.641C26.4654 282.966 26.4032 283.285 26.279 283.598C26.1548 283.912 25.9359 284.259 25.6225 284.64C25.3119 285.021 24.8756 285.483 24.3137 286.025L22.8185 287.546L22.8185 287.605L26.5967 287.605L26.5967 288.918L20.6499 288.918ZM29.0194 289.011C28.7625 289.011 28.5422 288.921 28.3587 288.74C28.1751 288.56 28.0848 288.339 28.0876 288.08C28.0848 287.825 28.1751 287.608 28.3587 287.427C28.5422 287.247 28.7625 287.156 29.0194 287.156C29.2679 287.156 29.4839 287.247 29.6675 287.427C29.8538 287.608 29.9484 287.825 29.9512 288.08C29.9484 288.252 29.9032 288.409 29.8157 288.55C29.731 288.691 29.618 288.804 29.4769 288.889C29.3385 288.97 29.186 289.011 29.0194 289.011ZM34.3859 289.083C33.6884 289.083 33.0898 288.907 32.59 288.554C32.093 288.198 31.7104 287.686 31.4422 287.016C31.1767 286.344 31.044 285.535 31.044 284.589C31.0468 283.643 31.181 282.839 31.4464 282.175C31.7147 281.509 32.0973 281 32.5942 280.65C33.094 280.3 33.6913 280.125 34.3859 280.125C35.0805 280.125 35.6778 280.3 36.1776 280.65C36.6774 281 37.06 281.509 37.3254 282.175C37.5936 282.842 37.7278 283.646 37.7278 284.589C37.7278 285.538 37.5936 286.349 37.3254 287.021C37.06 287.69 36.6774 288.201 36.1776 288.554C35.6806 288.907 35.0834 289.083 34.3859 289.083ZM34.3859 287.758C34.9281 287.758 35.3558 287.491 35.6693 286.957C35.9855 286.421 36.1437 285.631 36.1437 284.589C36.1437 283.9 36.0717 283.322 35.9277 282.853C35.7836 282.384 35.5803 282.031 35.3177 281.794C35.0551 281.554 34.7445 281.434 34.3859 281.434C33.8466 281.434 33.4202 281.702 33.1068 282.239C32.7933 282.772 32.6352 283.556 32.6324 284.589C32.6295 285.281 32.6987 285.863 32.8399 286.335C32.9839 286.806 33.1872 287.162 33.4498 287.402C33.7124 287.639 34.0245 287.758 34.3859 287.758ZM42.1783 280.244L44.1013 280.244L46.6765 286.529L46.7782 286.529L49.3534 280.244L51.2763 280.244L51.2763 288.918L49.7685 288.918L49.7685 282.959L49.688 282.959L47.2907 288.893L46.164 288.893L43.7667 282.946L43.6862 282.946L43.6862 288.918L42.1783 288.918L42.1783 280.244Z" fill="black"/>
<path d="M37.1781 310.281L37.1781 318.955L35.6067 318.955L35.6067 311.81L35.5559 311.81L33.5271 313.106L33.5271 311.666L35.683 310.281L37.1781 310.281ZM42.4239 310.281L44.3469 310.281L46.9221 316.566L47.0238 316.566L49.599 310.281L51.5219 310.281L51.5219 318.955L50.0141 318.955L50.0141 312.996L49.9336 312.996L47.5363 318.93L46.4096 318.93L44.0123 312.983L43.9318 312.983L43.9318 318.955L42.4239 318.955L42.4239 310.281Z" fill="black"/>
<path d="M76.7339 217.844L352.193 217.844" stroke="black" stroke-width="0.99395" stroke-linejoin="bevel" stroke-dasharray="0.99 5.96"/>
<path d="M76.7336 307.3L352.192 307.3" stroke="black" stroke-width="0.99395" stroke-linejoin="bevel" stroke-dasharray="0.99 5.96"/>
<path d="M63.915 340.184L65.4737 340.184L65.4737 346.283C65.4709 346.842 65.3523 347.324 65.1179 347.727C64.8836 348.128 64.556 348.438 64.1353 348.655C63.7174 348.87 63.2303 348.977 62.674 348.977C62.1657 348.977 61.7083 348.887 61.3017 348.706C60.8979 348.522 60.5774 348.251 60.3402 347.893C60.103 347.534 59.9844 347.088 59.9844 346.554L61.5473 346.554C61.5502 346.789 61.601 346.991 61.6998 347.16C61.8015 347.329 61.9412 347.459 62.1191 347.55C62.297 347.64 62.5018 347.685 62.7333 347.685C62.9846 347.685 63.1978 347.633 63.3729 347.528C63.5479 347.421 63.6807 347.263 63.771 347.054C63.8642 346.845 63.9122 346.588 63.915 346.283L63.915 340.184ZM68.2925 348.858L66.6152 348.858L69.6691 340.184L71.609 340.184L74.6671 348.858L72.9898 348.858L70.6729 341.963L70.6051 341.963L68.2925 348.858ZM68.3476 345.457L72.922 345.457L72.922 346.719L68.3476 346.719L68.3476 345.457ZM82.9381 340.184L82.9381 348.858L81.5403 348.858L77.453 342.95L77.381 342.95L77.381 348.858L75.8096 348.858L75.8096 340.184L77.2158 340.184L81.2989 346.097L81.3752 346.097L81.3752 340.184L82.9381 340.184Z" fill="black"/>
<path d="M127.631 348.858L127.631 340.184L133.189 340.184L133.189 341.501L129.203 341.501L129.203 343.856L132.807 343.856L132.807 345.173L129.203 345.173L129.203 348.858L127.631 348.858ZM134.62 348.858L134.62 340.184L140.262 340.184L140.262 341.501L136.192 341.501L136.192 343.856L139.97 343.856L139.97 345.173L136.192 345.173L136.192 347.541L140.296 347.541L140.296 348.858L134.62 348.858ZM141.865 348.858L141.865 340.184L145.186 340.184C145.813 340.184 146.334 340.283 146.749 340.48C147.167 340.675 147.479 340.942 147.685 341.281C147.894 341.62 147.998 342.004 147.998 342.433C147.998 342.786 147.93 343.088 147.795 343.339C147.659 343.588 147.477 343.79 147.249 343.945C147.02 344.1 146.764 344.212 146.482 344.28L146.482 344.364C146.79 344.381 147.085 344.476 147.367 344.648C147.652 344.818 147.885 345.058 148.066 345.368C148.247 345.679 148.337 346.054 148.337 346.495C148.337 346.944 148.228 347.348 148.011 347.706C147.794 348.062 147.466 348.343 147.028 348.549C146.591 348.755 146.04 348.858 145.376 348.858L141.865 348.858ZM143.437 347.545L145.127 347.545C145.697 347.545 146.108 347.437 146.359 347.219C146.613 346.999 146.74 346.717 146.74 346.372C146.74 346.115 146.677 345.884 146.55 345.677C146.423 345.469 146.242 345.305 146.008 345.186C145.773 345.065 145.494 345.004 145.169 345.004L143.437 345.004L143.437 347.545ZM143.437 343.873L144.991 343.873C145.262 343.873 145.506 343.824 145.724 343.725C145.941 343.623 146.112 343.481 146.236 343.297C146.363 343.111 146.427 342.89 146.427 342.636C146.427 342.3 146.308 342.024 146.071 341.806C145.837 341.589 145.488 341.48 145.025 341.48L143.437 341.48L143.437 343.873Z" fill="black"/>
<path d="M192.77 340.184L194.693 340.184L197.269 346.47L197.37 346.47L199.945 340.184L201.868 340.184L201.868 348.858L200.361 348.858L200.361 342.899L200.28 342.899L197.883 348.833L196.756 348.833L194.359 342.886L194.278 342.886L194.278 348.858L192.77 348.858L192.77 340.184ZM204.694 348.858L203.016 348.858L206.07 340.184L208.01 340.184L211.068 348.858L209.391 348.858L207.074 341.963L207.006 341.963L204.694 348.858ZM204.749 345.457L209.323 345.457L209.323 346.719L204.749 346.719L204.749 345.457ZM212.211 348.858L212.211 340.184L215.464 340.184C216.13 340.184 216.689 340.3 217.141 340.531C217.595 340.763 217.939 341.088 218.17 341.505C218.404 341.921 218.522 342.405 218.522 342.958C218.522 343.515 218.403 343.997 218.166 344.407C217.932 344.813 217.586 345.128 217.128 345.351C216.671 345.572 216.109 345.682 215.442 345.682L213.126 345.682L213.126 344.377L215.231 344.377C215.62 344.377 215.939 344.324 216.188 344.216C216.436 344.106 216.62 343.947 216.738 343.738C216.86 343.526 216.921 343.266 216.921 342.958C216.921 342.65 216.86 342.388 216.738 342.17C216.617 341.95 216.432 341.784 216.184 341.671C215.935 341.555 215.615 341.497 215.222 341.497L213.782 341.497L213.782 348.858L212.211 348.858ZM216.692 344.928L218.839 348.858L217.086 348.858L214.976 344.928L216.692 344.928Z" fill="black"/>
<path d="M264.023 348.858L262.346 348.858L265.4 340.184L267.34 340.184L270.398 348.858L268.721 348.858L266.404 341.963L266.336 341.963L264.023 348.858ZM264.078 345.457L268.653 345.457L268.653 346.719L264.078 346.719L264.078 345.457ZM271.54 348.858L271.54 340.184L274.793 340.184C275.46 340.184 276.019 340.308 276.471 340.557C276.925 340.805 277.268 341.147 277.5 341.582C277.734 342.014 277.851 342.505 277.851 343.056C277.851 343.612 277.734 344.106 277.5 344.538C277.265 344.97 276.92 345.31 276.462 345.559C276.005 345.805 275.441 345.927 274.772 345.927L272.616 345.927L272.616 344.636L274.56 344.636C274.95 344.636 275.269 344.568 275.518 344.432C275.766 344.297 275.95 344.11 276.068 343.873C276.19 343.636 276.25 343.363 276.25 343.056C276.25 342.748 276.19 342.477 276.068 342.242C275.95 342.008 275.765 341.826 275.513 341.696C275.265 341.563 274.944 341.497 274.552 341.497L273.112 341.497L273.112 348.858L271.54 348.858ZM279.216 348.858L279.216 340.184L282.469 340.184C283.136 340.184 283.695 340.3 284.147 340.531C284.601 340.763 284.944 341.088 285.176 341.505C285.41 341.921 285.527 342.405 285.527 342.958C285.527 343.515 285.409 343.997 285.172 344.407C284.937 344.813 284.591 345.128 284.134 345.351C283.676 345.572 283.114 345.682 282.448 345.682L280.131 345.682L280.131 344.377L282.236 344.377C282.626 344.377 282.945 344.324 283.194 344.216C283.442 344.106 283.626 343.947 283.744 343.738C283.866 343.526 283.926 343.266 283.926 342.958C283.926 342.65 283.866 342.388 283.744 342.17C283.623 341.95 283.438 341.784 283.189 341.671C282.941 341.555 282.62 341.497 282.228 341.497L280.788 341.497L280.788 348.858L279.216 348.858ZM283.698 344.928L285.845 348.858L284.091 348.858L281.982 344.928L283.698 344.928Z" fill="black"/>
<path d="M330.048 340.184L331.971 340.184L334.546 346.47L334.648 346.47L337.223 340.184L339.146 340.184L339.146 348.858L337.638 348.858L337.638 342.899L337.558 342.899L335.161 348.833L334.034 348.833L331.637 342.886L331.556 342.886L331.556 348.858L330.048 348.858L330.048 340.184ZM341.971 348.858L340.294 348.858L343.348 340.184L345.288 340.184L348.346 348.858L346.669 348.858L344.352 341.963L344.284 341.963L341.971 348.858ZM342.026 345.457L346.601 345.457L346.601 346.719L342.026 346.719L342.026 345.457ZM351.06 340.184L351.06 348.858L349.488 348.858L349.488 340.184L351.06 340.184Z" fill="black"/>
</g>
</g>
<defs>
<clipPath id="clip0_4011_32687">
<rect width="372.072" height="397.249" fill="white"/>
</clipPath>
<clipPath id="clip1_4011_32687">
<rect y="134.183" width="372.072" height="237.554" rx="29.8185" fill="white"/>
</clipPath>
</defs>
</svg>
