<svg width="380" height="419" viewBox="0 0 380 419" fill="none" xmlns="http://www.w3.org/2000/svg">
<rect width="379.771" height="418.031" fill="white"/>
<path d="M29.0257 28.499C28.9806 28.0771 28.7906 27.7486 28.4557 27.5135C28.1239 27.2784 27.6924 27.1609 27.161 27.1609C26.7874 27.1609 26.4669 27.2172 26.1996 27.3299C25.9323 27.4427 25.7278 27.5956 25.5861 27.7889C25.4444 27.9821 25.3719 28.2027 25.3687 28.4507C25.3687 28.6568 25.4154 28.8356 25.5088 28.9869C25.6054 29.1383 25.7359 29.2671 25.9001 29.3734C26.0644 29.4764 26.2463 29.5634 26.446 29.6343C26.6457 29.7051 26.847 29.7647 27.0499 29.813L27.9774 30.0449C28.351 30.1318 28.7101 30.2494 29.0547 30.3975C29.4025 30.5457 29.7133 30.7325 29.987 30.9579C30.264 31.1834 30.483 31.4555 30.644 31.7743C30.8051 32.0932 30.8856 32.4668 30.8856 32.8951C30.8856 33.4748 30.7374 33.9853 30.4411 34.4265C30.1448 34.8645 29.7165 35.2075 29.1561 35.4555C28.599 35.7002 27.9243 35.8226 27.132 35.8226C26.3623 35.8226 25.694 35.7034 25.1272 35.4651C24.5636 35.2268 24.1224 34.879 23.8035 34.4217C23.4879 33.9643 23.3172 33.4072 23.2914 32.7502L25.0547 32.7502C25.0805 33.0948 25.1868 33.3814 25.3736 33.6101C25.5603 33.8387 25.8035 34.0094 26.103 34.1221C26.4058 34.2349 26.7439 34.2912 27.1175 34.2912C27.5072 34.2912 27.8486 34.2333 28.1416 34.1173C28.4379 33.9981 28.6698 33.8339 28.8373 33.6246C29.0048 33.412 29.0901 33.164 29.0933 32.8806C29.0901 32.623 29.0144 32.4104 28.8663 32.2429C28.7181 32.0722 28.5104 31.9305 28.2431 31.8178C27.979 31.7019 27.6698 31.5988 27.3156 31.5086L26.19 31.2188C25.3752 31.0094 24.731 30.6922 24.2576 30.2671C23.7874 29.8388 23.5523 29.2703 23.5523 28.5618C23.5523 27.9789 23.7101 27.4684 24.0257 27.0304C24.3446 26.5924 24.7777 26.2526 25.3252 26.0111C25.8727 25.7663 26.4927 25.644 27.1851 25.644C27.8872 25.644 28.5024 25.7663 29.0305 26.0111C29.5619 26.2526 29.979 26.5892 30.2817 27.0208C30.5845 27.4491 30.7407 27.9418 30.7503 28.499L29.0257 28.499ZM33.5945 35.6729L31.6815 35.6729L35.1645 25.7792L37.3771 25.7792L40.865 35.6729L38.9519 35.6729L36.3094 27.8082L36.2322 27.8082L33.5945 35.6729ZM33.6573 31.7937L38.8746 31.7937L38.8746 33.2333L33.6573 33.2333L33.6573 31.7937ZM42.1681 35.6729L42.1681 25.7792L43.9603 25.7792L43.9603 34.1704L48.3178 34.1704L48.3178 35.6729L42.1681 35.6729ZM49.8733 35.6729L49.8733 25.7792L56.3081 25.7792L56.3081 27.2816L51.6656 27.2816L51.6656 29.9676L55.9747 29.9676L55.9747 31.47L51.6656 31.47L51.6656 34.1704L56.3467 34.1704L56.3467 35.6729L49.8733 35.6729ZM63.5133 28.499C63.4682 28.0771 63.2782 27.7486 62.9433 27.5135C62.6115 27.2784 62.18 27.1609 61.6486 27.1609C61.275 27.1609 60.9546 27.2172 60.6872 27.3299C60.4199 27.4427 60.2154 27.5956 60.0737 27.7889C59.932 27.9821 59.8596 28.2027 59.8563 28.4507C59.8563 28.6568 59.903 28.8356 59.9964 28.9869C60.0931 29.1383 60.2235 29.2671 60.3877 29.3734C60.552 29.4764 60.7339 29.5634 60.9336 29.6343C61.1333 29.7051 61.3346 29.7647 61.5375 29.813L62.465 30.0449C62.8386 30.1318 63.1977 30.2494 63.5423 30.3975C63.8901 30.5457 64.2009 30.7325 64.4747 30.9579C64.7516 31.1834 64.9706 31.4555 65.1317 31.7743C65.2927 32.0932 65.3732 32.4668 65.3732 32.8951C65.3732 33.4748 65.225 33.9853 64.9288 34.4265C64.6325 34.8645 64.2041 35.2075 63.6437 35.4555C63.0866 35.7002 62.4119 35.8226 61.6196 35.8226C60.8499 35.8226 60.1816 35.7034 59.6148 35.4651C59.0512 35.2268 58.61 34.879 58.2911 34.4217C57.9755 33.9643 57.8048 33.4072 57.7791 32.7502L59.5423 32.7502C59.5681 33.0948 59.6744 33.3814 59.8612 33.6101C60.048 33.8387 60.2911 34.0094 60.5906 34.1221C60.8934 34.2349 61.2315 34.2912 61.6051 34.2912C61.9948 34.2912 62.3362 34.2333 62.6293 34.1173C62.9256 33.9981 63.1574 33.8339 63.3249 33.6246C63.4924 33.412 63.5777 33.164 63.5809 32.8806C63.5777 32.623 63.502 32.4104 63.3539 32.2429C63.2057 32.0722 62.998 31.9305 62.7307 31.8178C62.4666 31.7019 62.1574 31.5988 61.8032 31.5086L60.6776 31.2188C59.8628 31.0094 59.2187 30.6922 58.7452 30.2671C58.275 29.8388 58.0399 29.2703 58.0399 28.5618C58.0399 27.9789 58.1977 27.4684 58.5134 27.0304C58.8322 26.5924 59.2654 26.2526 59.8129 26.0111C60.3604 25.7663 60.9803 25.644 61.6727 25.644C62.3748 25.644 62.99 25.7663 63.5181 26.0111C64.0495 26.2526 64.4666 26.5892 64.7693 27.0208C65.0721 27.4491 65.2283 27.9418 65.2379 28.499L63.5133 28.499ZM73.698 35.6729L70.3454 35.6729L70.3454 25.7792L73.7656 25.7792C74.7479 25.7792 75.5917 25.9773 76.297 26.3734C77.0055 26.7663 77.5498 27.3315 77.9298 28.0691C78.3099 28.8066 78.4999 29.689 78.4999 30.7164C78.4999 31.747 78.3083 32.6326 77.925 33.3734C77.545 34.1141 76.9959 34.6825 76.2777 35.0787C75.5627 35.4748 74.7028 35.6729 73.698 35.6729ZM72.1376 34.1221L73.611 34.1221C74.3002 34.1221 74.8751 33.9965 75.3357 33.7453C75.7962 33.4909 76.1424 33.1125 76.3743 32.6101C76.6062 32.1044 76.7221 31.4732 76.7221 30.7164C76.7221 29.9595 76.6062 29.3315 76.3743 28.8323C76.1424 28.3299 75.7994 27.9547 75.3453 27.7067C74.8944 27.4555 74.3341 27.3299 73.6642 27.3299L72.1376 27.3299L72.1376 34.1221ZM81.995 25.7792L81.995 35.6729L80.2028 35.6729L80.2028 25.7792L81.995 25.7792ZM83.9358 35.6729L83.9358 25.7792L90.2739 25.7792L90.2739 27.2816L85.7281 27.2816L85.7281 29.9676L89.8392 29.9676L89.8392 31.47L85.7281 31.47L85.7281 35.6729L83.9358 35.6729ZM91.9068 35.6729L91.9068 25.7792L98.2449 25.7792L98.2449 27.2816L93.699 27.2816L93.699 29.9676L97.8101 29.9676L97.8101 31.47L93.699 31.47L93.699 35.6729L91.9068 35.6729ZM99.8777 35.6729L99.8777 25.7792L106.312 25.7792L106.312 27.2816L101.67 27.2816L101.67 29.9676L105.979 29.9676L105.979 31.47L101.67 31.47L101.67 34.1705L106.351 34.1705L106.351 35.6729L99.8777 35.6729ZM108.141 35.6729L108.141 25.7792L111.851 25.7792C112.611 25.7792 113.249 25.9113 113.764 26.1754C114.283 26.4394 114.674 26.8098 114.938 27.2865C115.205 27.7599 115.339 28.3122 115.339 28.9434C115.339 29.5779 115.204 30.1286 114.933 30.5956C114.666 31.0594 114.271 31.4185 113.75 31.6729C113.228 31.9241 112.587 32.0497 111.827 32.0497L109.184 32.0497L109.184 30.5618L111.585 30.5618C112.03 30.5618 112.394 30.5006 112.677 30.3782C112.961 30.2526 113.17 30.0706 113.305 29.8323C113.444 29.5908 113.513 29.2945 113.513 28.9434C113.513 28.5924 113.444 28.2929 113.305 28.0449C113.167 27.7937 112.956 27.6037 112.672 27.4749C112.389 27.3428 112.023 27.2768 111.576 27.2768L109.933 27.2768L109.933 35.6729L108.141 35.6729ZM113.252 31.1898L115.701 35.6729L113.701 35.6729L111.295 31.1898L113.252 31.1898ZM116.989 35.6729L116.989 25.7792L123.423 25.7792L123.423 27.2816L118.781 27.2816L118.781 29.9676L123.09 29.9676L123.09 31.47L118.781 31.47L118.781 34.1705L123.462 34.1705L123.462 35.6729L116.989 35.6729ZM133.382 25.7792L133.382 35.6729L131.788 35.6729L127.126 28.9338L127.044 28.9338L127.044 35.6729L125.252 35.6729L125.252 25.7792L126.856 25.7792L131.513 32.5231L131.6 32.5231L131.6 25.7792L133.382 25.7792ZM143.804 29.1174L141.997 29.1174C141.945 28.8211 141.85 28.5586 141.712 28.3299C141.573 28.098 141.401 27.9016 141.195 27.7406C140.989 27.5795 140.754 27.4588 140.49 27.3782C140.229 27.2945 139.947 27.2526 139.644 27.2526C139.106 27.2526 138.63 27.3879 138.214 27.6584C137.799 27.9257 137.474 28.3187 137.238 28.8372C137.003 29.3525 136.886 29.9821 136.886 30.726C136.886 31.4829 137.003 32.1205 137.238 32.6391C137.477 33.1544 137.802 33.544 138.214 33.8081C138.63 34.069 139.105 34.1994 139.639 34.1994C139.936 34.1994 140.213 34.1608 140.47 34.0835C140.731 34.003 140.965 33.8854 141.171 33.7308C141.38 33.5763 141.556 33.3862 141.697 33.1608C141.842 32.9354 141.942 32.6777 141.997 32.3879L143.804 32.3975C143.736 32.8677 143.589 33.3089 143.364 33.7212C143.142 34.1334 142.85 34.4973 142.49 34.813C142.129 35.1254 141.707 35.3701 141.224 35.5472C140.741 35.7212 140.205 35.8081 139.615 35.8081C138.746 35.8081 137.97 35.6068 137.287 35.2043C136.604 34.8017 136.066 34.2204 135.673 33.4603C135.28 32.7003 135.084 31.7888 135.084 30.726C135.084 29.66 135.282 28.7486 135.678 27.9918C136.074 27.2317 136.614 26.6504 137.296 26.2478C137.979 25.8452 138.752 25.644 139.615 25.644C140.166 25.644 140.678 25.7213 141.152 25.8758C141.625 26.0304 142.047 26.2575 142.417 26.557C142.788 26.8533 143.092 27.2172 143.33 27.6488C143.572 28.0771 143.73 28.5666 143.804 29.1174ZM145.445 35.6729L145.445 25.7792L151.88 25.7792L151.88 27.2816L147.237 27.2816L147.237 29.9676L151.546 29.9676L151.546 31.47L147.237 31.47L147.237 34.1705L151.918 34.1705L151.918 35.6729L145.445 35.6729ZM165.551 29.1174L163.744 29.1174C163.693 28.8211 163.598 28.5586 163.459 28.3299C163.321 28.098 163.148 27.9016 162.942 27.7406C162.736 27.5795 162.501 27.4588 162.237 27.3782C161.976 27.2945 161.694 27.2526 161.392 27.2526C160.854 27.2526 160.377 27.3879 159.962 27.6584C159.546 27.9257 159.221 28.3187 158.986 28.8372C158.751 29.3525 158.633 29.9821 158.633 30.726C158.633 31.4829 158.751 32.1205 158.986 32.6391C159.224 33.1544 159.549 33.544 159.962 33.8081C160.377 34.069 160.852 34.1994 161.387 34.1994C161.683 34.1994 161.96 34.1608 162.218 34.0835C162.479 34.003 162.712 33.8854 162.918 33.7308C163.128 33.5763 163.303 33.3862 163.445 33.1608C163.59 32.9354 163.69 32.6777 163.744 32.3879L165.551 32.3975C165.483 32.8677 165.337 33.3089 165.111 33.7212C164.889 34.1334 164.598 34.4973 164.237 34.813C163.876 35.1254 163.454 35.3701 162.971 35.5472C162.488 35.7212 161.952 35.8081 161.363 35.8081C160.493 35.8081 159.717 35.6068 159.034 35.2043C158.351 34.8017 157.814 34.2204 157.421 33.4603C157.028 32.7003 156.831 31.7888 156.831 30.726C156.831 29.66 157.029 28.7486 157.426 27.9918C157.822 27.2317 158.361 26.6504 159.044 26.2478C159.727 25.8452 160.5 25.644 161.363 25.644C161.913 25.644 162.425 25.7213 162.899 25.8758C163.372 26.0304 163.794 26.2575 164.165 26.557C164.535 26.8533 164.839 27.2172 165.078 27.6488C165.319 28.0771 165.477 28.5666 165.551 29.1174ZM176.033 30.726C176.033 31.792 175.833 32.7051 175.434 33.4651C175.038 34.222 174.497 34.8017 173.811 35.2043C173.128 35.6068 172.353 35.8081 171.487 35.8081C170.621 35.8081 169.844 35.6068 169.158 35.2043C168.476 34.7985 167.935 34.2171 167.535 33.4603C167.139 32.7003 166.941 31.7888 166.941 30.726C166.941 29.66 167.139 28.7486 167.535 27.9918C167.935 27.2317 168.476 26.6504 169.158 26.2478C169.844 25.8452 170.621 25.644 171.487 25.644C172.353 25.644 173.128 25.8452 173.811 26.2478C174.497 26.6504 175.038 27.2317 175.434 27.9918C175.833 28.7486 176.033 29.66 176.033 30.726ZM174.231 30.726C174.231 29.9756 174.113 29.3428 173.878 28.8275C173.646 28.309 173.324 27.9177 172.912 27.6536C172.5 27.3863 172.025 27.2526 171.487 27.2526C170.949 27.2526 170.474 27.3863 170.062 27.6536C169.65 27.9177 169.326 28.309 169.091 28.8275C168.859 29.3428 168.743 29.9756 168.743 30.726C168.743 31.4764 168.859 32.1109 169.091 32.6294C169.326 33.1447 169.65 33.536 170.062 33.8033C170.474 34.0674 170.949 34.1994 171.487 34.1994C172.025 34.1994 172.5 34.0674 172.912 33.8033C173.324 33.536 173.646 33.1447 173.878 32.6294C174.113 32.1109 174.231 31.4764 174.231 30.726ZM177.727 25.7792L179.92 25.7792L182.858 32.9482L182.974 32.9482L185.911 25.7792L188.104 25.7792L188.104 35.6729L186.384 35.6729L186.384 28.8758L186.292 28.8758L183.558 35.6439L182.273 35.6439L179.539 28.8613L179.447 28.8613L179.447 35.6729L177.727 35.6729L177.727 25.7792ZM190.056 35.6729L190.056 25.7792L193.766 25.7792C194.526 25.7792 195.164 25.9209 195.679 26.2043C196.197 26.4877 196.589 26.8774 196.853 27.3734C197.12 27.8662 197.254 28.4265 197.254 29.0546C197.254 29.689 197.12 30.2526 196.853 30.7454C196.585 31.2381 196.191 31.6262 195.669 31.9096C195.147 32.1898 194.505 32.3299 193.742 32.3299L191.283 32.3299L191.283 30.8565L193.5 30.8565C193.945 30.8565 194.308 30.7792 194.592 30.6246C194.875 30.47 195.085 30.2574 195.22 29.9869C195.358 29.7164 195.428 29.4056 195.428 29.0546C195.428 28.7035 195.358 28.3943 195.22 28.127C195.085 27.8597 194.874 27.652 194.587 27.5038C194.304 27.3525 193.938 27.2768 193.49 27.2768L191.848 27.2768L191.848 35.6729L190.056 35.6729ZM198.978 35.6729L197.065 35.6729L200.548 25.7792L202.761 25.7792L206.249 35.6729L204.336 35.6729L201.693 27.8082L201.616 27.8082L198.978 35.6729ZM199.041 31.7937L204.258 31.7937L204.258 33.2333L199.041 33.2333L199.041 31.7937ZM207.552 35.6729L207.552 25.7792L211.262 25.7792C212.022 25.7792 212.66 25.9113 213.175 26.1754C213.694 26.4394 214.085 26.8098 214.349 27.2865C214.616 27.7599 214.75 28.3122 214.75 28.9434C214.75 29.5779 214.615 30.1286 214.344 30.5956C214.077 31.0594 213.682 31.4185 213.161 31.6729C212.639 31.9241 211.998 32.0497 211.238 32.0497L208.595 32.0497L208.595 30.5618L210.996 30.5618C211.441 30.5618 211.805 30.5006 212.088 30.3782C212.371 30.2526 212.581 30.0706 212.716 29.8323C212.855 29.5908 212.924 29.2945 212.924 28.9434C212.924 28.5924 212.855 28.2929 212.716 28.0449C212.578 27.7937 212.367 27.6037 212.083 27.4749C211.8 27.3428 211.434 27.2768 210.987 27.2768L209.344 27.2768L209.344 35.6729L207.552 35.6729ZM212.663 31.1898L215.112 35.6729L213.112 35.6729L210.706 31.1898L212.663 31.1898ZM218.192 25.7792L218.192 35.6729L216.4 35.6729L216.4 25.7792L218.192 25.7792ZM225.509 28.499C225.464 28.0771 225.274 27.7486 224.939 27.5135C224.608 27.2784 224.176 27.1609 223.645 27.1609C223.271 27.1609 222.951 27.2172 222.683 27.3299C222.416 27.4427 222.212 27.5956 222.07 27.7889C221.928 27.9821 221.856 28.2027 221.852 28.4507C221.852 28.6568 221.899 28.8356 221.993 28.9869C222.089 29.1383 222.22 29.2671 222.384 29.3734C222.548 29.4765 222.73 29.5634 222.93 29.6343C223.129 29.7051 223.331 29.7647 223.534 29.813L224.461 30.0449C224.835 30.1318 225.194 30.2494 225.538 30.3975C225.886 30.5457 226.197 30.7325 226.471 30.9579C226.748 31.1834 226.967 31.4555 227.128 31.7743C227.289 32.0932 227.369 32.4668 227.369 32.8951C227.369 33.4748 227.221 33.9853 226.925 34.4265C226.629 34.8645 226.2 35.2075 225.64 35.4555C225.083 35.7002 224.408 35.8226 223.616 35.8226C222.846 35.8226 222.178 35.7034 221.611 35.4651C221.047 35.2268 220.606 34.879 220.287 34.4217C219.972 33.9643 219.801 33.4072 219.775 32.7502L221.538 32.7502C221.564 33.0948 221.671 33.3814 221.857 33.6101C222.044 33.8387 222.287 34.0094 222.587 34.1221C222.89 34.2349 223.228 34.2912 223.601 34.2912C223.991 34.2912 224.332 34.2333 224.625 34.1173C224.922 33.9981 225.154 33.8339 225.321 33.6246C225.489 33.412 225.574 33.164 225.577 32.8806C225.574 32.623 225.498 32.4104 225.35 32.2429C225.202 32.0722 224.994 31.9305 224.727 31.8178C224.463 31.7019 224.154 31.5988 223.799 31.5086L222.674 31.2188C221.859 31.0094 221.215 30.6922 220.741 30.2671C220.271 29.8388 220.036 29.2703 220.036 28.5618C220.036 27.9789 220.194 27.4684 220.509 27.0304C220.828 26.5924 221.261 26.2526 221.809 26.0111C222.356 25.7663 222.976 25.644 223.669 25.644C224.371 25.644 224.986 25.7663 225.514 26.0111C226.046 26.2526 226.463 26.5892 226.765 27.0208C227.068 27.4491 227.224 27.9418 227.234 28.499L225.509 28.499ZM237.808 30.726C237.808 31.7921 237.608 32.7051 237.209 33.4651C236.812 34.222 236.271 34.8017 235.585 35.2043C234.903 35.6068 234.128 35.8081 233.262 35.8081C232.395 35.8081 231.619 35.6068 230.933 35.2043C230.251 34.7985 229.709 34.2171 229.31 33.4603C228.914 32.7003 228.716 31.7888 228.716 30.726C228.716 29.66 228.914 28.7486 229.31 27.9918C229.709 27.2317 230.251 26.6504 230.933 26.2478C231.619 25.8452 232.395 25.644 233.262 25.644C234.128 25.644 234.903 25.8452 235.585 26.2478C236.271 26.6504 236.812 27.2317 237.209 27.9918C237.608 28.7486 237.808 29.66 237.808 30.726ZM236.006 30.726C236.006 29.9756 235.888 29.3428 235.653 28.8275C235.421 28.309 235.099 27.9177 234.687 27.6536C234.275 27.3863 233.8 27.2526 233.262 27.2526C232.724 27.2526 232.249 27.3863 231.837 27.6536C231.424 27.9177 231.101 28.309 230.866 28.8275C230.634 29.3428 230.518 29.9756 230.518 30.726C230.518 31.4764 230.634 32.1109 230.866 32.6294C231.101 33.1447 231.424 33.536 231.837 33.8033C232.249 34.0674 232.724 34.1994 233.262 34.1994C233.8 34.1994 234.275 34.0674 234.687 33.8033C235.099 33.536 235.421 33.1447 235.653 32.6294C235.888 32.1109 236.006 31.4764 236.006 30.726ZM247.632 25.7792L247.632 35.6729L246.038 35.6729L241.376 28.9338L241.294 28.9338L241.294 35.6729L239.502 35.6729L239.502 25.7792L241.106 25.7792L245.763 32.5231L245.85 32.5231L245.85 25.7792L247.632 25.7792ZM253.317 30.726C253.317 29.5183 253.477 28.4088 253.795 27.3976C254.117 26.3831 254.596 25.4459 255.23 24.586L256.878 24.586C256.633 24.9048 256.404 25.2961 256.192 25.7599C255.979 26.2204 255.794 26.7261 255.636 27.2768C255.481 27.8243 255.359 28.3927 255.269 28.9821C255.182 29.5715 255.138 30.1528 255.138 30.726C255.138 31.4893 255.214 32.2623 255.365 33.0449C255.52 33.8275 255.728 34.5537 255.989 35.2236C256.253 35.8902 256.549 36.4361 256.878 36.8612L255.23 36.8612C254.596 36.0014 254.117 35.0658 253.795 34.0545C253.477 33.04 253.317 31.9305 253.317 30.726ZM258.217 35.6729L258.217 34.3782L261.652 31.0111C261.98 30.6793 262.254 30.3847 262.473 30.127C262.692 29.8694 262.856 29.6198 262.966 29.3782C263.075 29.1367 263.13 28.879 263.13 28.6053C263.13 28.2929 263.059 28.0256 262.917 27.8034C262.776 27.5779 262.581 27.404 262.333 27.2816C262.085 27.1592 261.803 27.0981 261.487 27.0981C261.162 27.0981 260.877 27.1657 260.632 27.3009C260.388 27.433 260.198 27.6214 260.062 27.8662C259.93 28.1109 259.864 28.4024 259.864 28.7405L258.159 28.7405C258.159 28.1125 258.302 27.5666 258.589 27.1029C258.875 26.6391 259.27 26.28 259.772 26.0256C260.278 25.7712 260.858 25.644 261.512 25.644C262.175 25.644 262.758 25.7679 263.26 26.0159C263.763 26.2639 264.152 26.6037 264.429 27.0352C264.71 27.4668 264.85 27.9596 264.85 28.5135C264.85 28.8839 264.779 29.2478 264.637 29.6053C264.495 29.9628 264.246 30.3589 263.888 30.7937C263.534 31.2284 263.036 31.755 262.396 32.3734L260.69 34.1076L260.69 34.1753L264.999 34.1753L264.999 35.6729L258.217 35.6729ZM270.323 35.8613C269.528 35.8613 268.845 35.66 268.275 35.2574C267.708 34.8516 267.272 34.2671 266.966 33.5038C266.663 32.7373 266.511 31.8146 266.511 30.7357C266.515 29.6568 266.668 28.7389 266.97 27.9821C267.276 27.222 267.713 26.6423 268.28 26.243C268.85 25.8436 269.531 25.644 270.323 25.644C271.115 25.644 271.796 25.8436 272.367 26.243C272.937 26.6423 273.373 27.222 273.676 27.9821C273.982 28.7422 274.135 29.66 274.135 30.7357C274.135 31.8178 273.982 32.7421 273.676 33.5086C273.373 34.2719 272.937 34.8548 272.367 35.2574C271.8 35.66 271.119 35.8613 270.323 35.8613ZM270.323 34.3492C270.941 34.3492 271.429 34.0448 271.787 33.4362C272.148 32.8242 272.328 31.9241 272.328 30.7357C272.328 29.9499 272.246 29.2897 272.081 28.755C271.917 28.2204 271.685 27.8179 271.386 27.5473C271.086 27.2736 270.732 27.1367 270.323 27.1367C269.708 27.1367 269.222 27.4427 268.864 28.0546C268.507 28.6633 268.326 29.557 268.323 30.7357C268.32 31.5247 268.399 32.1882 268.56 32.726C268.724 33.2639 268.956 33.6697 269.255 33.9434C269.555 34.2139 269.911 34.3492 270.323 34.3492ZM275.74 35.6729L275.74 34.3782L279.174 31.0111C279.503 30.6793 279.777 30.3847 279.996 30.127C280.215 29.8694 280.379 29.6198 280.488 29.3782C280.598 29.1367 280.653 28.879 280.653 28.6053C280.653 28.2929 280.582 28.0256 280.44 27.8034C280.298 27.5779 280.104 27.404 279.856 27.2816C279.608 27.1592 279.326 27.0981 279.01 27.0981C278.685 27.0981 278.4 27.1657 278.155 27.3009C277.91 27.433 277.72 27.6214 277.585 27.8662C277.453 28.1109 277.387 28.4024 277.387 28.7405L275.682 28.7405C275.682 28.1125 275.825 27.5666 276.112 27.1029C276.398 26.6391 276.793 26.28 277.295 26.0256C277.801 25.7712 278.381 25.644 279.034 25.644C279.698 25.644 280.281 25.7679 280.783 26.0159C281.286 26.2639 281.675 26.6037 281.952 27.0352C282.232 27.4668 282.372 27.9596 282.372 28.5135C282.372 28.8839 282.302 29.2478 282.16 29.6053C282.018 29.9628 281.769 30.3589 281.411 30.7937C281.057 31.2284 280.559 31.755 279.918 32.3734L278.213 34.1076L278.213 34.1753L282.522 34.1753L282.522 35.6729L275.74 35.6729ZM288.213 25.7792L288.213 35.6729L286.421 35.6729L286.421 27.5232L286.363 27.5232L284.049 29.0014L284.049 27.3589L286.508 25.7792L288.213 25.7792ZM295.242 30.0062L295.242 31.4458L290.788 31.4458L290.788 30.0062L295.242 30.0062ZM296.717 35.6729L296.717 34.3782L300.151 31.0111C300.48 30.6793 300.754 30.3847 300.973 30.127C301.192 29.8694 301.356 29.6198 301.465 29.3782C301.575 29.1367 301.63 28.879 301.63 28.6053C301.63 28.2929 301.559 28.0256 301.417 27.8034C301.275 27.5779 301.08 27.404 300.832 27.2816C300.584 27.1592 300.303 27.0981 299.987 27.0981C299.662 27.0981 299.377 27.1657 299.132 27.3009C298.887 27.433 298.697 27.6214 298.562 27.8662C298.43 28.1109 298.364 28.4024 298.364 28.7405L296.659 28.7405C296.659 28.1125 296.802 27.5666 297.089 27.1029C297.375 26.6391 297.77 26.28 298.272 26.0256C298.778 25.7712 299.357 25.644 300.011 25.644C300.675 25.644 301.258 25.7679 301.76 26.0159C302.262 26.2639 302.652 26.6037 302.929 27.0352C303.209 27.4668 303.349 27.9596 303.349 28.5135C303.349 28.8839 303.278 29.2478 303.137 29.6053C302.995 29.9628 302.745 30.3589 302.388 30.7937C302.034 31.2284 301.536 31.755 300.895 32.3734L299.19 34.1076L299.19 34.1753L303.499 34.1753L303.499 35.6729L296.717 35.6729ZM308.823 35.8613C308.027 35.8613 307.344 35.66 306.774 35.2574C306.208 34.8516 305.771 34.2671 305.465 33.5038C305.162 32.7373 305.011 31.8146 305.011 30.7357C305.014 29.6568 305.167 28.7389 305.47 27.9821C305.776 27.222 306.212 26.6423 306.779 26.243C307.349 25.8436 308.03 25.644 308.823 25.644C309.615 25.644 310.296 25.8436 310.866 26.243C311.436 26.6423 311.873 27.222 312.175 27.9821C312.481 28.7422 312.634 29.66 312.634 30.7357C312.634 31.8178 312.481 32.7421 312.175 33.5086C311.873 34.2719 311.436 34.8548 310.866 35.2574C310.299 35.66 309.618 35.8613 308.823 35.8613ZM308.823 34.3492C309.441 34.3492 309.929 34.0448 310.286 33.4362C310.647 32.8242 310.828 31.9241 310.828 30.7357C310.828 29.9499 310.745 29.2897 310.581 28.755C310.417 28.2204 310.185 27.8179 309.885 27.5473C309.586 27.2736 309.232 27.1367 308.823 27.1367C308.208 27.1367 307.721 27.4427 307.364 28.0546C307.006 28.6633 306.826 29.557 306.823 30.7357C306.819 31.5247 306.898 32.1882 307.059 32.726C307.224 33.2639 307.456 33.6697 307.755 33.9434C308.055 34.2139 308.41 34.3492 308.823 34.3492ZM314.239 35.6729L314.239 34.3782L317.674 31.0111C318.003 30.6793 318.276 30.3847 318.495 30.127C318.714 29.8694 318.879 29.6198 318.988 29.3782C319.098 29.1367 319.152 28.879 319.152 28.6053C319.152 28.2929 319.081 28.0256 318.94 27.8034C318.798 27.5779 318.603 27.404 318.355 27.2816C318.107 27.1592 317.825 27.0981 317.51 27.0981C317.185 27.0981 316.9 27.1657 316.655 27.3009C316.41 27.433 316.22 27.6214 316.085 27.8662C315.953 28.1109 315.887 28.4024 315.887 28.7405L314.181 28.7405C314.181 28.1125 314.325 27.5666 314.611 27.1029C314.898 26.6391 315.292 26.28 315.795 26.0256C316.3 25.7712 316.88 25.644 317.534 25.644C318.197 25.644 318.78 25.7679 319.283 26.0159C319.785 26.2639 320.175 26.6037 320.452 27.0352C320.732 27.4668 320.872 27.9596 320.872 28.5135C320.872 28.8839 320.801 29.2478 320.66 29.6053C320.518 29.9628 320.268 30.3589 319.911 30.7937C319.557 31.2284 319.059 31.755 318.418 32.3734L316.713 34.1076L316.713 34.1753L321.022 34.1753L321.022 35.6729L314.239 35.6729ZM322.689 35.6729L322.689 34.3782L326.123 31.0111C326.452 30.6793 326.726 30.3847 326.945 30.127C327.164 29.8694 327.328 29.6198 327.437 29.3782C327.547 29.1367 327.602 28.879 327.602 28.6053C327.602 28.2929 327.531 28.0256 327.389 27.8034C327.247 27.5779 327.052 27.404 326.804 27.2816C326.556 27.1592 326.275 27.0981 325.959 27.0981C325.634 27.0981 325.349 27.1657 325.104 27.3009C324.859 27.433 324.669 27.6214 324.534 27.8662C324.402 28.1109 324.336 28.4024 324.336 28.7405L322.631 28.7405C322.631 28.1125 322.774 27.5666 323.06 27.1029C323.347 26.6391 323.742 26.28 324.244 26.0256C324.75 25.7712 325.329 25.644 325.983 25.644C326.647 25.644 327.23 25.7679 327.732 26.0159C328.234 26.2639 328.624 26.6037 328.901 27.0352C329.181 27.4668 329.321 27.9596 329.321 28.5135C329.321 28.8839 329.25 29.2478 329.109 29.6053C328.967 29.9628 328.717 30.3589 328.36 30.7937C328.006 31.2284 327.508 31.755 326.867 32.3734L325.162 34.1076L325.162 34.1753L329.471 34.1753L329.471 35.6729L322.689 35.6729ZM334.278 30.726C334.278 31.9305 334.117 33.04 333.795 34.0545C333.476 35.0658 332.999 36.0014 332.365 36.8612L330.717 36.8612C330.965 36.5424 331.194 36.1527 331.403 35.6922C331.616 35.2316 331.8 34.726 331.954 34.1753C332.112 33.6246 332.234 33.0545 332.321 32.4652C332.411 31.8758 332.457 31.2961 332.457 30.726C332.457 29.9628 332.379 29.1898 332.225 28.4072C332.073 27.6246 331.866 26.8984 331.601 26.2285C331.341 25.5586 331.046 25.0111 330.717 24.586L332.365 24.586C332.999 25.4459 333.476 26.3831 333.795 27.3976C334.117 28.4088 334.278 29.5183 334.278 30.726Z" fill="black"/>
<path d="M33.7791 64.4522L33.7791 74.3458L31.6873 74.3458L31.6873 66.4377L31.6293 66.4377L29.3637 67.858L29.3637 66.0029L31.8129 64.4522L33.7791 64.4522ZM40.0097 74.5632C39.1788 74.56 38.4638 74.3555 37.8648 73.9497C37.269 73.5439 36.8101 72.9561 36.488 72.1864C36.1692 71.4167 36.0114 70.4908 36.0146 69.4087C36.0146 68.3298 36.174 67.4103 36.4928 66.6502C36.8149 65.8902 37.2738 65.3121 37.8696 64.916C38.4687 64.5166 39.182 64.3169 40.0097 64.3169C40.8374 64.3169 41.5491 64.5166 42.145 64.916C42.744 65.3153 43.2045 65.895 43.5266 66.6551C43.8486 67.4119 44.0081 68.3298 44.0048 69.4087C44.0048 70.494 43.8438 71.4215 43.5218 72.1913C43.2029 72.961 42.7456 73.5487 42.1498 73.9545C41.554 74.3603 40.8406 74.5632 40.0097 74.5632ZM40.0097 72.8289C40.5765 72.8289 41.029 72.5439 41.3672 71.9739C41.7053 71.4038 41.8728 70.5488 41.8696 69.4087C41.8696 68.6583 41.7923 68.0335 41.6377 67.5343C41.4863 67.0351 41.2706 66.6599 40.9904 66.4087C40.7134 66.1575 40.3865 66.0319 40.0097 66.0319C39.4461 66.0319 38.9952 66.3137 38.6571 66.8773C38.3189 67.4409 38.1482 68.2847 38.145 69.4087C38.145 70.1687 38.2207 70.8032 38.372 71.312C38.5266 71.8177 38.744 72.1977 39.0242 72.4521C39.3044 72.7033 39.6329 72.8289 40.0097 72.8289ZM49.3756 74.5632C48.5447 74.56 47.8297 74.3555 47.2307 73.9497C46.6348 73.5439 46.1759 72.9561 45.8539 72.1864C45.535 71.4167 45.3772 70.4908 45.3804 69.4087C45.3804 68.3298 45.5398 67.4103 45.8587 66.6502C46.1807 65.8902 46.6397 65.3121 47.2355 64.916C47.8345 64.5166 48.5479 64.3169 49.3756 64.3169C50.2033 64.3169 50.915 64.5166 51.5108 64.916C52.1098 65.3153 52.5704 65.895 52.8924 66.6551C53.2145 67.4119 53.3739 68.3298 53.3707 69.4087C53.3707 70.494 53.2097 71.4215 52.8876 72.1913C52.5688 72.961 52.1114 73.5487 51.5156 73.9545C50.9198 74.3603 50.2065 74.5632 49.3756 74.5632ZM49.3756 72.8289C49.9424 72.8289 50.3949 72.5439 50.733 71.9739C51.0712 71.4038 51.2387 70.5488 51.2354 69.4087C51.2354 68.6583 51.1582 68.0335 51.0036 67.5343C50.8522 67.0351 50.6364 66.6599 50.3562 66.4087C50.0793 66.1575 49.7524 66.0319 49.3756 66.0319C48.812 66.0319 48.3611 66.3137 48.0229 66.8773C47.6848 67.4409 47.5141 68.2847 47.5108 69.4087C47.5108 70.1687 47.5865 70.8032 47.7379 71.312C47.8925 71.8177 48.1099 72.1977 48.3901 72.4521C48.6703 72.7033 48.9988 72.8289 49.3756 72.8289ZM60.2776 72.4908L60.2776 71.969C60.2776 71.5729 60.3614 71.209 60.5288 70.8773C60.6995 70.5423 60.9459 70.275 61.268 70.0753C61.5932 69.8724 61.9894 69.771 62.4564 69.771C62.9298 69.771 63.3275 69.8708 63.6496 70.0705C63.9749 70.2702 64.2196 70.5375 64.3839 70.8724C64.5514 71.2041 64.6351 71.5697 64.6351 71.969L64.6351 72.4908C64.6351 72.8869 64.5514 73.2524 64.3839 73.5874C64.2164 73.9191 63.97 74.1848 63.6448 74.3845C63.3195 74.5874 62.9233 74.6888 62.4564 74.6888C61.9829 74.6888 61.5852 74.5874 61.2631 74.3845C60.9411 74.1848 60.6963 73.9191 60.5288 73.5874C60.3614 73.2524 60.2776 72.8869 60.2776 72.4908ZM61.6834 71.969L61.6834 72.4908C61.6834 72.7194 61.7382 72.9352 61.8477 73.1381C61.9604 73.341 62.1633 73.4425 62.4564 73.4425C62.7494 73.4425 62.9491 73.3426 63.0554 73.1429C63.1649 72.9433 63.2196 72.7259 63.2196 72.4908L63.2196 71.969C63.2196 71.7339 63.1681 71.5149 63.0651 71.312C62.962 71.1091 62.7591 71.0077 62.4564 71.0077C62.1665 71.0077 61.9652 71.1091 61.8525 71.312C61.7398 71.5149 61.6834 71.7339 61.6834 71.969ZM55.2004 66.829L55.2004 66.3072C55.2004 65.9079 55.2857 65.5424 55.4564 65.2106C55.6271 64.8757 55.8735 64.6084 56.1955 64.4087C56.5208 64.209 56.9137 64.1092 57.3743 64.1092C57.8509 64.1092 58.2503 64.209 58.5723 64.4087C58.8944 64.6084 59.1392 64.8757 59.3066 65.2106C59.4741 65.5424 59.5578 65.9079 59.5578 66.3072L59.5578 66.829C59.5578 67.2283 59.4725 67.5939 59.3018 67.9256C59.1343 68.2573 58.888 68.523 58.5627 68.7227C58.2406 68.9191 57.8445 69.0174 57.3743 69.0174C56.9041 69.0174 56.5063 68.9175 56.1811 68.7179C55.859 68.515 55.6142 68.2493 55.4468 67.9208C55.2825 67.589 55.2004 67.2251 55.2004 66.829ZM56.6158 66.3072L56.6158 66.829C56.6158 67.0641 56.6706 67.2815 56.7801 67.4812C56.8928 67.6808 57.0909 67.7807 57.3743 67.7807C57.6706 67.7807 57.8719 67.6808 57.9781 67.4812C58.0876 67.2815 58.1424 67.0641 58.1424 66.829L58.1424 66.3072C58.1424 66.0721 58.0909 65.8531 57.9878 65.6503C57.8847 65.4474 57.6802 65.3459 57.3743 65.3459C57.0877 65.3459 56.8896 65.449 56.7801 65.6551C56.6706 65.8612 56.6158 66.0786 56.6158 66.3072ZM55.8381 74.3458L62.6399 64.4522L63.9056 64.4522L57.1038 74.3458L55.8381 74.3458Z" fill="black"/>
<path d="M40.1656 103.348C39.4216 103.348 38.7598 103.227 38.1801 102.986C37.6036 102.741 37.1511 102.408 36.8226 101.986C36.4941 101.564 36.3299 101.086 36.3299 100.551C36.3299 100.139 36.4232 99.7604 36.61 99.4158C36.8001 99.068 37.0577 98.7798 37.383 98.5511C37.7083 98.3192 38.0722 98.1711 38.4748 98.1067L38.4748 98.039C37.9466 97.9327 37.5182 97.6767 37.1897 97.2709C36.8612 96.8619 36.697 96.3869 36.697 95.8458C36.697 95.3337 36.8468 94.878 37.1463 94.4787C37.4458 94.0761 37.8564 93.7605 38.3781 93.5318C38.9031 93.2999 39.4989 93.184 40.1656 93.184C40.8322 93.184 41.4264 93.2999 41.9482 93.5318C42.4731 93.7637 42.8853 94.0809 43.1849 94.4835C43.4844 94.8829 43.6357 95.337 43.639 95.8458C43.6357 96.3901 43.4683 96.8651 43.1366 97.2709C42.8048 97.6767 42.3797 97.9327 41.8612 98.039L41.8612 98.1067C42.2573 98.1711 42.6164 98.3192 42.9385 98.5511C43.2638 98.7798 43.5214 99.068 43.7114 99.4158C43.9047 99.7604 44.0029 100.139 44.0061 100.551C44.0029 101.086 43.837 101.564 43.5085 101.986C43.18 102.408 42.7259 102.741 42.1462 102.986C41.5697 103.227 40.9095 103.348 40.1656 103.348ZM40.1656 101.812C40.4973 101.812 40.7871 101.752 41.0351 101.633C41.2831 101.511 41.4763 101.343 41.6148 101.131C41.7565 100.915 41.8274 100.667 41.8274 100.387C41.8274 100.1 41.7549 99.8474 41.61 99.6284C41.4651 99.4062 41.2686 99.2322 41.0206 99.1066C40.7726 98.9778 40.4876 98.9134 40.1656 98.9134C39.8467 98.9134 39.5617 98.9778 39.3105 99.1066C39.0593 99.2322 38.8612 99.4062 38.7163 99.6284C38.5746 99.8474 38.5037 100.1 38.5037 100.387C38.5037 100.667 38.573 100.915 38.7115 101.131C38.85 101.343 39.0448 101.511 39.296 101.633C39.5472 101.752 39.8371 101.812 40.1656 101.812ZM40.1656 97.3917C40.4425 97.3917 40.6889 97.3353 40.9047 97.2226C41.1205 97.1099 41.2895 96.9537 41.4119 96.754C41.5343 96.5543 41.5955 96.3241 41.5955 96.0632C41.5955 95.8055 41.5343 95.5801 41.4119 95.3869C41.2895 95.1904 41.1221 95.0374 40.9095 94.9279C40.697 94.8152 40.449 94.7589 40.1656 94.7589C39.8854 94.7589 39.6374 94.8152 39.4216 94.9279C39.2058 95.0374 39.0368 95.1904 38.9144 95.3869C38.7952 95.5801 38.7356 95.8055 38.7356 96.0632C38.7356 96.3241 38.7968 96.5543 38.9192 96.754C39.0416 96.9537 39.2107 97.1099 39.4264 97.2226C39.6422 97.3353 39.8886 97.3917 40.1656 97.3917ZM49.3478 103.43C48.5169 103.427 47.802 103.223 47.2029 102.817C46.6071 102.411 46.1482 101.823 45.8261 101.053C45.5073 100.284 45.3495 99.3579 45.3527 98.2757C45.3527 97.1968 45.5121 96.2774 45.831 95.5173C46.153 94.7572 46.612 94.1792 47.2078 93.783C47.8068 93.3837 48.5202 93.184 49.3478 93.184C50.1755 93.184 50.8873 93.3837 51.4831 93.783C52.0821 94.1824 52.5427 94.7621 52.8647 95.5221C53.1868 96.279 53.3462 97.1968 53.343 98.2757C53.343 99.3611 53.182 100.289 52.8599 101.058C52.5411 101.828 52.0837 102.416 51.4879 102.822C50.8921 103.227 50.1788 103.43 49.3478 103.43ZM49.3478 101.696C49.9147 101.696 50.3672 101.411 50.7053 100.841C51.0435 100.271 51.211 99.4158 51.2077 98.2757C51.2077 97.5253 51.1304 96.9005 50.9759 96.4014C50.8245 95.9022 50.6087 95.527 50.3285 95.2758C50.0515 95.0246 49.7247 94.899 49.3478 94.899C48.7842 94.899 48.3334 95.1808 47.9952 95.7444C47.657 96.308 47.4864 97.1518 47.4831 98.2757C47.4831 99.0358 47.5588 99.6702 47.7102 100.179C47.8648 100.685 48.0822 101.065 48.3624 101.319C48.6425 101.57 48.971 101.696 49.3478 101.696ZM60.2499 101.358L60.2499 100.836C60.2499 100.44 60.3337 100.076 60.5011 99.7443C60.6718 99.4094 60.9182 99.1421 61.2403 98.9424C61.5655 98.7395 61.9617 98.6381 62.4286 98.6381C62.9021 98.6381 63.2998 98.7379 63.6219 98.9376C63.9472 99.1372 64.1919 99.4046 64.3562 99.7395C64.5236 100.071 64.6074 100.437 64.6074 100.836L64.6074 101.358C64.6074 101.754 64.5236 102.12 64.3562 102.454C64.1887 102.786 63.9423 103.052 63.617 103.252C63.2918 103.454 62.8956 103.556 62.4286 103.556C61.9552 103.556 61.5575 103.454 61.2354 103.252C60.9134 103.052 60.6686 102.786 60.5011 102.454C60.3337 102.12 60.2499 101.754 60.2499 101.358ZM61.6557 100.836L61.6557 101.358C61.6557 101.586 61.7105 101.802 61.82 102.005C61.9327 102.208 62.1356 102.31 62.4286 102.31C62.7217 102.31 62.9214 102.21 63.0277 102.01C63.1372 101.81 63.1919 101.593 63.1919 101.358L63.1919 100.836C63.1919 100.601 63.1404 100.382 63.0373 100.179C62.9343 99.9762 62.7314 99.8748 62.4286 99.8748C62.1388 99.8748 61.9375 99.9762 61.8248 100.179C61.7121 100.382 61.6557 100.601 61.6557 100.836ZM55.1727 95.696L55.1727 95.1743C55.1727 94.775 55.258 94.4094 55.4287 94.0777C55.5994 93.7428 55.8458 93.4755 56.1678 93.2758C56.4931 93.0761 56.886 92.9763 57.3466 92.9763C57.8232 92.9763 58.2226 93.0761 58.5446 93.2758C58.8667 93.4755 59.1114 93.7428 59.2789 94.0777C59.4464 94.4094 59.5301 94.775 59.5301 95.1743L59.5301 95.696C59.5301 96.0954 59.4448 96.4609 59.2741 96.7927C59.1066 97.1244 58.8602 97.3901 58.535 97.5898C58.2129 97.7862 57.8168 97.8844 57.3466 97.8844C56.8764 97.8844 56.4786 97.7846 56.1533 97.5849C55.8313 97.382 55.5865 97.1163 55.419 96.7878C55.2548 96.4561 55.1727 96.0922 55.1727 95.696ZM56.5881 95.1743L56.5881 95.696C56.5881 95.9312 56.6429 96.1485 56.7524 96.3482C56.8651 96.5479 57.0632 96.6477 57.3466 96.6477C57.6429 96.6477 57.8441 96.5479 57.9504 96.3482C58.0599 96.1485 58.1147 95.9312 58.1147 95.696L58.1147 95.1743C58.1147 94.9392 58.0631 94.7202 57.9601 94.5173C57.857 94.3144 57.6525 94.213 57.3466 94.213C57.0599 94.213 56.8619 94.316 56.7524 94.5221C56.6429 94.7283 56.5881 94.9457 56.5881 95.1743ZM55.8103 103.213L62.6122 93.3193L63.8779 93.3193L57.076 103.213L55.8103 103.213Z" fill="black"/>
<path d="M36.325 130.341L36.325 128.694L40.4554 122.186L41.8757 122.186L41.8757 124.467L41.0351 124.467L38.4313 128.587L38.4313 128.665L44.3008 128.665L44.3008 130.341L36.325 130.341ZM41.0738 132.08L41.0738 129.839L41.1124 129.109L41.1124 122.186L43.0738 122.186L43.0738 132.08L41.0738 132.08ZM49.5737 132.297C48.7428 132.294 48.0278 132.09 47.4288 131.684C46.833 131.278 46.374 130.69 46.052 129.921C45.7331 129.151 45.5753 128.225 45.5786 127.143C45.5786 126.064 45.738 125.145 46.0568 124.384C46.3789 123.624 46.8378 123.046 47.4336 122.65C48.0326 122.251 48.746 122.051 49.5737 122.051C50.4014 122.051 51.1131 122.251 51.7089 122.65C52.308 123.05 52.7685 123.629 53.0906 124.389C53.4126 125.146 53.572 126.064 53.5688 127.143C53.5688 128.228 53.4078 129.156 53.0857 129.926C52.7669 130.695 52.3096 131.283 51.7138 131.689C51.118 132.095 50.4046 132.297 49.5737 132.297ZM49.5737 130.563C50.1405 130.563 50.593 130.278 50.9312 129.708C51.2693 129.138 51.4368 128.283 51.4336 127.143C51.4336 126.393 51.3563 125.768 51.2017 125.269C51.0503 124.769 50.8346 124.394 50.5544 124.143C50.2774 123.892 49.9505 123.766 49.5737 123.766C49.0101 123.766 48.5592 124.048 48.221 124.612C47.8829 125.175 47.7122 126.019 47.709 127.143C47.709 127.903 47.7847 128.537 47.936 129.046C48.0906 129.552 48.308 129.932 48.5882 130.186C48.8684 130.438 49.1969 130.563 49.5737 130.563ZM60.4758 130.225L60.4758 129.703C60.4758 129.307 60.5595 128.943 60.727 128.612C60.8977 128.277 61.144 128.009 61.4661 127.81C61.7914 127.607 62.1875 127.505 62.6545 127.505C63.1279 127.505 63.5257 127.605 63.8477 127.805C64.173 128.004 64.4178 128.272 64.582 128.607C64.7495 128.938 64.8332 129.304 64.8332 129.703L64.8332 130.225C64.8332 130.621 64.7495 130.987 64.582 131.322C64.4145 131.653 64.1682 131.919 63.8429 132.119C63.5176 132.322 63.1215 132.423 62.6545 132.423C62.1811 132.423 61.7833 132.322 61.4613 132.119C61.1392 131.919 60.8944 131.653 60.727 131.322C60.5595 130.987 60.4758 130.621 60.4758 130.225ZM61.8816 129.703L61.8816 130.225C61.8816 130.454 61.9363 130.669 62.0458 130.872C62.1585 131.075 62.3614 131.177 62.6545 131.177C62.9476 131.177 63.1472 131.077 63.2535 130.877C63.363 130.678 63.4178 130.46 63.4178 130.225L63.4178 129.703C63.4178 129.468 63.3662 129.249 63.2632 129.046C63.1601 128.843 62.9572 128.742 62.6545 128.742C62.3646 128.742 62.1634 128.843 62.0506 129.046C61.9379 129.249 61.8816 129.468 61.8816 129.703ZM55.3985 124.563L55.3985 124.042C55.3985 123.642 55.4839 123.277 55.6546 122.945C55.8252 122.61 56.0716 122.343 56.3937 122.143C56.719 121.943 57.1119 121.843 57.5724 121.843C58.0491 121.843 58.4484 121.943 58.7705 122.143C59.0925 122.343 59.3373 122.61 59.5048 122.945C59.6722 123.277 59.756 123.642 59.756 124.042L59.756 124.563C59.756 124.963 59.6706 125.328 59.4999 125.66C59.3325 125.992 59.0861 126.257 58.7608 126.457C58.4387 126.653 58.0426 126.752 57.5724 126.752C57.1022 126.752 56.7045 126.652 56.3792 126.452C56.0571 126.249 55.8124 125.984 55.6449 125.655C55.4806 125.323 55.3985 124.959 55.3985 124.563ZM56.814 124.042L56.814 124.563C56.814 124.798 56.8687 125.016 56.9782 125.215C57.0909 125.415 57.289 125.515 57.5724 125.515C57.8687 125.515 58.07 125.415 58.1763 125.215C58.2858 125.016 58.3405 124.798 58.3405 124.563L58.3405 124.042C58.3405 123.806 58.289 123.587 58.1859 123.385C58.0829 123.182 57.8784 123.08 57.5724 123.08C57.2858 123.08 57.0877 123.183 56.9782 123.389C56.8687 123.595 56.814 123.813 56.814 124.042ZM56.0362 132.08L62.8381 122.186L64.1038 122.186L57.3019 132.08L56.0362 132.08Z" fill="black"/>
<path d="M40.1317 161.082C39.4103 161.082 38.7678 160.958 38.2042 160.71C37.6438 160.459 37.201 160.115 36.8757 159.677C36.5537 159.235 36.3878 158.727 36.3782 158.15L38.4844 158.15C38.4973 158.392 38.5762 158.604 38.7211 158.788C38.8693 158.968 39.0657 159.108 39.3105 159.208C39.5553 159.308 39.8306 159.358 40.1366 159.358C40.4554 159.358 40.7372 159.301 40.982 159.189C41.2267 159.076 41.4184 158.92 41.5569 158.72C41.6953 158.52 41.7646 158.29 41.7646 158.029C41.7646 157.765 41.6905 157.532 41.5424 157.329C41.3974 157.123 41.1881 156.962 40.9144 156.846C40.6438 156.73 40.3218 156.672 39.9482 156.672L39.0255 156.672L39.0255 155.136L39.9482 155.136C40.2638 155.136 40.5424 155.081 40.7839 154.971C41.0287 154.862 41.2187 154.71 41.354 154.517C41.4892 154.321 41.5569 154.092 41.5569 153.831C41.5569 153.583 41.4973 153.366 41.3781 153.179C41.2622 152.989 41.0979 152.841 40.8854 152.735C40.676 152.628 40.4313 152.575 40.1511 152.575C39.8677 152.575 39.6084 152.627 39.3733 152.73C39.1382 152.83 38.9498 152.973 38.8081 153.16C38.6664 153.347 38.5907 153.566 38.581 153.817L36.5762 153.817C36.5859 153.247 36.7485 152.744 37.0641 152.31C37.3798 151.875 37.8049 151.535 38.3395 151.29C38.8773 151.042 39.4844 150.918 40.1607 150.918C40.8435 150.918 41.4409 151.042 41.953 151.29C42.4651 151.538 42.8628 151.873 43.1462 152.295C43.4328 152.714 43.5746 153.184 43.5713 153.706C43.5746 154.26 43.4023 154.722 43.0544 155.092C42.7098 155.462 42.2606 155.698 41.7066 155.797L41.7066 155.875C42.4345 155.968 42.9884 156.221 43.3684 156.633C43.7517 157.042 43.9417 157.554 43.9385 158.169C43.9417 158.733 43.7791 159.234 43.4506 159.672C43.1253 160.11 42.676 160.454 42.1027 160.706C41.5295 160.957 40.8725 161.082 40.1317 161.082ZM49.3213 161.165C48.4904 161.161 47.7754 160.957 47.1764 160.551C46.5806 160.145 46.1216 159.557 45.7996 158.788C45.4807 158.018 45.3229 157.092 45.3261 156.01C45.3261 154.931 45.4856 154.012 45.8044 153.252C46.1265 152.492 46.5854 151.913 47.1812 151.517C47.7802 151.118 48.4936 150.918 49.3213 150.918C50.149 150.918 50.8607 151.118 51.4565 151.517C52.0556 151.917 52.5161 152.496 52.8382 153.256C53.1602 154.013 53.3196 154.931 53.3164 156.01C53.3164 157.095 53.1554 158.023 52.8333 158.793C52.5145 159.562 52.0572 160.15 51.4614 160.556C50.8655 160.962 50.1522 161.165 49.3213 161.165ZM49.3213 159.43C49.8881 159.43 50.3406 159.145 50.6788 158.575C51.0169 158.005 51.1844 157.15 51.1812 156.01C51.1812 155.26 51.1039 154.635 50.9493 154.136C50.7979 153.636 50.5821 153.261 50.3019 153.01C50.025 152.759 49.6981 152.633 49.3213 152.633C48.7577 152.633 48.3068 152.915 47.9686 153.479C47.6305 154.042 47.4598 154.886 47.4566 156.01C47.4566 156.77 47.5322 157.405 47.6836 157.913C47.8382 158.419 48.0556 158.799 48.3358 159.053C48.616 159.305 48.9445 159.43 49.3213 159.43ZM60.2234 159.092L60.2234 158.57C60.2234 158.174 60.3071 157.81 60.4746 157.479C60.6453 157.144 60.8916 156.876 61.2137 156.677C61.539 156.474 61.9351 156.372 62.4021 156.372C62.8755 156.372 63.2732 156.472 63.5953 156.672C63.9206 156.871 64.1653 157.139 64.3296 157.474C64.4971 157.805 64.5808 158.171 64.5808 158.57L64.5808 159.092C64.5808 159.488 64.4971 159.854 64.3296 160.189C64.1621 160.52 63.9158 160.786 63.5905 160.986C63.2652 161.189 62.8691 161.29 62.4021 161.29C61.9287 161.29 61.5309 161.189 61.2089 160.986C60.8868 160.786 60.642 160.52 60.4746 160.189C60.3071 159.854 60.2234 159.488 60.2234 159.092ZM61.6291 158.57L61.6291 159.092C61.6291 159.321 61.6839 159.537 61.7934 159.739C61.9061 159.942 62.109 160.044 62.4021 160.044C62.6952 160.044 62.8948 159.944 63.0011 159.744C63.1106 159.545 63.1654 159.327 63.1654 159.092L63.1654 158.57C63.1654 158.335 63.1138 158.116 63.0108 157.913C62.9077 157.71 62.7048 157.609 62.4021 157.609C62.1122 157.609 61.9109 157.71 61.7982 157.913C61.6855 158.116 61.6291 158.335 61.6291 158.57ZM55.1461 153.43L55.1461 152.909C55.1461 152.509 55.2315 152.144 55.4021 151.812C55.5728 151.477 55.8192 151.21 56.1413 151.01C56.4665 150.81 56.8595 150.711 57.32 150.711C57.7966 150.711 58.196 150.81 58.5181 151.01C58.8401 151.21 59.0849 151.477 59.2523 151.812C59.4198 152.144 59.5036 152.509 59.5036 152.909L59.5036 153.43C59.5036 153.83 59.4182 154.195 59.2475 154.527C59.08 154.859 58.8337 155.124 58.5084 155.324C58.1863 155.52 57.7902 155.619 57.32 155.619C56.8498 155.619 56.4521 155.519 56.1268 155.319C55.8047 155.116 55.5599 154.851 55.3925 154.522C55.2282 154.19 55.1461 153.826 55.1461 153.43ZM56.5616 152.909L56.5616 153.43C56.5616 153.665 56.6163 153.883 56.7258 154.082C56.8385 154.282 57.0366 154.382 57.32 154.382C57.6163 154.382 57.8176 154.282 57.9239 154.082C58.0334 153.883 58.0881 153.665 58.0881 153.43L58.0881 152.909C58.0881 152.673 58.0366 152.454 57.9335 152.252C57.8305 152.049 57.626 151.947 57.32 151.947C57.0334 151.947 56.8353 152.05 56.7258 152.256C56.6163 152.463 56.5616 152.68 56.5616 152.909ZM55.7838 160.947L62.5857 151.054L63.8513 151.054L57.0495 160.947L55.7838 160.947Z" fill="black"/>
<path d="M37.4748 189.814L37.4748 188.307L40.9965 185.046C41.296 184.756 41.5472 184.496 41.7501 184.264C41.9562 184.032 42.1124 183.805 42.2187 183.583C42.325 183.357 42.3781 183.114 42.3781 182.853C42.3781 182.563 42.3121 182.314 42.18 182.104C42.048 181.892 41.8677 181.729 41.639 181.616C41.4103 181.5 41.1511 181.442 40.8612 181.442C40.5585 181.442 40.2944 181.504 40.069 181.626C39.8435 181.748 39.6696 181.924 39.5472 182.153C39.4248 182.381 39.3636 182.653 39.3636 182.969L37.3782 182.969C37.3782 182.322 37.5247 181.76 37.8178 181.283C38.1108 180.806 38.5215 180.438 39.0496 180.177C39.5778 179.916 40.1865 179.785 40.8757 179.785C41.5842 179.785 42.201 179.911 42.7259 180.162C43.2541 180.41 43.6647 180.755 43.9578 181.196C44.2509 181.637 44.3974 182.143 44.3974 182.713C44.3974 183.087 44.3233 183.455 44.1752 183.819C44.0303 184.183 43.771 184.587 43.3974 185.032C43.0238 185.473 42.4973 186.003 41.8177 186.621L40.3733 188.037L40.3733 188.104L44.5279 188.104L44.5279 189.814L37.4748 189.814ZM49.9227 190.032C49.0918 190.028 48.3769 189.824 47.7778 189.418C47.182 189.012 46.7231 188.425 46.401 187.655C46.0822 186.885 45.9244 185.959 45.9276 184.877C45.9276 183.798 46.087 182.879 46.4059 182.119C46.7279 181.359 47.1868 180.781 47.7827 180.384C48.3817 179.985 49.095 179.785 49.9227 179.785C50.7504 179.785 51.4622 179.985 52.058 180.384C52.657 180.784 53.1176 181.364 53.4396 182.124C53.7617 182.88 53.9211 183.798 53.9179 184.877C53.9179 185.963 53.7568 186.89 53.4348 187.66C53.1159 188.429 52.6586 189.017 52.0628 189.423C51.467 189.829 50.7536 190.032 49.9227 190.032ZM49.9227 188.297C50.4896 188.297 50.942 188.012 51.2802 187.442C51.6184 186.872 51.7858 186.017 51.7826 184.877C51.7826 184.127 51.7053 183.502 51.5507 183.003C51.3994 182.504 51.1836 182.128 50.9034 181.877C50.6264 181.626 50.2995 181.5 49.9227 181.5C49.3591 181.5 48.9082 181.782 48.5701 182.346C48.2319 182.909 48.0612 183.753 48.058 184.877C48.058 185.637 48.1337 186.272 48.2851 186.781C48.4397 187.286 48.657 187.666 48.9372 187.921C49.2174 188.172 49.5459 188.297 49.9227 188.297ZM60.8248 187.959L60.8248 187.438C60.8248 187.041 60.9085 186.677 61.076 186.346C61.2467 186.011 61.4931 185.744 61.8151 185.544C62.1404 185.341 62.5365 185.239 63.0035 185.239C63.477 185.239 63.8747 185.339 64.1968 185.539C64.522 185.739 64.7668 186.006 64.9311 186.341C65.0985 186.673 65.1823 187.038 65.1823 187.438L65.1823 187.959C65.1823 188.355 65.0985 188.721 64.9311 189.056C64.7636 189.388 64.5172 189.653 64.1919 189.853C63.8666 190.056 63.4705 190.157 63.0035 190.157C62.5301 190.157 62.1324 190.056 61.8103 189.853C61.4882 189.653 61.2435 189.388 61.076 189.056C60.9085 188.721 60.8248 188.355 60.8248 187.959ZM62.2306 187.438L62.2306 187.959C62.2306 188.188 62.2853 188.404 62.3948 188.607C62.5076 188.81 62.7105 188.911 63.0035 188.911C63.2966 188.911 63.4963 188.811 63.6026 188.611C63.7121 188.412 63.7668 188.194 63.7668 187.959L63.7668 187.438C63.7668 187.202 63.7153 186.983 63.6122 186.781C63.5092 186.578 63.3063 186.476 63.0035 186.476C62.7137 186.476 62.5124 186.578 62.3997 186.781C62.287 186.983 62.2306 187.202 62.2306 187.438ZM55.7476 182.297L55.7476 181.776C55.7476 181.376 55.8329 181.011 56.0036 180.679C56.1743 180.344 56.4207 180.077 56.7427 179.877C57.068 179.678 57.4609 179.578 57.9215 179.578C58.3981 179.578 58.7975 179.678 59.1195 179.877C59.4416 180.077 59.6863 180.344 59.8538 180.679C60.0213 181.011 60.105 181.376 60.105 181.776L60.105 182.297C60.105 182.697 60.0197 183.062 59.849 183.394C59.6815 183.726 59.4351 183.992 59.1098 184.191C58.7878 184.388 58.3917 184.486 57.9215 184.486C57.4512 184.486 57.0535 184.386 56.7282 184.186C56.4062 183.983 56.1614 183.718 55.9939 183.389C55.8297 183.058 55.7476 182.694 55.7476 182.297ZM57.163 181.776L57.163 182.297C57.163 182.533 57.2178 182.75 57.3273 182.95C57.44 183.149 57.638 183.249 57.9215 183.249C58.2177 183.249 58.419 183.149 58.5253 182.95C58.6348 182.75 58.6896 182.533 58.6896 182.297L58.6896 181.776C58.6896 181.541 58.638 181.322 58.535 181.119C58.4319 180.916 58.2274 180.814 57.9215 180.814C57.6348 180.814 57.4368 180.917 57.3273 181.124C57.2178 181.33 57.163 181.547 57.163 181.776ZM56.3852 189.814L63.1871 179.921L64.4528 179.921L57.6509 189.814L56.3852 189.814Z" fill="black"/>
<path d="M49.354 218.899C48.5231 218.896 47.8081 218.691 47.2091 218.285C46.6133 217.879 46.1543 217.292 45.8323 216.522C45.5134 215.752 45.3556 214.826 45.3588 213.744C45.3588 212.665 45.5183 211.746 45.8371 210.986C46.1592 210.226 46.6181 209.648 47.2139 209.252C47.8129 208.852 48.5263 208.653 49.354 208.653C50.1817 208.653 50.8934 208.852 51.4892 209.252C52.0882 209.651 52.5488 210.231 52.8708 210.991C53.1929 211.747 53.3523 212.665 53.3491 213.744C53.3491 214.83 53.1881 215.757 52.866 216.527C52.5472 217.297 52.0899 217.884 51.494 218.29C50.8982 218.696 50.1849 218.899 49.354 218.899ZM49.354 217.165C49.9208 217.165 50.3733 216.879 50.7114 216.309C51.0496 215.739 51.2171 214.884 51.2139 213.744C51.2139 212.994 51.1366 212.369 50.982 211.87C50.8306 211.371 50.6148 210.995 50.3346 210.744C50.0577 210.493 49.7308 210.367 49.354 210.367C48.7904 210.367 48.3395 210.649 48.0013 211.213C47.6632 211.776 47.4925 212.62 47.4893 213.744C47.4893 214.504 47.5649 215.139 47.7163 215.648C47.8709 216.153 48.0883 216.533 48.3685 216.788C48.6487 217.039 48.9772 217.165 49.354 217.165ZM60.256 216.826L60.256 216.305C60.256 215.908 60.3398 215.545 60.5072 215.213C60.6779 214.878 60.9243 214.611 61.2464 214.411C61.5717 214.208 61.9678 214.107 62.4348 214.107C62.9082 214.107 63.3059 214.206 63.628 214.406C63.9533 214.606 64.198 214.873 64.3623 215.208C64.5298 215.54 64.6135 215.905 64.6135 216.305L64.6135 216.826C64.6135 217.222 64.5298 217.588 64.3623 217.923C64.1948 218.255 63.9484 218.52 63.6232 218.72C63.2979 218.923 62.9018 219.024 62.4348 219.024C61.9613 219.024 61.5636 218.923 61.2415 218.72C60.9195 218.52 60.6747 218.255 60.5072 217.923C60.3398 217.588 60.256 217.222 60.256 216.826ZM61.6618 216.305L61.6618 216.826C61.6618 217.055 61.7166 217.271 61.8261 217.474C61.9388 217.677 62.1417 217.778 62.4348 217.778C62.7278 217.778 62.9275 217.678 63.0338 217.479C63.1433 217.279 63.198 217.061 63.198 216.826L63.198 216.305C63.198 216.07 63.1465 215.851 63.0435 215.648C62.9404 215.445 62.7375 215.343 62.4348 215.343C62.1449 215.343 61.9436 215.445 61.8309 215.648C61.7182 215.851 61.6618 216.07 61.6618 216.305ZM55.1788 211.165L55.1788 210.643C55.1788 210.243 55.2641 209.878 55.4348 209.546C55.6055 209.211 55.8519 208.944 56.174 208.744C56.4992 208.545 56.8921 208.445 57.3527 208.445C57.8293 208.445 58.2287 208.545 58.5507 208.744C58.8728 208.944 59.1176 209.211 59.285 209.546C59.4525 209.878 59.5362 210.243 59.5362 210.643L59.5362 211.165C59.5362 211.564 59.4509 211.929 59.2802 212.261C59.1127 212.593 58.8664 212.859 58.5411 213.058C58.219 213.255 57.8229 213.353 57.3527 213.353C56.8825 213.353 56.4847 213.253 56.1595 213.053C55.8374 212.851 55.5926 212.585 55.4252 212.256C55.2609 211.925 55.1788 211.561 55.1788 211.165ZM56.5942 210.643L56.5942 211.165C56.5942 211.4 56.649 211.617 56.7585 211.817C56.8712 212.016 57.0693 212.116 57.3527 212.116C57.649 212.116 57.8503 212.016 57.9565 211.817C58.066 211.617 58.1208 211.4 58.1208 211.165L58.1208 210.643C58.1208 210.408 58.0693 210.189 57.9662 209.986C57.8632 209.783 57.6586 209.681 57.3527 209.681C57.0661 209.681 56.868 209.785 56.7585 209.991C56.649 210.197 56.5942 210.414 56.5942 210.643ZM55.8165 218.681L62.6183 208.788L63.884 208.788L57.0822 218.681L55.8165 218.681Z" fill="black"/>
<path d="M36.1172 241.785L36.1172 243.418L31.6052 243.418L31.6052 241.785L36.1172 241.785ZM37.5725 247.549L37.5725 246.041L41.0943 242.781C41.3938 242.491 41.645 242.23 41.8479 241.998C42.054 241.766 42.2102 241.539 42.3165 241.317C42.4227 241.091 42.4759 240.848 42.4759 240.587C42.4759 240.297 42.4099 240.048 42.2778 239.839C42.1458 239.626 41.9654 239.463 41.7368 239.351C41.5081 239.235 41.2488 239.177 40.959 239.177C40.6563 239.177 40.3922 239.238 40.1667 239.36C39.9413 239.483 39.7674 239.658 39.645 239.887C39.5226 240.115 39.4614 240.388 39.4614 240.703L37.4759 240.703C37.4759 240.056 37.6225 239.494 37.9155 239.017C38.2086 238.541 38.6192 238.172 39.1474 237.911C39.6756 237.65 40.2843 237.52 40.9735 237.52C41.682 237.52 42.2988 237.645 42.8237 237.896C43.3519 238.144 43.7625 238.489 44.0556 238.93C44.3487 239.372 44.4952 239.877 44.4952 240.447C44.4952 240.821 44.4211 241.19 44.273 241.553C44.128 241.917 43.8688 242.322 43.4952 242.766C43.1216 243.207 42.595 243.737 41.9155 244.355L40.4711 245.771L40.4711 245.838L44.6256 245.838L44.6256 247.549L37.5725 247.549ZM50.0205 247.766C49.1896 247.763 48.4746 247.558 47.8756 247.152C47.2798 246.747 46.8209 246.159 46.4988 245.389C46.18 244.619 46.0221 243.694 46.0254 242.611C46.0254 241.533 46.1848 240.613 46.5036 239.853C46.8257 239.093 47.2846 238.515 47.8804 238.119C48.4795 237.719 49.1928 237.52 50.0205 237.52C50.8482 237.52 51.5599 237.719 52.1557 238.119C52.7548 238.518 53.2153 239.098 53.5374 239.858C53.8594 240.615 54.0189 241.533 54.0156 242.611C54.0156 243.697 53.8546 244.624 53.5325 245.394C53.2137 246.164 52.7564 246.751 52.1606 247.157C51.5648 247.563 50.8514 247.766 50.0205 247.766ZM50.0205 246.032C50.5873 246.032 51.0398 245.747 51.378 245.177C51.7161 244.607 51.8836 243.752 51.8804 242.611C51.8804 241.861 51.8031 241.236 51.6485 240.737C51.4971 240.238 51.2814 239.863 51.0012 239.611C50.7242 239.36 50.3973 239.235 50.0205 239.235C49.4569 239.235 49.006 239.516 48.6679 240.08C48.3297 240.644 48.159 241.487 48.1558 242.611C48.1558 243.371 48.2315 244.006 48.3828 244.515C48.5374 245.02 48.7548 245.4 49.035 245.655C49.3152 245.906 49.6437 246.032 50.0205 246.032ZM60.9226 245.694L60.9226 245.172C60.9226 244.776 61.0063 244.412 61.1738 244.08C61.3445 243.745 61.5908 243.478 61.9129 243.278C62.2382 243.075 62.6343 242.974 63.1013 242.974C63.5747 242.974 63.9725 243.074 64.2945 243.273C64.6198 243.473 64.8646 243.74 65.0288 244.075C65.1963 244.407 65.28 244.772 65.28 245.172L65.28 245.694C65.28 246.09 65.1963 246.455 65.0288 246.79C64.8614 247.122 64.615 247.388 64.2897 247.587C63.9644 247.79 63.5683 247.892 63.1013 247.892C62.6279 247.892 62.2301 247.79 61.9081 247.587C61.586 247.388 61.3413 247.122 61.1738 246.79C61.0063 246.455 60.9226 246.09 60.9226 245.694ZM62.3284 245.172L62.3284 245.694C62.3284 245.922 62.3831 246.138 62.4926 246.341C62.6053 246.544 62.8082 246.645 63.1013 246.645C63.3944 246.645 63.5941 246.545 63.7003 246.346C63.8098 246.146 63.8646 245.929 63.8646 245.694L63.8646 245.172C63.8646 244.937 63.8131 244.718 63.71 244.515C63.6069 244.312 63.404 244.21 63.1013 244.21C62.8114 244.21 62.6102 244.312 62.4974 244.515C62.3847 244.718 62.3284 244.937 62.3284 245.172ZM55.8453 240.032L55.8453 239.51C55.8453 239.111 55.9307 238.745 56.1014 238.413C56.2721 238.078 56.5184 237.811 56.8405 237.611C57.1658 237.412 57.5587 237.312 58.0192 237.312C58.4959 237.312 58.8952 237.412 59.2173 237.611C59.5393 237.811 59.7841 238.078 59.9516 238.413C60.119 238.745 60.2028 239.111 60.2028 239.51L60.2028 240.032C60.2028 240.431 60.1174 240.797 59.9467 241.128C59.7793 241.46 59.5329 241.726 59.2076 241.925C58.8856 242.122 58.4894 242.22 58.0192 242.22C57.549 242.22 57.1513 242.12 56.826 241.921C56.5039 241.718 56.2592 241.452 56.0917 241.124C55.9275 240.792 55.8453 240.428 55.8453 240.032ZM57.2608 239.51L57.2608 240.032C57.2608 240.267 57.3155 240.484 57.425 240.684C57.5377 240.884 57.7358 240.983 58.0192 240.983C58.3155 240.983 58.5168 240.884 58.6231 240.684C58.7326 240.484 58.7873 240.267 58.7873 240.032L58.7873 239.51C58.7873 239.275 58.7358 239.056 58.6327 238.853C58.5297 238.65 58.3252 238.549 58.0192 238.549C57.7326 238.549 57.5345 238.652 57.425 238.858C57.3155 239.064 57.2608 239.281 57.2608 239.51ZM56.483 247.549L63.2849 237.655L64.5506 237.655L57.7487 247.549L56.483 247.549Z" fill="black"/>
<path d="M35.1172 270.652L35.1172 272.285L30.6052 272.285L30.6052 270.652L35.1172 270.652ZM36.7018 274.677L36.7018 273.029L40.8322 266.522L42.2524 266.522L42.2524 268.802L41.4119 268.802L38.808 272.923L38.808 273L44.6775 273L44.6775 274.677L36.7018 274.677ZM41.4505 276.416L41.4505 274.174L41.4892 273.445L41.4892 266.522L43.4505 266.522L43.4505 276.416L41.4505 276.416ZM49.9504 276.633C49.1195 276.63 48.4046 276.425 47.8055 276.02C47.2097 275.614 46.7508 275.026 46.4287 274.256C46.1099 273.487 45.9521 272.561 45.9553 271.478C45.9553 270.4 46.1147 269.48 46.4336 268.72C46.7556 267.96 47.2146 267.382 47.8104 266.986C48.4094 266.586 49.1228 266.387 49.9504 266.387C50.7781 266.387 51.4899 266.586 52.0857 266.986C52.6847 267.385 53.1453 267.965 53.4673 268.725C53.7894 269.482 53.9488 270.4 53.9456 271.478C53.9456 272.564 53.7845 273.491 53.4625 274.261C53.1437 275.031 52.6863 275.619 52.0905 276.024C51.4947 276.43 50.7814 276.633 49.9504 276.633ZM49.9504 274.899C50.5173 274.899 50.9698 274.614 51.3079 274.044C51.6461 273.474 51.8136 272.619 51.8103 271.478C51.8103 270.728 51.733 270.103 51.5785 269.604C51.4271 269.105 51.2113 268.73 50.9311 268.479C50.6541 268.227 50.3273 268.102 49.9504 268.102C49.3868 268.102 48.936 268.384 48.5978 268.947C48.2596 269.511 48.0889 270.355 48.0857 271.478C48.0857 272.239 48.1614 272.873 48.3128 273.382C48.4674 273.887 48.6848 274.268 48.9649 274.522C49.2451 274.773 49.5736 274.899 49.9504 274.899ZM60.8525 274.561L60.8525 274.039C60.8525 273.643 60.9363 273.279 61.1037 272.947C61.2744 272.612 61.5208 272.345 61.8429 272.145C62.1681 271.942 62.5643 271.841 63.0312 271.841C63.5047 271.841 63.9024 271.941 64.2245 272.14C64.5497 272.34 64.7945 272.607 64.9588 272.942C65.1262 273.274 65.21 273.64 65.21 274.039L65.21 274.561C65.21 274.957 65.1262 275.322 64.9588 275.657C64.7913 275.989 64.5449 276.255 64.2196 276.454C63.8944 276.657 63.4982 276.759 63.0312 276.759C62.5578 276.759 62.1601 276.657 61.838 276.454C61.516 276.255 61.2712 275.989 61.1037 275.657C60.9363 275.322 60.8525 274.957 60.8525 274.561ZM62.2583 274.039L62.2583 274.561C62.2583 274.789 62.3131 275.005 62.4226 275.208C62.5353 275.411 62.7382 275.512 63.0312 275.512C63.3243 275.512 63.524 275.412 63.6303 275.213C63.7398 275.013 63.7945 274.796 63.7945 274.561L63.7945 274.039C63.7945 273.804 63.743 273.585 63.6399 273.382C63.5369 273.179 63.334 273.078 63.0312 273.078C62.7414 273.078 62.5401 273.179 62.4274 273.382C62.3147 273.585 62.2583 273.804 62.2583 274.039ZM55.7753 268.899L55.7753 268.377C55.7753 267.978 55.8606 267.612 56.0313 267.28C56.202 266.946 56.4484 266.678 56.7704 266.479C57.0957 266.279 57.4886 266.179 57.9492 266.179C58.4258 266.179 58.8252 266.279 59.1472 266.479C59.4693 266.678 59.714 266.946 59.8815 267.28C60.049 267.612 60.1327 267.978 60.1327 268.377L60.1327 268.899C60.1327 269.298 60.0474 269.664 59.8767 269.995C59.7092 270.327 59.4628 270.593 59.1376 270.793C58.8155 270.989 58.4194 271.087 57.9492 271.087C57.479 271.087 57.0812 270.987 56.7559 270.788C56.4339 270.585 56.1891 270.319 56.0216 269.991C55.8574 269.659 55.7753 269.295 55.7753 268.899ZM57.1907 268.377L57.1907 268.899C57.1907 269.134 57.2455 269.351 57.355 269.551C57.4677 269.751 57.6658 269.85 57.9492 269.85C58.2455 269.85 58.4467 269.751 58.553 269.551C58.6625 269.351 58.7173 269.134 58.7173 268.899L58.7173 268.377C58.7173 268.142 58.6657 267.923 58.5627 267.72C58.4596 267.517 58.2551 267.416 57.9492 267.416C57.6625 267.416 57.4645 267.519 57.355 267.725C57.2455 267.931 57.1907 268.148 57.1907 268.377ZM56.4129 276.416L63.2148 266.522L64.4805 266.522L57.6786 276.416L56.4129 276.416Z" fill="black"/>
<path d="M35.1172 299.52L35.1172 301.152L30.6052 301.152L30.6052 299.52L35.1172 299.52ZM40.6486 305.418C40.1397 305.415 39.6486 305.33 39.1752 305.162C38.705 304.995 38.2831 304.722 37.9095 304.346C37.5359 303.969 37.2396 303.47 37.0206 302.848C36.8048 302.227 36.6969 301.463 36.6969 300.558C36.7002 299.727 36.7952 298.985 36.982 298.331C37.172 297.674 37.4425 297.117 37.7936 296.66C38.1478 296.202 38.5713 295.855 39.0641 295.616C39.5568 295.375 40.1092 295.254 40.7211 295.254C41.3813 295.254 41.9642 295.383 42.4698 295.64C42.9755 295.895 43.3813 296.241 43.6872 296.679C43.9964 297.117 44.1832 297.608 44.2476 298.152L42.1848 298.152C42.1043 297.808 41.9352 297.537 41.6776 297.341C41.4199 297.144 41.1011 297.046 40.7211 297.046C40.0769 297.046 39.5874 297.326 39.2525 297.887C38.9208 298.447 38.7517 299.209 38.7452 300.172L38.8129 300.172C38.961 299.879 39.1607 299.629 39.4119 299.423C39.6663 299.214 39.9546 299.054 40.2766 298.945C40.6019 298.832 40.9449 298.776 41.3056 298.776C41.8917 298.776 42.4135 298.914 42.8708 299.191C43.3281 299.465 43.6888 299.842 43.9529 300.322C44.217 300.801 44.349 301.351 44.349 301.969C44.349 302.639 44.1928 303.235 43.8805 303.756C43.5713 304.278 43.1381 304.687 42.5809 304.983C42.027 305.276 41.3829 305.421 40.6486 305.418ZM40.6389 303.776C40.961 303.776 41.2492 303.698 41.5037 303.544C41.7581 303.389 41.9578 303.18 42.1027 302.916C42.2476 302.652 42.3201 302.355 42.3201 302.027C42.3201 301.698 42.2476 301.404 42.1027 301.143C41.961 300.882 41.7645 300.674 41.5133 300.52C41.2621 300.365 40.9755 300.288 40.6534 300.288C40.4119 300.288 40.1881 300.333 39.9819 300.423C39.779 300.513 39.6003 300.639 39.4457 300.8C39.2943 300.961 39.1752 301.148 39.0882 301.36C39.0013 301.57 38.9578 301.793 38.9578 302.032C38.9578 302.35 39.0303 302.642 39.1752 302.906C39.3233 303.17 39.523 303.381 39.7742 303.539C40.0286 303.697 40.3169 303.776 40.6389 303.776ZM49.7113 305.5C48.8804 305.497 48.1654 305.292 47.5664 304.887C46.9706 304.481 46.5117 303.893 46.1896 303.123C45.8708 302.354 45.713 301.428 45.7162 300.346C45.7162 299.267 45.8756 298.347 46.1944 297.587C46.5165 296.827 46.9754 296.249 47.5712 295.853C48.1703 295.454 48.8836 295.254 49.7113 295.254C50.539 295.254 51.2508 295.454 51.8466 295.853C52.4456 296.252 52.9061 296.832 53.2282 297.592C53.5503 298.349 53.7097 299.267 53.7065 300.346C53.7065 301.431 53.5454 302.359 53.2234 303.128C52.9045 303.898 52.4472 304.486 51.8514 304.892C51.2556 305.297 50.5422 305.5 49.7113 305.5ZM49.7113 303.766C50.2781 303.766 50.7306 303.481 51.0688 302.911C51.407 302.341 51.5744 301.486 51.5712 300.346C51.5712 299.595 51.4939 298.97 51.3393 298.471C51.188 297.972 50.9722 297.597 50.692 297.346C50.415 297.095 50.0881 296.969 49.7113 296.969C49.1477 296.969 48.6968 297.251 48.3587 297.814C48.0205 298.378 47.8498 299.222 47.8466 300.346C47.8466 301.106 47.9223 301.74 48.0737 302.249C48.2282 302.755 48.4456 303.135 48.7258 303.389C49.006 303.64 49.3345 303.766 49.7113 303.766ZM60.6134 303.428L60.6134 302.906C60.6134 302.51 60.6971 302.146 60.8646 301.814C61.0353 301.479 61.2817 301.212 61.6037 301.012C61.929 300.809 62.3251 300.708 62.7921 300.708C63.2655 300.708 63.6633 300.808 63.9853 301.008C64.3106 301.207 64.5554 301.474 64.7196 301.809C64.8871 302.141 64.9708 302.507 64.9708 302.906L64.9708 303.428C64.9708 303.824 64.8871 304.189 64.7196 304.524C64.5522 304.856 64.3058 305.122 63.9805 305.321C63.6552 305.524 63.2591 305.626 62.7921 305.626C62.3187 305.626 61.9209 305.524 61.5989 305.321C61.2768 305.122 61.0321 304.856 60.8646 304.524C60.6971 304.189 60.6134 303.824 60.6134 303.428ZM62.0192 302.906L62.0192 303.428C62.0192 303.656 62.0739 303.872 62.1834 304.075C62.2961 304.278 62.499 304.379 62.7921 304.379C63.0852 304.379 63.2849 304.28 63.3911 304.08C63.5006 303.88 63.5554 303.663 63.5554 303.428L63.5554 302.906C63.5554 302.671 63.5039 302.452 63.4008 302.249C63.2977 302.046 63.0949 301.945 62.7921 301.945C62.5023 301.945 62.301 302.046 62.1883 302.249C62.0755 302.452 62.0192 302.671 62.0192 302.906ZM55.5361 297.766L55.5361 297.244C55.5361 296.845 55.6215 296.479 55.7922 296.148C55.9629 295.813 56.2092 295.545 56.5313 295.346C56.8566 295.146 57.2495 295.046 57.71 295.046C58.1867 295.046 58.586 295.146 58.9081 295.346C59.2302 295.545 59.4749 295.813 59.6424 296.148C59.8099 296.479 59.8936 296.845 59.8936 297.244L59.8936 297.766C59.8936 298.165 59.8082 298.531 59.6376 298.863C59.4701 299.194 59.2237 299.46 58.8984 299.66C58.5764 299.856 58.1802 299.954 57.71 299.954C57.2398 299.954 56.8421 299.855 56.5168 299.655C56.1948 299.452 55.95 299.186 55.7825 298.858C55.6183 298.526 55.5361 298.162 55.5361 297.766ZM56.9516 297.244L56.9516 297.766C56.9516 298.001 57.0063 298.218 57.1158 298.418C57.2286 298.618 57.4266 298.718 57.71 298.718C58.0063 298.718 58.2076 298.618 58.3139 298.418C58.4234 298.218 58.4781 298.001 58.4781 297.766L58.4781 297.244C58.4781 297.009 58.4266 296.79 58.3236 296.587C58.2205 296.384 58.016 296.283 57.71 296.283C57.4234 296.283 57.2253 296.386 57.1158 296.592C57.0063 296.798 56.9516 297.016 56.9516 297.244ZM56.1738 305.283L62.9757 295.389L64.2414 295.389L57.4395 305.283L56.1738 305.283Z" fill="black"/>
<path d="M35.1172 328.387L35.1172 330.02L30.6052 330.02L30.6052 328.387L35.1172 328.387ZM40.5423 334.285C39.7984 334.285 39.1365 334.164 38.5568 333.923C37.9803 333.678 37.5279 333.345 37.1994 332.923C36.8709 332.501 36.7066 332.023 36.7066 331.488C36.7066 331.076 36.8 330.697 36.9868 330.353C37.1768 330.005 37.4345 329.717 37.7597 329.488C38.085 329.256 38.4489 329.108 38.8515 329.044L38.8515 328.976C38.3233 328.87 37.895 328.614 37.5665 328.208C37.238 327.799 37.0738 327.324 37.0738 326.783C37.0738 326.271 37.2235 325.815 37.523 325.416C37.8225 325.013 38.2332 324.697 38.7549 324.469C39.2798 324.237 39.8757 324.121 40.5423 324.121C41.209 324.121 41.8032 324.237 42.3249 324.469C42.8499 324.701 43.2621 325.018 43.5616 325.421C43.8611 325.82 44.0125 326.274 44.0157 326.783C44.0125 327.327 43.845 327.802 43.5133 328.208C43.1816 328.614 42.7565 328.87 42.238 328.976L42.238 329.044C42.6341 329.108 42.9932 329.256 43.3152 329.488C43.6405 329.717 43.8982 330.005 44.0882 330.353C44.2814 330.697 44.3796 331.076 44.3829 331.488C44.3796 332.023 44.2138 332.501 43.8853 332.923C43.5568 333.345 43.1027 333.678 42.523 333.923C41.9465 334.164 41.2863 334.285 40.5423 334.285ZM40.5423 332.749C40.874 332.749 41.1639 332.689 41.4119 332.57C41.6599 332.448 41.8531 332.28 41.9916 332.068C42.1333 331.852 42.2041 331.604 42.2041 331.324C42.2041 331.037 42.1317 330.784 41.9868 330.565C41.8418 330.343 41.6454 330.169 41.3974 330.044C41.1494 329.915 40.8644 329.85 40.5423 329.85C40.2235 329.85 39.9385 329.915 39.6873 330.044C39.436 330.169 39.238 330.343 39.0931 330.565C38.9514 330.784 38.8805 331.037 38.8805 331.324C38.8805 331.604 38.9497 331.852 39.0882 332.068C39.2267 332.28 39.4216 332.448 39.6728 332.57C39.924 332.689 40.2138 332.749 40.5423 332.749ZM40.5423 328.329C40.8193 328.329 41.0657 328.272 41.2814 328.16C41.4972 328.047 41.6663 327.891 41.7887 327.691C41.9111 327.491 41.9723 327.261 41.9723 327C41.9723 326.743 41.9111 326.517 41.7887 326.324C41.6663 326.127 41.4988 325.974 41.2863 325.865C41.0737 325.752 40.8257 325.696 40.5423 325.696C40.2621 325.696 40.0141 325.752 39.7984 325.865C39.5826 325.974 39.4135 326.127 39.2911 326.324C39.172 326.517 39.1124 326.743 39.1124 327C39.1124 327.261 39.1736 327.491 39.296 327.691C39.4183 327.891 39.5874 328.047 39.8032 328.16C40.019 328.272 40.2653 328.329 40.5423 328.329ZM49.7246 334.367C48.8937 334.364 48.1787 334.16 47.5797 333.754C46.9839 333.348 46.525 332.76 46.2029 331.991C45.8841 331.221 45.7262 330.295 45.7295 329.213C45.7295 328.134 45.8889 327.214 46.2077 326.454C46.5298 325.694 46.9887 325.116 47.5845 324.72C48.1836 324.321 48.8969 324.121 49.7246 324.121C50.5523 324.121 51.264 324.321 51.8598 324.72C52.4589 325.119 52.9194 325.699 53.2415 326.459C53.5635 327.216 53.723 328.134 53.7197 329.213C53.7197 330.298 53.5587 331.226 53.2366 331.995C52.9178 332.765 52.4605 333.353 51.8647 333.759C51.2689 334.164 50.5555 334.367 49.7246 334.367ZM49.7246 332.633C50.2914 332.633 50.7439 332.348 51.0821 331.778C51.4202 331.208 51.5877 330.353 51.5845 329.213C51.5845 328.462 51.5072 327.838 51.3526 327.338C51.2012 326.839 50.9855 326.464 50.7053 326.213C50.4283 325.962 50.1014 325.836 49.7246 325.836C49.161 325.836 48.7101 326.118 48.372 326.681C48.0338 327.245 47.8631 328.089 47.8599 329.213C47.8599 329.973 47.9356 330.607 48.0869 331.116C48.2415 331.622 48.4589 332.002 48.7391 332.256C49.0193 332.507 49.3478 332.633 49.7246 332.633ZM60.6267 332.295L60.6267 331.773C60.6267 331.377 60.7104 331.013 60.8779 330.681C61.0486 330.346 61.2949 330.079 61.617 329.879C61.9423 329.677 62.3384 329.575 62.8054 329.575C63.2788 329.575 63.6766 329.675 63.9986 329.875C64.3239 330.074 64.5687 330.342 64.7329 330.677C64.9004 331.008 64.9841 331.374 64.9841 331.773L64.9841 332.295C64.9841 332.691 64.9004 333.057 64.7329 333.391C64.5655 333.723 64.3191 333.989 63.9938 334.189C63.6685 334.391 63.2724 334.493 62.8054 334.493C62.332 334.493 61.9342 334.391 61.6122 334.189C61.2901 333.989 61.0454 333.723 60.8779 333.391C60.7104 333.057 60.6267 332.691 60.6267 332.295ZM62.0325 331.773L62.0325 332.295C62.0325 332.524 62.0872 332.739 62.1967 332.942C62.3094 333.145 62.5123 333.247 62.8054 333.247C63.0985 333.247 63.2982 333.147 63.4044 332.947C63.5139 332.747 63.5687 332.53 63.5687 332.295L63.5687 331.773C63.5687 331.538 63.5172 331.319 63.4141 331.116C63.311 330.913 63.1081 330.812 62.8054 330.812C62.5155 330.812 62.3143 330.913 62.2015 331.116C62.0888 331.319 62.0325 331.538 62.0325 331.773ZM55.5494 326.633L55.5494 326.111C55.5494 325.712 55.6348 325.346 55.8055 325.015C55.9762 324.68 56.2225 324.412 56.5446 324.213C56.8699 324.013 57.2628 323.913 57.7233 323.913C58.2 323.913 58.5993 324.013 58.9214 324.213C59.2434 324.412 59.4882 324.68 59.6557 325.015C59.8231 325.346 59.9069 325.712 59.9069 326.111L59.9069 326.633C59.9069 327.032 59.8215 327.398 59.6508 327.73C59.4834 328.061 59.237 328.327 58.9117 328.527C58.5897 328.723 58.1935 328.821 57.7233 328.821C57.2531 328.821 56.8554 328.722 56.5301 328.522C56.208 328.319 55.9633 328.053 55.7958 327.725C55.6316 327.393 55.5494 327.029 55.5494 326.633ZM56.9649 326.111L56.9649 326.633C56.9649 326.868 57.0196 327.086 57.1291 327.285C57.2418 327.485 57.4399 327.585 57.7233 327.585C58.0196 327.585 58.2209 327.485 58.3272 327.285C58.4367 327.086 58.4914 326.868 58.4914 326.633L58.4914 326.111C58.4914 325.876 58.4399 325.657 58.3368 325.454C58.2338 325.251 58.0293 325.15 57.7233 325.15C57.4367 325.15 57.2386 325.253 57.1291 325.459C57.0196 325.665 56.9649 325.883 56.9649 326.111ZM56.1871 334.15L62.989 324.256L64.2547 324.256L57.4528 334.15L56.1871 334.15Z" fill="black"/>
<path d="M28.1172 357.254L28.1172 358.887L23.6052 358.887L23.6052 357.254L28.1172 357.254ZM34.1558 353.123L34.1558 363.017L32.0641 363.017L32.0641 355.109L32.0061 355.109L29.7404 356.529L29.7404 354.674L32.1897 353.123L34.1558 353.123ZM40.3865 363.234C39.5555 363.231 38.8406 363.027 38.2416 362.621C37.6457 362.215 37.1868 361.627 36.8648 360.858C36.5459 360.088 36.3881 359.162 36.3913 358.08C36.3913 357.001 36.5507 356.082 36.8696 355.322C37.1916 354.561 37.6506 353.983 38.2464 353.587C38.8454 353.188 39.5588 352.988 40.3865 352.988C41.2141 352.988 41.9259 353.188 42.5217 353.587C43.1207 353.987 43.5813 354.566 43.9033 355.326C44.2254 356.083 44.3848 357.001 44.3816 358.08C44.3816 359.165 44.2206 360.093 43.8985 360.863C43.5797 361.632 43.1223 362.22 42.5265 362.626C41.9307 363.032 41.2174 363.234 40.3865 363.234ZM40.3865 361.5C40.9533 361.5 41.4058 361.215 41.7439 360.645C42.0821 360.075 42.2496 359.22 42.2463 358.08C42.2463 357.33 42.1691 356.705 42.0145 356.206C41.8631 355.706 41.6473 355.331 41.3671 355.08C41.0902 354.829 40.7633 354.703 40.3865 354.703C39.8229 354.703 39.372 354.985 39.0338 355.549C38.6957 356.112 38.525 356.956 38.5217 358.08C38.5217 358.84 38.5974 359.474 38.7488 359.983C38.9034 360.489 39.1208 360.869 39.401 361.123C39.6812 361.375 40.0097 361.5 40.3865 361.5ZM49.7523 363.234C48.9214 363.231 48.2064 363.027 47.6074 362.621C47.0116 362.215 46.5527 361.627 46.2306 360.858C45.9118 360.088 45.754 359.162 45.7572 358.08C45.7572 357.001 45.9166 356.082 46.2354 355.322C46.5575 354.561 47.0164 353.983 47.6122 353.587C48.2113 353.188 48.9246 352.988 49.7523 352.988C50.58 352.988 51.2918 353.188 51.8876 353.587C52.4866 353.987 52.9471 354.566 53.2692 355.326C53.5913 356.083 53.7507 357.001 53.7475 358.08C53.7475 359.165 53.5864 360.093 53.2644 360.863C52.9455 361.632 52.4882 362.22 51.8924 362.626C51.2966 363.032 50.5832 363.234 49.7523 363.234ZM49.7523 361.5C50.3191 361.5 50.7716 361.215 51.1098 360.645C51.448 360.075 51.6154 359.22 51.6122 358.08C51.6122 357.33 51.5349 356.705 51.3803 356.206C51.229 355.706 51.0132 355.331 50.733 355.08C50.456 354.829 50.1291 354.703 49.7523 354.703C49.1887 354.703 48.7378 354.985 48.3997 355.549C48.0615 356.112 47.8908 356.956 47.8876 358.08C47.8876 358.84 47.9633 359.474 48.1147 359.983C48.2692 360.489 48.4866 360.869 48.7668 361.123C49.047 361.375 49.3755 361.5 49.7523 361.5ZM60.6544 361.162L60.6544 360.64C60.6544 360.244 60.7381 359.88 60.9056 359.549C61.0763 359.214 61.3227 358.946 61.6447 358.747C61.97 358.544 62.3661 358.442 62.8331 358.442C63.3065 358.442 63.7043 358.542 64.0263 358.742C64.3516 358.941 64.5964 359.209 64.7606 359.544C64.9281 359.875 65.0118 360.241 65.0118 360.64L65.0118 361.162C65.0118 361.558 64.9281 361.924 64.7606 362.259C64.5932 362.59 64.3468 362.856 64.0215 363.056C63.6962 363.259 63.3001 363.36 62.8331 363.36C62.3597 363.36 61.9619 363.259 61.6399 363.056C61.3178 362.856 61.0731 362.59 60.9056 362.259C60.7381 361.924 60.6544 361.558 60.6544 361.162ZM62.0602 360.64L62.0602 361.162C62.0602 361.391 62.1149 361.606 62.2244 361.809C62.3371 362.012 62.54 362.114 62.8331 362.114C63.1262 362.114 63.3259 362.014 63.4321 361.814C63.5416 361.615 63.5964 361.397 63.5964 361.162L63.5964 360.64C63.5964 360.405 63.5449 360.186 63.4418 359.983C63.3387 359.78 63.1359 359.679 62.8331 359.679C62.5433 359.679 62.342 359.78 62.2293 359.983C62.1165 360.186 62.0602 360.405 62.0602 360.64ZM55.5771 355.5L55.5771 354.979C55.5771 354.579 55.6625 354.214 55.8332 353.882C56.0039 353.547 56.2502 353.28 56.5723 353.08C56.8976 352.88 57.2905 352.78 57.751 352.78C58.2277 352.78 58.627 352.88 58.9491 353.08C59.2712 353.28 59.5159 353.547 59.6834 353.882C59.8509 354.214 59.9346 354.579 59.9346 354.979L59.9346 355.5C59.9346 355.9 59.8492 356.265 59.6786 356.597C59.5111 356.929 59.2647 357.194 58.9394 357.394C58.6174 357.59 58.2212 357.689 57.751 357.689C57.2808 357.689 56.8831 357.589 56.5578 357.389C56.2358 357.186 55.991 356.921 55.8235 356.592C55.6593 356.26 55.5771 355.896 55.5771 355.5ZM56.9926 354.979L56.9926 355.5C56.9926 355.735 57.0473 355.953 57.1568 356.152C57.2696 356.352 57.4676 356.452 57.751 356.452C58.0473 356.452 58.2486 356.352 58.3549 356.152C58.4644 355.953 58.5191 355.735 58.5191 355.5L58.5191 354.979C58.5191 354.743 58.4676 354.524 58.3646 354.322C58.2615 354.119 58.057 354.017 57.751 354.017C57.4644 354.017 57.2663 354.12 57.1568 354.326C57.0473 354.532 56.9926 354.75 56.9926 354.979ZM56.2148 363.017L63.0167 353.123L64.2824 353.123L57.4805 363.017L56.2148 363.017Z" fill="black"/>
<rect x="102.949" y="214.184" width="65.013" height="22.6729" rx="2.26729" transform="rotate(-90 102.949 214.184)" fill="#CFB8FF" stroke="black" stroke-width="2.26729"/>
<rect x="210.185" y="214.184" width="136.037" height="22.6729" rx="2.26729" transform="rotate(-90 210.185 214.184)" fill="#E5FCD2" stroke="black" stroke-width="2.26729"/>
<path d="M85.9448 214.184L357.098 214.184" stroke="black" stroke-width="1.13365" stroke-linejoin="bevel" stroke-dasharray="1.13 6.8"/>
<rect x="317.421" y="259.53" width="45.3458" height="22.6729" rx="2.26729" transform="rotate(-90 317.421 259.53)" fill="#FCD7AD" stroke="black" stroke-width="2.26729" stroke-linecap="round" stroke-linejoin="round" stroke-dasharray="3.4 6.8"/>
<path d="M89.9965 382.647C90.8777 382.647 91.6039 382.753 92.1752 382.966C92.7509 383.178 93.1782 383.499 93.4572 383.929C93.7362 384.358 93.8757 384.901 93.8757 385.556C93.8757 385.999 93.7915 386.387 93.6233 386.719C93.455 387.051 93.2336 387.332 92.959 387.562C92.6845 387.793 92.3878 387.981 92.0689 388.127L94.9252 392.358L92.6402 392.358L90.322 388.632L89.226 388.632L89.226 392.358L87.1668 392.358L87.1668 382.647L89.9965 382.647ZM89.8503 384.334L89.226 384.334L89.226 386.958L89.8902 386.958C90.5722 386.958 91.0593 386.845 91.3515 386.619C91.6482 386.389 91.7966 386.052 91.7966 385.609C91.7966 385.149 91.6372 384.821 91.3183 384.626C91.0039 384.431 90.5146 384.334 89.8503 384.334ZM99.0501 384.792C99.7365 384.792 100.328 384.925 100.824 385.191C101.32 385.452 101.703 385.833 101.973 386.333C102.243 386.834 102.378 387.445 102.378 388.167L102.378 389.15L97.5888 389.15C97.6109 389.721 97.7814 390.171 98.1003 390.498C98.4235 390.822 98.8708 390.983 99.442 390.983C99.9159 390.983 100.35 390.934 100.744 390.837C101.138 390.74 101.543 390.593 101.96 390.399L101.96 391.966C101.592 392.148 101.207 392.281 100.804 392.365C100.405 392.449 99.9203 392.491 99.349 392.491C98.6051 392.491 97.9453 392.354 97.3696 392.079C96.7983 391.805 96.3489 391.386 96.0212 390.824C95.6979 390.261 95.5363 389.553 95.5363 388.698C95.5363 387.83 95.6824 387.108 95.9747 386.533C96.2714 385.953 96.6832 385.519 97.2102 385.231C97.7371 384.939 98.3505 384.792 99.0501 384.792ZM99.0634 386.234C98.6693 386.234 98.3416 386.36 98.0803 386.612C97.8235 386.865 97.6752 387.261 97.6353 387.801L100.478 387.801C100.474 387.5 100.418 387.232 100.312 386.998C100.21 386.763 100.055 386.577 99.8472 386.44C99.6435 386.302 99.3823 386.234 99.0634 386.234ZM106.197 395.626C105.161 395.626 104.369 395.445 103.819 395.082C103.275 394.723 103.002 394.218 103.002 393.567C103.002 393.12 103.142 392.746 103.421 392.445C103.7 392.143 104.109 391.929 104.65 391.8C104.442 391.712 104.26 391.568 104.105 391.368C103.95 391.165 103.873 390.95 103.873 390.724C103.873 390.441 103.954 390.206 104.118 390.02C104.282 389.83 104.519 389.644 104.829 389.462C104.439 389.294 104.129 389.024 103.899 388.652C103.673 388.28 103.56 387.841 103.56 387.336C103.56 386.796 103.678 386.338 103.912 385.961C104.152 385.581 104.497 385.291 104.949 385.091C105.405 384.892 105.958 384.792 106.609 384.792C106.747 384.792 106.906 384.801 107.088 384.819C107.269 384.837 107.435 384.857 107.586 384.879C107.741 384.901 107.845 384.919 107.898 384.932L110.488 384.932L110.488 385.961L109.326 386.26C109.432 386.424 109.512 386.599 109.565 386.785C109.618 386.971 109.645 387.168 109.645 387.376C109.645 388.173 109.366 388.796 108.808 389.243C108.254 389.686 107.484 389.907 106.496 389.907C106.262 389.894 106.04 389.876 105.832 389.854C105.73 389.934 105.653 390.018 105.6 390.106C105.546 390.195 105.52 390.288 105.52 390.385C105.52 390.483 105.56 390.565 105.639 390.631C105.724 390.693 105.848 390.742 106.011 390.777C106.18 390.808 106.388 390.824 106.636 390.824L107.898 390.824C108.713 390.824 109.333 390.999 109.758 391.349C110.187 391.698 110.402 392.212 110.402 392.89C110.402 393.757 110.039 394.431 109.313 394.909C108.591 395.387 107.552 395.626 106.197 395.626ZM106.284 394.304C106.766 394.304 107.18 394.258 107.526 394.165C107.876 394.076 108.144 393.948 108.33 393.78C108.516 393.616 108.609 393.419 108.609 393.188C108.609 393.002 108.553 392.854 108.443 392.743C108.336 392.637 108.172 392.562 107.951 392.518C107.734 392.473 107.455 392.451 107.114 392.451L106.065 392.451C105.817 392.451 105.593 392.491 105.394 392.571C105.199 392.65 105.044 392.761 104.929 392.903C104.814 393.049 104.756 393.217 104.756 393.408C104.756 393.687 104.889 393.906 105.155 394.065C105.425 394.225 105.801 394.304 106.284 394.304ZM106.609 388.672C106.99 388.672 107.269 388.554 107.446 388.32C107.623 388.085 107.712 387.766 107.712 387.363C107.712 386.916 107.619 386.581 107.433 386.36C107.251 386.134 106.977 386.021 106.609 386.021C106.237 386.021 105.958 386.134 105.772 386.36C105.586 386.581 105.493 386.916 105.493 387.363C105.493 387.766 105.584 388.085 105.766 388.32C105.952 388.554 106.233 388.672 106.609 388.672ZM113.743 384.932L113.743 392.358L111.717 392.358L111.717 384.932L113.743 384.932ZM112.734 382.022C113.035 382.022 113.294 382.093 113.511 382.235C113.728 382.372 113.836 382.631 113.836 383.012C113.836 383.389 113.728 383.65 113.511 383.796C113.294 383.938 113.035 384.009 112.734 384.009C112.428 384.009 112.167 383.938 111.95 383.796C111.737 383.65 111.631 383.389 111.631 383.012C111.631 382.631 111.737 382.372 111.95 382.235C112.167 382.093 112.428 382.022 112.734 382.022ZM122.624 388.632C122.624 389.252 122.54 389.801 122.372 390.279C122.208 390.757 121.967 391.163 121.648 391.495C121.333 391.822 120.953 392.07 120.505 392.239C120.062 392.407 119.562 392.491 119.004 392.491C118.482 392.491 118.001 392.407 117.563 392.239C117.129 392.07 116.75 391.822 116.427 391.495C116.108 391.163 115.86 390.757 115.683 390.279C115.51 389.801 115.424 389.252 115.424 388.632C115.424 387.808 115.57 387.111 115.862 386.539C116.154 385.968 116.571 385.534 117.111 385.237C117.651 384.941 118.296 384.792 119.044 384.792C119.739 384.792 120.355 384.941 120.891 385.237C121.431 385.534 121.854 385.968 122.159 386.539C122.469 387.111 122.624 387.808 122.624 388.632ZM117.49 388.632C117.49 389.119 117.543 389.528 117.649 389.861C117.755 390.193 117.921 390.443 118.147 390.611C118.373 390.779 118.668 390.864 119.031 390.864C119.389 390.864 119.679 390.779 119.901 390.611C120.127 390.443 120.29 390.193 120.392 389.861C120.499 389.528 120.552 389.119 120.552 388.632C120.552 388.14 120.499 387.733 120.392 387.41C120.29 387.082 120.127 386.836 119.901 386.672C119.675 386.508 119.38 386.426 119.017 386.426C118.482 386.426 118.092 386.61 117.848 386.978C117.609 387.345 117.49 387.897 117.49 388.632ZM128.516 384.792C129.309 384.792 129.946 385.009 130.429 385.443C130.912 385.873 131.153 386.564 131.153 387.516L131.153 392.358L129.127 392.358L129.127 388.021C129.127 387.489 129.03 387.088 128.835 386.818C128.644 386.548 128.343 386.413 127.932 386.413C127.312 386.413 126.889 386.624 126.663 387.044C126.437 387.465 126.324 388.072 126.324 388.864L126.324 392.358L124.298 392.358L124.298 384.932L125.846 384.932L126.118 385.882L126.231 385.882C126.39 385.625 126.588 385.417 126.822 385.257C127.061 385.098 127.325 384.981 127.613 384.905C127.905 384.83 128.206 384.792 128.516 384.792ZM141.329 392.358L139.277 392.358L139.277 386.739C139.277 386.584 139.279 386.393 139.283 386.167C139.288 385.937 139.295 385.702 139.303 385.463C139.312 385.22 139.321 385.001 139.33 384.806C139.281 384.863 139.182 384.963 139.031 385.105C138.885 385.242 138.748 385.366 138.619 385.477L137.503 386.373L136.514 385.138L139.642 382.647L141.329 382.647L141.329 392.358Z" fill="black"/>
<path d="M193.739 382.647C194.621 382.647 195.347 382.753 195.918 382.966C196.494 383.178 196.921 383.499 197.2 383.929C197.479 384.358 197.618 384.901 197.618 385.556C197.618 385.999 197.534 386.387 197.366 386.719C197.198 387.051 196.976 387.332 196.702 387.562C196.427 387.793 196.131 387.981 195.812 388.127L198.668 392.358L196.383 392.358L194.065 388.632L192.969 388.632L192.969 392.358L190.91 392.358L190.91 382.647L193.739 382.647ZM193.593 384.334L192.969 384.334L192.969 386.958L193.633 386.958C194.315 386.958 194.802 386.845 195.094 386.619C195.391 386.389 195.539 386.052 195.539 385.609C195.539 385.149 195.38 384.821 195.061 384.626C194.747 384.431 194.257 384.334 193.593 384.334ZM202.793 384.792C203.479 384.792 204.071 384.925 204.566 385.191C205.062 385.452 205.445 385.833 205.716 386.333C205.986 386.834 206.121 387.445 206.121 388.167L206.121 389.15L201.332 389.15C201.354 389.721 201.524 390.171 201.843 390.498C202.166 390.822 202.614 390.983 203.185 390.983C203.659 390.983 204.093 390.934 204.487 390.837C204.881 390.74 205.286 390.593 205.702 390.399L205.702 391.966C205.335 392.148 204.95 392.281 204.547 392.365C204.148 392.449 203.663 392.491 203.092 392.491C202.348 392.491 201.688 392.354 201.112 392.079C200.541 391.805 200.092 391.386 199.764 390.824C199.441 390.261 199.279 389.553 199.279 388.698C199.279 387.83 199.425 387.108 199.717 386.533C200.014 385.953 200.426 385.519 200.953 385.231C201.48 384.939 202.093 384.792 202.793 384.792ZM202.806 386.234C202.412 386.234 202.084 386.36 201.823 386.612C201.566 386.865 201.418 387.261 201.378 387.801L204.221 387.801C204.217 387.5 204.161 387.232 204.055 386.998C203.953 386.763 203.798 386.577 203.59 386.44C203.386 386.302 203.125 386.234 202.806 386.234ZM209.94 395.626C208.904 395.626 208.111 395.445 207.562 395.082C207.018 394.723 206.745 394.218 206.745 393.567C206.745 393.12 206.885 392.746 207.164 392.445C207.443 392.143 207.852 391.929 208.393 391.8C208.184 391.712 208.003 391.568 207.848 391.368C207.693 391.165 207.615 390.95 207.615 390.724C207.615 390.441 207.697 390.206 207.861 390.02C208.025 389.83 208.262 389.644 208.572 389.462C208.182 389.294 207.872 389.024 207.642 388.652C207.416 388.28 207.303 387.841 207.303 387.336C207.303 386.796 207.421 386.338 207.655 385.961C207.894 385.581 208.24 385.291 208.691 385.091C209.148 384.892 209.701 384.792 210.352 384.792C210.489 384.792 210.649 384.801 210.83 384.819C211.012 384.837 211.178 384.857 211.328 384.879C211.483 384.901 211.588 384.919 211.641 384.932L214.231 384.932L214.231 385.961L213.069 386.26C213.175 386.424 213.255 386.599 213.308 386.785C213.361 386.971 213.388 387.168 213.388 387.376C213.388 388.173 213.109 388.796 212.551 389.243C211.997 389.686 211.227 389.907 210.239 389.907C210.004 389.894 209.783 389.876 209.575 389.854C209.473 389.934 209.396 390.018 209.342 390.106C209.289 390.195 209.263 390.288 209.263 390.385C209.263 390.483 209.303 390.565 209.382 390.631C209.466 390.693 209.59 390.742 209.754 390.777C209.923 390.808 210.131 390.824 210.379 390.824L211.641 390.824C212.455 390.824 213.075 390.999 213.501 391.349C213.93 391.698 214.145 392.212 214.145 392.89C214.145 393.757 213.782 394.431 213.056 394.909C212.334 395.387 211.295 395.626 209.94 395.626ZM210.027 394.304C210.509 394.304 210.923 394.258 211.269 394.165C211.619 394.076 211.886 393.948 212.072 393.78C212.258 393.616 212.351 393.419 212.351 393.188C212.351 393.002 212.296 392.854 212.185 392.743C212.079 392.637 211.915 392.562 211.694 392.518C211.477 392.473 211.198 392.451 210.857 392.451L209.807 392.451C209.559 392.451 209.336 392.491 209.136 392.571C208.942 392.65 208.787 392.761 208.672 392.903C208.556 393.049 208.499 393.217 208.499 393.408C208.499 393.687 208.632 393.906 208.897 394.065C209.167 394.225 209.544 394.304 210.027 394.304ZM210.352 388.672C210.733 388.672 211.012 388.554 211.189 388.32C211.366 388.085 211.455 387.766 211.455 387.363C211.455 386.916 211.362 386.581 211.176 386.36C210.994 386.134 210.72 386.021 210.352 386.021C209.98 386.021 209.701 386.134 209.515 386.36C209.329 386.581 209.236 386.916 209.236 387.363C209.236 387.766 209.327 388.085 209.508 388.32C209.694 388.554 209.976 388.672 210.352 388.672ZM217.486 384.932L217.486 392.358L215.46 392.358L215.46 384.932L217.486 384.932ZM216.476 382.022C216.778 382.022 217.037 382.093 217.254 382.235C217.471 382.372 217.579 382.631 217.579 383.012C217.579 383.389 217.471 383.65 217.254 383.796C217.037 383.938 216.778 384.009 216.476 384.009C216.171 384.009 215.91 383.938 215.693 383.796C215.48 383.65 215.374 383.389 215.374 383.012C215.374 382.631 215.48 382.372 215.693 382.235C215.91 382.093 216.171 382.022 216.476 382.022ZM226.367 388.632C226.367 389.252 226.283 389.801 226.115 390.279C225.951 390.757 225.709 391.163 225.391 391.495C225.076 391.822 224.695 392.07 224.248 392.239C223.805 392.407 223.305 392.491 222.747 392.491C222.224 392.491 221.744 392.407 221.305 392.239C220.871 392.07 220.493 391.822 220.17 391.495C219.851 391.163 219.603 390.757 219.426 390.279C219.253 389.801 219.167 389.252 219.167 388.632C219.167 387.808 219.313 387.111 219.605 386.539C219.897 385.968 220.314 385.534 220.854 385.237C221.394 384.941 222.038 384.792 222.787 384.792C223.482 384.792 224.097 384.941 224.633 385.237C225.174 385.534 225.596 385.968 225.902 386.539C226.212 387.111 226.367 387.808 226.367 388.632ZM221.232 388.632C221.232 389.119 221.286 389.528 221.392 389.861C221.498 390.193 221.664 390.443 221.89 390.611C222.116 390.779 222.41 390.864 222.773 390.864C223.132 390.864 223.422 390.779 223.644 390.611C223.869 390.443 224.033 390.193 224.135 389.861C224.241 389.528 224.295 389.119 224.295 388.632C224.295 388.14 224.241 387.733 224.135 387.41C224.033 387.082 223.869 386.836 223.644 386.672C223.418 386.508 223.123 386.426 222.76 386.426C222.224 386.426 221.835 386.61 221.591 386.978C221.352 387.345 221.232 387.897 221.232 388.632ZM232.259 384.792C233.052 384.792 233.689 385.009 234.172 385.443C234.655 385.873 234.896 386.564 234.896 387.516L234.896 392.358L232.87 392.358L232.87 388.021C232.87 387.489 232.773 387.088 232.578 386.818C232.387 386.548 232.086 386.413 231.674 386.413C231.054 386.413 230.631 386.624 230.406 387.044C230.18 387.465 230.067 388.072 230.067 388.864L230.067 392.358L228.041 392.358L228.041 384.932L229.589 384.932L229.861 385.882L229.974 385.882C230.133 385.625 230.33 385.417 230.565 385.257C230.804 385.098 231.068 384.981 231.355 384.905C231.648 384.83 231.949 384.792 232.259 384.792ZM246.786 392.358L239.997 392.358L239.997 390.93L242.435 388.466C242.927 387.961 243.321 387.54 243.617 387.204C243.919 386.863 244.136 386.553 244.268 386.274C244.406 385.995 244.474 385.696 244.474 385.377C244.474 384.992 244.366 384.704 244.149 384.513C243.936 384.319 243.651 384.221 243.292 384.221C242.916 384.221 242.55 384.308 242.196 384.48C241.842 384.653 241.472 384.899 241.087 385.218L239.971 383.896C240.25 383.657 240.544 383.431 240.854 383.218C241.169 383.006 241.532 382.835 241.944 382.707C242.36 382.574 242.858 382.507 243.438 382.507C244.076 382.507 244.623 382.623 245.079 382.853C245.539 383.083 245.894 383.397 246.142 383.796C246.39 384.19 246.514 384.637 246.514 385.138C246.514 385.674 246.407 386.163 246.195 386.606C245.982 387.049 245.672 387.487 245.265 387.921C244.862 388.355 244.375 388.835 243.803 389.362L242.555 390.538L242.555 390.631L246.786 390.631L246.786 392.358Z" fill="black"/>
<path d="M297.482 382.647C298.363 382.647 299.089 382.753 299.661 382.966C300.236 383.178 300.664 383.499 300.943 383.929C301.222 384.358 301.361 384.901 301.361 385.556C301.361 385.999 301.277 386.387 301.109 386.719C300.94 387.051 300.719 387.332 300.444 387.562C300.17 387.793 299.873 387.981 299.554 388.127L302.411 392.358L300.126 392.358L297.807 388.632L296.711 388.632L296.711 392.358L294.652 392.358L294.652 382.647L297.482 382.647ZM297.336 384.334L296.711 384.334L296.711 386.958L297.376 386.958C298.058 386.958 298.545 386.845 298.837 386.619C299.134 386.389 299.282 386.052 299.282 385.609C299.282 385.149 299.123 384.821 298.804 384.626C298.489 384.431 298 384.334 297.336 384.334ZM306.535 384.792C307.222 384.792 307.813 384.925 308.309 385.191C308.805 385.452 309.188 385.833 309.458 386.333C309.728 386.834 309.863 387.445 309.863 388.167L309.863 389.15L305.074 389.15C305.096 389.721 305.267 390.171 305.586 390.498C305.909 390.822 306.356 390.983 306.927 390.983C307.401 390.983 307.835 390.934 308.229 390.837C308.623 390.74 309.029 390.593 309.445 390.399L309.445 391.966C309.077 392.148 308.692 392.281 308.289 392.365C307.891 392.449 307.406 392.491 306.834 392.491C306.09 392.491 305.431 392.354 304.855 392.079C304.284 391.805 303.834 391.386 303.507 390.824C303.183 390.261 303.022 389.553 303.022 388.698C303.022 387.83 303.168 387.108 303.46 386.533C303.757 385.953 304.169 385.519 304.696 385.231C305.222 384.939 305.836 384.792 306.535 384.792ZM306.549 386.234C306.155 386.234 305.827 386.36 305.566 386.612C305.309 386.865 305.161 387.261 305.121 387.801L307.964 387.801C307.959 387.5 307.904 387.232 307.798 386.998C307.696 386.763 307.541 386.577 307.333 386.44C307.129 386.302 306.868 386.234 306.549 386.234ZM313.683 395.626C312.647 395.626 311.854 395.445 311.305 395.082C310.76 394.723 310.488 394.218 310.488 393.567C310.488 393.12 310.627 392.746 310.906 392.445C311.185 392.143 311.595 391.929 312.135 391.8C311.927 391.712 311.745 391.568 311.59 391.368C311.435 391.165 311.358 390.95 311.358 390.724C311.358 390.441 311.44 390.206 311.604 390.02C311.768 389.83 312.004 389.644 312.314 389.462C311.925 389.294 311.615 389.024 311.384 388.652C311.159 388.28 311.046 387.841 311.046 387.336C311.046 386.796 311.163 386.338 311.398 385.961C311.637 385.581 311.982 385.291 312.434 385.091C312.89 384.892 313.444 384.792 314.095 384.792C314.232 384.792 314.391 384.801 314.573 384.819C314.754 384.837 314.92 384.857 315.071 384.879C315.226 384.901 315.33 384.919 315.383 384.932L317.974 384.932L317.974 385.961L316.811 386.26C316.918 386.424 316.997 386.599 317.05 386.785C317.104 386.971 317.13 387.168 317.13 387.376C317.13 388.173 316.851 388.796 316.293 389.243C315.74 389.686 314.969 389.907 313.982 389.907C313.747 389.894 313.526 389.876 313.317 389.854C313.216 389.934 313.138 390.018 313.085 390.106C313.032 390.195 313.005 390.288 313.005 390.385C313.005 390.483 313.045 390.565 313.125 390.631C313.209 390.693 313.333 390.742 313.497 390.777C313.665 390.808 313.873 390.824 314.121 390.824L315.383 390.824C316.198 390.824 316.818 390.999 317.243 391.349C317.673 391.698 317.887 392.212 317.887 392.89C317.887 393.757 317.524 394.431 316.798 394.909C316.076 395.387 315.038 395.626 313.683 395.626ZM313.769 394.304C314.252 394.304 314.666 394.258 315.011 394.165C315.361 394.076 315.629 393.948 315.815 393.78C316.001 393.616 316.094 393.419 316.094 393.188C316.094 393.002 316.039 392.854 315.928 392.743C315.822 392.637 315.658 392.562 315.436 392.518C315.219 392.473 314.94 392.451 314.599 392.451L313.55 392.451C313.302 392.451 313.078 392.491 312.879 392.571C312.684 392.65 312.529 392.761 312.414 392.903C312.299 393.049 312.241 393.217 312.241 393.408C312.241 393.687 312.374 393.906 312.64 394.065C312.91 394.225 313.286 394.304 313.769 394.304ZM314.095 388.672C314.475 388.672 314.754 388.554 314.932 388.32C315.109 388.085 315.197 387.766 315.197 387.363C315.197 386.916 315.104 386.581 314.918 386.36C314.737 386.134 314.462 386.021 314.095 386.021C313.723 386.021 313.444 386.134 313.258 386.36C313.072 386.581 312.979 386.916 312.979 387.363C312.979 387.766 313.069 388.085 313.251 388.32C313.437 388.554 313.718 388.672 314.095 388.672ZM321.229 384.932L321.229 392.358L319.203 392.358L319.203 384.932L321.229 384.932ZM320.219 382.022C320.52 382.022 320.779 382.093 320.996 382.235C321.213 382.372 321.322 382.631 321.322 383.012C321.322 383.389 321.213 383.65 320.996 383.796C320.779 383.938 320.52 384.009 320.219 384.009C319.913 384.009 319.652 383.938 319.435 383.796C319.223 383.65 319.116 383.389 319.116 383.012C319.116 382.631 319.223 382.372 319.435 382.235C319.652 382.093 319.913 382.022 320.219 382.022ZM330.11 388.632C330.11 389.252 330.025 389.801 329.857 390.279C329.693 390.757 329.452 391.163 329.133 391.495C328.819 391.822 328.438 392.07 327.991 392.239C327.548 392.407 327.047 392.491 326.489 392.491C325.967 392.491 325.486 392.407 325.048 392.239C324.614 392.07 324.235 391.822 323.912 391.495C323.593 391.163 323.345 390.757 323.168 390.279C322.995 389.801 322.909 389.252 322.909 388.632C322.909 387.808 323.055 387.111 323.348 386.539C323.64 385.968 324.056 385.534 324.596 385.237C325.137 384.941 325.781 384.792 326.529 384.792C327.225 384.792 327.84 384.941 328.376 385.237C328.916 385.534 329.339 385.968 329.645 386.539C329.955 387.111 330.11 387.808 330.11 388.632ZM324.975 388.632C324.975 389.119 325.028 389.528 325.134 389.861C325.241 390.193 325.407 390.443 325.633 390.611C325.858 390.779 326.153 390.864 326.516 390.864C326.875 390.864 327.165 390.779 327.386 390.611C327.612 390.443 327.776 390.193 327.878 389.861C327.984 389.528 328.037 389.119 328.037 388.632C328.037 388.14 327.984 387.733 327.878 387.41C327.776 387.082 327.612 386.836 327.386 386.672C327.16 386.508 326.866 386.426 326.503 386.426C325.967 386.426 325.577 386.61 325.334 386.978C325.095 387.345 324.975 387.897 324.975 388.632ZM336.001 384.792C336.794 384.792 337.432 385.009 337.914 385.443C338.397 385.873 338.638 386.564 338.638 387.516L338.638 392.358L336.613 392.358L336.613 388.021C336.613 387.489 336.515 387.088 336.32 386.818C336.13 386.548 335.829 386.413 335.417 386.413C334.797 386.413 334.374 386.624 334.148 387.044C333.922 387.465 333.809 388.072 333.809 388.864L333.809 392.358L331.783 392.358L331.783 384.932L333.331 384.932L333.603 385.882L333.716 385.882C333.876 385.625 334.073 385.417 334.308 385.257C334.547 385.098 334.81 384.981 335.098 384.905C335.39 384.83 335.691 384.792 336.001 384.792ZM350.15 384.819C350.15 385.266 350.057 385.654 349.871 385.981C349.685 386.309 349.432 386.577 349.114 386.785C348.799 386.993 348.445 387.146 348.051 387.243L348.051 387.283C348.83 387.381 349.421 387.62 349.824 388.001C350.232 388.382 350.435 388.891 350.435 389.528C350.435 390.095 350.296 390.602 350.017 391.05C349.742 391.497 349.317 391.849 348.742 392.106C348.166 392.363 347.424 392.491 346.516 392.491C345.981 392.491 345.48 392.447 345.015 392.358C344.555 392.274 344.121 392.143 343.713 391.966L343.713 390.219C344.13 390.432 344.566 390.593 345.022 390.704C345.478 390.81 345.903 390.864 346.297 390.864C347.032 390.864 347.546 390.737 347.838 390.485C348.135 390.228 348.283 389.869 348.283 389.409C348.283 389.139 348.215 388.911 348.077 388.725C347.94 388.539 347.701 388.397 347.36 388.3C347.023 388.202 346.552 388.153 345.945 388.153L345.208 388.153L345.208 386.579L345.958 386.579C346.556 386.579 347.01 386.524 347.32 386.413C347.635 386.298 347.847 386.143 347.958 385.948C348.073 385.749 348.131 385.523 348.131 385.271C348.131 384.925 348.024 384.655 347.812 384.46C347.599 384.265 347.245 384.168 346.749 384.168C346.439 384.168 346.155 384.208 345.899 384.288C345.646 384.363 345.418 384.456 345.214 384.567C345.011 384.673 344.831 384.777 344.676 384.879L343.727 383.464C344.107 383.189 344.552 382.961 345.062 382.78C345.575 382.598 346.186 382.507 346.895 382.507C347.896 382.507 348.688 382.709 349.273 383.112C349.858 383.515 350.15 384.084 350.15 384.819Z" fill="black"/>
</svg>
