<svg width="375" height="239" viewBox="0 0 375 239" fill="none" xmlns="http://www.w3.org/2000/svg">
<g clip-path="url(#clip0_4040_899)">
<rect width="375" height="239" fill="white"/>
<path d="M26.7074 26.0597C26.6364 25.8295 26.5384 25.6236 26.4134 25.4418C26.2912 25.2571 26.1435 25.0994 25.9702 24.9688C25.7997 24.8381 25.6037 24.7401 25.3821 24.6747C25.1605 24.6065 24.919 24.5724 24.6577 24.5724C24.1889 24.5724 23.7713 24.6903 23.4048 24.9261C23.0384 25.1619 22.75 25.5085 22.5398 25.9659C22.3324 26.4205 22.2287 26.9744 22.2287 27.6278C22.2287 28.2869 22.3324 28.8452 22.5398 29.3026C22.7472 29.7599 23.0355 30.108 23.4048 30.3466C23.7741 30.5824 24.2031 30.7003 24.6918 30.7003C25.1349 30.7003 25.5185 30.6151 25.8423 30.4446C26.169 30.2741 26.4205 30.0327 26.5966 29.7202C26.7727 29.4048 26.8608 29.0355 26.8608 28.6122L27.2187 28.6676L24.8494 28.6676L24.8494 27.4318L28.3906 27.4318L28.3906 28.4801C28.3906 29.2273 28.2315 29.8736 27.9134 30.419C27.5952 30.9645 27.1577 31.3849 26.6009 31.6804C26.044 31.973 25.4048 32.1193 24.6832 32.1193C23.8793 32.1193 23.1733 31.9389 22.5653 31.5781C21.9602 31.2145 21.4872 30.6989 21.1463 30.0313C20.8082 29.3608 20.6392 28.5653 20.6392 27.6449C20.6392 26.9403 20.7386 26.3111 20.9375 25.7571C21.1392 25.2031 21.4205 24.733 21.7812 24.3466C22.142 23.9574 22.5653 23.6619 23.0511 23.4602C23.5369 23.2557 24.0653 23.1534 24.6364 23.1534C25.1193 23.1534 25.5696 23.2244 25.9872 23.3665C26.4048 23.5057 26.7756 23.7045 27.0994 23.9631C27.4261 24.2216 27.6946 24.5284 27.9048 24.8835C28.1151 25.2386 28.2528 25.6307 28.3182 26.0597L26.7074 26.0597ZM29.9194 32L29.9194 23.2727L33.1921 23.2727C33.8626 23.2727 34.4251 23.3892 34.8796 23.6222C35.337 23.8551 35.6822 24.1818 35.9151 24.6023C36.1509 25.0199 36.2688 25.5071 36.2688 26.0639C36.2688 26.6236 36.1495 27.1094 35.9109 27.5213C35.6751 27.9304 35.3271 28.2472 34.8668 28.4716C34.4066 28.6932 33.8413 28.804 33.1708 28.804L30.8398 28.804L30.8398 27.4915L32.9577 27.4915C33.3498 27.4915 33.6708 27.4375 33.9208 27.3295C34.1708 27.2187 34.3555 27.0582 34.4748 26.848C34.5969 26.6349 34.658 26.3736 34.658 26.0639C34.658 25.7543 34.5969 25.4901 34.4748 25.2713C34.3526 25.0497 34.1665 24.8821 33.9165 24.7685C33.6665 24.652 33.3441 24.5938 32.9492 24.5938L31.5004 24.5938L31.5004 32L29.9194 32ZM34.4279 28.0455L36.5884 32L34.8242 32L32.7021 28.0455L34.4279 28.0455ZM45.5224 27.6364C45.5224 28.5767 45.3462 29.3821 44.994 30.0526C44.6445 30.7202 44.1673 31.2315 43.5621 31.5866C42.9599 31.9418 42.2766 32.1193 41.5124 32.1193C40.7482 32.1193 40.0636 31.9418 39.4585 31.5866C38.8562 31.2287 38.3789 30.7159 38.0266 30.0483C37.6772 29.3778 37.5025 28.5739 37.5025 27.6364C37.5025 26.696 37.6772 25.892 38.0266 25.2244C38.3789 24.554 38.8562 24.0412 39.4585 23.6861C40.0636 23.331 40.7482 23.1534 41.5124 23.1534C42.2766 23.1534 42.9599 23.331 43.5621 23.6861C44.1673 24.0412 44.6445 24.554 44.994 25.2244C45.3462 25.892 45.5224 26.696 45.5224 27.6364ZM43.9329 27.6364C43.9329 26.9744 43.8292 26.4162 43.6218 25.9616C43.4173 25.5043 43.1332 25.1591 42.7695 24.9261C42.4059 24.6903 41.9869 24.5724 41.5124 24.5724C41.038 24.5724 40.619 24.6903 40.2553 24.9261C39.8917 25.1591 39.6062 25.5043 39.3988 25.9616C39.1942 26.4162 39.092 26.9744 39.092 27.6364C39.092 28.2983 39.1942 28.858 39.3988 29.3153C39.6062 29.7699 39.8917 30.1151 40.2553 30.3509C40.619 30.5838 41.038 30.7003 41.5124 30.7003C41.9869 30.7003 42.4059 30.5838 42.7695 30.3509C43.1332 30.1151 43.4173 29.7699 43.6218 29.3153C43.8292 28.858 43.9329 28.2983 43.9329 27.6364ZM51.7599 25.6719C51.7202 25.2997 51.5526 25.0099 51.2571 24.8026C50.9645 24.5952 50.5838 24.4915 50.1151 24.4915C49.7855 24.4915 49.5028 24.5412 49.267 24.6406C49.0313 24.7401 48.8509 24.875 48.7259 25.0455C48.6009 25.2159 48.5369 25.4105 48.5341 25.6293C48.5341 25.8111 48.5753 25.9688 48.6577 26.1023C48.7429 26.2358 48.858 26.3494 49.0028 26.4432C49.1477 26.5341 49.3082 26.6108 49.4844 26.6733C49.6605 26.7358 49.8381 26.7884 50.017 26.831L50.8352 27.0355C51.1648 27.1122 51.4815 27.2159 51.7855 27.3466C52.0923 27.4773 52.3665 27.642 52.608 27.8409C52.8523 28.0398 53.0455 28.2798 53.1875 28.5611C53.3295 28.8423 53.4006 29.1719 53.4006 29.5497C53.4006 30.0611 53.2699 30.5114 53.0085 30.9006C52.7472 31.2869 52.3693 31.5895 51.875 31.8082C51.3835 32.0241 50.7884 32.1321 50.0895 32.1321C49.4105 32.1321 48.821 32.027 48.321 31.8168C47.8239 31.6065 47.4347 31.2997 47.1534 30.8963C46.875 30.4929 46.7244 30.0014 46.7017 29.4219L48.2571 29.4219C48.2798 29.7259 48.3736 29.9787 48.5384 30.1804C48.7031 30.3821 48.9176 30.5327 49.1818 30.6321C49.4489 30.7315 49.7472 30.7813 50.0767 30.7813C50.4205 30.7813 50.7216 30.7301 50.9801 30.6278C51.2415 30.5227 51.446 30.3778 51.5937 30.1932C51.7415 30.0057 51.8168 29.7869 51.8196 29.5369C51.8168 29.3097 51.75 29.1222 51.6193 28.9744C51.4886 28.8239 51.3054 28.6989 51.0696 28.5994C50.8366 28.4972 50.5639 28.4063 50.2514 28.3267L49.2585 28.071C48.5398 27.8864 47.9716 27.6065 47.554 27.2315C47.1392 26.8537 46.9318 26.3523 46.9318 25.7273C46.9318 25.2131 47.071 24.7628 47.3494 24.3764C47.6307 23.9901 48.0128 23.6903 48.4957 23.4773C48.9787 23.2614 49.5256 23.1534 50.1364 23.1534C50.7557 23.1534 51.2983 23.2614 51.7642 23.4773C52.233 23.6903 52.6009 23.9872 52.8679 24.3679C53.1349 24.7457 53.2727 25.1804 53.2812 25.6719L51.7599 25.6719ZM59.5529 25.6719C59.5131 25.2997 59.3455 25.0099 59.0501 24.8026C58.7575 24.5952 58.3768 24.4915 57.908 24.4915C57.5785 24.4915 57.2958 24.5412 57.06 24.6406C56.8242 24.7401 56.6438 24.875 56.5188 25.0455C56.3938 25.2159 56.3299 25.4105 56.3271 25.6293C56.3271 25.8111 56.3683 25.9688 56.4506 26.1023C56.5359 26.2358 56.6509 26.3494 56.7958 26.4432C56.9407 26.5341 57.1012 26.6108 57.2773 26.6733C57.4535 26.7358 57.631 26.7884 57.81 26.831L58.6282 27.0355C58.9577 27.1122 59.2745 27.2159 59.5785 27.3466C59.8853 27.4773 60.1594 27.642 60.4009 27.8409C60.6452 28.0398 60.8384 28.2798 60.9805 28.5611C61.1225 28.8423 61.1935 29.1719 61.1935 29.5497C61.1935 30.0611 61.0629 30.5114 60.8015 30.9006C60.5401 31.2869 60.1623 31.5895 59.668 31.8082C59.1765 32.0241 58.5813 32.1321 57.8825 32.1321C57.2035 32.1321 56.614 32.027 56.114 31.8168C55.6168 31.6065 55.2276 31.2997 54.9464 30.8963C54.668 30.4929 54.5174 30.0014 54.4947 29.4219L56.0501 29.4219C56.0728 29.7259 56.1665 29.9787 56.3313 30.1804C56.4961 30.3821 56.7106 30.5327 56.9748 30.6321C57.2418 30.7315 57.5401 30.7813 57.8697 30.7813C58.2134 30.7813 58.5146 30.7301 58.7731 30.6278C59.0344 30.5227 59.239 30.3778 59.3867 30.1932C59.5344 30.0057 59.6097 29.7869 59.6126 29.5369C59.6097 29.3097 59.543 29.1222 59.4123 28.9744C59.2816 28.8239 59.0984 28.6989 58.8626 28.5994C58.6296 28.4972 58.3569 28.4063 58.0444 28.3267L57.0515 28.071C56.3327 27.8864 55.7646 27.6065 55.3469 27.2315C54.9322 26.8537 54.7248 26.3523 54.7248 25.7273C54.7248 25.2131 54.864 24.7628 55.1424 24.3764C55.4237 23.9901 55.8058 23.6903 56.2887 23.4773C56.7717 23.2614 57.3185 23.1534 57.9293 23.1534C58.5487 23.1534 59.0913 23.2614 59.5572 23.4773C60.0259 23.6903 60.3938 23.9872 60.6609 24.3679C60.9279 24.7457 61.0657 25.1804 61.0742 25.6719L59.5529 25.6719ZM70.3224 25.6719C70.2827 25.2997 70.1151 25.0099 69.8196 24.8026C69.527 24.5952 69.1463 24.4915 68.6776 24.4915C68.348 24.4915 68.0653 24.5412 67.8295 24.6406C67.5938 24.7401 67.4134 24.875 67.2884 25.0455C67.1634 25.2159 67.0994 25.4105 67.0966 25.6293C67.0966 25.8111 67.1378 25.9688 67.2202 26.1023C67.3054 26.2358 67.4205 26.3494 67.5653 26.4432C67.7102 26.5341 67.8707 26.6108 68.0469 26.6733C68.223 26.7358 68.4006 26.7884 68.5795 26.831L69.3977 27.0355C69.7273 27.1122 70.044 27.2159 70.348 27.3466C70.6548 27.4773 70.929 27.642 71.1705 27.8409C71.4148 28.0398 71.608 28.2798 71.75 28.5611C71.892 28.8423 71.9631 29.1719 71.9631 29.5497C71.9631 30.0611 71.8324 30.5114 71.571 30.9006C71.3097 31.2869 70.9318 31.5895 70.4375 31.8082C69.946 32.0241 69.3509 32.1321 68.652 32.1321C67.973 32.1321 67.3835 32.027 66.8835 31.8168C66.3864 31.6065 65.9972 31.2997 65.7159 30.8963C65.4375 30.4929 65.2869 30.0014 65.2642 29.4219L66.8196 29.4219C66.8423 29.7259 66.9361 29.9787 67.1009 30.1804C67.2656 30.3821 67.4801 30.5327 67.7443 30.6321C68.0114 30.7315 68.3097 30.7813 68.6392 30.7813C68.983 30.7813 69.2841 30.7301 69.5426 30.6278C69.804 30.5227 70.0085 30.3778 70.1562 30.1932C70.304 30.0057 70.3793 29.7869 70.3821 29.5369C70.3793 29.3097 70.3125 29.1222 70.1818 28.9744C70.0511 28.8239 69.8679 28.6989 69.6321 28.5994C69.3991 28.4972 69.1264 28.4063 68.8139 28.3267L67.821 28.071C67.1023 27.8864 66.5341 27.6065 66.1165 27.2315C65.7017 26.8537 65.4943 26.3523 65.4943 25.7273C65.4943 25.2131 65.6335 24.7628 65.9119 24.3764C66.1932 23.9901 66.5753 23.6903 67.0582 23.4773C67.5412 23.2614 68.0881 23.1534 68.6989 23.1534C69.3182 23.1534 69.8608 23.2614 70.3267 23.4773C70.7955 23.6903 71.1634 23.9872 71.4304 24.3679C71.6974 24.7457 71.8352 25.1804 71.8437 25.6719L70.3224 25.6719ZM74.3526 32L72.6651 32L75.7376 23.2727L77.6893 23.2727L80.766 32L79.0785 32L76.7475 25.0625L76.6793 25.0625L74.3526 32ZM74.408 28.5781L79.0103 28.5781L79.0103 29.848L74.408 29.848L74.408 28.5781ZM81.9155 32L81.9155 23.2727L83.4964 23.2727L83.4964 30.6747L87.3402 30.6747L87.3402 32L81.9155 32ZM88.7124 32L88.7124 23.2727L94.3885 23.2727L94.3885 24.598L90.2933 24.598L90.2933 26.9673L94.0945 26.9673L94.0945 28.2926L90.2933 28.2926L90.2933 30.6747L94.4226 30.6747L94.4226 32L88.7124 32ZM100.744 25.6719C100.705 25.2997 100.537 25.0099 100.241 24.8026C99.9489 24.5952 99.5682 24.4915 99.0994 24.4915C98.7699 24.4915 98.4872 24.5412 98.2514 24.6406C98.0156 24.7401 97.8352 24.875 97.7102 25.0455C97.5852 25.2159 97.5213 25.4105 97.5185 25.6293C97.5185 25.8111 97.5597 25.9688 97.642 26.1023C97.7273 26.2358 97.8423 26.3494 97.9872 26.4432C98.1321 26.5341 98.2926 26.6108 98.4687 26.6733C98.6449 26.7358 98.8224 26.7884 99.0014 26.831L99.8196 27.0355C100.149 27.1122 100.466 27.2159 100.77 27.3466C101.077 27.4773 101.351 27.642 101.592 27.8409C101.837 28.0398 102.03 28.2798 102.172 28.5611C102.314 28.8423 102.385 29.1719 102.385 29.5497C102.385 30.0611 102.254 30.5114 101.993 30.9006C101.732 31.2869 101.354 31.5895 100.859 31.8082C100.368 32.0241 99.7727 32.1321 99.0739 32.1321C98.3949 32.1321 97.8054 32.027 97.3054 31.8168C96.8082 31.6065 96.419 31.2997 96.1378 30.8963C95.8594 30.4929 95.7088 30.0014 95.6861 29.4219L97.2415 29.4219C97.2642 29.7259 97.358 29.9787 97.5227 30.1804C97.6875 30.3821 97.902 30.5327 98.1662 30.6321C98.4332 30.7315 98.7315 30.7813 99.0611 30.7813C99.4048 30.7813 99.706 30.7301 99.9645 30.6278C100.226 30.5227 100.43 30.3778 100.578 30.1932C100.726 30.0057 100.801 29.7869 100.804 29.5369C100.801 29.3097 100.734 29.1222 100.604 28.9744C100.473 28.8239 100.29 28.6989 100.054 28.5994C99.821 28.4972 99.5483 28.4063 99.2358 28.3267L98.2429 28.071C97.5241 27.8864 96.956 27.6065 96.5384 27.2315C96.1236 26.8537 95.9162 26.3523 95.9162 25.7273C95.9162 25.2131 96.0554 24.7628 96.3338 24.3764C96.6151 23.9901 96.9972 23.6903 97.4801 23.4773C97.9631 23.2614 98.5099 23.1534 99.1207 23.1534C99.7401 23.1534 100.283 23.2614 100.749 23.4773C101.217 23.6903 101.585 23.9872 101.852 24.3679C102.119 24.7457 102.257 25.1804 102.266 25.6719L100.744 25.6719ZM106.387 24.598L106.387 23.2727L113.35 23.2727L113.35 24.598L110.653 24.598L110.653 32L109.085 32L109.085 24.598L106.387 24.598ZM116.274 23.2727L116.274 32L114.693 32L114.693 23.2727L116.274 23.2727ZM117.986 23.2727L119.92 23.2727L122.511 29.5966L122.614 29.5966L125.205 23.2727L127.139 23.2727L127.139 32L125.622 32L125.622 26.0043L125.541 26.0043L123.129 31.9744L121.996 31.9744L119.584 25.9915L119.503 25.9915L119.503 32L117.986 32L117.986 23.2727ZM128.861 32L128.861 23.2727L134.537 23.2727L134.537 24.598L130.442 24.598L130.442 26.9673L134.243 26.9673L134.243 28.2926L130.442 28.2926L130.442 30.6747L134.571 30.6747L134.571 32L128.861 32ZM136.15 32L136.15 23.2727L137.731 23.2727L137.731 30.6747L141.575 30.6747L141.575 32L136.15 32ZM144.528 23.2727L144.528 32L142.947 32L142.947 23.2727L144.528 23.2727ZM153.412 23.2727L153.412 32L152.005 32L147.893 26.0554L147.821 26.0554L147.821 32L146.24 32L146.24 23.2727L147.654 23.2727L151.762 29.2216L151.839 29.2216L151.839 23.2727L153.412 23.2727ZM155.134 32L155.134 23.2727L160.81 23.2727L160.81 24.598L156.715 24.598L156.715 26.9673L160.516 26.9673L160.516 28.2926L156.715 28.2926L156.715 30.6747L160.844 30.6747L160.844 32L155.134 32Z" fill="black"/>
<circle cx="25.2338" cy="62.4999" r="5.23383" fill="black"/>
<path d="M35.3242 67L35.3242 60.4545L36.5983 60.4545L36.5983 67L35.3242 67ZM35.9677 59.4446C35.7461 59.4446 35.5557 59.3707 35.3966 59.223C35.2404 59.0724 35.1623 58.8935 35.1623 58.6861C35.1623 58.4759 35.2404 58.2969 35.3966 58.1491C35.5557 57.9986 35.7461 57.9233 35.9677 57.9233C36.1892 57.9233 36.3782 57.9986 36.5344 58.1491C36.6935 58.2969 36.773 58.4759 36.773 58.6861C36.773 58.8935 36.6935 59.0724 36.5344 59.223C36.3782 59.3707 36.1892 59.4446 35.9677 59.4446ZM39.5866 63.1136L39.5866 67L38.3125 67L38.3125 60.4545L39.5355 60.4545L39.5355 61.5199L39.6164 61.5199C39.767 61.1733 40.0028 60.8949 40.3238 60.6847C40.6477 60.4744 41.0554 60.3693 41.5468 60.3693C41.9929 60.3693 42.3835 60.4631 42.7187 60.6506C43.0539 60.8352 43.3139 61.1108 43.4985 61.4773C43.6832 61.8437 43.7755 62.2969 43.7755 62.8366L43.7755 67L42.5014 67L42.5014 62.9901C42.5014 62.5156 42.3778 62.1449 42.1306 61.8778C41.8835 61.608 41.544 61.473 41.1122 61.473C40.8167 61.473 40.5539 61.5369 40.3238 61.6648C40.0966 61.7926 39.9162 61.9801 39.7826 62.2273C39.652 62.4716 39.5866 62.767 39.5866 63.1136ZM48.5397 60.4545L48.5397 61.4773L44.9645 61.4773L44.9645 60.4545L48.5397 60.4545ZM45.9233 58.8864L47.1974 58.8864L47.1974 65.0781C47.1974 65.3253 47.2343 65.5114 47.3082 65.6364C47.3821 65.7585 47.4772 65.8423 47.5937 65.8878C47.713 65.9304 47.8423 65.9517 47.9815 65.9517C48.0838 65.9517 48.1733 65.9446 48.25 65.9304C48.3267 65.9162 48.3863 65.9048 48.4289 65.8963L48.6591 66.9489C48.5852 66.9773 48.4801 67.0057 48.3437 67.0341C48.2074 67.0653 48.0369 67.0824 47.8324 67.0852C47.4971 67.0909 47.1846 67.0312 46.8949 66.9062C46.6051 66.7812 46.3707 66.5881 46.1917 66.3267C46.0128 66.0653 45.9233 65.7372 45.9233 65.3423L45.9233 58.8864ZM52.636 67.1321C52.0223 67.1321 51.4868 66.9915 51.0294 66.7102C50.5721 66.429 50.2169 66.0355 49.9641 65.5298C49.7113 65.0241 49.5848 64.4332 49.5848 63.7571C49.5848 63.0781 49.7113 62.4844 49.9641 61.9759C50.2169 61.4673 50.5721 61.0724 51.0294 60.7912C51.4868 60.5099 52.0223 60.3693 52.636 60.3693C53.2496 60.3693 53.7851 60.5099 54.2425 60.7912C54.6999 61.0724 55.055 61.4673 55.3078 61.9759C55.5607 62.4844 55.6871 63.0781 55.6871 63.7571C55.6871 64.4332 55.5607 65.0241 55.3078 65.5298C55.055 66.0355 54.6999 66.429 54.2425 66.7102C53.7851 66.9915 53.2496 67.1321 52.636 67.1321ZM52.6402 66.0625C53.038 66.0625 53.3675 65.9574 53.6289 65.7472C53.8902 65.5369 54.0834 65.2571 54.2084 64.9077C54.3363 64.5582 54.4002 64.1733 54.4002 63.7528C54.4002 63.3352 54.3363 62.9517 54.2084 62.6023C54.0834 62.25 53.8902 61.9673 53.6289 61.7543C53.3675 61.5412 53.038 61.4347 52.6402 61.4347C52.2397 61.4347 51.9073 61.5412 51.6431 61.7543C51.3817 61.9673 51.1871 62.25 51.0593 62.6023C50.9343 62.9517 50.8718 63.3352 50.8718 63.7528C50.8718 64.1733 50.9343 64.5582 51.0593 64.9077C51.1871 65.2571 51.3817 65.5369 51.6431 65.7472C51.9073 65.9574 52.2397 66.0625 52.6402 66.0625ZM63.3405 60.4545L63.3405 61.4773L59.7652 61.4773L59.7652 60.4545L63.3405 60.4545ZM60.724 58.8864L61.9982 58.8864L61.9982 65.0781C61.9982 65.3253 62.0351 65.5114 62.109 65.6364C62.1828 65.7585 62.278 65.8423 62.3945 65.8878C62.5138 65.9304 62.6431 65.9517 62.7823 65.9517C62.8846 65.9517 62.974 65.9446 63.0507 65.9304C63.1275 65.9162 63.1871 65.9048 63.2297 65.8963L63.4598 66.9489C63.386 66.9773 63.2809 67.0057 63.1445 67.0341C63.0081 67.0653 62.8377 67.0824 62.6331 67.0852C62.2979 67.0909 61.9854 67.0312 61.6956 66.9062C61.4059 66.7812 61.1715 66.5881 60.9925 66.3267C60.8135 66.0653 60.724 65.7372 60.724 65.3423L60.724 58.8864ZM66.1647 63.1136L66.1647 67L64.8906 67L64.8906 58.2727L66.1477 58.2727L66.1477 61.5199L66.2287 61.5199C66.3821 61.1676 66.6164 60.8878 66.9318 60.6804C67.2471 60.473 67.6591 60.3693 68.1676 60.3693C68.6164 60.3693 69.0085 60.4616 69.3437 60.6463C69.6818 60.831 69.9431 61.1065 70.1278 61.473C70.3153 61.8366 70.4091 62.2912 70.4091 62.8366L70.4091 67L69.1349 67L69.1349 62.9901C69.1349 62.5099 69.0113 62.1378 68.7642 61.8736C68.517 61.6065 68.1733 61.473 67.7329 61.473C67.4318 61.473 67.1619 61.5369 66.9233 61.6648C66.6875 61.7926 66.5014 61.9801 66.365 62.2273C66.2315 62.4716 66.1647 62.767 66.1647 63.1136ZM74.9304 67.1321C74.2855 67.1321 73.7301 66.9943 73.2642 66.7187C72.8011 66.4403 72.4431 66.0497 72.1903 65.5469C71.9403 65.0412 71.8153 64.4489 71.8153 63.7699C71.8153 63.0994 71.9403 62.5085 72.1903 61.9972C72.4431 61.4858 72.7954 61.0866 73.2471 60.7997C73.7017 60.5128 74.2329 60.3693 74.8409 60.3693C75.2102 60.3693 75.5681 60.4304 75.9147 60.5526C76.2613 60.6747 76.5724 60.8665 76.848 61.1278C77.1235 61.3892 77.3409 61.7287 77.5 62.1463C77.6591 62.5611 77.7386 63.0653 77.7386 63.6591L77.7386 64.1108L72.5355 64.1108L72.5355 63.1562L76.49 63.1562C76.49 62.821 76.4218 62.5241 76.2855 62.2656C76.1491 62.0043 75.9574 61.7983 75.7102 61.6477C75.4659 61.4972 75.1789 61.4219 74.8494 61.4219C74.4914 61.4219 74.1789 61.5099 73.9119 61.6861C73.6477 61.8594 73.4431 62.0866 73.2983 62.3679C73.1562 62.6463 73.0852 62.9489 73.0852 63.2756L73.0852 64.0213C73.0852 64.4588 73.1619 64.831 73.3153 65.1378C73.4716 65.4446 73.6889 65.679 73.9673 65.8409C74.2457 66 74.571 66.0795 74.9431 66.0795C75.1846 66.0795 75.4048 66.0455 75.6037 65.9773C75.8025 65.9062 75.9744 65.8011 76.1193 65.6619C76.2642 65.5227 76.375 65.3509 76.4517 65.1463L77.6576 65.3636C77.561 65.7187 77.3877 66.0298 77.1377 66.2969C76.8906 66.5611 76.5795 66.767 76.2045 66.9148C75.8324 67.0597 75.4076 67.1321 74.9304 67.1321ZM87.2329 62.0526L86.0781 62.2571C86.0298 62.1094 85.9531 61.9687 85.848 61.8352C85.7457 61.7017 85.6065 61.5923 85.4304 61.5071C85.2542 61.4219 85.0341 61.3793 84.7699 61.3793C84.4091 61.3793 84.1079 61.4602 83.8664 61.6222C83.625 61.7812 83.5042 61.9872 83.5042 62.2401C83.5042 62.4588 83.5852 62.6349 83.7471 62.7685C83.9091 62.902 84.1704 63.0114 84.5312 63.0966L85.571 63.3352C86.1733 63.4744 86.6221 63.6889 86.9176 63.9787C87.213 64.2685 87.3608 64.6449 87.3608 65.108C87.3608 65.5 87.2471 65.8494 87.0199 66.1562C86.7954 66.4602 86.4815 66.6989 86.0781 66.8722C85.6775 67.0455 85.213 67.1321 84.6846 67.1321C83.9517 67.1321 83.3537 66.9759 82.8906 66.6634C82.4275 66.348 82.1434 65.9006 82.0383 65.321L83.2699 65.1335C83.3466 65.4545 83.5042 65.6974 83.7429 65.8622C83.9815 66.0241 84.2926 66.1051 84.6761 66.1051C85.0937 66.1051 85.4275 66.0185 85.6775 65.8452C85.9275 65.669 86.0525 65.4545 86.0525 65.2017C86.0525 64.9972 85.9758 64.8253 85.8224 64.6861C85.6718 64.5469 85.4403 64.4418 85.1278 64.3707L84.0199 64.1278C83.4091 63.9886 82.9574 63.767 82.6647 63.4631C82.375 63.1591 82.2301 62.7741 82.2301 62.3082C82.2301 61.9219 82.338 61.5838 82.5539 61.294C82.7699 61.0043 83.0681 60.7784 83.4488 60.6165C83.8295 60.4517 84.2656 60.3693 84.7571 60.3693C85.4645 60.3693 86.0213 60.5227 86.4275 60.8295C86.8338 61.1335 87.1022 61.5412 87.2329 62.0526ZM91.8171 60.4545L91.8171 61.4773L88.2418 61.4773L88.2418 60.4545L91.8171 60.4545ZM89.2006 58.8864L90.4748 58.8864L90.4748 65.0781C90.4748 65.3253 90.5117 65.5114 90.5855 65.6364C90.6594 65.7585 90.7546 65.8423 90.8711 65.8878C90.9904 65.9304 91.1196 65.9517 91.2588 65.9517C91.3611 65.9517 91.4506 65.9446 91.5273 65.9304C91.604 65.9162 91.6637 65.9048 91.7063 65.8963L91.9364 66.9489C91.8625 66.9773 91.7574 67.0057 91.6211 67.0341C91.4847 67.0653 91.3142 67.0824 91.1097 67.0852C90.7745 67.0909 90.462 67.0312 90.1722 66.9062C89.8824 66.7812 89.648 66.5881 89.4691 66.3267C89.2901 66.0653 89.2006 65.7372 89.2006 65.3423L89.2006 58.8864ZM95.9133 67.1321C95.2997 67.1321 94.7642 66.9915 94.3068 66.7102C93.8494 66.429 93.4943 66.0355 93.2414 65.5298C92.9886 65.0241 92.8622 64.4332 92.8622 63.7571C92.8622 63.0781 92.9886 62.4844 93.2414 61.9759C93.4943 61.4673 93.8494 61.0724 94.3068 60.7912C94.7642 60.5099 95.2997 60.3693 95.9133 60.3693C96.527 60.3693 97.0625 60.5099 97.5198 60.7912C97.9772 61.0724 98.3323 61.4673 98.5852 61.9759C98.838 62.4844 98.9645 63.0781 98.9645 63.7571C98.9645 64.4332 98.838 65.0241 98.5852 65.5298C98.3323 66.0355 97.9772 66.429 97.5198 66.7102C97.0625 66.9915 96.527 67.1321 95.9133 67.1321ZM95.9176 66.0625C96.3153 66.0625 96.6448 65.9574 96.9062 65.7472C97.1676 65.5369 97.3608 65.2571 97.4858 64.9077C97.6136 64.5582 97.6775 64.1733 97.6775 63.7528C97.6775 63.3352 97.6136 62.9517 97.4858 62.6023C97.3608 62.25 97.1676 61.9673 96.9062 61.7543C96.6448 61.5412 96.3153 61.4347 95.9176 61.4347C95.517 61.4347 95.1846 61.5412 94.9204 61.7543C94.6591 61.9673 94.4645 62.25 94.3366 62.6023C94.2116 62.9517 94.1491 63.3352 94.1491 63.7528C94.1491 64.1733 94.2116 64.5582 94.3366 64.9077C94.4645 65.2571 94.6591 65.5369 94.9204 65.7472C95.1846 65.9574 95.517 66.0625 95.9176 66.0625ZM100.387 67L100.387 60.4545L101.618 60.4545L101.618 61.4943L101.686 61.4943C101.806 61.142 102.016 60.8651 102.317 60.6634C102.621 60.4588 102.965 60.3565 103.348 60.3565C103.428 60.3565 103.522 60.3594 103.63 60.3651C103.74 60.3707 103.827 60.3778 103.89 60.3864L103.89 61.6051C103.838 61.5909 103.747 61.5753 103.617 61.5582C103.486 61.5384 103.355 61.5284 103.225 61.5284C102.924 61.5284 102.655 61.5923 102.419 61.7202C102.186 61.8452 102.002 62.0199 101.865 62.2443C101.729 62.4659 101.661 62.7187 101.661 63.0028L101.661 67L100.387 67ZM107.579 67.1321C106.934 67.1321 106.379 66.9943 105.913 66.7187C105.45 66.4403 105.092 66.0497 104.839 65.5469C104.589 65.0412 104.464 64.4489 104.464 63.7699C104.464 63.0994 104.589 62.5085 104.839 61.9972C105.092 61.4858 105.444 61.0866 105.896 60.7997C106.35 60.5128 106.881 60.3693 107.489 60.3693C107.859 60.3693 108.217 60.4304 108.563 60.5526C108.91 60.6747 109.221 60.8665 109.496 61.1278C109.772 61.3892 109.989 61.7287 110.148 62.1463C110.307 62.5611 110.387 63.0653 110.387 63.6591L110.387 64.1108L105.184 64.1108L105.184 63.1562L109.138 63.1563C109.138 62.821 109.07 62.5241 108.934 62.2656C108.798 62.0043 108.606 61.7983 108.359 61.6477C108.114 61.4972 107.827 61.4219 107.498 61.4219C107.14 61.4219 106.827 61.5099 106.56 61.6861C106.296 61.8594 106.092 62.0866 105.947 62.3679C105.805 62.6463 105.734 62.9489 105.734 63.2756L105.734 64.0213C105.734 64.4588 105.81 64.831 105.964 65.1378C106.12 65.4446 106.337 65.679 106.616 65.8409C106.894 66 107.219 66.0795 107.592 66.0795C107.833 66.0795 108.053 66.0455 108.252 65.9773C108.451 65.9062 108.623 65.8011 108.768 65.6619C108.913 65.5227 109.023 65.3509 109.1 65.1463L110.306 65.3636C110.209 65.7187 110.036 66.0298 109.786 66.2969C109.539 66.5611 109.228 66.767 108.853 66.9148C108.481 67.0597 108.056 67.1321 107.579 67.1321Z" fill="black"/>
<circle cx="131.701" cy="62.4999" r="5.23383" fill="#F7CEDC"/>
<path d="M144.549 67.1321C143.935 67.1321 143.4 66.9915 142.942 66.7102C142.485 66.429 142.13 66.0355 141.877 65.5298C141.624 65.0241 141.498 64.4332 141.498 63.7571C141.498 63.0781 141.624 62.4844 141.877 61.9759C142.13 61.4673 142.485 61.0724 142.942 60.7912C143.4 60.5099 143.935 60.3693 144.549 60.3693C145.163 60.3693 145.698 60.5099 146.155 60.7912C146.613 61.0724 146.968 61.4673 147.221 61.9759C147.474 62.4844 147.6 63.0781 147.6 63.7571C147.6 64.4332 147.474 65.0241 147.221 65.5298C146.968 66.0355 146.613 66.429 146.155 66.7102C145.698 66.9915 145.163 67.1321 144.549 67.1321ZM144.553 66.0625C144.951 66.0625 145.28 65.9574 145.542 65.7472C145.803 65.5369 145.996 65.2571 146.121 64.9077C146.249 64.5582 146.313 64.1733 146.313 63.7528C146.313 63.3352 146.249 62.9517 146.121 62.6023C145.996 62.25 145.803 61.9673 145.542 61.7543C145.28 61.5412 144.951 61.4347 144.553 61.4347C144.153 61.4347 143.82 61.5412 143.556 61.7543C143.295 61.9673 143.1 62.25 142.972 62.6023C142.847 62.9517 142.785 63.3352 142.785 63.7528C142.785 64.1733 142.847 64.5582 142.972 64.9077C143.1 65.2571 143.295 65.5369 143.556 65.7472C143.82 65.9574 144.153 66.0625 144.553 66.0625ZM153.169 64.2855L153.169 60.4545L154.447 60.4545L154.447 67L153.194 67L153.194 65.8665L153.126 65.8665C152.975 66.2159 152.734 66.5071 152.402 66.7401C152.072 66.9702 151.662 67.0852 151.17 67.0852C150.75 67.0852 150.377 66.9929 150.054 66.8082C149.733 66.6207 149.48 66.3437 149.295 65.9773C149.113 65.6108 149.022 65.1577 149.022 64.6179L149.022 60.4545L150.296 60.4545L150.296 64.4645C150.296 64.9105 150.42 65.2656 150.667 65.5298C150.914 65.794 151.235 65.9261 151.63 65.9261C151.869 65.9261 152.106 65.8665 152.342 65.7472C152.581 65.6278 152.778 65.4474 152.934 65.206C153.093 64.9645 153.171 64.6577 153.169 64.2855ZM159.214 60.4545L159.214 61.4773L155.639 61.4773L155.639 60.4545L159.214 60.4545ZM156.598 58.8864L157.872 58.8864L157.872 65.0781C157.872 65.3253 157.909 65.5114 157.983 65.6364C158.057 65.7585 158.152 65.8423 158.268 65.8878C158.388 65.9304 158.517 65.9517 158.656 65.9517C158.758 65.9517 158.848 65.9446 158.925 65.9304C159.001 65.9162 159.061 65.9048 159.104 65.8963L159.334 66.9489C159.26 66.9773 159.155 67.0057 159.018 67.0341C158.882 67.0653 158.712 67.0824 158.507 67.0852C158.172 67.0909 157.859 67.0312 157.57 66.9062C157.28 66.7812 157.045 66.5881 156.866 66.3267C156.687 66.0653 156.598 65.7372 156.598 65.3423L156.598 58.8864ZM166.557 67.1321C165.943 67.1321 165.408 66.9915 164.95 66.7102C164.493 66.429 164.138 66.0355 163.885 65.5298C163.632 65.0241 163.506 64.4332 163.506 63.7571C163.506 63.0781 163.632 62.4844 163.885 61.9759C164.138 61.4673 164.493 61.0724 164.95 60.7912C165.408 60.5099 165.943 60.3693 166.557 60.3693C167.17 60.3693 167.706 60.5099 168.163 60.7912C168.621 61.0724 168.976 61.4673 169.229 61.9759C169.481 62.4844 169.608 63.0781 169.608 63.7571C169.608 64.4332 169.481 65.0241 169.229 65.5298C168.976 66.0355 168.621 66.429 168.163 66.7102C167.706 66.9915 167.17 67.1321 166.557 67.1321ZM166.561 66.0625C166.959 66.0625 167.288 65.9574 167.55 65.7472C167.811 65.5369 168.004 65.2571 168.129 64.9077C168.257 64.5582 168.321 64.1733 168.321 63.7528C168.321 63.3352 168.257 62.9517 168.129 62.6023C168.004 62.25 167.811 61.9673 167.55 61.7543C167.288 61.5412 166.959 61.4347 166.561 61.4347C166.16 61.4347 165.828 61.5412 165.564 61.7543C165.302 61.9673 165.108 62.25 164.98 62.6023C164.855 62.9517 164.793 63.3352 164.793 63.7528C164.793 64.1733 164.855 64.5582 164.98 64.9077C165.108 65.2571 165.302 65.5369 165.564 65.7472C165.828 65.9574 166.16 66.0625 166.561 66.0625ZM174.145 60.4545L174.145 61.4773L170.446 61.4773L170.446 60.4545L174.145 60.4545ZM171.461 67L171.461 59.696C171.461 59.2869 171.55 58.9474 171.729 58.6776C171.908 58.4048 172.145 58.2017 172.441 58.0682C172.736 57.9318 173.057 57.8636 173.404 57.8636C173.659 57.8636 173.878 57.8849 174.06 57.9276C174.242 57.9673 174.377 58.0043 174.465 58.0384L174.166 59.0696C174.107 59.0526 174.03 59.0327 173.936 59.0099C173.843 58.9844 173.729 58.9716 173.595 58.9716C173.286 58.9716 173.064 59.0483 172.931 59.2017C172.8 59.3551 172.735 59.5767 172.735 59.8665L172.735 67L171.461 67ZM181.691 60.4545L181.691 61.4773L178.116 61.4773L178.116 60.4545L181.691 60.4545ZM179.075 58.8864L180.349 58.8864L180.349 65.0781C180.349 65.3253 180.386 65.5114 180.459 65.6364C180.533 65.7585 180.628 65.8423 180.745 65.8878C180.864 65.9304 180.994 65.9517 181.133 65.9517C181.235 65.9517 181.325 65.9446 181.401 65.9304C181.478 65.9162 181.538 65.9048 181.58 65.8963L181.81 66.9489C181.736 66.9773 181.631 67.0057 181.495 67.0341C181.359 67.0653 181.188 67.0824 180.984 67.0852C180.648 67.0909 180.336 67.0312 180.046 66.9062C179.756 66.7812 179.522 66.5881 179.343 66.3267C179.164 66.0653 179.075 65.7372 179.075 65.3423L179.075 58.8864ZM184.515 63.1136L184.515 67L183.241 67L183.241 58.2727L184.498 58.2727L184.498 61.5199L184.579 61.5199C184.733 61.1676 184.967 60.8878 185.282 60.6804C185.598 60.473 186.01 60.3693 186.518 60.3693C186.967 60.3693 187.359 60.4616 187.694 60.6463C188.032 60.831 188.294 61.1065 188.478 61.473C188.666 61.8366 188.76 62.2912 188.76 62.8366L188.76 67L187.485 67L187.485 62.9901C187.485 62.5099 187.362 62.1378 187.115 61.8736C186.867 61.6065 186.524 61.473 186.083 61.473C185.782 61.473 185.512 61.5369 185.274 61.6648C185.038 61.7926 184.852 61.9801 184.715 62.2273C184.582 62.4716 184.515 62.767 184.515 63.1136ZM193.281 67.1321C192.636 67.1321 192.081 66.9943 191.615 66.7187C191.152 66.4403 190.794 66.0497 190.541 65.5469C190.291 65.0412 190.166 64.4489 190.166 63.7699C190.166 63.0994 190.291 62.5085 190.541 61.9972C190.794 61.4858 191.146 61.0866 191.598 60.7997C192.052 60.5128 192.583 60.3693 193.191 60.3693C193.561 60.3693 193.919 60.4304 194.265 60.5526C194.612 60.6747 194.923 60.8665 195.198 61.1278C195.474 61.3892 195.691 61.7287 195.85 62.1463C196.01 62.5611 196.089 63.0653 196.089 63.6591L196.089 64.1108L190.886 64.1108L190.886 63.1562L194.84 63.1562C194.84 62.821 194.772 62.5241 194.636 62.2656C194.5 62.0043 194.308 61.7983 194.061 61.6477C193.816 61.4972 193.529 61.4219 193.2 61.4219C192.842 61.4219 192.529 61.5099 192.262 61.6861C191.998 61.8594 191.794 62.0866 191.649 62.3679C191.507 62.6463 191.436 62.9489 191.436 63.2756L191.436 64.0213C191.436 64.4588 191.512 64.831 191.666 65.1378C191.822 65.4446 192.039 65.679 192.318 65.8409C192.596 66 192.921 66.0795 193.294 66.0795C193.535 66.0795 193.755 66.0455 193.954 65.9773C194.153 65.9062 194.325 65.8011 194.47 65.6619C194.615 65.5227 194.725 65.3509 194.802 65.1463L196.008 65.3636C195.912 65.7187 195.738 66.0298 195.488 66.2969C195.241 66.5611 194.93 66.767 194.555 66.9148C194.183 67.0597 193.758 67.1321 193.281 67.1321ZM205.583 62.0526L204.429 62.2571C204.38 62.1094 204.304 61.9687 204.198 61.8352C204.096 61.7017 203.957 61.5923 203.781 61.5071C203.605 61.4219 203.385 61.3793 203.12 61.3793C202.76 61.3793 202.458 61.4602 202.217 61.6222C201.975 61.7812 201.855 61.9872 201.855 62.2401C201.855 62.4588 201.936 62.6349 202.098 62.7685C202.26 62.902 202.521 63.0114 202.882 63.0966L203.921 63.3352C204.524 63.4744 204.973 63.6889 205.268 63.9787C205.563 64.2685 205.711 64.6449 205.711 65.108C205.711 65.5 205.598 65.8494 205.37 66.1562C205.146 66.4602 204.832 66.6989 204.429 66.8722C204.028 67.0455 203.563 67.1321 203.035 67.1321C202.302 67.1321 201.704 66.9759 201.241 66.6634C200.778 66.348 200.494 65.9006 200.389 65.321L201.62 65.1335C201.697 65.4545 201.855 65.6974 202.093 65.8622C202.332 66.0241 202.643 66.1051 203.027 66.1051C203.444 66.1051 203.778 66.0185 204.028 65.8452C204.278 65.669 204.403 65.4545 204.403 65.2017C204.403 64.9972 204.326 64.8253 204.173 64.6861C204.022 64.5469 203.791 64.4418 203.478 64.3707L202.37 64.1278C201.76 63.9886 201.308 63.767 201.015 63.4631C200.725 63.1591 200.581 62.7741 200.581 62.3082C200.581 61.9219 200.688 61.5838 200.904 61.294C201.12 61.0043 201.419 60.7784 201.799 60.6165C202.18 60.4517 202.616 60.3693 203.108 60.3693C203.815 60.3693 204.372 60.5227 204.778 60.8295C205.184 61.1335 205.453 61.5412 205.583 62.0526ZM210.168 60.4545L210.168 61.4773L206.592 61.4773L206.592 60.4545L210.168 60.4545ZM207.551 58.8864L208.825 58.8864L208.825 65.0781C208.825 65.3253 208.862 65.5114 208.936 65.6364C209.01 65.7585 209.105 65.8423 209.222 65.8878C209.341 65.9304 209.47 65.9517 209.609 65.9517C209.712 65.9517 209.801 65.9446 209.878 65.9304C209.954 65.9162 210.014 65.9048 210.057 65.8963L210.287 66.9489C210.213 66.9773 210.108 67.0057 209.972 67.0341C209.835 67.0653 209.665 67.0824 209.46 67.0852C209.125 67.0909 208.812 67.0312 208.523 66.9062C208.233 66.7812 207.999 66.5881 207.82 66.3267C207.641 66.0653 207.551 65.7372 207.551 65.3423L207.551 58.8864ZM214.264 67.1321C213.65 67.1321 213.115 66.9915 212.657 66.7102C212.2 66.429 211.845 66.0355 211.592 65.5298C211.339 65.0241 211.213 64.4332 211.213 63.7571C211.213 63.0781 211.339 62.4844 211.592 61.9759C211.845 61.4673 212.2 61.0724 212.657 60.7912C213.115 60.5099 213.65 60.3693 214.264 60.3693C214.877 60.3693 215.413 60.5099 215.87 60.7912C216.328 61.0724 216.683 61.4673 216.936 61.9759C217.188 62.4844 217.315 63.0781 217.315 63.7571C217.315 64.4332 217.188 65.0241 216.936 65.5298C216.683 66.0355 216.328 66.429 215.87 66.7102C215.413 66.9915 214.877 67.1321 214.264 67.1321ZM214.268 66.0625C214.666 66.0625 214.995 65.9574 215.257 65.7472C215.518 65.5369 215.711 65.2571 215.836 64.9077C215.964 64.5582 216.028 64.1733 216.028 63.7528C216.028 63.3352 215.964 62.9517 215.836 62.6023C215.711 62.25 215.518 61.9673 215.257 61.7543C214.995 61.5412 214.666 61.4347 214.268 61.4347C213.867 61.4347 213.535 61.5412 213.271 61.7543C213.01 61.9673 212.815 62.25 212.687 62.6023C212.562 62.9517 212.5 63.3352 212.5 63.7528C212.5 64.1733 212.562 64.5582 212.687 64.9077C212.815 65.2571 213.01 65.5369 213.271 65.7472C213.535 65.9574 213.867 66.0625 214.268 66.0625ZM218.737 67L218.737 60.4545L219.969 60.4545L219.969 61.4943L220.037 61.4943C220.156 61.142 220.366 60.8651 220.668 60.6634C220.972 60.4588 221.315 60.3565 221.699 60.3565C221.778 60.3565 221.872 60.3594 221.98 60.3651C222.091 60.3707 222.177 60.3778 222.24 60.3864L222.24 61.6051C222.189 61.5909 222.098 61.5753 221.967 61.5582C221.837 61.5384 221.706 61.5284 221.575 61.5284C221.274 61.5284 221.006 61.5923 220.77 61.7202C220.537 61.8452 220.352 62.0199 220.216 62.2443C220.079 62.4659 220.011 62.7187 220.011 63.0028L220.011 67L218.737 67ZM225.929 67.1321C225.284 67.1321 224.729 66.9943 224.263 66.7187C223.8 66.4403 223.442 66.0497 223.189 65.5469C222.939 65.0412 222.814 64.4489 222.814 63.7699C222.814 63.0994 222.939 62.5085 223.189 61.9972C223.442 61.4858 223.794 61.0866 224.246 60.7997C224.701 60.5128 225.232 60.3693 225.84 60.3693C226.209 60.3693 226.567 60.4304 226.914 60.5526C227.26 60.6747 227.571 60.8665 227.847 61.1278C228.122 61.3892 228.34 61.7287 228.499 62.1463C228.658 62.5611 228.737 63.0653 228.737 63.6591L228.737 64.1108L223.534 64.1108L223.534 63.1563L227.489 63.1563C227.489 62.821 227.421 62.5241 227.284 62.2656C227.148 62.0043 226.956 61.7983 226.709 61.6477C226.465 61.4972 226.178 61.4219 225.848 61.4219C225.49 61.4219 225.178 61.5099 224.911 61.6861C224.647 61.8594 224.442 62.0866 224.297 62.3679C224.155 62.6463 224.084 62.9489 224.084 63.2756L224.084 64.0213C224.084 64.4588 224.161 64.831 224.314 65.1378C224.47 65.4446 224.688 65.679 224.966 65.8409C225.245 66 225.57 66.0795 225.942 66.0795C226.184 66.0795 226.404 66.0455 226.603 65.9773C226.801 65.9062 226.973 65.8011 227.118 65.6619C227.263 65.5227 227.374 65.3509 227.451 65.1463L228.657 65.3636C228.56 65.7187 228.387 66.0298 228.137 66.2969C227.889 66.5611 227.578 66.767 227.203 66.9148C226.831 67.0597 226.407 67.1321 225.929 67.1321Z" fill="black"/>
<path d="M60 91.7296L71.2521 91.7296C72.0532 91.7296 72.777 92.2076 73.0915 92.9444L82.5669 115.143C82.723 115.508 82.9845 115.819 83.318 116.035L109.633 133.102C110.664 133.771 112.049 133.36 112.548 132.237L129.01 95.2448C129.669 93.7654 131.721 93.6408 132.553 95.0296L165.369 149.769C166.184 151.129 168.183 151.044 168.88 149.62L198.246 89.6009C198.714 88.6438 199.85 88.2219 200.83 88.6415L247.474 108.626C247.723 108.733 247.991 108.788 248.262 108.788L267.165 108.788C267.984 108.788 268.721 109.287 269.024 110.048L278.786 134.564C279.512 136.386 282.154 136.183 282.594 134.271L287.536 112.761C287.908 111.142 289.979 110.656 291.032 111.942L309.114 134.015C309.308 134.253 309.445 134.531 309.515 134.83L319.735 178.797C320.189 180.751 322.916 180.895 323.573 178.999L347.874 108.788" stroke="black" stroke-width="2" stroke-linecap="round" stroke-dasharray="4 7"/>
<path d="M60 111.201L76.2187 146.132C76.597 146.947 77.4721 147.409 78.3583 147.263L91.1553 145.151C91.6865 145.064 92.2306 145.194 92.6646 145.513L113.203 160.593C113.879 161.089 114.793 161.111 115.492 160.647L138.826 145.167C138.979 145.066 139.117 144.944 139.237 144.805L167.111 112.391C167.712 111.693 168.712 111.495 169.534 111.912L227.974 141.616C228.14 141.701 228.294 141.808 228.43 141.935L273.12 183.506C274.176 184.489 275.894 184.064 276.37 182.702L295.637 127.602C296.223 125.926 298.54 125.787 299.321 127.382L313.978 157.301C314.103 157.556 314.28 157.781 314.499 157.962L347.874 185.59" stroke="#F7CEDC" stroke-width="2" stroke-linecap="round"/>
<path d="M23.9077 98.1193C23.294 98.1193 22.7486 98.0142 22.2713 97.804C21.7969 97.5937 21.4219 97.3011 21.1463 96.9261C20.8707 96.5511 20.7244 96.1179 20.7074 95.6264L22.3097 95.6264C22.3239 95.8622 22.402 96.0682 22.544 96.2443C22.6861 96.4176 22.875 96.5526 23.1108 96.6491C23.3466 96.7457 23.6108 96.794 23.9034 96.794C24.2159 96.794 24.4929 96.7401 24.7344 96.6321C24.9759 96.5213 25.1648 96.3679 25.3011 96.1719C25.4375 95.9759 25.5043 95.75 25.5014 95.4943C25.5043 95.2301 25.4361 94.9972 25.2969 94.7955C25.1577 94.5937 24.956 94.4361 24.6918 94.3224C24.4304 94.2088 24.1151 94.152 23.7457 94.152L22.9744 94.152L22.9744 92.9332L23.7457 92.9332C24.0497 92.9332 24.3153 92.8807 24.5426 92.7756C24.7727 92.6705 24.9531 92.5227 25.0838 92.3324C25.2145 92.1392 25.2784 91.9162 25.2756 91.6634C25.2784 91.4162 25.223 91.2017 25.1094 91.0199C24.9986 90.8352 24.8409 90.6918 24.6364 90.5895C24.4347 90.4872 24.1974 90.4361 23.9247 90.4361C23.6577 90.4361 23.4105 90.4844 23.1832 90.581C22.956 90.6776 22.7727 90.8153 22.6335 90.9943C22.4943 91.1705 22.4205 91.3807 22.4119 91.625L20.8906 91.625C20.902 91.1364 21.0426 90.7074 21.3125 90.3381C21.5852 89.9659 21.9489 89.6761 22.4034 89.4687C22.858 89.2585 23.3679 89.1534 23.9332 89.1534C24.5156 89.1534 25.0213 89.2628 25.4503 89.4815C25.8821 89.6974 26.2159 89.9886 26.4517 90.3551C26.6875 90.7216 26.8054 91.1264 26.8054 91.5696C26.8082 92.0611 26.6634 92.473 26.3707 92.8054C26.081 93.1378 25.7003 93.3551 25.2287 93.4574L25.2287 93.5256C25.8423 93.6108 26.3125 93.8381 26.6392 94.2074C26.9687 94.5739 27.1321 95.0298 27.1293 95.5753C27.1293 96.0639 26.9901 96.5014 26.7116 96.8878C26.4361 97.2713 26.0554 97.5724 25.5696 97.7912C25.0866 98.0099 24.5327 98.1193 23.9077 98.1193ZM29.3015 98.0937C29.043 98.0937 28.8214 98.0028 28.6367 97.821C28.4521 97.6392 28.3612 97.4176 28.364 97.1562C28.3612 96.9006 28.4521 96.6818 28.6367 96.5C28.8214 96.3182 29.043 96.2273 29.3015 96.2273C29.5515 96.2273 29.7688 96.3182 29.9535 96.5C30.141 96.6818 30.2361 96.9006 30.239 97.1562C30.2361 97.3295 30.1907 97.4872 30.1026 97.6293C30.0174 97.7713 29.9038 97.8849 29.7617 97.9702C29.6225 98.0526 29.4691 98.0937 29.3015 98.0937ZM34.7433 98.1193C34.1751 98.1193 33.6665 98.0128 33.2177 97.7997C32.7688 97.5838 32.4123 97.2884 32.1481 96.9134C31.8867 96.5384 31.7475 96.1094 31.7305 95.6264L33.2646 95.6264C33.293 95.9844 33.4478 96.277 33.729 96.5043C34.0103 96.7287 34.3484 96.8409 34.7433 96.8409C35.0529 96.8409 35.3285 96.7699 35.57 96.6278C35.8114 96.4858 36.0018 96.2884 36.141 96.0355C36.2802 95.7827 36.3484 95.4943 36.3455 95.1705C36.3484 94.8409 36.2788 94.5483 36.1367 94.2926C35.9947 94.0369 35.8001 93.8366 35.5529 93.6918C35.3058 93.544 35.0217 93.4702 34.7006 93.4702C34.4393 93.4673 34.1822 93.5156 33.9293 93.6151C33.6765 93.7145 33.4762 93.8452 33.3285 94.0071L31.9009 93.7727L32.3569 89.2727L37.4194 89.2727L37.4194 90.5937L33.6651 90.5937L33.4137 92.9077L33.4648 92.9077C33.6268 92.7173 33.8555 92.5597 34.1509 92.4347C34.4464 92.3068 34.7702 92.2429 35.1225 92.2429C35.6509 92.2429 36.1225 92.3679 36.5373 92.6179C36.9521 92.8651 37.2788 93.206 37.5174 93.6406C37.756 94.0753 37.8754 94.5724 37.8754 95.1321C37.8754 95.7088 37.7418 96.223 37.4748 96.6747C37.2106 97.1236 36.8427 97.4773 36.3711 97.7358C35.9023 97.9915 35.3597 98.1193 34.7433 98.1193ZM42.3647 89.2727L44.2994 89.2727L46.8903 95.5966L46.9925 95.5966L49.5835 89.2727L51.5181 89.2727L51.5181 98L50.0011 98L50.0011 92.0043L49.9201 92.0043L47.5082 97.9744L46.3746 97.9744L43.9627 91.9915L43.8817 91.9915L43.8817 98L42.3647 98L42.3647 89.2727Z" fill="black"/>
<path d="M23.9077 127.119C23.294 127.119 22.7486 127.014 22.2713 126.804C21.7969 126.594 21.4219 126.301 21.1463 125.926C20.8707 125.551 20.7244 125.118 20.7074 124.626L22.3097 124.626C22.3239 124.862 22.402 125.068 22.544 125.244C22.6861 125.418 22.875 125.553 23.1108 125.649C23.3466 125.746 23.6108 125.794 23.9034 125.794C24.2159 125.794 24.4929 125.74 24.7344 125.632C24.9759 125.521 25.1648 125.368 25.3011 125.172C25.4375 124.976 25.5043 124.75 25.5014 124.494C25.5043 124.23 25.4361 123.997 25.2969 123.795C25.1577 123.594 24.956 123.436 24.6918 123.322C24.4304 123.209 24.1151 123.152 23.7457 123.152L22.9744 123.152L22.9744 121.933L23.7457 121.933C24.0497 121.933 24.3153 121.881 24.5426 121.776C24.7727 121.67 24.9531 121.523 25.0838 121.332C25.2145 121.139 25.2784 120.916 25.2756 120.663C25.2784 120.416 25.223 120.202 25.1094 120.02C24.9986 119.835 24.8409 119.692 24.6364 119.589C24.4347 119.487 24.1974 119.436 23.9247 119.436C23.6577 119.436 23.4105 119.484 23.1832 119.581C22.956 119.678 22.7727 119.815 22.6335 119.994C22.4943 120.17 22.4205 120.381 22.4119 120.625L20.8906 120.625C20.902 120.136 21.0426 119.707 21.3125 119.338C21.5852 118.966 21.9489 118.676 22.4034 118.469C22.858 118.259 23.3679 118.153 23.9332 118.153C24.5156 118.153 25.0213 118.263 25.4503 118.482C25.8821 118.697 26.2159 118.989 26.4517 119.355C26.6875 119.722 26.8054 120.126 26.8054 120.57C26.8082 121.061 26.6634 121.473 26.3707 121.805C26.081 122.138 25.7003 122.355 25.2287 122.457L25.2287 122.526C25.8423 122.611 26.3125 122.838 26.6392 123.207C26.9687 123.574 27.1321 124.03 27.1293 124.575C27.1293 125.064 26.9901 125.501 26.7116 125.888C26.4361 126.271 26.0554 126.572 25.5696 126.791C25.0866 127.01 24.5327 127.119 23.9077 127.119ZM29.3015 127.094C29.043 127.094 28.8214 127.003 28.6367 126.821C28.4521 126.639 28.3612 126.418 28.364 126.156C28.3612 125.901 28.4521 125.682 28.6367 125.5C28.8214 125.318 29.043 125.227 29.3015 125.227C29.5515 125.227 29.7688 125.318 29.9535 125.5C30.141 125.682 30.2361 125.901 30.239 126.156C30.2361 126.33 30.1907 126.487 30.1026 126.629C30.0174 126.771 29.9038 126.885 29.7617 126.97C29.6225 127.053 29.4691 127.094 29.3015 127.094ZM34.7006 127.166C33.9989 127.166 33.3967 126.989 32.8938 126.634C32.3938 126.276 32.0089 125.76 31.739 125.087C31.4719 124.411 31.3384 123.597 31.3384 122.645C31.3413 121.693 31.4762 120.884 31.7433 120.216C32.0131 119.545 32.3981 119.034 32.8981 118.682C33.4009 118.33 34.0018 118.153 34.7006 118.153C35.3995 118.153 36.0004 118.33 36.5032 118.682C37.006 119.034 37.391 119.545 37.658 120.216C37.9279 120.886 38.0629 121.696 38.0629 122.645C38.0629 123.599 37.9279 124.415 37.658 125.091C37.391 125.764 37.006 126.278 36.5032 126.634C36.0032 126.989 35.4023 127.166 34.7006 127.166ZM34.7006 125.832C35.2461 125.832 35.6765 125.564 35.9918 125.027C36.31 124.487 36.4691 123.693 36.4691 122.645C36.4691 121.952 36.3967 121.369 36.2518 120.898C36.1069 120.426 35.9023 120.071 35.6381 119.832C35.3739 119.591 35.0614 119.47 34.7006 119.47C34.158 119.47 33.729 119.74 33.4137 120.28C33.0984 120.817 32.9393 121.605 32.9364 122.645C32.9336 123.341 33.0032 123.926 33.1452 124.401C33.2901 124.875 33.4947 125.233 33.7589 125.474C34.0231 125.713 34.337 125.832 34.7006 125.832ZM42.5405 118.273L44.4751 118.273L47.066 124.597L47.1683 124.597L49.7592 118.273L51.6939 118.273L51.6939 127L50.1768 127L50.1768 121.004L50.0959 121.004L47.6839 126.974L46.5504 126.974L44.1385 120.991L44.0575 120.991L44.0575 127L42.5405 127L42.5405 118.273Z" fill="black"/>
<path d="M20.7756 156L20.7756 154.858L23.8054 151.888C24.0952 151.595 24.3366 151.335 24.5298 151.108C24.723 150.881 24.8679 150.661 24.9645 150.447C25.0611 150.234 25.1094 150.007 25.1094 149.766C25.1094 149.49 25.0469 149.254 24.9219 149.058C24.7969 148.859 24.625 148.706 24.4062 148.598C24.1875 148.49 23.9389 148.436 23.6605 148.436C23.3736 148.436 23.1222 148.496 22.9062 148.615C22.6903 148.732 22.5227 148.898 22.4034 149.114C22.2869 149.33 22.2287 149.587 22.2287 149.885L20.7244 149.885C20.7244 149.331 20.8509 148.849 21.1037 148.44C21.3565 148.031 21.7045 147.714 22.1477 147.49C22.5937 147.266 23.1051 147.153 23.6818 147.153C24.267 147.153 24.7812 147.263 25.2244 147.482C25.6676 147.7 26.0114 148 26.2557 148.381C26.5028 148.761 26.6264 149.196 26.6264 149.685C26.6264 150.011 26.5639 150.332 26.4389 150.648C26.3139 150.963 26.0937 151.312 25.7784 151.696C25.4659 152.08 25.027 152.544 24.4616 153.089L22.9574 154.619L22.9574 154.679L26.7585 154.679L26.7585 156L20.7756 156ZM29.196 156.094C28.9375 156.094 28.7159 156.003 28.5312 155.821C28.3466 155.639 28.2557 155.418 28.2585 155.156C28.2557 154.901 28.3466 154.682 28.5312 154.5C28.7159 154.318 28.9375 154.227 29.196 154.227C29.446 154.227 29.6634 154.318 29.848 154.5C30.0355 154.682 30.1307 154.901 30.1335 155.156C30.1307 155.33 30.0852 155.487 29.9972 155.629C29.9119 155.771 29.7983 155.885 29.6562 155.97C29.517 156.053 29.3636 156.094 29.196 156.094ZM34.5952 156.166C33.8935 156.166 33.2912 155.989 32.7884 155.634C32.2884 155.276 31.9034 154.76 31.6335 154.087C31.3665 153.411 31.233 152.597 31.233 151.645C31.2358 150.693 31.3707 149.884 31.6378 149.216C31.9077 148.545 32.2926 148.034 32.7926 147.682C33.2955 147.33 33.8963 147.153 34.5952 147.153C35.294 147.153 35.8949 147.33 36.3977 147.682C36.9006 148.034 37.2855 148.545 37.5526 149.216C37.8224 149.886 37.9574 150.696 37.9574 151.645C37.9574 152.599 37.8224 153.415 37.5526 154.091C37.2855 154.764 36.9006 155.278 36.3977 155.634C35.8977 155.989 35.2969 156.166 34.5952 156.166ZM34.5952 154.832C35.1406 154.832 35.571 154.564 35.8864 154.027C36.2045 153.487 36.3636 152.693 36.3636 151.645C36.3636 150.952 36.2912 150.369 36.1463 149.898C36.0014 149.426 35.7969 149.071 35.5327 148.832C35.2685 148.591 34.956 148.47 34.5952 148.47C34.0526 148.47 33.6236 148.74 33.3082 149.28C32.9929 149.817 32.8338 150.605 32.831 151.645C32.8281 152.341 32.8977 152.926 33.0398 153.401C33.1847 153.875 33.3892 154.233 33.6534 154.474C33.9176 154.713 34.2315 154.832 34.5952 154.832ZM42.435 147.273L44.3697 147.273L46.9606 153.597L47.0629 153.597L49.6538 147.273L51.5884 147.273L51.5884 156L50.0714 156L50.0714 150.004L49.9904 150.004L47.5785 155.974L46.445 155.974L44.033 149.991L43.9521 149.991L43.9521 156L42.435 156L42.435 147.273Z" fill="black"/>
<path d="M37.3253 176.273L37.3253 185L35.7443 185L35.7443 177.811L35.6932 177.811L33.652 179.115L33.652 177.666L35.821 176.273L37.3253 176.273ZM42.603 176.273L44.5376 176.273L47.1286 182.597L47.2308 182.597L49.8217 176.273L51.7564 176.273L51.7564 185L50.2393 185L50.2393 179.004L50.1584 179.004L47.7464 184.974L46.6129 184.974L44.201 178.991L44.12 178.991L44.12 185L42.603 185L42.603 176.273Z" fill="black"/>
<path d="M77 86L355 86" stroke="black" stroke-linejoin="bevel" stroke-dasharray="1 6"/>
<path d="M77 176L355 176" stroke="black" stroke-linejoin="bevel" stroke-dasharray="1 6"/>
<path d="M64.304 207.273L65.8722 207.273L65.8722 213.409C65.8693 213.972 65.75 214.456 65.5142 214.862C65.2784 215.266 64.9489 215.577 64.5256 215.795C64.1051 216.011 63.6151 216.119 63.0554 216.119C62.544 216.119 62.0838 216.028 61.6747 215.847C61.2685 215.662 60.946 215.389 60.7074 215.028C60.4687 214.668 60.3494 214.219 60.3494 213.682L61.9219 213.682C61.9247 213.918 61.9759 214.121 62.0753 214.291C62.1776 214.462 62.3182 214.592 62.4972 214.683C62.6761 214.774 62.8821 214.82 63.1151 214.82C63.3679 214.82 63.5824 214.767 63.7585 214.662C63.9347 214.554 64.0682 214.395 64.1591 214.185C64.2528 213.974 64.3011 213.716 64.304 213.409L64.304 207.273ZM68.7081 216L67.0206 216L70.093 207.273L72.0447 207.273L75.1214 216L73.4339 216L71.103 209.062L71.0348 209.062L68.7081 216ZM68.7635 212.578L73.3658 212.578L73.3658 213.848L68.7635 213.848L68.7635 212.578ZM83.4428 207.273L83.4428 216L82.0366 216L77.9244 210.055L77.8519 210.055L77.8519 216L76.271 216L76.271 207.273L77.6857 207.273L81.7937 213.222L81.8704 213.222L81.8704 207.273L83.4428 207.273Z" fill="black"/>
<path d="M128.611 216L128.611 207.273L134.202 207.273L134.202 208.598L130.192 208.598L130.192 210.967L133.818 210.967L133.818 212.293L130.192 212.293L130.192 216L128.611 216ZM135.642 216L135.642 207.273L141.318 207.273L141.318 208.598L137.223 208.598L137.223 210.967L141.024 210.967L141.024 212.293L137.223 212.293L137.223 214.675L141.352 214.675L141.352 216L135.642 216ZM142.931 216L142.931 207.273L146.272 207.273C146.903 207.273 147.427 207.372 147.844 207.571C148.265 207.767 148.579 208.036 148.786 208.376C148.996 208.717 149.102 209.104 149.102 209.536C149.102 209.891 149.033 210.195 148.897 210.447C148.761 210.697 148.577 210.901 148.347 211.057C148.117 211.213 147.86 211.325 147.576 211.393L147.576 211.479C147.886 211.496 148.183 211.591 148.467 211.764C148.754 211.935 148.988 212.176 149.17 212.489C149.352 212.801 149.442 213.179 149.442 213.622C149.442 214.074 149.333 214.48 149.114 214.841C148.896 215.199 148.566 215.482 148.126 215.689C147.685 215.896 147.131 216 146.464 216L142.931 216ZM144.512 214.679L146.212 214.679C146.786 214.679 147.2 214.57 147.452 214.351C147.708 214.129 147.836 213.845 147.836 213.499C147.836 213.24 147.772 213.007 147.644 212.8C147.516 212.589 147.335 212.425 147.099 212.305C146.863 212.183 146.582 212.122 146.255 212.122L144.512 212.122L144.512 214.679ZM144.512 210.984L146.076 210.984C146.349 210.984 146.594 210.935 146.813 210.835C147.032 210.733 147.204 210.589 147.329 210.405C147.457 210.217 147.521 209.996 147.521 209.74C147.521 209.402 147.401 209.124 147.163 208.905C146.927 208.686 146.576 208.577 146.11 208.577L144.512 208.577L144.512 210.984Z" fill="black"/>
<path d="M194.361 207.273L196.295 207.273L198.886 213.597L198.989 213.597L201.58 207.273L203.514 207.273L203.514 216L201.997 216L201.997 210.004L201.916 210.004L199.504 215.974L198.371 215.974L195.959 209.991L195.878 209.991L195.878 216L194.361 216L194.361 207.273ZM206.357 216L204.669 216L207.741 207.273L209.693 207.273L212.77 216L211.082 216L208.751 209.062L208.683 209.062L206.357 216ZM206.412 212.578L211.014 212.578L211.014 213.848L206.412 213.848L206.412 212.578ZM213.919 216L213.919 207.273L217.192 207.273C217.863 207.273 218.425 207.389 218.88 207.622C219.337 207.855 219.682 208.182 219.915 208.602C220.151 209.02 220.269 209.507 220.269 210.064C220.269 210.624 220.15 211.109 219.911 211.521C219.675 211.93 219.327 212.247 218.867 212.472C218.407 212.693 217.841 212.804 217.171 212.804L214.84 212.804L214.84 211.491L216.958 211.491C217.35 211.491 217.671 211.437 217.921 211.33C218.171 211.219 218.355 211.058 218.475 210.848C218.597 210.635 218.658 210.374 218.658 210.064C218.658 209.754 218.597 209.49 218.475 209.271C218.353 209.05 218.167 208.882 217.917 208.768C217.667 208.652 217.344 208.594 216.949 208.594L215.5 208.594L215.5 216L213.919 216ZM218.428 212.045L220.588 216L218.824 216L216.702 212.045L218.428 212.045Z" fill="black"/>
<path d="M266.232 216L264.544 216L267.616 207.273L269.568 207.273L272.645 216L270.957 216L268.626 209.062L268.558 209.062L266.232 216ZM266.287 212.578L270.889 212.578L270.889 213.848L266.287 213.848L266.287 212.578ZM273.794 216L273.794 207.273L277.067 207.273C277.738 207.273 278.3 207.398 278.755 207.648C279.212 207.898 279.557 208.241 279.79 208.679C280.026 209.114 280.144 209.608 280.144 210.162C280.144 210.722 280.026 211.219 279.79 211.653C279.554 212.088 279.206 212.43 278.746 212.68C278.286 212.928 277.719 213.051 277.046 213.051L274.877 213.051L274.877 211.751L276.833 211.751C277.225 211.751 277.546 211.683 277.796 211.547C278.046 211.411 278.23 211.223 278.35 210.984C278.472 210.746 278.533 210.472 278.533 210.162C278.533 209.852 278.472 209.58 278.35 209.344C278.23 209.108 278.044 208.925 277.792 208.794C277.542 208.661 277.219 208.594 276.824 208.594L275.375 208.594L275.375 216L273.794 216ZM281.517 216L281.517 207.273L284.79 207.273C285.46 207.273 286.023 207.389 286.477 207.622C286.935 207.855 287.28 208.182 287.513 208.602C287.749 209.02 287.866 209.507 287.866 210.064C287.866 210.624 287.747 211.109 287.509 211.521C287.273 211.93 286.925 212.247 286.464 212.472C286.004 212.693 285.439 212.804 284.768 212.804L282.437 212.804L282.437 211.491L284.555 211.491C284.947 211.491 285.268 211.437 285.518 211.33C285.768 211.219 285.953 211.058 286.072 210.848C286.195 210.635 286.256 210.374 286.256 210.064C286.256 209.754 286.195 209.49 286.072 209.271C285.95 209.05 285.764 208.882 285.514 208.768C285.264 208.652 284.942 208.594 284.547 208.594L283.098 208.594L283.098 216L281.517 216ZM286.026 212.045L288.186 216L286.422 216L284.3 212.045L286.026 212.045Z" fill="black"/>
<path d="M332.861 207.273L334.795 207.273L337.386 213.597L337.489 213.597L340.08 207.273L342.014 207.273L342.014 216L340.497 216L340.497 210.004L340.416 210.004L338.004 215.974L336.871 215.974L334.459 209.991L334.378 209.991L334.378 216L332.861 216L332.861 207.273ZM344.857 216L343.169 216L346.241 207.273L348.193 207.273L351.27 216L349.582 216L347.251 209.062L347.183 209.062L344.857 216ZM344.912 212.578L349.514 212.578L349.514 213.848L344.912 213.848L344.912 212.578ZM354 207.273L354 216L352.419 216L352.419 207.273L354 207.273Z" fill="black"/>
</g>
<defs>
<clipPath id="clip0_4040_899">
<rect width="375" height="239" fill="white"/>
</clipPath>
</defs>
</svg>
